<?xml version="1.0"?>
<svg xmlns="http://www.w3.org/2000/svg" xmlns:xlink="http://www.w3.org/1999/xlink" viewBox="0 0 294.600000 240.000000" width="147.300000mm" height="120.000000mm" version="1.1">
<a xlink:href="process.svg">
<rect x="1.000000" y="1.000000" width="293.600000" height="239.000000" rx="0" ry="0" style="stroke:none;fill:#cccccc;"/>
<rect x="0.000000" y="0.000000" width="293.600000" height="239.000000" rx="0" ry="0" style="stroke:none;fill:#ffffff;"/>
</a>
<text x="10.000000" y="7.000000" font-family="Arial" font-size="7"></text>
<a xlink:href="vmeter-0x7f8443cd0220.svg">
<rect x="108.000000" y="35.000000" width="25.800000" height="24.000000" rx="0" ry="0" style="stroke:none;fill:#cccccc;"/>
<rect x="107.000000" y="34.000000" width="25.800000" height="24.000000" rx="0" ry="0" style="stroke:none;fill:#003366;"/>
</a>
<a xlink:href="vmeter-0x7f8443cd0220.svg">
<text x="119.900000" y="48.000000" font-family="Arial" font-size="7" text-anchor="middle" fill="#FFFFFF">vmeter</text>
</a>
<circle cx="109.000000" cy="36.000000" r="1"/>
<line x1="104.000000" y1="45.000000" x2="107.000000" y2="46.000000"  transform="rotate(0.000000,107.000000,46.000000)" style="stroke: black; stroke-width:0.25;"/>
<line x1="104.000000" y1="47.000000" x2="107.000000" y2="46.000000"  transform="rotate(0.000000,107.000000,46.000000)" style="stroke: black; stroke-width:0.25;"/>
<a xlink:href="atdLF-0x7f8443d024a0.svg">
<rect x="108.000000" y="77.000000" width="25.800000" height="24.000000" rx="0" ry="0" style="stroke:none;fill:#cccccc;"/>
<rect x="107.000000" y="76.000000" width="25.800000" height="24.000000" rx="0" ry="0" style="stroke:none;fill:#003366;"/>
</a>
<a xlink:href="atdLF-0x7f8443d024a0.svg">
<text x="119.900000" y="90.000000" font-family="Arial" font-size="7" text-anchor="middle" fill="#FFFFFF">atdLF</text>
</a>
<circle cx="109.000000" cy="78.000000" r="1"/>
<line x1="104.000000" y1="87.000000" x2="107.000000" y2="88.000000"  transform="rotate(0.000000,107.000000,88.000000)" style="stroke: black; stroke-width:0.25;"/>
<line x1="104.000000" y1="89.000000" x2="107.000000" y2="88.000000"  transform="rotate(0.000000,107.000000,88.000000)" style="stroke: black; stroke-width:0.25;"/>
<a xlink:href="atdRF-0x7f8443d2c9c0.svg">
<rect x="108.000000" y="109.000000" width="25.800000" height="24.000000" rx="0" ry="0" style="stroke:none;fill:#cccccc;"/>
<rect x="107.000000" y="108.000000" width="25.800000" height="24.000000" rx="0" ry="0" style="stroke:none;fill:#003366;"/>
</a>
<a xlink:href="atdRF-0x7f8443d2c9c0.svg">
<text x="119.900000" y="122.000000" font-family="Arial" font-size="7" text-anchor="middle" fill="#FFFFFF">atdRF</text>
</a>
<circle cx="109.000000" cy="110.000000" r="1"/>
<line x1="104.000000" y1="119.000000" x2="107.000000" y2="120.000000"  transform="rotate(0.000000,107.000000,120.000000)" style="stroke: black; stroke-width:0.25;"/>
<line x1="104.000000" y1="121.000000" x2="107.000000" y2="120.000000"  transform="rotate(0.000000,107.000000,120.000000)" style="stroke: black; stroke-width:0.25;"/>
<a xlink:href="atdLB-0x7f8443d56f90.svg">
<rect x="108.000000" y="141.000000" width="25.800000" height="24.000000" rx="0" ry="0" style="stroke:none;fill:#cccccc;"/>
<rect x="107.000000" y="140.000000" width="25.800000" height="24.000000" rx="0" ry="0" style="stroke:none;fill:#003366;"/>
</a>
<a xlink:href="atdLB-0x7f8443d56f90.svg">
<text x="119.900000" y="154.000000" font-family="Arial" font-size="7" text-anchor="middle" fill="#FFFFFF">atdLB</text>
</a>
<circle cx="109.000000" cy="142.000000" r="1"/>
<line x1="104.000000" y1="151.000000" x2="107.000000" y2="152.000000"  transform="rotate(0.000000,107.000000,152.000000)" style="stroke: black; stroke-width:0.25;"/>
<line x1="104.000000" y1="153.000000" x2="107.000000" y2="152.000000"  transform="rotate(0.000000,107.000000,152.000000)" style="stroke: black; stroke-width:0.25;"/>
<a xlink:href="atdRB-0x7f8443bec3f0.svg">
<rect x="108.000000" y="173.000000" width="25.800000" height="24.000000" rx="0" ry="0" style="stroke:none;fill:#cccccc;"/>
<rect x="107.000000" y="172.000000" width="25.800000" height="24.000000" rx="0" ry="0" style="stroke:none;fill:#003366;"/>
</a>
<a xlink:href="atdRB-0x7f8443bec3f0.svg">
<text x="119.900000" y="186.000000" font-family="Arial" font-size="7" text-anchor="middle" fill="#FFFFFF">atdRB</text>
</a>
<circle cx="109.000000" cy="174.000000" r="1"/>
<line x1="104.000000" y1="183.000000" x2="107.000000" y2="184.000000"  transform="rotate(0.000000,107.000000,184.000000)" style="stroke: black; stroke-width:0.25;"/>
<line x1="104.000000" y1="185.000000" x2="107.000000" y2="184.000000"  transform="rotate(0.000000,107.000000,184.000000)" style="stroke: black; stroke-width:0.25;"/>
<line x1="98.000000" y1="67.000000" x2="98.000000" y2="205.000000"  style="stroke: black; stroke-linecap:round; stroke-width:0.25; stroke-dasharray:3,3;"/>
<line x1="98.000000" y1="205.000000" x2="141.800000" y2="205.000000"  style="stroke: black; stroke-linecap:round; stroke-width:0.25; stroke-dasharray:3,3;"/>
<line x1="141.800000" y1="205.000000" x2="141.800000" y2="67.000000"  style="stroke: black; stroke-linecap:round; stroke-width:0.25; stroke-dasharray:3,3;"/>
<line x1="98.000000" y1="67.000000" x2="103.000000" y2="67.000000"  style="stroke: black; stroke-linecap:round; stroke-width:0.25; stroke-dasharray:3,3;"/>
<line x1="141.800000" y1="67.000000" x2="141.800000" y2="67.000000"  style="stroke: black; stroke-linecap:round; stroke-width:0.25; stroke-dasharray:3,3;"/>
<text x="103.000000" y="69.000000" font-family="Arial" font-size="7">vgroup(Delay)</text>
<a xlink:href="pgm3LF-0x7f8443becb60.svg">
<rect x="201.800000" y="61.040000" width="25.800000" height="24.000000" rx="0" ry="0" style="stroke:none;fill:#cccccc;"/>
<rect x="200.800000" y="60.040000" width="25.800000" height="24.000000" rx="0" ry="0" style="stroke:none;fill:#003366;"/>
</a>
<a xlink:href="pgm3LF-0x7f8443becb60.svg">
<text x="213.700000" y="74.040000" font-family="Arial" font-size="7" text-anchor="middle" fill="#FFFFFF">pgm3LF</text>
</a>
<circle cx="202.800000" cy="62.040000" r="1"/>
<line x1="197.800000" y1="71.040000" x2="200.800000" y2="72.040000"  transform="rotate(0.000000,200.800000,72.040000)" style="stroke: black; stroke-width:0.25;"/>
<line x1="197.800000" y1="73.040000" x2="200.800000" y2="72.040000"  transform="rotate(0.000000,200.800000,72.040000)" style="stroke: black; stroke-width:0.25;"/>
<a xlink:href="pgm3RF-0x7f8443becc60.svg">
<rect x="201.800000" y="93.040000" width="25.800000" height="24.000000" rx="0" ry="0" style="stroke:none;fill:#cccccc;"/>
<rect x="200.800000" y="92.040000" width="25.800000" height="24.000000" rx="0" ry="0" style="stroke:none;fill:#003366;"/>
</a>
<a xlink:href="pgm3RF-0x7f8443becc60.svg">
<text x="213.700000" y="106.040000" font-family="Arial" font-size="7" text-anchor="middle" fill="#FFFFFF">pgm3RF</text>
</a>
<circle cx="202.800000" cy="94.040000" r="1"/>
<line x1="197.800000" y1="103.040000" x2="200.800000" y2="104.040000"  transform="rotate(0.000000,200.800000,104.040000)" style="stroke: black; stroke-width:0.25;"/>
<line x1="197.800000" y1="105.040000" x2="200.800000" y2="104.040000"  transform="rotate(0.000000,200.800000,104.040000)" style="stroke: black; stroke-width:0.25;"/>
<a xlink:href="pgm4LB-0x7f8443becd70.svg">
<rect x="201.800000" y="125.040000" width="25.800000" height="24.000000" rx="0" ry="0" style="stroke:none;fill:#cccccc;"/>
<rect x="200.800000" y="124.040000" width="25.800000" height="24.000000" rx="0" ry="0" style="stroke:none;fill:#003366;"/>
</a>
<a xlink:href="pgm4LB-0x7f8443becd70.svg">
<text x="213.700000" y="138.040000" font-family="Arial" font-size="7" text-anchor="middle" fill="#FFFFFF">pgm4LB</text>
</a>
<circle cx="202.800000" cy="126.040000" r="1"/>
<line x1="197.800000" y1="135.040000" x2="200.800000" y2="136.040000"  transform="rotate(0.000000,200.800000,136.040000)" style="stroke: black; stroke-width:0.25;"/>
<line x1="197.800000" y1="137.040000" x2="200.800000" y2="136.040000"  transform="rotate(0.000000,200.800000,136.040000)" style="stroke: black; stroke-width:0.25;"/>
<a xlink:href="pgm4RB-0x7f8443bece70.svg">
<rect x="201.800000" y="157.040000" width="25.800000" height="24.000000" rx="0" ry="0" style="stroke:none;fill:#cccccc;"/>
<rect x="200.800000" y="156.040000" width="25.800000" height="24.000000" rx="0" ry="0" style="stroke:none;fill:#003366;"/>
</a>
<a xlink:href="pgm4RB-0x7f8443bece70.svg">
<text x="213.700000" y="170.040000" font-family="Arial" font-size="7" text-anchor="middle" fill="#FFFFFF">pgm4RB</text>
</a>
<circle cx="202.800000" cy="158.040000" r="1"/>
<line x1="197.800000" y1="167.040000" x2="200.800000" y2="168.040000"  transform="rotate(0.000000,200.800000,168.040000)" style="stroke: black; stroke-width:0.25;"/>
<line x1="197.800000" y1="169.040000" x2="200.800000" y2="168.040000"  transform="rotate(0.000000,200.800000,168.040000)" style="stroke: black; stroke-width:0.25;"/>
<line x1="191.800000" y1="51.040000" x2="191.800000" y2="189.040000"  style="stroke: black; stroke-linecap:round; stroke-width:0.25; stroke-dasharray:3,3;"/>
<line x1="191.800000" y1="189.040000" x2="235.600000" y2="189.040000"  style="stroke: black; stroke-linecap:round; stroke-width:0.25; stroke-dasharray:3,3;"/>
<line x1="235.600000" y1="189.040000" x2="235.600000" y2="51.040000"  style="stroke: black; stroke-linecap:round; stroke-width:0.25; stroke-dasharray:3,3;"/>
<line x1="191.800000" y1="51.040000" x2="196.800000" y2="51.040000"  style="stroke: black; stroke-linecap:round; stroke-width:0.25; stroke-dasharray:3,3;"/>
<line x1="235.600000" y1="51.040000" x2="235.600000" y2="51.040000"  style="stroke: black; stroke-linecap:round; stroke-width:0.25; stroke-dasharray:3,3;"/>
<text x="196.800000" y="53.040000" font-family="Arial" font-size="7">hgroup(Out Fader)</text>
<line x1="33.000000" y1="25.000000" x2="33.000000" y2="215.000000"  style="stroke: black; stroke-linecap:round; stroke-width:0.25; stroke-dasharray:3,3;"/>
<line x1="33.000000" y1="215.000000" x2="245.600000" y2="215.000000"  style="stroke: black; stroke-linecap:round; stroke-width:0.25; stroke-dasharray:3,3;"/>
<line x1="245.600000" y1="215.000000" x2="245.600000" y2="25.000000"  style="stroke: black; stroke-linecap:round; stroke-width:0.25; stroke-dasharray:3,3;"/>
<line x1="33.000000" y1="25.000000" x2="38.000000" y2="25.000000"  style="stroke: black; stroke-linecap:round; stroke-width:0.25; stroke-dasharray:3,3;"/>
<line x1="154.100000" y1="25.000000" x2="245.600000" y2="25.000000"  style="stroke: black; stroke-linecap:round; stroke-width:0.25; stroke-dasharray:3,3;"/>
<text x="38.000000" y="27.000000" font-family="Arial" font-size="7">hgroup(Amplificazione Trasparente)</text>
<line x1="15.000000" y1="15.000000" x2="15.000000" y2="225.000000"  style="stroke: black; stroke-linecap:round; stroke-width:0.25; stroke-dasharray:3,3;"/>
<line x1="15.000000" y1="225.000000" x2="279.600000" y2="225.000000"  style="stroke: black; stroke-linecap:round; stroke-width:0.25; stroke-dasharray:3,3;"/>
<line x1="279.600000" y1="225.000000" x2="279.600000" y2="15.000000"  style="stroke: black; stroke-linecap:round; stroke-width:0.25; stroke-dasharray:3,3;"/>
<line x1="15.000000" y1="15.000000" x2="20.000000" y2="15.000000"  style="stroke: black; stroke-linecap:round; stroke-width:0.25; stroke-dasharray:3,3;"/>
<line x1="32.900000" y1="15.000000" x2="279.600000" y2="15.000000"  style="stroke: black; stroke-linecap:round; stroke-width:0.25; stroke-dasharray:3,3;"/>
<text x="20.000000" y="17.000000" font-family="Arial" font-size="7">AT</text>
<line x1="281.600000" y1="107.000000" x2="284.600000" y2="108.000000"  transform="rotate(0.000000,284.600000,108.000000)" style="stroke: black; stroke-width:0.25;"/>
<line x1="281.600000" y1="109.000000" x2="284.600000" y2="108.000000"  transform="rotate(0.000000,284.600000,108.000000)" style="stroke: black; stroke-width:0.25;"/>
<line x1="281.600000" y1="115.000000" x2="284.600000" y2="116.000000"  transform="rotate(0.000000,284.600000,116.000000)" style="stroke: black; stroke-width:0.25;"/>
<line x1="281.600000" y1="117.000000" x2="284.600000" y2="116.000000"  transform="rotate(0.000000,284.600000,116.000000)" style="stroke: black; stroke-width:0.25;"/>
<line x1="281.600000" y1="123.000000" x2="284.600000" y2="124.000000"  transform="rotate(0.000000,284.600000,124.000000)" style="stroke: black; stroke-width:0.25;"/>
<line x1="281.600000" y1="125.000000" x2="284.600000" y2="124.000000"  transform="rotate(0.000000,284.600000,124.000000)" style="stroke: black; stroke-width:0.25;"/>
<line x1="281.600000" y1="131.000000" x2="284.600000" y2="132.000000"  transform="rotate(0.000000,284.600000,132.000000)" style="stroke: black; stroke-width:0.25;"/>
<line x1="281.600000" y1="133.000000" x2="284.600000" y2="132.000000"  transform="rotate(0.000000,284.600000,132.000000)" style="stroke: black; stroke-width:0.25;"/>
<line x1="10.000000" y1="120.000000" x2="20.000000" y2="120.000000"  style="stroke:black; stroke-linecap:round; stroke-width:0.25;"/>
<line x1="20.000000" y1="120.000000" x2="24.000000" y2="120.000000"  style="stroke:black; stroke-linecap:round; stroke-width:0.25;"/>
<line x1="24.000000" y1="120.000000" x2="28.000000" y2="120.000000"  style="stroke:black; stroke-linecap:round; stroke-width:0.25;"/>
<line x1="28.000000" y1="120.000000" x2="28.000000" y2="120.000000"  style="stroke:black; stroke-linecap:round; stroke-width:0.25;"/>
<line x1="28.000000" y1="120.000000" x2="38.000000" y2="120.000000"  style="stroke:black; stroke-linecap:round; stroke-width:0.25;"/>
<line x1="38.000000" y1="120.000000" x2="42.000000" y2="120.000000"  style="stroke:black; stroke-linecap:round; stroke-width:0.25;"/>
<line x1="42.000000" y1="120.000000" x2="46.000000" y2="120.000000"  style="stroke:black; stroke-linecap:round; stroke-width:0.25;"/>
<line x1="46.000000" y1="120.000000" x2="93.000000" y2="46.000000"  style="stroke:black; stroke-linecap:round; stroke-width:0.25;"/>
<line x1="46.000000" y1="120.000000" x2="93.000000" y2="88.000000"  style="stroke:black; stroke-linecap:round; stroke-width:0.25;"/>
<line x1="46.000000" y1="120.000000" x2="93.000000" y2="120.000000"  style="stroke:black; stroke-linecap:round; stroke-width:0.25;"/>
<line x1="46.000000" y1="120.000000" x2="93.000000" y2="152.000000"  style="stroke:black; stroke-linecap:round; stroke-width:0.25;"/>
<line x1="46.000000" y1="120.000000" x2="93.000000" y2="184.000000"  style="stroke:black; stroke-linecap:round; stroke-width:0.25;"/>
<line x1="93.000000" y1="46.000000" x2="103.000000" y2="46.000000"  style="stroke:black; stroke-linecap:round; stroke-width:0.25;"/>
<line x1="93.000000" y1="88.000000" x2="103.000000" y2="88.000000"  style="stroke:black; stroke-linecap:round; stroke-width:0.25;"/>
<line x1="93.000000" y1="120.000000" x2="103.000000" y2="120.000000"  style="stroke:black; stroke-linecap:round; stroke-width:0.25;"/>
<line x1="93.000000" y1="152.000000" x2="103.000000" y2="152.000000"  style="stroke:black; stroke-linecap:round; stroke-width:0.25;"/>
<line x1="93.000000" y1="184.000000" x2="103.000000" y2="184.000000"  style="stroke:black; stroke-linecap:round; stroke-width:0.25;"/>
<line x1="103.000000" y1="46.000000" x2="107.000000" y2="46.000000"  style="stroke:black; stroke-linecap:round; stroke-width:0.25;"/>
<line x1="103.000000" y1="88.000000" x2="107.000000" y2="88.000000"  style="stroke:black; stroke-linecap:round; stroke-width:0.25;"/>
<line x1="103.000000" y1="120.000000" x2="107.000000" y2="120.000000"  style="stroke:black; stroke-linecap:round; stroke-width:0.25;"/>
<line x1="103.000000" y1="152.000000" x2="107.000000" y2="152.000000"  style="stroke:black; stroke-linecap:round; stroke-width:0.25;"/>
<line x1="103.000000" y1="184.000000" x2="107.000000" y2="184.000000"  style="stroke:black; stroke-linecap:round; stroke-width:0.25;"/>
<line x1="132.800000" y1="88.000000" x2="136.800000" y2="88.000000"  style="stroke:black; stroke-linecap:round; stroke-width:0.25;"/>
<line x1="132.800000" y1="120.000000" x2="136.800000" y2="120.000000"  style="stroke:black; stroke-linecap:round; stroke-width:0.25;"/>
<line x1="132.800000" y1="152.000000" x2="136.800000" y2="152.000000"  style="stroke:black; stroke-linecap:round; stroke-width:0.25;"/>
<line x1="132.800000" y1="184.000000" x2="136.800000" y2="184.000000"  style="stroke:black; stroke-linecap:round; stroke-width:0.25;"/>
<line x1="136.800000" y1="88.000000" x2="146.800000" y2="88.000000"  style="stroke:black; stroke-linecap:round; stroke-width:0.25;"/>
<line x1="136.800000" y1="120.000000" x2="146.800000" y2="120.000000"  style="stroke:black; stroke-linecap:round; stroke-width:0.25;"/>
<line x1="136.800000" y1="152.000000" x2="146.800000" y2="152.000000"  style="stroke:black; stroke-linecap:round; stroke-width:0.25;"/>
<line x1="136.800000" y1="184.000000" x2="146.800000" y2="184.000000"  style="stroke:black; stroke-linecap:round; stroke-width:0.25;"/>
<line x1="146.800000" y1="88.000000" x2="154.800000" y2="88.000000"  style="stroke:black; stroke-linecap:round; stroke-width:0.25;"/>
<line x1="146.800000" y1="120.000000" x2="162.800000" y2="120.000000"  style="stroke:black; stroke-linecap:round; stroke-width:0.25;"/>
<line x1="146.800000" y1="152.000000" x2="170.800000" y2="152.000000"  style="stroke:black; stroke-linecap:round; stroke-width:0.25;"/>
<line x1="146.800000" y1="184.000000" x2="178.800000" y2="184.000000"  style="stroke:black; stroke-linecap:round; stroke-width:0.25;"/>
<line x1="154.800000" y1="72.040000" x2="186.800000" y2="72.040000"  style="stroke:black; stroke-linecap:round; stroke-width:0.25;"/>
<line x1="154.800000" y1="88.000000" x2="154.800000" y2="72.040000"  style="stroke:black; stroke-linecap:round; stroke-width:0.25;"/>
<line x1="162.800000" y1="104.040000" x2="186.800000" y2="104.040000"  style="stroke:black; stroke-linecap:round; stroke-width:0.25;"/>
<line x1="162.800000" y1="120.000000" x2="162.800000" y2="104.040000"  style="stroke:black; stroke-linecap:round; stroke-width:0.25;"/>
<line x1="170.800000" y1="136.040000" x2="186.800000" y2="136.040000"  style="stroke:black; stroke-linecap:round; stroke-width:0.25;"/>
<line x1="170.800000" y1="152.000000" x2="170.800000" y2="136.040000"  style="stroke:black; stroke-linecap:round; stroke-width:0.25;"/>
<line x1="178.800000" y1="168.040000" x2="186.800000" y2="168.040000"  style="stroke:black; stroke-linecap:round; stroke-width:0.25;"/>
<line x1="178.800000" y1="184.000000" x2="178.800000" y2="168.040000"  style="stroke:black; stroke-linecap:round; stroke-width:0.25;"/>
<line x1="186.800000" y1="72.040000" x2="196.800000" y2="72.040000"  style="stroke:black; stroke-linecap:round; stroke-width:0.25;"/>
<line x1="186.800000" y1="104.040000" x2="196.800000" y2="104.040000"  style="stroke:black; stroke-linecap:round; stroke-width:0.25;"/>
<line x1="186.800000" y1="136.040000" x2="196.800000" y2="136.040000"  style="stroke:black; stroke-linecap:round; stroke-width:0.25;"/>
<line x1="186.800000" y1="168.040000" x2="196.800000" y2="168.040000"  style="stroke:black; stroke-linecap:round; stroke-width:0.25;"/>
<line x1="196.800000" y1="72.040000" x2="200.800000" y2="72.040000"  style="stroke:black; stroke-linecap:round; stroke-width:0.25;"/>
<line x1="196.800000" y1="104.040000" x2="200.800000" y2="104.040000"  style="stroke:black; stroke-linecap:round; stroke-width:0.25;"/>
<line x1="196.800000" y1="136.040000" x2="200.800000" y2="136.040000"  style="stroke:black; stroke-linecap:round; stroke-width:0.25;"/>
<line x1="196.800000" y1="168.040000" x2="200.800000" y2="168.040000"  style="stroke:black; stroke-linecap:round; stroke-width:0.25;"/>
<line x1="226.600000" y1="72.040000" x2="230.600000" y2="72.040000"  style="stroke:black; stroke-linecap:round; stroke-width:0.25;"/>
<line x1="226.600000" y1="104.040000" x2="230.600000" y2="104.040000"  style="stroke:black; stroke-linecap:round; stroke-width:0.25;"/>
<line x1="226.600000" y1="136.040000" x2="230.600000" y2="136.040000"  style="stroke:black; stroke-linecap:round; stroke-width:0.25;"/>
<line x1="226.600000" y1="168.040000" x2="230.600000" y2="168.040000"  style="stroke:black; stroke-linecap:round; stroke-width:0.25;"/>
<line x1="230.600000" y1="72.040000" x2="240.600000" y2="72.040000"  style="stroke:black; stroke-linecap:round; stroke-width:0.25;"/>
<line x1="230.600000" y1="104.040000" x2="240.600000" y2="104.040000"  style="stroke:black; stroke-linecap:round; stroke-width:0.25;"/>
<line x1="230.600000" y1="136.040000" x2="240.600000" y2="136.040000"  style="stroke:black; stroke-linecap:round; stroke-width:0.25;"/>
<line x1="230.600000" y1="168.040000" x2="240.600000" y2="168.040000"  style="stroke:black; stroke-linecap:round; stroke-width:0.25;"/>
<line x1="240.600000" y1="72.040000" x2="250.600000" y2="72.040000"  style="stroke:black; stroke-linecap:round; stroke-width:0.25;"/>
<line x1="240.600000" y1="104.040000" x2="250.600000" y2="104.040000"  style="stroke:black; stroke-linecap:round; stroke-width:0.25;"/>
<line x1="240.600000" y1="136.040000" x2="250.600000" y2="136.040000"  style="stroke:black; stroke-linecap:round; stroke-width:0.25;"/>
<line x1="240.600000" y1="168.040000" x2="250.600000" y2="168.040000"  style="stroke:black; stroke-linecap:round; stroke-width:0.25;"/>
<line x1="250.600000" y1="72.040000" x2="266.600000" y2="72.040000"  style="stroke:black; stroke-linecap:round; stroke-width:0.25;"/>
<line x1="250.600000" y1="104.040000" x2="258.600000" y2="104.040000"  style="stroke:black; stroke-linecap:round; stroke-width:0.25;"/>
<line x1="250.600000" y1="124.000000" x2="266.600000" y2="124.000000"  style="stroke:black; stroke-linecap:round; stroke-width:0.25;"/>
<line x1="250.600000" y1="136.040000" x2="250.600000" y2="124.000000"  style="stroke:black; stroke-linecap:round; stroke-width:0.25;"/>
<line x1="250.600000" y1="136.040000" x2="250.600000" y2="136.040000"  style="stroke:black; stroke-linecap:round; stroke-width:0.25;"/>
<line x1="250.600000" y1="168.040000" x2="258.600000" y2="168.040000"  style="stroke:black; stroke-linecap:round; stroke-width:0.25;"/>
<line x1="258.600000" y1="104.040000" x2="258.600000" y2="116.000000"  style="stroke:black; stroke-linecap:round; stroke-width:0.25;"/>
<line x1="258.600000" y1="116.000000" x2="266.600000" y2="116.000000"  style="stroke:black; stroke-linecap:round; stroke-width:0.25;"/>
<line x1="258.600000" y1="132.000000" x2="266.600000" y2="132.000000"  style="stroke:black; stroke-linecap:round; stroke-width:0.25;"/>
<line x1="258.600000" y1="168.040000" x2="258.600000" y2="132.000000"  style="stroke:black; stroke-linecap:round; stroke-width:0.25;"/>
<line x1="266.600000" y1="72.040000" x2="266.600000" y2="108.000000"  style="stroke:black; stroke-linecap:round; stroke-width:0.25;"/>
<line x1="266.600000" y1="108.000000" x2="266.600000" y2="108.000000"  style="stroke:black; stroke-linecap:round; stroke-width:0.25;"/>
<line x1="266.600000" y1="108.000000" x2="270.600000" y2="108.000000"  style="stroke:black; stroke-linecap:round; stroke-width:0.25;"/>
<line x1="266.600000" y1="116.000000" x2="270.600000" y2="116.000000"  style="stroke:black; stroke-linecap:round; stroke-width:0.25;"/>
<line x1="266.600000" y1="124.000000" x2="270.600000" y2="124.000000"  style="stroke:black; stroke-linecap:round; stroke-width:0.25;"/>
<line x1="266.600000" y1="132.000000" x2="270.600000" y2="132.000000"  style="stroke:black; stroke-linecap:round; stroke-width:0.25;"/>
<line x1="270.600000" y1="108.000000" x2="274.600000" y2="108.000000"  style="stroke:black; stroke-linecap:round; stroke-width:0.25;"/>
<line x1="270.600000" y1="116.000000" x2="274.600000" y2="116.000000"  style="stroke:black; stroke-linecap:round; stroke-width:0.25;"/>
<line x1="270.600000" y1="124.000000" x2="274.600000" y2="124.000000"  style="stroke:black; stroke-linecap:round; stroke-width:0.25;"/>
<line x1="270.600000" y1="132.000000" x2="274.600000" y2="132.000000"  style="stroke:black; stroke-linecap:round; stroke-width:0.25;"/>
<line x1="274.600000" y1="108.000000" x2="284.600000" y2="108.000000"  style="stroke:black; stroke-linecap:round; stroke-width:0.25;"/>
<line x1="274.600000" y1="116.000000" x2="284.600000" y2="116.000000"  style="stroke:black; stroke-linecap:round; stroke-width:0.25;"/>
<line x1="274.600000" y1="124.000000" x2="284.600000" y2="124.000000"  style="stroke:black; stroke-linecap:round; stroke-width:0.25;"/>
<line x1="274.600000" y1="132.000000" x2="284.600000" y2="132.000000"  style="stroke:black; stroke-linecap:round; stroke-width:0.25;"/>
</svg>
