<?xml version="1.0"?>
<svg xmlns="http://www.w3.org/2000/svg" xmlns:xlink="http://www.w3.org/1999/xlink" viewBox="0 0 186.300000 168.000000" width="93.150000mm" height="84.000000mm" version="1.1">
<a xlink:href="jcrev-0x7fded06659f0.svg">
<rect x="1.000000" y="1.000000" width="185.300000" height="167.000000" rx="0" ry="0" style="stroke:none;fill:#cccccc;"/>
<rect x="0.000000" y="0.000000" width="185.300000" height="167.000000" rx="0" ry="0" style="stroke:none;fill:#ffffff;"/>
</a>
<text x="10.000000" y="7.000000" font-family="Arial" font-size="7"></text>
<a xlink:href="rev12-0x7fded065edf0.svg">
<rect x="49.000000" y="25.000000" width="90.300000" height="24.000000" rx="0" ry="0" style="stroke:none;fill:#cccccc;"/>
<rect x="48.000000" y="24.000000" width="90.300000" height="24.000000" rx="0" ry="0" style="stroke:none;fill:#003366;"/>
</a>
<a xlink:href="rev12-0x7fded065edf0.svg">
<text x="93.150000" y="38.000000" font-family="Arial" font-size="7" text-anchor="middle" fill="#FFFFFF">rev12(1601)(0.802f)</text>
</a>
<circle cx="50.000000" cy="26.000000" r="1"/>
<line x1="45.000000" y1="35.000000" x2="48.000000" y2="36.000000"  transform="rotate(0.000000,48.000000,36.000000)" style="stroke: black; stroke-width:0.25;"/>
<line x1="45.000000" y1="37.000000" x2="48.000000" y2="36.000000"  transform="rotate(0.000000,48.000000,36.000000)" style="stroke: black; stroke-width:0.25;"/>
<a xlink:href="rev12-0x7fded0660fb0.svg">
<rect x="49.000000" y="57.000000" width="90.300000" height="24.000000" rx="0" ry="0" style="stroke:none;fill:#cccccc;"/>
<rect x="48.000000" y="56.000000" width="90.300000" height="24.000000" rx="0" ry="0" style="stroke:none;fill:#003366;"/>
</a>
<a xlink:href="rev12-0x7fded0660fb0.svg">
<text x="93.150000" y="70.000000" font-family="Arial" font-size="7" text-anchor="middle" fill="#FFFFFF">rev12(1867)(0.773f)</text>
</a>
<circle cx="50.000000" cy="58.000000" r="1"/>
<line x1="45.000000" y1="67.000000" x2="48.000000" y2="68.000000"  transform="rotate(0.000000,48.000000,68.000000)" style="stroke: black; stroke-width:0.25;"/>
<line x1="45.000000" y1="69.000000" x2="48.000000" y2="68.000000"  transform="rotate(0.000000,48.000000,68.000000)" style="stroke: black; stroke-width:0.25;"/>
<a xlink:href="rev14-0x7fded06631d0.svg">
<rect x="49.000000" y="89.000000" width="90.300000" height="24.000000" rx="0" ry="0" style="stroke:none;fill:#cccccc;"/>
<rect x="48.000000" y="88.000000" width="90.300000" height="24.000000" rx="0" ry="0" style="stroke:none;fill:#003366;"/>
</a>
<a xlink:href="rev14-0x7fded06631d0.svg">
<text x="93.150000" y="102.000000" font-family="Arial" font-size="7" text-anchor="middle" fill="#FFFFFF">rev14(2053)(0.753f)</text>
</a>
<circle cx="50.000000" cy="90.000000" r="1"/>
<line x1="45.000000" y1="99.000000" x2="48.000000" y2="100.000000"  transform="rotate(0.000000,48.000000,100.000000)" style="stroke: black; stroke-width:0.25;"/>
<line x1="45.000000" y1="101.000000" x2="48.000000" y2="100.000000"  transform="rotate(0.000000,48.000000,100.000000)" style="stroke: black; stroke-width:0.25;"/>
<a xlink:href="rev14-0x7fded0665380.svg">
<rect x="49.000000" y="121.000000" width="90.300000" height="24.000000" rx="0" ry="0" style="stroke:none;fill:#cccccc;"/>
<rect x="48.000000" y="120.000000" width="90.300000" height="24.000000" rx="0" ry="0" style="stroke:none;fill:#003366;"/>
</a>
<a xlink:href="rev14-0x7fded0665380.svg">
<text x="93.150000" y="134.000000" font-family="Arial" font-size="7" text-anchor="middle" fill="#FFFFFF">rev14(2251)(0.733f)</text>
</a>
<circle cx="50.000000" cy="122.000000" r="1"/>
<line x1="45.000000" y1="131.000000" x2="48.000000" y2="132.000000"  transform="rotate(0.000000,48.000000,132.000000)" style="stroke: black; stroke-width:0.25;"/>
<line x1="45.000000" y1="133.000000" x2="48.000000" y2="132.000000"  transform="rotate(0.000000,48.000000,132.000000)" style="stroke: black; stroke-width:0.25;"/>
<line x1="15.000000" y1="15.000000" x2="15.000000" y2="153.000000"  style="stroke: black; stroke-linecap:round; stroke-width:0.25; stroke-dasharray:3,3;"/>
<line x1="15.000000" y1="153.000000" x2="171.300000" y2="153.000000"  style="stroke: black; stroke-linecap:round; stroke-width:0.25; stroke-dasharray:3,3;"/>
<line x1="171.300000" y1="153.000000" x2="171.300000" y2="15.000000"  style="stroke: black; stroke-linecap:round; stroke-width:0.25; stroke-dasharray:3,3;"/>
<line x1="15.000000" y1="15.000000" x2="20.000000" y2="15.000000"  style="stroke: black; stroke-linecap:round; stroke-width:0.25; stroke-dasharray:3,3;"/>
<line x1="55.475000" y1="15.000000" x2="171.300000" y2="15.000000"  style="stroke: black; stroke-linecap:round; stroke-width:0.25; stroke-dasharray:3,3;"/>
<text x="20.000000" y="17.000000" font-family="Arial" font-size="7">comb_bank</text>
<line x1="173.300000" y1="71.000000" x2="176.300000" y2="72.000000"  transform="rotate(0.000000,176.300000,72.000000)" style="stroke: black; stroke-width:0.25;"/>
<line x1="173.300000" y1="73.000000" x2="176.300000" y2="72.000000"  transform="rotate(0.000000,176.300000,72.000000)" style="stroke: black; stroke-width:0.25;"/>
<line x1="173.300000" y1="79.000000" x2="176.300000" y2="80.000000"  transform="rotate(0.000000,176.300000,80.000000)" style="stroke: black; stroke-width:0.25;"/>
<line x1="173.300000" y1="81.000000" x2="176.300000" y2="80.000000"  transform="rotate(0.000000,176.300000,80.000000)" style="stroke: black; stroke-width:0.25;"/>
<line x1="173.300000" y1="87.000000" x2="176.300000" y2="88.000000"  transform="rotate(0.000000,176.300000,88.000000)" style="stroke: black; stroke-width:0.25;"/>
<line x1="173.300000" y1="89.000000" x2="176.300000" y2="88.000000"  transform="rotate(0.000000,176.300000,88.000000)" style="stroke: black; stroke-width:0.25;"/>
<line x1="173.300000" y1="95.000000" x2="176.300000" y2="96.000000"  transform="rotate(0.000000,176.300000,96.000000)" style="stroke: black; stroke-width:0.25;"/>
<line x1="173.300000" y1="97.000000" x2="176.300000" y2="96.000000"  transform="rotate(0.000000,176.300000,96.000000)" style="stroke: black; stroke-width:0.25;"/>
<line x1="10.000000" y1="72.000000" x2="20.000000" y2="72.000000"  style="stroke:black; stroke-linecap:round; stroke-width:0.25;"/>
<line x1="10.000000" y1="80.000000" x2="20.000000" y2="80.000000"  style="stroke:black; stroke-linecap:round; stroke-width:0.25;"/>
<line x1="10.000000" y1="88.000000" x2="20.000000" y2="88.000000"  style="stroke:black; stroke-linecap:round; stroke-width:0.25;"/>
<line x1="10.000000" y1="96.000000" x2="20.000000" y2="96.000000"  style="stroke:black; stroke-linecap:round; stroke-width:0.25;"/>
<line x1="20.000000" y1="72.000000" x2="24.000000" y2="72.000000"  style="stroke:black; stroke-linecap:round; stroke-width:0.25;"/>
<line x1="20.000000" y1="80.000000" x2="24.000000" y2="80.000000"  style="stroke:black; stroke-linecap:round; stroke-width:0.25;"/>
<line x1="20.000000" y1="88.000000" x2="24.000000" y2="88.000000"  style="stroke:black; stroke-linecap:round; stroke-width:0.25;"/>
<line x1="20.000000" y1="96.000000" x2="24.000000" y2="96.000000"  style="stroke:black; stroke-linecap:round; stroke-width:0.25;"/>
<line x1="24.000000" y1="72.000000" x2="28.000000" y2="72.000000"  style="stroke:black; stroke-linecap:round; stroke-width:0.25;"/>
<line x1="24.000000" y1="80.000000" x2="28.000000" y2="80.000000"  style="stroke:black; stroke-linecap:round; stroke-width:0.25;"/>
<line x1="24.000000" y1="88.000000" x2="28.000000" y2="88.000000"  style="stroke:black; stroke-linecap:round; stroke-width:0.25;"/>
<line x1="24.000000" y1="96.000000" x2="28.000000" y2="96.000000"  style="stroke:black; stroke-linecap:round; stroke-width:0.25;"/>
<line x1="28.000000" y1="36.000000" x2="44.000000" y2="36.000000"  style="stroke:black; stroke-linecap:round; stroke-width:0.25;"/>
<line x1="28.000000" y1="72.000000" x2="28.000000" y2="36.000000"  style="stroke:black; stroke-linecap:round; stroke-width:0.25;"/>
<line x1="28.000000" y1="72.000000" x2="28.000000" y2="72.000000"  style="stroke:black; stroke-linecap:round; stroke-width:0.25;"/>
<line x1="28.000000" y1="80.000000" x2="36.000000" y2="80.000000"  style="stroke:black; stroke-linecap:round; stroke-width:0.25;"/>
<line x1="28.000000" y1="88.000000" x2="44.000000" y2="88.000000"  style="stroke:black; stroke-linecap:round; stroke-width:0.25;"/>
<line x1="28.000000" y1="96.000000" x2="36.000000" y2="96.000000"  style="stroke:black; stroke-linecap:round; stroke-width:0.25;"/>
<line x1="36.000000" y1="68.000000" x2="44.000000" y2="68.000000"  style="stroke:black; stroke-linecap:round; stroke-width:0.25;"/>
<line x1="36.000000" y1="80.000000" x2="36.000000" y2="68.000000"  style="stroke:black; stroke-linecap:round; stroke-width:0.25;"/>
<line x1="36.000000" y1="96.000000" x2="36.000000" y2="132.000000"  style="stroke:black; stroke-linecap:round; stroke-width:0.25;"/>
<line x1="36.000000" y1="132.000000" x2="44.000000" y2="132.000000"  style="stroke:black; stroke-linecap:round; stroke-width:0.25;"/>
<line x1="44.000000" y1="36.000000" x2="48.000000" y2="36.000000"  style="stroke:black; stroke-linecap:round; stroke-width:0.25;"/>
<line x1="44.000000" y1="68.000000" x2="48.000000" y2="68.000000"  style="stroke:black; stroke-linecap:round; stroke-width:0.25;"/>
<line x1="44.000000" y1="88.000000" x2="44.000000" y2="100.000000"  style="stroke:black; stroke-linecap:round; stroke-width:0.25;"/>
<line x1="44.000000" y1="100.000000" x2="44.000000" y2="100.000000"  style="stroke:black; stroke-linecap:round; stroke-width:0.25;"/>
<line x1="44.000000" y1="100.000000" x2="48.000000" y2="100.000000"  style="stroke:black; stroke-linecap:round; stroke-width:0.25;"/>
<line x1="44.000000" y1="132.000000" x2="48.000000" y2="132.000000"  style="stroke:black; stroke-linecap:round; stroke-width:0.25;"/>
<line x1="138.300000" y1="36.000000" x2="142.300000" y2="36.000000"  style="stroke:black; stroke-linecap:round; stroke-width:0.25;"/>
<line x1="138.300000" y1="68.000000" x2="142.300000" y2="68.000000"  style="stroke:black; stroke-linecap:round; stroke-width:0.25;"/>
<line x1="138.300000" y1="100.000000" x2="142.300000" y2="100.000000"  style="stroke:black; stroke-linecap:round; stroke-width:0.25;"/>
<line x1="138.300000" y1="132.000000" x2="142.300000" y2="132.000000"  style="stroke:black; stroke-linecap:round; stroke-width:0.25;"/>
<line x1="142.300000" y1="36.000000" x2="158.300000" y2="36.000000"  style="stroke:black; stroke-linecap:round; stroke-width:0.25;"/>
<line x1="142.300000" y1="68.000000" x2="150.300000" y2="68.000000"  style="stroke:black; stroke-linecap:round; stroke-width:0.25;"/>
<line x1="142.300000" y1="88.000000" x2="158.300000" y2="88.000000"  style="stroke:black; stroke-linecap:round; stroke-width:0.25;"/>
<line x1="142.300000" y1="100.000000" x2="142.300000" y2="88.000000"  style="stroke:black; stroke-linecap:round; stroke-width:0.25;"/>
<line x1="142.300000" y1="100.000000" x2="142.300000" y2="100.000000"  style="stroke:black; stroke-linecap:round; stroke-width:0.25;"/>
<line x1="142.300000" y1="132.000000" x2="150.300000" y2="132.000000"  style="stroke:black; stroke-linecap:round; stroke-width:0.25;"/>
<line x1="150.300000" y1="68.000000" x2="150.300000" y2="80.000000"  style="stroke:black; stroke-linecap:round; stroke-width:0.25;"/>
<line x1="150.300000" y1="80.000000" x2="158.300000" y2="80.000000"  style="stroke:black; stroke-linecap:round; stroke-width:0.25;"/>
<line x1="150.300000" y1="96.000000" x2="158.300000" y2="96.000000"  style="stroke:black; stroke-linecap:round; stroke-width:0.25;"/>
<line x1="150.300000" y1="132.000000" x2="150.300000" y2="96.000000"  style="stroke:black; stroke-linecap:round; stroke-width:0.25;"/>
<line x1="158.300000" y1="36.000000" x2="158.300000" y2="72.000000"  style="stroke:black; stroke-linecap:round; stroke-width:0.25;"/>
<line x1="158.300000" y1="72.000000" x2="158.300000" y2="72.000000"  style="stroke:black; stroke-linecap:round; stroke-width:0.25;"/>
<line x1="158.300000" y1="72.000000" x2="162.300000" y2="72.000000"  style="stroke:black; stroke-linecap:round; stroke-width:0.25;"/>
<line x1="158.300000" y1="80.000000" x2="162.300000" y2="80.000000"  style="stroke:black; stroke-linecap:round; stroke-width:0.25;"/>
<line x1="158.300000" y1="88.000000" x2="162.300000" y2="88.000000"  style="stroke:black; stroke-linecap:round; stroke-width:0.25;"/>
<line x1="158.300000" y1="96.000000" x2="162.300000" y2="96.000000"  style="stroke:black; stroke-linecap:round; stroke-width:0.25;"/>
<line x1="162.300000" y1="72.000000" x2="166.300000" y2="72.000000"  style="stroke:black; stroke-linecap:round; stroke-width:0.25;"/>
<line x1="162.300000" y1="80.000000" x2="166.300000" y2="80.000000"  style="stroke:black; stroke-linecap:round; stroke-width:0.25;"/>
<line x1="162.300000" y1="88.000000" x2="166.300000" y2="88.000000"  style="stroke:black; stroke-linecap:round; stroke-width:0.25;"/>
<line x1="162.300000" y1="96.000000" x2="166.300000" y2="96.000000"  style="stroke:black; stroke-linecap:round; stroke-width:0.25;"/>
<line x1="166.300000" y1="72.000000" x2="176.300000" y2="72.000000"  style="stroke:black; stroke-linecap:round; stroke-width:0.25;"/>
<line x1="166.300000" y1="80.000000" x2="176.300000" y2="80.000000"  style="stroke:black; stroke-linecap:round; stroke-width:0.25;"/>
<line x1="166.300000" y1="88.000000" x2="176.300000" y2="88.000000"  style="stroke:black; stroke-linecap:round; stroke-width:0.25;"/>
<line x1="166.300000" y1="96.000000" x2="176.300000" y2="96.000000"  style="stroke:black; stroke-linecap:round; stroke-width:0.25;"/>
</svg>
