<?xml version="1.0"?>
<svg xmlns="http://www.w3.org/2000/svg" xmlns:xlink="http://www.w3.org/1999/xlink" viewBox="0 0 307.600000 200.000000" width="153.800000mm" height="100.000000mm" version="1.1">
<a xlink:href="allpass-0x7fa3c6d82db0.svg">
<rect x="1.000000" y="1.000000" width="306.600000" height="199.000000" rx="0" ry="0" style="stroke:none;fill:#cccccc;"/>
<rect x="0.000000" y="0.000000" width="306.600000" height="199.000000" rx="0" ry="0" style="stroke:none;fill:#ffffff;"/>
</a>
<text x="10.000000" y="7.000000" font-family="Arial" font-size="7"></text>
<rect x="33.000000" y="89.000000" width="24.000000" height="24.000000" rx="0" ry="0" style="stroke:none;fill:#cccccc;"/>
<rect x="32.000000" y="88.000000" width="24.000000" height="24.000000" rx="0" ry="0" style="stroke:none;fill:#47945E;"/>
<text x="44.000000" y="102.000000" font-family="Arial" font-size="7" text-anchor="middle" fill="#FFFFFF">x</text>
<circle cx="34.000000" cy="90.000000" r="1"/>
<line x1="29.000000" y1="99.000000" x2="32.000000" y2="100.000000"  transform="rotate(0.000000,32.000000,100.000000)" style="stroke: black; stroke-width:0.25;"/>
<line x1="29.000000" y1="101.000000" x2="32.000000" y2="100.000000"  transform="rotate(0.000000,32.000000,100.000000)" style="stroke: black; stroke-width:0.25;"/>
<rect x="138.800000" y="25.000000" width="24.000000" height="24.000000" rx="0" ry="0" style="stroke:none;fill:#cccccc;"/>
<rect x="137.800000" y="24.000000" width="24.000000" height="24.000000" rx="0" ry="0" style="stroke:none;fill:#47945E;"/>
<text x="149.800000" y="38.000000" font-family="Arial" font-size="7" text-anchor="middle" fill="#FFFFFF">x</text>
<circle cx="139.800000" cy="26.000000" r="1"/>
<rect x="117.900000" y="57.000000" width="25.800000" height="24.000000" rx="0" ry="0" style="stroke:none;fill:#cccccc;"/>
<rect x="116.900000" y="56.000000" width="25.800000" height="24.000000" rx="0" ry="0" style="stroke:none;fill:#f44800;"/>
<text x="129.800000" y="70.000000" font-family="Arial" font-size="7" text-anchor="middle" fill="#FFFFFF">1024</text>
<circle cx="118.900000" cy="58.000000" r="1"/>
<rect x="98.800000" y="89.000000" width="24.000000" height="24.000000" rx="0" ry="0" style="stroke:none;fill:#cccccc;"/>
<rect x="97.800000" y="88.000000" width="24.000000" height="24.000000" rx="0" ry="0" style="stroke:none;fill:#f44800;"/>
<text x="109.800000" y="102.000000" font-family="Arial" font-size="7" text-anchor="middle" fill="#FFFFFF">0</text>
<circle cx="99.800000" cy="90.000000" r="1"/>
<a xlink:href="apdelay-0x7fa3c5cacc90.svg">
<rect x="65.000000" y="121.000000" width="51.600000" height="24.000000" rx="0" ry="0" style="stroke:none;fill:#cccccc;"/>
<rect x="64.000000" y="120.000000" width="51.600000" height="24.000000" rx="0" ry="0" style="stroke:none;fill:#003366;"/>
</a>
<a xlink:href="apdelay-0x7fa3c5cacc90.svg">
<text x="89.800000" y="134.000000" font-family="Arial" font-size="7" text-anchor="middle" fill="#FFFFFF">apdelay(0)</text>
</a>
<circle cx="66.000000" cy="122.000000" r="1"/>
<rect x="78.800000" y="153.000000" width="24.000000" height="24.000000" rx="0" ry="0" style="stroke:none;fill:#cccccc;"/>
<rect x="77.800000" y="152.000000" width="24.000000" height="24.000000" rx="0" ry="0" style="stroke:none;fill:#f44800;"/>
<text x="89.800000" y="166.000000" font-family="Arial" font-size="7" text-anchor="middle" fill="#FFFFFF">1</text>
<circle cx="79.800000" cy="154.000000" r="1"/>
<rect x="132.600000" y="137.000000" width="24.000000" height="24.000000" rx="0" ry="0" style="stroke:none;fill:#cccccc;"/>
<rect x="131.600000" y="136.000000" width="24.000000" height="24.000000" rx="0" ry="0" style="stroke:none;fill:#4B71A1;"/>
<text x="143.600000" y="150.000000" font-family="Arial" font-size="7" text-anchor="middle" fill="#FFFFFF">-</text>
<circle cx="133.600000" cy="138.000000" r="1"/>
<line x1="128.600000" y1="143.000000" x2="131.600000" y2="144.000000"  transform="rotate(0.000000,131.600000,144.000000)" style="stroke: black; stroke-width:0.25;"/>
<line x1="128.600000" y1="145.000000" x2="131.600000" y2="144.000000"  transform="rotate(0.000000,131.600000,144.000000)" style="stroke: black; stroke-width:0.25;"/>
<line x1="128.600000" y1="151.000000" x2="131.600000" y2="152.000000"  transform="rotate(0.000000,131.600000,152.000000)" style="stroke: black; stroke-width:0.25;"/>
<line x1="128.600000" y1="153.000000" x2="131.600000" y2="152.000000"  transform="rotate(0.000000,131.600000,152.000000)" style="stroke: black; stroke-width:0.25;"/>
<rect x="172.600000" y="121.000000" width="24.000000" height="24.000000" rx="0" ry="0" style="stroke:none;fill:#cccccc;"/>
<rect x="171.600000" y="120.000000" width="24.000000" height="24.000000" rx="0" ry="0" style="stroke:none;fill:#4B71A1;"/>
<text x="183.600000" y="134.000000" font-family="Arial" font-size="7" text-anchor="middle" fill="#FFFFFF">max</text>
<circle cx="173.600000" cy="122.000000" r="1"/>
<line x1="168.600000" y1="127.000000" x2="171.600000" y2="128.000000"  transform="rotate(0.000000,171.600000,128.000000)" style="stroke: black; stroke-width:0.25;"/>
<line x1="168.600000" y1="129.000000" x2="171.600000" y2="128.000000"  transform="rotate(0.000000,171.600000,128.000000)" style="stroke: black; stroke-width:0.25;"/>
<line x1="168.600000" y1="135.000000" x2="171.600000" y2="136.000000"  transform="rotate(0.000000,171.600000,136.000000)" style="stroke: black; stroke-width:0.25;"/>
<line x1="168.600000" y1="137.000000" x2="171.600000" y2="136.000000"  transform="rotate(0.000000,171.600000,136.000000)" style="stroke: black; stroke-width:0.25;"/>
<rect x="212.600000" y="105.000000" width="24.000000" height="24.000000" rx="0" ry="0" style="stroke:none;fill:#cccccc;"/>
<rect x="211.600000" y="104.000000" width="24.000000" height="24.000000" rx="0" ry="0" style="stroke:none;fill:#4B71A1;"/>
<text x="223.600000" y="118.000000" font-family="Arial" font-size="7" text-anchor="middle" fill="#FFFFFF">min</text>
<circle cx="213.600000" cy="106.000000" r="1"/>
<line x1="208.600000" y1="111.000000" x2="211.600000" y2="112.000000"  transform="rotate(0.000000,211.600000,112.000000)" style="stroke: black; stroke-width:0.25;"/>
<line x1="208.600000" y1="113.000000" x2="211.600000" y2="112.000000"  transform="rotate(0.000000,211.600000,112.000000)" style="stroke: black; stroke-width:0.25;"/>
<line x1="208.600000" y1="119.000000" x2="211.600000" y2="120.000000"  transform="rotate(0.000000,211.600000,120.000000)" style="stroke: black; stroke-width:0.25;"/>
<line x1="208.600000" y1="121.000000" x2="211.600000" y2="120.000000"  transform="rotate(0.000000,211.600000,120.000000)" style="stroke: black; stroke-width:0.25;"/>
<rect x="252.600000" y="89.000000" width="24.000000" height="24.000000" rx="0" ry="0" style="stroke:none;fill:#cccccc;"/>
<rect x="251.600000" y="88.000000" width="24.000000" height="24.000000" rx="0" ry="0" style="stroke:none;fill:#4B71A1;"/>
<text x="263.600000" y="102.000000" font-family="Arial" font-size="7" text-anchor="middle" fill="#FFFFFF">@</text>
<circle cx="253.600000" cy="90.000000" r="1"/>
<line x1="248.600000" y1="95.000000" x2="251.600000" y2="96.000000"  transform="rotate(0.000000,251.600000,96.000000)" style="stroke: black; stroke-width:0.25;"/>
<line x1="248.600000" y1="97.000000" x2="251.600000" y2="96.000000"  transform="rotate(0.000000,251.600000,96.000000)" style="stroke: black; stroke-width:0.25;"/>
<line x1="248.600000" y1="103.000000" x2="251.600000" y2="104.000000"  transform="rotate(0.000000,251.600000,104.000000)" style="stroke: black; stroke-width:0.25;"/>
<line x1="248.600000" y1="105.000000" x2="251.600000" y2="104.000000"  transform="rotate(0.000000,251.600000,104.000000)" style="stroke: black; stroke-width:0.25;"/>
<line x1="15.000000" y1="15.000000" x2="15.000000" y2="185.000000"  style="stroke: black; stroke-linecap:round; stroke-width:0.25; stroke-dasharray:3,3;"/>
<line x1="15.000000" y1="185.000000" x2="292.600000" y2="185.000000"  style="stroke: black; stroke-linecap:round; stroke-width:0.25; stroke-dasharray:3,3;"/>
<line x1="292.600000" y1="185.000000" x2="292.600000" y2="15.000000"  style="stroke: black; stroke-linecap:round; stroke-width:0.25; stroke-dasharray:3,3;"/>
<line x1="15.000000" y1="15.000000" x2="20.000000" y2="15.000000"  style="stroke: black; stroke-linecap:round; stroke-width:0.25; stroke-dasharray:3,3;"/>
<line x1="119.975000" y1="15.000000" x2="292.600000" y2="15.000000"  style="stroke: black; stroke-linecap:round; stroke-width:0.25; stroke-dasharray:3,3;"/>
<text x="20.000000" y="17.000000" font-family="Arial" font-size="7">delay(1024)((...floor),1 : -)</text>
<line x1="294.600000" y1="99.000000" x2="297.600000" y2="100.000000"  transform="rotate(0.000000,297.600000,100.000000)" style="stroke: black; stroke-width:0.25;"/>
<line x1="294.600000" y1="101.000000" x2="297.600000" y2="100.000000"  transform="rotate(0.000000,297.600000,100.000000)" style="stroke: black; stroke-width:0.25;"/>
<line x1="10.000000" y1="100.000000" x2="20.000000" y2="100.000000"  style="stroke:black; stroke-linecap:round; stroke-width:0.25;"/>
<line x1="20.000000" y1="100.000000" x2="24.000000" y2="100.000000"  style="stroke:black; stroke-linecap:round; stroke-width:0.25;"/>
<line x1="24.000000" y1="100.000000" x2="28.000000" y2="100.000000"  style="stroke:black; stroke-linecap:round; stroke-width:0.25;"/>
<line x1="28.000000" y1="100.000000" x2="28.000000" y2="100.000000"  style="stroke:black; stroke-linecap:round; stroke-width:0.25;"/>
<line x1="28.000000" y1="100.000000" x2="32.000000" y2="100.000000"  style="stroke:black; stroke-linecap:round; stroke-width:0.25;"/>
<line x1="101.800000" y1="164.000000" x2="105.800000" y2="164.000000"  style="stroke:black; stroke-linecap:round; stroke-width:0.25;"/>
<line x1="105.800000" y1="164.000000" x2="119.600000" y2="164.000000"  style="stroke:black; stroke-linecap:round; stroke-width:0.25;"/>
<line x1="115.600000" y1="132.000000" x2="119.600000" y2="132.000000"  style="stroke:black; stroke-linecap:round; stroke-width:0.25;"/>
<line x1="119.600000" y1="132.000000" x2="127.600000" y2="132.000000"  style="stroke:black; stroke-linecap:round; stroke-width:0.25;"/>
<line x1="119.600000" y1="152.000000" x2="127.600000" y2="152.000000"  style="stroke:black; stroke-linecap:round; stroke-width:0.25;"/>
<line x1="119.600000" y1="164.000000" x2="119.600000" y2="152.000000"  style="stroke:black; stroke-linecap:round; stroke-width:0.25;"/>
<line x1="119.600000" y1="164.000000" x2="119.600000" y2="164.000000"  style="stroke:black; stroke-linecap:round; stroke-width:0.25;"/>
<line x1="121.800000" y1="100.000000" x2="125.800000" y2="100.000000"  style="stroke:black; stroke-linecap:round; stroke-width:0.25;"/>
<line x1="125.800000" y1="100.000000" x2="159.600000" y2="100.000000"  style="stroke:black; stroke-linecap:round; stroke-width:0.25;"/>
<line x1="127.600000" y1="132.000000" x2="127.600000" y2="144.000000"  style="stroke:black; stroke-linecap:round; stroke-width:0.25;"/>
<line x1="127.600000" y1="144.000000" x2="127.600000" y2="144.000000"  style="stroke:black; stroke-linecap:round; stroke-width:0.25;"/>
<line x1="127.600000" y1="144.000000" x2="131.600000" y2="144.000000"  style="stroke:black; stroke-linecap:round; stroke-width:0.25;"/>
<line x1="127.600000" y1="152.000000" x2="131.600000" y2="152.000000"  style="stroke:black; stroke-linecap:round; stroke-width:0.25;"/>
<line x1="142.700000" y1="68.000000" x2="146.700000" y2="68.000000"  style="stroke:black; stroke-linecap:round; stroke-width:0.25;"/>
<line x1="146.700000" y1="68.000000" x2="199.600000" y2="68.000000"  style="stroke:black; stroke-linecap:round; stroke-width:0.25;"/>
<line x1="155.600000" y1="148.000000" x2="159.600000" y2="148.000000"  style="stroke:black; stroke-linecap:round; stroke-width:0.25;"/>
<line x1="159.600000" y1="100.000000" x2="167.600000" y2="100.000000"  style="stroke:black; stroke-linecap:round; stroke-width:0.25;"/>
<line x1="159.600000" y1="136.000000" x2="167.600000" y2="136.000000"  style="stroke:black; stroke-linecap:round; stroke-width:0.25;"/>
<line x1="159.600000" y1="148.000000" x2="159.600000" y2="136.000000"  style="stroke:black; stroke-linecap:round; stroke-width:0.25;"/>
<line x1="159.600000" y1="148.000000" x2="159.600000" y2="148.000000"  style="stroke:black; stroke-linecap:round; stroke-width:0.25;"/>
<line x1="161.800000" y1="36.000000" x2="165.800000" y2="36.000000"  style="stroke:black; stroke-linecap:round; stroke-width:0.25;"/>
<line x1="165.800000" y1="36.000000" x2="239.600000" y2="36.000000"  style="stroke:black; stroke-linecap:round; stroke-width:0.25;"/>
<line x1="167.600000" y1="100.000000" x2="167.600000" y2="128.000000"  style="stroke:black; stroke-linecap:round; stroke-width:0.25;"/>
<line x1="167.600000" y1="128.000000" x2="167.600000" y2="128.000000"  style="stroke:black; stroke-linecap:round; stroke-width:0.25;"/>
<line x1="167.600000" y1="128.000000" x2="171.600000" y2="128.000000"  style="stroke:black; stroke-linecap:round; stroke-width:0.25;"/>
<line x1="167.600000" y1="136.000000" x2="171.600000" y2="136.000000"  style="stroke:black; stroke-linecap:round; stroke-width:0.25;"/>
<line x1="195.600000" y1="132.000000" x2="199.600000" y2="132.000000"  style="stroke:black; stroke-linecap:round; stroke-width:0.25;"/>
<line x1="199.600000" y1="68.000000" x2="207.600000" y2="68.000000"  style="stroke:black; stroke-linecap:round; stroke-width:0.25;"/>
<line x1="199.600000" y1="120.000000" x2="207.600000" y2="120.000000"  style="stroke:black; stroke-linecap:round; stroke-width:0.25;"/>
<line x1="199.600000" y1="132.000000" x2="199.600000" y2="120.000000"  style="stroke:black; stroke-linecap:round; stroke-width:0.25;"/>
<line x1="199.600000" y1="132.000000" x2="199.600000" y2="132.000000"  style="stroke:black; stroke-linecap:round; stroke-width:0.25;"/>
<line x1="207.600000" y1="68.000000" x2="207.600000" y2="112.000000"  style="stroke:black; stroke-linecap:round; stroke-width:0.25;"/>
<line x1="207.600000" y1="112.000000" x2="207.600000" y2="112.000000"  style="stroke:black; stroke-linecap:round; stroke-width:0.25;"/>
<line x1="207.600000" y1="112.000000" x2="211.600000" y2="112.000000"  style="stroke:black; stroke-linecap:round; stroke-width:0.25;"/>
<line x1="207.600000" y1="120.000000" x2="211.600000" y2="120.000000"  style="stroke:black; stroke-linecap:round; stroke-width:0.25;"/>
<line x1="235.600000" y1="116.000000" x2="239.600000" y2="116.000000"  style="stroke:black; stroke-linecap:round; stroke-width:0.25;"/>
<line x1="239.600000" y1="104.000000" x2="247.600000" y2="104.000000"  style="stroke:black; stroke-linecap:round; stroke-width:0.25;"/>
<line x1="239.600000" y1="116.000000" x2="239.600000" y2="104.000000"  style="stroke:black; stroke-linecap:round; stroke-width:0.25;"/>
<line x1="239.600000" y1="116.000000" x2="239.600000" y2="116.000000"  style="stroke:black; stroke-linecap:round; stroke-width:0.25;"/>
<line x1="239.600000" y1="36.000000" x2="247.600000" y2="36.000000"  style="stroke:black; stroke-linecap:round; stroke-width:0.25;"/>
<line x1="247.600000" y1="96.000000" x2="251.600000" y2="96.000000"  style="stroke:black; stroke-linecap:round; stroke-width:0.25;"/>
<line x1="247.600000" y1="104.000000" x2="251.600000" y2="104.000000"  style="stroke:black; stroke-linecap:round; stroke-width:0.25;"/>
<line x1="247.600000" y1="36.000000" x2="247.600000" y2="96.000000"  style="stroke:black; stroke-linecap:round; stroke-width:0.25;"/>
<line x1="247.600000" y1="96.000000" x2="247.600000" y2="96.000000"  style="stroke:black; stroke-linecap:round; stroke-width:0.25;"/>
<line x1="275.600000" y1="100.000000" x2="279.600000" y2="100.000000"  style="stroke:black; stroke-linecap:round; stroke-width:0.25;"/>
<line x1="279.600000" y1="100.000000" x2="279.600000" y2="100.000000"  style="stroke:black; stroke-linecap:round; stroke-width:0.25;"/>
<line x1="279.600000" y1="100.000000" x2="283.600000" y2="100.000000"  style="stroke:black; stroke-linecap:round; stroke-width:0.25;"/>
<line x1="283.600000" y1="100.000000" x2="287.600000" y2="100.000000"  style="stroke:black; stroke-linecap:round; stroke-width:0.25;"/>
<line x1="287.600000" y1="100.000000" x2="297.600000" y2="100.000000"  style="stroke:black; stroke-linecap:round; stroke-width:0.25;"/>
</svg>
