<?xml version="1.0"?>
<svg xmlns="http://www.w3.org/2000/svg" xmlns:xlink="http://www.w3.org/1999/xlink" viewBox="0 0 320.000000 232.000000" width="160.000000mm" height="116.000000mm" version="1.1">
<a xlink:href="zita-0x7f8443eb3ff0.svg">
<rect x="1.000000" y="1.000000" width="319.000000" height="231.000000" rx="0" ry="0" style="stroke:none;fill:#cccccc;"/>
<rect x="0.000000" y="0.000000" width="319.000000" height="231.000000" rx="0" ry="0" style="stroke:none;fill:#ffffff;"/>
</a>
<text x="10.000000" y="7.000000" font-family="Arial" font-size="7"></text>
<rect x="33.000000" y="105.000000" width="24.000000" height="24.000000" rx="0" ry="0" style="stroke:none;fill:#cccccc;"/>
<rect x="32.000000" y="104.000000" width="24.000000" height="24.000000" rx="0" ry="0" style="stroke:none;fill:#47945E;"/>
<text x="44.000000" y="118.000000" font-family="Arial" font-size="7" text-anchor="middle" fill="#FFFFFF">x</text>
<circle cx="34.000000" cy="106.000000" r="1"/>
<line x1="29.000000" y1="115.000000" x2="32.000000" y2="116.000000"  transform="rotate(0.000000,32.000000,116.000000)" style="stroke: black; stroke-width:0.25;"/>
<line x1="29.000000" y1="117.000000" x2="32.000000" y2="116.000000"  transform="rotate(0.000000,32.000000,116.000000)" style="stroke: black; stroke-width:0.25;"/>
<rect x="145.000000" y="25.000000" width="24.000000" height="24.000000" rx="0" ry="0" style="stroke:none;fill:#cccccc;"/>
<rect x="144.000000" y="24.000000" width="24.000000" height="24.000000" rx="0" ry="0" style="stroke:none;fill:#47945E;"/>
<text x="156.000000" y="38.000000" font-family="Arial" font-size="7" text-anchor="middle" fill="#FFFFFF">x</text>
<circle cx="146.000000" cy="26.000000" r="1"/>
<rect x="124.100000" y="57.000000" width="25.800000" height="24.000000" rx="0" ry="0" style="stroke:none;fill:#cccccc;"/>
<rect x="123.100000" y="56.000000" width="25.800000" height="24.000000" rx="0" ry="0" style="stroke:none;fill:#f44800;"/>
<text x="136.000000" y="70.000000" font-family="Arial" font-size="7" text-anchor="middle" fill="#FFFFFF">8192</text>
<circle cx="125.100000" cy="58.000000" r="1"/>
<rect x="105.000000" y="89.000000" width="24.000000" height="24.000000" rx="0" ry="0" style="stroke:none;fill:#cccccc;"/>
<rect x="104.000000" y="88.000000" width="24.000000" height="24.000000" rx="0" ry="0" style="stroke:none;fill:#f44800;"/>
<text x="116.000000" y="102.000000" font-family="Arial" font-size="7" text-anchor="middle" fill="#FFFFFF">0</text>
<circle cx="106.000000" cy="90.000000" r="1"/>
<a xlink:href="SR-0x7f84421a52a0.svg">
<rect x="65.000000" y="121.000000" width="24.000000" height="24.000000" rx="0" ry="0" style="stroke:none;fill:#cccccc;"/>
<rect x="64.000000" y="120.000000" width="24.000000" height="24.000000" rx="0" ry="0" style="stroke:none;fill:#003366;"/>
</a>
<a xlink:href="SR-0x7f84421a52a0.svg">
<text x="76.000000" y="134.000000" font-family="Arial" font-size="7" text-anchor="middle" fill="#FFFFFF">SR</text>
</a>
<circle cx="66.000000" cy="122.000000" r="1"/>
<rect x="65.000000" y="153.000000" width="24.000000" height="24.000000" rx="0" ry="0" style="stroke:none;fill:#cccccc;"/>
<rect x="64.000000" y="152.000000" width="24.000000" height="24.000000" rx="0" ry="0" style="stroke:none;fill:#f44800;"/>
<text x="76.000000" y="166.000000" font-family="Arial" font-size="7" text-anchor="middle" fill="#FFFFFF">35</text>
<circle cx="66.000000" cy="154.000000" r="1"/>
<rect x="105.000000" y="137.000000" width="24.000000" height="24.000000" rx="0" ry="0" style="stroke:none;fill:#cccccc;"/>
<rect x="104.000000" y="136.000000" width="24.000000" height="24.000000" rx="0" ry="0" style="stroke:none;fill:#4B71A1;"/>
<text x="116.000000" y="150.000000" font-family="Arial" font-size="7" text-anchor="middle" fill="#FFFFFF">*</text>
<circle cx="106.000000" cy="138.000000" r="1"/>
<line x1="101.000000" y1="143.000000" x2="104.000000" y2="144.000000"  transform="rotate(0.000000,104.000000,144.000000)" style="stroke: black; stroke-width:0.25;"/>
<line x1="101.000000" y1="145.000000" x2="104.000000" y2="144.000000"  transform="rotate(0.000000,104.000000,144.000000)" style="stroke: black; stroke-width:0.25;"/>
<line x1="101.000000" y1="151.000000" x2="104.000000" y2="152.000000"  transform="rotate(0.000000,104.000000,152.000000)" style="stroke: black; stroke-width:0.25;"/>
<line x1="101.000000" y1="153.000000" x2="104.000000" y2="152.000000"  transform="rotate(0.000000,104.000000,152.000000)" style="stroke: black; stroke-width:0.25;"/>
<rect x="84.100000" y="185.000000" width="25.800000" height="24.000000" rx="0" ry="0" style="stroke:none;fill:#cccccc;"/>
<rect x="83.100000" y="184.000000" width="25.800000" height="24.000000" rx="0" ry="0" style="stroke:none;fill:#f44800;"/>
<text x="96.000000" y="198.000000" font-family="Arial" font-size="7" text-anchor="middle" fill="#FFFFFF">0.001</text>
<circle cx="85.100000" cy="186.000000" r="1"/>
<rect x="145.000000" y="153.000000" width="24.000000" height="24.000000" rx="0" ry="0" style="stroke:none;fill:#cccccc;"/>
<rect x="144.000000" y="152.000000" width="24.000000" height="24.000000" rx="0" ry="0" style="stroke:none;fill:#4B71A1;"/>
<text x="156.000000" y="166.000000" font-family="Arial" font-size="7" text-anchor="middle" fill="#FFFFFF">*</text>
<circle cx="146.000000" cy="154.000000" r="1"/>
<line x1="141.000000" y1="159.000000" x2="144.000000" y2="160.000000"  transform="rotate(0.000000,144.000000,160.000000)" style="stroke: black; stroke-width:0.25;"/>
<line x1="141.000000" y1="161.000000" x2="144.000000" y2="160.000000"  transform="rotate(0.000000,144.000000,160.000000)" style="stroke: black; stroke-width:0.25;"/>
<line x1="141.000000" y1="167.000000" x2="144.000000" y2="168.000000"  transform="rotate(0.000000,144.000000,168.000000)" style="stroke: black; stroke-width:0.25;"/>
<line x1="141.000000" y1="169.000000" x2="144.000000" y2="168.000000"  transform="rotate(0.000000,144.000000,168.000000)" style="stroke: black; stroke-width:0.25;"/>
<rect x="185.000000" y="137.000000" width="24.000000" height="24.000000" rx="0" ry="0" style="stroke:none;fill:#cccccc;"/>
<rect x="184.000000" y="136.000000" width="24.000000" height="24.000000" rx="0" ry="0" style="stroke:none;fill:#4B71A1;"/>
<text x="196.000000" y="150.000000" font-family="Arial" font-size="7" text-anchor="middle" fill="#FFFFFF">max</text>
<circle cx="186.000000" cy="138.000000" r="1"/>
<line x1="181.000000" y1="143.000000" x2="184.000000" y2="144.000000"  transform="rotate(0.000000,184.000000,144.000000)" style="stroke: black; stroke-width:0.25;"/>
<line x1="181.000000" y1="145.000000" x2="184.000000" y2="144.000000"  transform="rotate(0.000000,184.000000,144.000000)" style="stroke: black; stroke-width:0.25;"/>
<line x1="181.000000" y1="151.000000" x2="184.000000" y2="152.000000"  transform="rotate(0.000000,184.000000,152.000000)" style="stroke: black; stroke-width:0.25;"/>
<line x1="181.000000" y1="153.000000" x2="184.000000" y2="152.000000"  transform="rotate(0.000000,184.000000,152.000000)" style="stroke: black; stroke-width:0.25;"/>
<rect x="225.000000" y="121.000000" width="24.000000" height="24.000000" rx="0" ry="0" style="stroke:none;fill:#cccccc;"/>
<rect x="224.000000" y="120.000000" width="24.000000" height="24.000000" rx="0" ry="0" style="stroke:none;fill:#4B71A1;"/>
<text x="236.000000" y="134.000000" font-family="Arial" font-size="7" text-anchor="middle" fill="#FFFFFF">min</text>
<circle cx="226.000000" cy="122.000000" r="1"/>
<line x1="221.000000" y1="127.000000" x2="224.000000" y2="128.000000"  transform="rotate(0.000000,224.000000,128.000000)" style="stroke: black; stroke-width:0.25;"/>
<line x1="221.000000" y1="129.000000" x2="224.000000" y2="128.000000"  transform="rotate(0.000000,224.000000,128.000000)" style="stroke: black; stroke-width:0.25;"/>
<line x1="221.000000" y1="135.000000" x2="224.000000" y2="136.000000"  transform="rotate(0.000000,224.000000,136.000000)" style="stroke: black; stroke-width:0.25;"/>
<line x1="221.000000" y1="137.000000" x2="224.000000" y2="136.000000"  transform="rotate(0.000000,224.000000,136.000000)" style="stroke: black; stroke-width:0.25;"/>
<rect x="265.000000" y="105.000000" width="24.000000" height="24.000000" rx="0" ry="0" style="stroke:none;fill:#cccccc;"/>
<rect x="264.000000" y="104.000000" width="24.000000" height="24.000000" rx="0" ry="0" style="stroke:none;fill:#4B71A1;"/>
<text x="276.000000" y="118.000000" font-family="Arial" font-size="7" text-anchor="middle" fill="#FFFFFF">@</text>
<circle cx="266.000000" cy="106.000000" r="1"/>
<line x1="261.000000" y1="111.000000" x2="264.000000" y2="112.000000"  transform="rotate(0.000000,264.000000,112.000000)" style="stroke: black; stroke-width:0.25;"/>
<line x1="261.000000" y1="113.000000" x2="264.000000" y2="112.000000"  transform="rotate(0.000000,264.000000,112.000000)" style="stroke: black; stroke-width:0.25;"/>
<line x1="261.000000" y1="119.000000" x2="264.000000" y2="120.000000"  transform="rotate(0.000000,264.000000,120.000000)" style="stroke: black; stroke-width:0.25;"/>
<line x1="261.000000" y1="121.000000" x2="264.000000" y2="120.000000"  transform="rotate(0.000000,264.000000,120.000000)" style="stroke: black; stroke-width:0.25;"/>
<line x1="15.000000" y1="15.000000" x2="15.000000" y2="217.000000"  style="stroke: black; stroke-linecap:round; stroke-width:0.25; stroke-dasharray:3,3;"/>
<line x1="15.000000" y1="217.000000" x2="305.000000" y2="217.000000"  style="stroke: black; stroke-linecap:round; stroke-width:0.25; stroke-dasharray:3,3;"/>
<line x1="305.000000" y1="217.000000" x2="305.000000" y2="15.000000"  style="stroke: black; stroke-linecap:round; stroke-width:0.25; stroke-dasharray:3,3;"/>
<line x1="15.000000" y1="15.000000" x2="20.000000" y2="15.000000"  style="stroke: black; stroke-linecap:round; stroke-width:0.25; stroke-dasharray:3,3;"/>
<line x1="119.975000" y1="15.000000" x2="305.000000" y2="15.000000"  style="stroke: black; stroke-linecap:round; stroke-width:0.25; stroke-dasharray:3,3;"/>
<text x="20.000000" y="17.000000" font-family="Arial" font-size="7">delay(8192)((...),0.001f : *)</text>
<line x1="307.000000" y1="115.000000" x2="310.000000" y2="116.000000"  transform="rotate(0.000000,310.000000,116.000000)" style="stroke: black; stroke-width:0.25;"/>
<line x1="307.000000" y1="117.000000" x2="310.000000" y2="116.000000"  transform="rotate(0.000000,310.000000,116.000000)" style="stroke: black; stroke-width:0.25;"/>
<line x1="10.000000" y1="116.000000" x2="20.000000" y2="116.000000"  style="stroke:black; stroke-linecap:round; stroke-width:0.25;"/>
<line x1="20.000000" y1="116.000000" x2="24.000000" y2="116.000000"  style="stroke:black; stroke-linecap:round; stroke-width:0.25;"/>
<line x1="24.000000" y1="116.000000" x2="28.000000" y2="116.000000"  style="stroke:black; stroke-linecap:round; stroke-width:0.25;"/>
<line x1="28.000000" y1="116.000000" x2="28.000000" y2="116.000000"  style="stroke:black; stroke-linecap:round; stroke-width:0.25;"/>
<line x1="28.000000" y1="116.000000" x2="32.000000" y2="116.000000"  style="stroke:black; stroke-linecap:round; stroke-width:0.25;"/>
<line x1="88.000000" y1="132.000000" x2="92.000000" y2="132.000000"  style="stroke:black; stroke-linecap:round; stroke-width:0.25;"/>
<line x1="88.000000" y1="164.000000" x2="92.000000" y2="164.000000"  style="stroke:black; stroke-linecap:round; stroke-width:0.25;"/>
<line x1="92.000000" y1="132.000000" x2="100.000000" y2="132.000000"  style="stroke:black; stroke-linecap:round; stroke-width:0.25;"/>
<line x1="92.000000" y1="152.000000" x2="100.000000" y2="152.000000"  style="stroke:black; stroke-linecap:round; stroke-width:0.25;"/>
<line x1="92.000000" y1="164.000000" x2="92.000000" y2="152.000000"  style="stroke:black; stroke-linecap:round; stroke-width:0.25;"/>
<line x1="92.000000" y1="164.000000" x2="92.000000" y2="164.000000"  style="stroke:black; stroke-linecap:round; stroke-width:0.25;"/>
<line x1="100.000000" y1="132.000000" x2="100.000000" y2="144.000000"  style="stroke:black; stroke-linecap:round; stroke-width:0.25;"/>
<line x1="100.000000" y1="144.000000" x2="100.000000" y2="144.000000"  style="stroke:black; stroke-linecap:round; stroke-width:0.25;"/>
<line x1="100.000000" y1="144.000000" x2="104.000000" y2="144.000000"  style="stroke:black; stroke-linecap:round; stroke-width:0.25;"/>
<line x1="100.000000" y1="152.000000" x2="104.000000" y2="152.000000"  style="stroke:black; stroke-linecap:round; stroke-width:0.25;"/>
<line x1="108.900000" y1="196.000000" x2="112.900000" y2="196.000000"  style="stroke:black; stroke-linecap:round; stroke-width:0.25;"/>
<line x1="112.900000" y1="196.000000" x2="132.000000" y2="196.000000"  style="stroke:black; stroke-linecap:round; stroke-width:0.25;"/>
<line x1="128.000000" y1="100.000000" x2="132.000000" y2="100.000000"  style="stroke:black; stroke-linecap:round; stroke-width:0.25;"/>
<line x1="128.000000" y1="148.000000" x2="132.000000" y2="148.000000"  style="stroke:black; stroke-linecap:round; stroke-width:0.25;"/>
<line x1="132.000000" y1="100.000000" x2="172.000000" y2="100.000000"  style="stroke:black; stroke-linecap:round; stroke-width:0.25;"/>
<line x1="132.000000" y1="148.000000" x2="140.000000" y2="148.000000"  style="stroke:black; stroke-linecap:round; stroke-width:0.25;"/>
<line x1="132.000000" y1="168.000000" x2="140.000000" y2="168.000000"  style="stroke:black; stroke-linecap:round; stroke-width:0.25;"/>
<line x1="132.000000" y1="196.000000" x2="132.000000" y2="168.000000"  style="stroke:black; stroke-linecap:round; stroke-width:0.25;"/>
<line x1="132.000000" y1="196.000000" x2="132.000000" y2="196.000000"  style="stroke:black; stroke-linecap:round; stroke-width:0.25;"/>
<line x1="140.000000" y1="148.000000" x2="140.000000" y2="160.000000"  style="stroke:black; stroke-linecap:round; stroke-width:0.25;"/>
<line x1="140.000000" y1="160.000000" x2="140.000000" y2="160.000000"  style="stroke:black; stroke-linecap:round; stroke-width:0.25;"/>
<line x1="140.000000" y1="160.000000" x2="144.000000" y2="160.000000"  style="stroke:black; stroke-linecap:round; stroke-width:0.25;"/>
<line x1="140.000000" y1="168.000000" x2="144.000000" y2="168.000000"  style="stroke:black; stroke-linecap:round; stroke-width:0.25;"/>
<line x1="148.900000" y1="68.000000" x2="152.900000" y2="68.000000"  style="stroke:black; stroke-linecap:round; stroke-width:0.25;"/>
<line x1="152.900000" y1="68.000000" x2="212.000000" y2="68.000000"  style="stroke:black; stroke-linecap:round; stroke-width:0.25;"/>
<line x1="168.000000" y1="36.000000" x2="172.000000" y2="36.000000"  style="stroke:black; stroke-linecap:round; stroke-width:0.25;"/>
<line x1="168.000000" y1="164.000000" x2="172.000000" y2="164.000000"  style="stroke:black; stroke-linecap:round; stroke-width:0.25;"/>
<line x1="172.000000" y1="36.000000" x2="252.000000" y2="36.000000"  style="stroke:black; stroke-linecap:round; stroke-width:0.25;"/>
<line x1="172.000000" y1="100.000000" x2="180.000000" y2="100.000000"  style="stroke:black; stroke-linecap:round; stroke-width:0.25;"/>
<line x1="172.000000" y1="152.000000" x2="180.000000" y2="152.000000"  style="stroke:black; stroke-linecap:round; stroke-width:0.25;"/>
<line x1="172.000000" y1="164.000000" x2="172.000000" y2="152.000000"  style="stroke:black; stroke-linecap:round; stroke-width:0.25;"/>
<line x1="172.000000" y1="164.000000" x2="172.000000" y2="164.000000"  style="stroke:black; stroke-linecap:round; stroke-width:0.25;"/>
<line x1="180.000000" y1="100.000000" x2="180.000000" y2="144.000000"  style="stroke:black; stroke-linecap:round; stroke-width:0.25;"/>
<line x1="180.000000" y1="144.000000" x2="180.000000" y2="144.000000"  style="stroke:black; stroke-linecap:round; stroke-width:0.25;"/>
<line x1="180.000000" y1="144.000000" x2="184.000000" y2="144.000000"  style="stroke:black; stroke-linecap:round; stroke-width:0.25;"/>
<line x1="180.000000" y1="152.000000" x2="184.000000" y2="152.000000"  style="stroke:black; stroke-linecap:round; stroke-width:0.25;"/>
<line x1="208.000000" y1="148.000000" x2="212.000000" y2="148.000000"  style="stroke:black; stroke-linecap:round; stroke-width:0.25;"/>
<line x1="212.000000" y1="68.000000" x2="220.000000" y2="68.000000"  style="stroke:black; stroke-linecap:round; stroke-width:0.25;"/>
<line x1="212.000000" y1="136.000000" x2="220.000000" y2="136.000000"  style="stroke:black; stroke-linecap:round; stroke-width:0.25;"/>
<line x1="212.000000" y1="148.000000" x2="212.000000" y2="136.000000"  style="stroke:black; stroke-linecap:round; stroke-width:0.25;"/>
<line x1="212.000000" y1="148.000000" x2="212.000000" y2="148.000000"  style="stroke:black; stroke-linecap:round; stroke-width:0.25;"/>
<line x1="220.000000" y1="68.000000" x2="220.000000" y2="128.000000"  style="stroke:black; stroke-linecap:round; stroke-width:0.25;"/>
<line x1="220.000000" y1="128.000000" x2="220.000000" y2="128.000000"  style="stroke:black; stroke-linecap:round; stroke-width:0.25;"/>
<line x1="220.000000" y1="128.000000" x2="224.000000" y2="128.000000"  style="stroke:black; stroke-linecap:round; stroke-width:0.25;"/>
<line x1="220.000000" y1="136.000000" x2="224.000000" y2="136.000000"  style="stroke:black; stroke-linecap:round; stroke-width:0.25;"/>
<line x1="248.000000" y1="132.000000" x2="252.000000" y2="132.000000"  style="stroke:black; stroke-linecap:round; stroke-width:0.25;"/>
<line x1="252.000000" y1="36.000000" x2="260.000000" y2="36.000000"  style="stroke:black; stroke-linecap:round; stroke-width:0.25;"/>
<line x1="252.000000" y1="120.000000" x2="260.000000" y2="120.000000"  style="stroke:black; stroke-linecap:round; stroke-width:0.25;"/>
<line x1="252.000000" y1="132.000000" x2="252.000000" y2="120.000000"  style="stroke:black; stroke-linecap:round; stroke-width:0.25;"/>
<line x1="252.000000" y1="132.000000" x2="252.000000" y2="132.000000"  style="stroke:black; stroke-linecap:round; stroke-width:0.25;"/>
<line x1="260.000000" y1="36.000000" x2="260.000000" y2="112.000000"  style="stroke:black; stroke-linecap:round; stroke-width:0.25;"/>
<line x1="260.000000" y1="112.000000" x2="260.000000" y2="112.000000"  style="stroke:black; stroke-linecap:round; stroke-width:0.25;"/>
<line x1="260.000000" y1="112.000000" x2="264.000000" y2="112.000000"  style="stroke:black; stroke-linecap:round; stroke-width:0.25;"/>
<line x1="260.000000" y1="120.000000" x2="264.000000" y2="120.000000"  style="stroke:black; stroke-linecap:round; stroke-width:0.25;"/>
<line x1="288.000000" y1="116.000000" x2="292.000000" y2="116.000000"  style="stroke:black; stroke-linecap:round; stroke-width:0.25;"/>
<line x1="292.000000" y1="116.000000" x2="292.000000" y2="116.000000"  style="stroke:black; stroke-linecap:round; stroke-width:0.25;"/>
<line x1="292.000000" y1="116.000000" x2="296.000000" y2="116.000000"  style="stroke:black; stroke-linecap:round; stroke-width:0.25;"/>
<line x1="296.000000" y1="116.000000" x2="300.000000" y2="116.000000"  style="stroke:black; stroke-linecap:round; stroke-width:0.25;"/>
<line x1="300.000000" y1="116.000000" x2="310.000000" y2="116.000000"  style="stroke:black; stroke-linecap:round; stroke-width:0.25;"/>
</svg>
