<?xml version="1.0"?>
<svg xmlns="http://www.w3.org/2000/svg" xmlns:xlink="http://www.w3.org/1999/xlink" viewBox="0 0 490.500000 232.000000" width="245.250000mm" height="116.000000mm" version="1.1">
<a xlink:href="if-0x7fded060e3a0.svg">
<rect x="1.000000" y="1.000000" width="489.500000" height="231.000000" rx="0" ry="0" style="stroke:none;fill:#cccccc;"/>
<rect x="0.000000" y="0.000000" width="489.500000" height="231.000000" rx="0" ry="0" style="stroke:none;fill:#ffffff;"/>
</a>
<text x="10.000000" y="7.000000" font-family="Arial" font-size="7"></text>
<rect x="158.900000" y="25.000000" width="24.000000" height="24.000000" rx="0" ry="0" style="stroke:none;fill:#cccccc;"/>
<rect x="157.900000" y="24.000000" width="24.000000" height="24.000000" rx="0" ry="0" style="stroke:none;fill:#47945E;"/>
<text x="169.900000" y="38.000000" font-family="Arial" font-size="7" text-anchor="middle" fill="#FFFFFF">ip</text>
<circle cx="159.900000" cy="26.000000" r="1"/>
<rect x="158.900000" y="57.000000" width="24.000000" height="24.000000" rx="0" ry="0" style="stroke:none;fill:#cccccc;"/>
<rect x="157.900000" y="56.000000" width="24.000000" height="24.000000" rx="0" ry="0" style="stroke:none;fill:#f44800;"/>
<text x="169.900000" y="70.000000" font-family="Arial" font-size="7" text-anchor="middle" fill="#FFFFFF">1</text>
<circle cx="159.900000" cy="58.000000" r="1"/>
<rect x="198.900000" y="41.000000" width="24.000000" height="24.000000" rx="0" ry="0" style="stroke:none;fill:#cccccc;"/>
<rect x="197.900000" y="40.000000" width="24.000000" height="24.000000" rx="0" ry="0" style="stroke:none;fill:#4B71A1;"/>
<text x="209.900000" y="54.000000" font-family="Arial" font-size="7" text-anchor="middle" fill="#FFFFFF">==</text>
<circle cx="199.900000" cy="42.000000" r="1"/>
<line x1="194.900000" y1="47.000000" x2="197.900000" y2="48.000000"  transform="rotate(0.000000,197.900000,48.000000)" style="stroke: black; stroke-width:0.25;"/>
<line x1="194.900000" y1="49.000000" x2="197.900000" y2="48.000000"  transform="rotate(0.000000,197.900000,48.000000)" style="stroke: black; stroke-width:0.25;"/>
<line x1="194.900000" y1="55.000000" x2="197.900000" y2="56.000000"  transform="rotate(0.000000,197.900000,56.000000)" style="stroke: black; stroke-width:0.25;"/>
<line x1="194.900000" y1="57.000000" x2="197.900000" y2="56.000000"  transform="rotate(0.000000,197.900000,56.000000)" style="stroke: black; stroke-width:0.25;"/>
<rect x="25.000000" y="89.000000" width="245.100000" height="24.000000" rx="0" ry="0" style="stroke:none;fill:#cccccc;"/>
<rect x="24.000000" y="88.000000" width="245.100000" height="24.000000" rx="0" ry="0" style="stroke:none;fill:#477881;"/>
<text x="146.550000" y="102.000000" font-family="Arial" font-size="7" text-anchor="middle" fill="#FFFFFF">nentry(LB distance (mseconds), 0.0f, 0.0f, 1.0f, 0.001f)</text>
<circle cx="26.000000" cy="90.000000" r="1"/>
<a xlink:href="sec2samp-0x7fdecf265450.svg">
<rect x="278.100000" y="89.000000" width="38.700000" height="24.000000" rx="0" ry="0" style="stroke:none;fill:#cccccc;"/>
<rect x="277.100000" y="88.000000" width="38.700000" height="24.000000" rx="0" ry="0" style="stroke:none;fill:#003366;"/>
</a>
<a xlink:href="sec2samp-0x7fdecf265450.svg">
<text x="296.450000" y="102.000000" font-family="Arial" font-size="7" text-anchor="middle" fill="#FFFFFF">sec2samp</text>
</a>
<circle cx="279.100000" cy="90.000000" r="1"/>
<line x1="274.100000" y1="99.000000" x2="277.100000" y2="100.000000"  transform="rotate(0.000000,277.100000,100.000000)" style="stroke: black; stroke-width:0.25;"/>
<line x1="274.100000" y1="101.000000" x2="277.100000" y2="100.000000"  transform="rotate(0.000000,277.100000,100.000000)" style="stroke: black; stroke-width:0.25;"/>
<rect x="158.900000" y="121.000000" width="24.000000" height="24.000000" rx="0" ry="0" style="stroke:none;fill:#cccccc;"/>
<rect x="157.900000" y="120.000000" width="24.000000" height="24.000000" rx="0" ry="0" style="stroke:none;fill:#47945E;"/>
<text x="169.900000" y="134.000000" font-family="Arial" font-size="7" text-anchor="middle" fill="#FFFFFF">d1</text>
<circle cx="159.900000" cy="122.000000" r="1"/>
<rect x="332.800000" y="105.000000" width="24.000000" height="24.000000" rx="0" ry="0" style="stroke:none;fill:#cccccc;"/>
<rect x="331.800000" y="104.000000" width="24.000000" height="24.000000" rx="0" ry="0" style="stroke:none;fill:#4B71A1;"/>
<text x="343.800000" y="118.000000" font-family="Arial" font-size="7" text-anchor="middle" fill="#FFFFFF">!=</text>
<circle cx="333.800000" cy="106.000000" r="1"/>
<line x1="328.800000" y1="111.000000" x2="331.800000" y2="112.000000"  transform="rotate(0.000000,331.800000,112.000000)" style="stroke: black; stroke-width:0.25;"/>
<line x1="328.800000" y1="113.000000" x2="331.800000" y2="112.000000"  transform="rotate(0.000000,331.800000,112.000000)" style="stroke: black; stroke-width:0.25;"/>
<line x1="328.800000" y1="119.000000" x2="331.800000" y2="120.000000"  transform="rotate(0.000000,331.800000,120.000000)" style="stroke: black; stroke-width:0.25;"/>
<line x1="328.800000" y1="121.000000" x2="331.800000" y2="120.000000"  transform="rotate(0.000000,331.800000,120.000000)" style="stroke: black; stroke-width:0.25;"/>
<rect x="372.800000" y="73.000000" width="24.000000" height="24.000000" rx="0" ry="0" style="stroke:none;fill:#cccccc;"/>
<rect x="371.800000" y="72.000000" width="24.000000" height="24.000000" rx="0" ry="0" style="stroke:none;fill:#4B71A1;"/>
<text x="383.800000" y="86.000000" font-family="Arial" font-size="7" text-anchor="middle" fill="#FFFFFF">&amp;</text>
<circle cx="373.800000" cy="74.000000" r="1"/>
<line x1="368.800000" y1="79.000000" x2="371.800000" y2="80.000000"  transform="rotate(0.000000,371.800000,80.000000)" style="stroke: black; stroke-width:0.25;"/>
<line x1="368.800000" y1="81.000000" x2="371.800000" y2="80.000000"  transform="rotate(0.000000,371.800000,80.000000)" style="stroke: black; stroke-width:0.25;"/>
<line x1="368.800000" y1="87.000000" x2="371.800000" y2="88.000000"  transform="rotate(0.000000,371.800000,88.000000)" style="stroke: black; stroke-width:0.25;"/>
<line x1="368.800000" y1="89.000000" x2="371.800000" y2="88.000000"  transform="rotate(0.000000,371.800000,88.000000)" style="stroke: black; stroke-width:0.25;"/>
<rect x="198.900000" y="153.000000" width="24.000000" height="24.000000" rx="0" ry="0" style="stroke:none;fill:#cccccc;"/>
<rect x="197.900000" y="152.000000" width="24.000000" height="24.000000" rx="0" ry="0" style="stroke:none;fill:#f44800;"/>
<text x="209.900000" y="166.000000" font-family="Arial" font-size="7" text-anchor="middle" fill="#FFFFFF">0</text>
<circle cx="199.900000" cy="154.000000" r="1"/>
<rect x="185.100000" y="185.000000" width="51.600000" height="24.000000" rx="0" ry="0" style="stroke:none;fill:#cccccc;"/>
<rect x="184.100000" y="184.000000" width="51.600000" height="24.000000" rx="0" ry="0" style="stroke:none;fill:#f44800;"/>
<text x="209.900000" y="198.000000" font-family="Arial" font-size="7" text-anchor="middle" fill="#FFFFFF">-0.000976562</text>
<circle cx="186.100000" cy="186.000000" r="1"/>
<rect x="420.800000" y="105.000000" width="38.700000" height="24.000000" rx="0" ry="0" style="stroke:none;fill:#cccccc;"/>
<rect x="419.800000" y="104.000000" width="38.700000" height="24.000000" rx="0" ry="0" style="stroke:none;fill:#4B71A1;"/>
<text x="439.150000" y="118.000000" font-family="Arial" font-size="7" text-anchor="middle" fill="#FFFFFF">select2</text>
<circle cx="421.800000" cy="106.000000" r="1"/>
<line x1="416.800000" y1="107.000000" x2="419.800000" y2="108.000000"  transform="rotate(0.000000,419.800000,108.000000)" style="stroke: black; stroke-width:0.25;"/>
<line x1="416.800000" y1="109.000000" x2="419.800000" y2="108.000000"  transform="rotate(0.000000,419.800000,108.000000)" style="stroke: black; stroke-width:0.25;"/>
<line x1="416.800000" y1="115.000000" x2="419.800000" y2="116.000000"  transform="rotate(0.000000,419.800000,116.000000)" style="stroke: black; stroke-width:0.25;"/>
<line x1="416.800000" y1="117.000000" x2="419.800000" y2="116.000000"  transform="rotate(0.000000,419.800000,116.000000)" style="stroke: black; stroke-width:0.25;"/>
<line x1="416.800000" y1="123.000000" x2="419.800000" y2="124.000000"  transform="rotate(0.000000,419.800000,124.000000)" style="stroke: black; stroke-width:0.25;"/>
<line x1="416.800000" y1="125.000000" x2="419.800000" y2="124.000000"  transform="rotate(0.000000,419.800000,124.000000)" style="stroke: black; stroke-width:0.25;"/>
<line x1="15.000000" y1="15.000000" x2="15.000000" y2="217.000000"  style="stroke: black; stroke-linecap:round; stroke-width:0.25; stroke-dasharray:3,3;"/>
<line x1="15.000000" y1="217.000000" x2="475.500000" y2="217.000000"  style="stroke: black; stroke-linecap:round; stroke-width:0.25; stroke-dasharray:3,3;"/>
<line x1="475.500000" y1="217.000000" x2="475.500000" y2="15.000000"  style="stroke: black; stroke-linecap:round; stroke-width:0.25; stroke-dasharray:3,3;"/>
<line x1="15.000000" y1="15.000000" x2="20.000000" y2="15.000000"  style="stroke: black; stroke-linecap:round; stroke-width:0.25; stroke-dasharray:3,3;"/>
<line x1="129.650000" y1="15.000000" x2="475.500000" y2="15.000000"  style="stroke: black; stroke-linecap:round; stroke-width:0.25; stroke-dasharray:3,3;"/>
<text x="20.000000" y="17.000000" font-family="Arial" font-size="7">if((x36,1.0f ....0009765625f)(0)</text>
<line x1="477.500000" y1="115.000000" x2="480.500000" y2="116.000000"  transform="rotate(0.000000,480.500000,116.000000)" style="stroke: black; stroke-width:0.25;"/>
<line x1="477.500000" y1="117.000000" x2="480.500000" y2="116.000000"  transform="rotate(0.000000,480.500000,116.000000)" style="stroke: black; stroke-width:0.25;"/>
<line x1="181.900000" y1="36.000000" x2="185.900000" y2="36.000000"  style="stroke:black; stroke-linecap:round; stroke-width:0.25;"/>
<line x1="181.900000" y1="68.000000" x2="185.900000" y2="68.000000"  style="stroke:black; stroke-linecap:round; stroke-width:0.25;"/>
<line x1="181.900000" y1="132.000000" x2="185.900000" y2="132.000000"  style="stroke:black; stroke-linecap:round; stroke-width:0.25;"/>
<line x1="185.900000" y1="36.000000" x2="193.900000" y2="36.000000"  style="stroke:black; stroke-linecap:round; stroke-width:0.25;"/>
<line x1="185.900000" y1="56.000000" x2="193.900000" y2="56.000000"  style="stroke:black; stroke-linecap:round; stroke-width:0.25;"/>
<line x1="185.900000" y1="68.000000" x2="185.900000" y2="56.000000"  style="stroke:black; stroke-linecap:round; stroke-width:0.25;"/>
<line x1="185.900000" y1="68.000000" x2="185.900000" y2="68.000000"  style="stroke:black; stroke-linecap:round; stroke-width:0.25;"/>
<line x1="185.900000" y1="132.000000" x2="319.800000" y2="132.000000"  style="stroke:black; stroke-linecap:round; stroke-width:0.25;"/>
<line x1="193.900000" y1="36.000000" x2="193.900000" y2="48.000000"  style="stroke:black; stroke-linecap:round; stroke-width:0.25;"/>
<line x1="193.900000" y1="48.000000" x2="193.900000" y2="48.000000"  style="stroke:black; stroke-linecap:round; stroke-width:0.25;"/>
<line x1="193.900000" y1="48.000000" x2="197.900000" y2="48.000000"  style="stroke:black; stroke-linecap:round; stroke-width:0.25;"/>
<line x1="193.900000" y1="56.000000" x2="197.900000" y2="56.000000"  style="stroke:black; stroke-linecap:round; stroke-width:0.25;"/>
<line x1="221.900000" y1="52.000000" x2="225.900000" y2="52.000000"  style="stroke:black; stroke-linecap:round; stroke-width:0.25;"/>
<line x1="221.900000" y1="164.000000" x2="225.900000" y2="164.000000"  style="stroke:black; stroke-linecap:round; stroke-width:0.25;"/>
<line x1="225.900000" y1="52.000000" x2="359.800000" y2="52.000000"  style="stroke:black; stroke-linecap:round; stroke-width:0.25;"/>
<line x1="225.900000" y1="164.000000" x2="239.700000" y2="164.000000"  style="stroke:black; stroke-linecap:round; stroke-width:0.25;"/>
<line x1="235.700000" y1="196.000000" x2="239.700000" y2="196.000000"  style="stroke:black; stroke-linecap:round; stroke-width:0.25;"/>
<line x1="239.700000" y1="196.000000" x2="399.800000" y2="196.000000"  style="stroke:black; stroke-linecap:round; stroke-width:0.25;"/>
<line x1="239.700000" y1="164.000000" x2="399.800000" y2="164.000000"  style="stroke:black; stroke-linecap:round; stroke-width:0.25;"/>
<line x1="269.100000" y1="100.000000" x2="273.100000" y2="100.000000"  style="stroke:black; stroke-linecap:round; stroke-width:0.25;"/>
<line x1="273.100000" y1="100.000000" x2="273.100000" y2="100.000000"  style="stroke:black; stroke-linecap:round; stroke-width:0.25;"/>
<line x1="273.100000" y1="100.000000" x2="277.100000" y2="100.000000"  style="stroke:black; stroke-linecap:round; stroke-width:0.25;"/>
<line x1="315.800000" y1="100.000000" x2="319.800000" y2="100.000000"  style="stroke:black; stroke-linecap:round; stroke-width:0.25;"/>
<line x1="319.800000" y1="100.000000" x2="327.800000" y2="100.000000"  style="stroke:black; stroke-linecap:round; stroke-width:0.25;"/>
<line x1="319.800000" y1="120.000000" x2="327.800000" y2="120.000000"  style="stroke:black; stroke-linecap:round; stroke-width:0.25;"/>
<line x1="319.800000" y1="132.000000" x2="319.800000" y2="120.000000"  style="stroke:black; stroke-linecap:round; stroke-width:0.25;"/>
<line x1="319.800000" y1="132.000000" x2="319.800000" y2="132.000000"  style="stroke:black; stroke-linecap:round; stroke-width:0.25;"/>
<line x1="327.800000" y1="100.000000" x2="327.800000" y2="112.000000"  style="stroke:black; stroke-linecap:round; stroke-width:0.25;"/>
<line x1="327.800000" y1="112.000000" x2="327.800000" y2="112.000000"  style="stroke:black; stroke-linecap:round; stroke-width:0.25;"/>
<line x1="327.800000" y1="112.000000" x2="331.800000" y2="112.000000"  style="stroke:black; stroke-linecap:round; stroke-width:0.25;"/>
<line x1="327.800000" y1="120.000000" x2="331.800000" y2="120.000000"  style="stroke:black; stroke-linecap:round; stroke-width:0.25;"/>
<line x1="355.800000" y1="116.000000" x2="359.800000" y2="116.000000"  style="stroke:black; stroke-linecap:round; stroke-width:0.25;"/>
<line x1="359.800000" y1="52.000000" x2="367.800000" y2="52.000000"  style="stroke:black; stroke-linecap:round; stroke-width:0.25;"/>
<line x1="359.800000" y1="88.000000" x2="367.800000" y2="88.000000"  style="stroke:black; stroke-linecap:round; stroke-width:0.25;"/>
<line x1="359.800000" y1="116.000000" x2="359.800000" y2="88.000000"  style="stroke:black; stroke-linecap:round; stroke-width:0.25;"/>
<line x1="359.800000" y1="116.000000" x2="359.800000" y2="116.000000"  style="stroke:black; stroke-linecap:round; stroke-width:0.25;"/>
<line x1="367.800000" y1="52.000000" x2="367.800000" y2="80.000000"  style="stroke:black; stroke-linecap:round; stroke-width:0.25;"/>
<line x1="367.800000" y1="80.000000" x2="367.800000" y2="80.000000"  style="stroke:black; stroke-linecap:round; stroke-width:0.25;"/>
<line x1="367.800000" y1="80.000000" x2="371.800000" y2="80.000000"  style="stroke:black; stroke-linecap:round; stroke-width:0.25;"/>
<line x1="367.800000" y1="88.000000" x2="371.800000" y2="88.000000"  style="stroke:black; stroke-linecap:round; stroke-width:0.25;"/>
<line x1="395.800000" y1="84.000000" x2="399.800000" y2="84.000000"  style="stroke:black; stroke-linecap:round; stroke-width:0.25;"/>
<line x1="399.800000" y1="84.000000" x2="415.800000" y2="84.000000"  style="stroke:black; stroke-linecap:round; stroke-width:0.25;"/>
<line x1="399.800000" y1="116.000000" x2="415.800000" y2="116.000000"  style="stroke:black; stroke-linecap:round; stroke-width:0.25;"/>
<line x1="399.800000" y1="164.000000" x2="399.800000" y2="116.000000"  style="stroke:black; stroke-linecap:round; stroke-width:0.25;"/>
<line x1="399.800000" y1="164.000000" x2="399.800000" y2="164.000000"  style="stroke:black; stroke-linecap:round; stroke-width:0.25;"/>
<line x1="399.800000" y1="196.000000" x2="407.800000" y2="196.000000"  style="stroke:black; stroke-linecap:round; stroke-width:0.25;"/>
<line x1="407.800000" y1="124.000000" x2="415.800000" y2="124.000000"  style="stroke:black; stroke-linecap:round; stroke-width:0.25;"/>
<line x1="407.800000" y1="196.000000" x2="407.800000" y2="124.000000"  style="stroke:black; stroke-linecap:round; stroke-width:0.25;"/>
<line x1="415.800000" y1="84.000000" x2="415.800000" y2="108.000000"  style="stroke:black; stroke-linecap:round; stroke-width:0.25;"/>
<line x1="415.800000" y1="108.000000" x2="415.800000" y2="108.000000"  style="stroke:black; stroke-linecap:round; stroke-width:0.25;"/>
<line x1="415.800000" y1="108.000000" x2="419.800000" y2="108.000000"  style="stroke:black; stroke-linecap:round; stroke-width:0.25;"/>
<line x1="415.800000" y1="116.000000" x2="419.800000" y2="116.000000"  style="stroke:black; stroke-linecap:round; stroke-width:0.25;"/>
<line x1="415.800000" y1="124.000000" x2="419.800000" y2="124.000000"  style="stroke:black; stroke-linecap:round; stroke-width:0.25;"/>
<line x1="458.500000" y1="116.000000" x2="462.500000" y2="116.000000"  style="stroke:black; stroke-linecap:round; stroke-width:0.25;"/>
<line x1="462.500000" y1="116.000000" x2="462.500000" y2="116.000000"  style="stroke:black; stroke-linecap:round; stroke-width:0.25;"/>
<line x1="462.500000" y1="116.000000" x2="466.500000" y2="116.000000"  style="stroke:black; stroke-linecap:round; stroke-width:0.25;"/>
<line x1="466.500000" y1="116.000000" x2="470.500000" y2="116.000000"  style="stroke:black; stroke-linecap:round; stroke-width:0.25;"/>
<line x1="470.500000" y1="116.000000" x2="480.500000" y2="116.000000"  style="stroke:black; stroke-linecap:round; stroke-width:0.25;"/>
</svg>
