<?xml version="1.0"?>
<svg xmlns="http://www.w3.org/2000/svg" xmlns:xlink="http://www.w3.org/1999/xlink" viewBox="0 0 323.700000 80.000000" width="161.850000mm" height="40.000000mm" version="1.1">
<a xlink:href="PGM1-0x7f8443ea7b30.svg">
<rect x="1.000000" y="1.000000" width="322.700000" height="79.000000" rx="0" ry="0" style="stroke:none;fill:#cccccc;"/>
<rect x="0.000000" y="0.000000" width="322.700000" height="79.000000" rx="0" ry="0" style="stroke:none;fill:#ffffff;"/>
</a>
<text x="10.000000" y="7.000000" font-family="Arial" font-size="7"></text>
<rect x="41.000000" y="33.000000" width="25.800000" height="24.000000" rx="0" ry="0" style="stroke:none;fill:#cccccc;"/>
<rect x="40.000000" y="32.000000" width="25.800000" height="24.000000" rx="0" ry="0" style="stroke:none;fill:#f44800;"/>
<text x="52.900000" y="46.000000" font-family="Arial" font-size="7" text-anchor="middle" fill="#FFFFFF">0.06</text>
<circle cx="42.000000" cy="34.000000" r="1"/>
<rect x="82.800000" y="29.000000" width="24.000000" height="24.000000" rx="0" ry="0" style="stroke:none;fill:#cccccc;"/>
<rect x="81.800000" y="28.000000" width="24.000000" height="24.000000" rx="0" ry="0" style="stroke:none;fill:#4B71A1;"/>
<text x="93.800000" y="42.000000" font-family="Arial" font-size="7" text-anchor="middle" fill="#FFFFFF">*</text>
<circle cx="83.800000" cy="30.000000" r="1"/>
<line x1="78.800000" y1="35.000000" x2="81.800000" y2="36.000000"  transform="rotate(0.000000,81.800000,36.000000)" style="stroke: black; stroke-width:0.25;"/>
<line x1="78.800000" y1="37.000000" x2="81.800000" y2="36.000000"  transform="rotate(0.000000,81.800000,36.000000)" style="stroke: black; stroke-width:0.25;"/>
<line x1="78.800000" y1="43.000000" x2="81.800000" y2="44.000000"  transform="rotate(0.000000,81.800000,44.000000)" style="stroke: black; stroke-width:0.25;"/>
<line x1="78.800000" y1="45.000000" x2="81.800000" y2="44.000000"  transform="rotate(0.000000,81.800000,44.000000)" style="stroke: black; stroke-width:0.25;"/>
<a xlink:href="allpass-0x7f8443bf3be0.svg">
<rect x="114.800000" y="29.000000" width="64.500000" height="24.000000" rx="0" ry="0" style="stroke:none;fill:#cccccc;"/>
<rect x="113.800000" y="28.000000" width="64.500000" height="24.000000" rx="0" ry="0" style="stroke:none;fill:#003366;"/>
</a>
<a xlink:href="allpass-0x7f8443bf3be0.svg">
<text x="146.050000" y="42.000000" font-family="Arial" font-size="7" text-anchor="middle" fill="#FFFFFF">allpass_chain</text>
</a>
<circle cx="115.800000" cy="30.000000" r="1"/>
<line x1="110.800000" y1="39.000000" x2="113.800000" y2="40.000000"  transform="rotate(0.000000,113.800000,40.000000)" style="stroke: black; stroke-width:0.25;"/>
<line x1="110.800000" y1="41.000000" x2="113.800000" y2="40.000000"  transform="rotate(0.000000,113.800000,40.000000)" style="stroke: black; stroke-width:0.25;"/>
<a xlink:href="comb-0x7f8443e005f0.svg">
<rect x="207.300000" y="25.000000" width="38.700000" height="32.000000" rx="0" ry="0" style="stroke:none;fill:#cccccc;"/>
<rect x="206.300000" y="24.000000" width="38.700000" height="32.000000" rx="0" ry="0" style="stroke:none;fill:#003366;"/>
</a>
<a xlink:href="comb-0x7f8443e005f0.svg">
<text x="225.650000" y="42.000000" font-family="Arial" font-size="7" text-anchor="middle" fill="#FFFFFF">comb_bank</text>
</a>
<circle cx="208.300000" cy="26.000000" r="1"/>
<line x1="203.300000" y1="27.000000" x2="206.300000" y2="28.000000"  transform="rotate(0.000000,206.300000,28.000000)" style="stroke: black; stroke-width:0.25;"/>
<line x1="203.300000" y1="29.000000" x2="206.300000" y2="28.000000"  transform="rotate(0.000000,206.300000,28.000000)" style="stroke: black; stroke-width:0.25;"/>
<line x1="203.300000" y1="35.000000" x2="206.300000" y2="36.000000"  transform="rotate(0.000000,206.300000,36.000000)" style="stroke: black; stroke-width:0.25;"/>
<line x1="203.300000" y1="37.000000" x2="206.300000" y2="36.000000"  transform="rotate(0.000000,206.300000,36.000000)" style="stroke: black; stroke-width:0.25;"/>
<line x1="203.300000" y1="43.000000" x2="206.300000" y2="44.000000"  transform="rotate(0.000000,206.300000,44.000000)" style="stroke: black; stroke-width:0.25;"/>
<line x1="203.300000" y1="45.000000" x2="206.300000" y2="44.000000"  transform="rotate(0.000000,206.300000,44.000000)" style="stroke: black; stroke-width:0.25;"/>
<line x1="203.300000" y1="51.000000" x2="206.300000" y2="52.000000"  transform="rotate(0.000000,206.300000,52.000000)" style="stroke: black; stroke-width:0.25;"/>
<line x1="203.300000" y1="53.000000" x2="206.300000" y2="52.000000"  transform="rotate(0.000000,206.300000,52.000000)" style="stroke: black; stroke-width:0.25;"/>
<a xlink:href="mix-0x7f844224b4f0.svg">
<rect x="254.000000" y="25.000000" width="38.700000" height="32.000000" rx="0" ry="0" style="stroke:none;fill:#cccccc;"/>
<rect x="253.000000" y="24.000000" width="38.700000" height="32.000000" rx="0" ry="0" style="stroke:none;fill:#003366;"/>
</a>
<a xlink:href="mix-0x7f844224b4f0.svg">
<text x="272.350000" y="42.000000" font-family="Arial" font-size="7" text-anchor="middle" fill="#FFFFFF">mix_mtx</text>
</a>
<circle cx="255.000000" cy="26.000000" r="1"/>
<line x1="250.000000" y1="27.000000" x2="253.000000" y2="28.000000"  transform="rotate(0.000000,253.000000,28.000000)" style="stroke: black; stroke-width:0.25;"/>
<line x1="250.000000" y1="29.000000" x2="253.000000" y2="28.000000"  transform="rotate(0.000000,253.000000,28.000000)" style="stroke: black; stroke-width:0.25;"/>
<line x1="250.000000" y1="35.000000" x2="253.000000" y2="36.000000"  transform="rotate(0.000000,253.000000,36.000000)" style="stroke: black; stroke-width:0.25;"/>
<line x1="250.000000" y1="37.000000" x2="253.000000" y2="36.000000"  transform="rotate(0.000000,253.000000,36.000000)" style="stroke: black; stroke-width:0.25;"/>
<line x1="250.000000" y1="43.000000" x2="253.000000" y2="44.000000"  transform="rotate(0.000000,253.000000,44.000000)" style="stroke: black; stroke-width:0.25;"/>
<line x1="250.000000" y1="45.000000" x2="253.000000" y2="44.000000"  transform="rotate(0.000000,253.000000,44.000000)" style="stroke: black; stroke-width:0.25;"/>
<line x1="250.000000" y1="51.000000" x2="253.000000" y2="52.000000"  transform="rotate(0.000000,253.000000,52.000000)" style="stroke: black; stroke-width:0.25;"/>
<line x1="250.000000" y1="53.000000" x2="253.000000" y2="52.000000"  transform="rotate(0.000000,253.000000,52.000000)" style="stroke: black; stroke-width:0.25;"/>
<line x1="15.000000" y1="15.000000" x2="15.000000" y2="65.000000"  style="stroke: black; stroke-linecap:round; stroke-width:0.25; stroke-dasharray:3,3;"/>
<line x1="15.000000" y1="65.000000" x2="308.700000" y2="65.000000"  style="stroke: black; stroke-linecap:round; stroke-width:0.25; stroke-dasharray:3,3;"/>
<line x1="308.700000" y1="65.000000" x2="308.700000" y2="15.000000"  style="stroke: black; stroke-linecap:round; stroke-width:0.25; stroke-dasharray:3,3;"/>
<line x1="15.000000" y1="15.000000" x2="20.000000" y2="15.000000"  style="stroke: black; stroke-linecap:round; stroke-width:0.25; stroke-dasharray:3,3;"/>
<line x1="42.575000" y1="15.000000" x2="308.700000" y2="15.000000"  style="stroke: black; stroke-linecap:round; stroke-width:0.25; stroke-dasharray:3,3;"/>
<text x="20.000000" y="17.000000" font-family="Arial" font-size="7">jcrev</text>
<line x1="310.700000" y1="27.000000" x2="313.700000" y2="28.000000"  transform="rotate(0.000000,313.700000,28.000000)" style="stroke: black; stroke-width:0.25;"/>
<line x1="310.700000" y1="29.000000" x2="313.700000" y2="28.000000"  transform="rotate(0.000000,313.700000,28.000000)" style="stroke: black; stroke-width:0.25;"/>
<line x1="310.700000" y1="35.000000" x2="313.700000" y2="36.000000"  transform="rotate(0.000000,313.700000,36.000000)" style="stroke: black; stroke-width:0.25;"/>
<line x1="310.700000" y1="37.000000" x2="313.700000" y2="36.000000"  transform="rotate(0.000000,313.700000,36.000000)" style="stroke: black; stroke-width:0.25;"/>
<line x1="310.700000" y1="43.000000" x2="313.700000" y2="44.000000"  transform="rotate(0.000000,313.700000,44.000000)" style="stroke: black; stroke-width:0.25;"/>
<line x1="310.700000" y1="45.000000" x2="313.700000" y2="44.000000"  transform="rotate(0.000000,313.700000,44.000000)" style="stroke: black; stroke-width:0.25;"/>
<line x1="310.700000" y1="51.000000" x2="313.700000" y2="52.000000"  transform="rotate(0.000000,313.700000,52.000000)" style="stroke: black; stroke-width:0.25;"/>
<line x1="310.700000" y1="53.000000" x2="313.700000" y2="52.000000"  transform="rotate(0.000000,313.700000,52.000000)" style="stroke: black; stroke-width:0.25;"/>
<line x1="10.000000" y1="40.000000" x2="20.000000" y2="40.000000"  style="stroke:black; stroke-linecap:round; stroke-width:0.25;"/>
<line x1="20.000000" y1="40.000000" x2="24.000000" y2="40.000000"  style="stroke:black; stroke-linecap:round; stroke-width:0.25;"/>
<line x1="24.000000" y1="40.000000" x2="28.000000" y2="40.000000"  style="stroke:black; stroke-linecap:round; stroke-width:0.25;"/>
<line x1="28.000000" y1="24.000000" x2="36.000000" y2="24.000000"  style="stroke:black; stroke-linecap:round; stroke-width:0.25;"/>
<line x1="28.000000" y1="40.000000" x2="28.000000" y2="24.000000"  style="stroke:black; stroke-linecap:round; stroke-width:0.25;"/>
<line x1="28.000000" y1="40.000000" x2="28.000000" y2="40.000000"  style="stroke:black; stroke-linecap:round; stroke-width:0.25;"/>
<line x1="36.000000" y1="24.000000" x2="52.900000" y2="24.000000"  style="stroke:black; stroke-linecap:round; stroke-width:0.25;"/>
<line x1="52.900000" y1="24.000000" x2="69.800000" y2="24.000000"  style="stroke:black; stroke-linecap:round; stroke-width:0.25;"/>
<line x1="65.800000" y1="44.000000" x2="69.800000" y2="44.000000"  style="stroke:black; stroke-linecap:round; stroke-width:0.25;"/>
<line x1="69.800000" y1="24.000000" x2="77.800000" y2="24.000000"  style="stroke:black; stroke-linecap:round; stroke-width:0.25;"/>
<line x1="69.800000" y1="44.000000" x2="77.800000" y2="44.000000"  style="stroke:black; stroke-linecap:round; stroke-width:0.25;"/>
<line x1="77.800000" y1="24.000000" x2="77.800000" y2="36.000000"  style="stroke:black; stroke-linecap:round; stroke-width:0.25;"/>
<line x1="77.800000" y1="36.000000" x2="77.800000" y2="36.000000"  style="stroke:black; stroke-linecap:round; stroke-width:0.25;"/>
<line x1="77.800000" y1="36.000000" x2="81.800000" y2="36.000000"  style="stroke:black; stroke-linecap:round; stroke-width:0.25;"/>
<line x1="77.800000" y1="44.000000" x2="81.800000" y2="44.000000"  style="stroke:black; stroke-linecap:round; stroke-width:0.25;"/>
<line x1="105.800000" y1="40.000000" x2="109.800000" y2="40.000000"  style="stroke:black; stroke-linecap:round; stroke-width:0.25;"/>
<line x1="109.800000" y1="40.000000" x2="109.800000" y2="40.000000"  style="stroke:black; stroke-linecap:round; stroke-width:0.25;"/>
<line x1="109.800000" y1="40.000000" x2="113.800000" y2="40.000000"  style="stroke:black; stroke-linecap:round; stroke-width:0.25;"/>
<line x1="178.300000" y1="40.000000" x2="182.300000" y2="40.000000"  style="stroke:black; stroke-linecap:round; stroke-width:0.25;"/>
<line x1="182.300000" y1="40.000000" x2="202.300000" y2="28.000000"  style="stroke:black; stroke-linecap:round; stroke-width:0.25;"/>
<line x1="182.300000" y1="40.000000" x2="202.300000" y2="36.000000"  style="stroke:black; stroke-linecap:round; stroke-width:0.25;"/>
<line x1="182.300000" y1="40.000000" x2="202.300000" y2="44.000000"  style="stroke:black; stroke-linecap:round; stroke-width:0.25;"/>
<line x1="182.300000" y1="40.000000" x2="202.300000" y2="52.000000"  style="stroke:black; stroke-linecap:round; stroke-width:0.25;"/>
<line x1="202.300000" y1="28.000000" x2="206.300000" y2="28.000000"  style="stroke:black; stroke-linecap:round; stroke-width:0.25;"/>
<line x1="202.300000" y1="36.000000" x2="206.300000" y2="36.000000"  style="stroke:black; stroke-linecap:round; stroke-width:0.25;"/>
<line x1="202.300000" y1="44.000000" x2="206.300000" y2="44.000000"  style="stroke:black; stroke-linecap:round; stroke-width:0.25;"/>
<line x1="202.300000" y1="52.000000" x2="206.300000" y2="52.000000"  style="stroke:black; stroke-linecap:round; stroke-width:0.25;"/>
<line x1="245.000000" y1="28.000000" x2="249.000000" y2="28.000000"  style="stroke:black; stroke-linecap:round; stroke-width:0.25;"/>
<line x1="245.000000" y1="36.000000" x2="249.000000" y2="36.000000"  style="stroke:black; stroke-linecap:round; stroke-width:0.25;"/>
<line x1="245.000000" y1="44.000000" x2="249.000000" y2="44.000000"  style="stroke:black; stroke-linecap:round; stroke-width:0.25;"/>
<line x1="245.000000" y1="52.000000" x2="249.000000" y2="52.000000"  style="stroke:black; stroke-linecap:round; stroke-width:0.25;"/>
<line x1="249.000000" y1="28.000000" x2="249.000000" y2="28.000000"  style="stroke:black; stroke-linecap:round; stroke-width:0.25;"/>
<line x1="249.000000" y1="28.000000" x2="253.000000" y2="28.000000"  style="stroke:black; stroke-linecap:round; stroke-width:0.25;"/>
<line x1="249.000000" y1="36.000000" x2="249.000000" y2="36.000000"  style="stroke:black; stroke-linecap:round; stroke-width:0.25;"/>
<line x1="249.000000" y1="36.000000" x2="253.000000" y2="36.000000"  style="stroke:black; stroke-linecap:round; stroke-width:0.25;"/>
<line x1="249.000000" y1="44.000000" x2="249.000000" y2="44.000000"  style="stroke:black; stroke-linecap:round; stroke-width:0.25;"/>
<line x1="249.000000" y1="44.000000" x2="253.000000" y2="44.000000"  style="stroke:black; stroke-linecap:round; stroke-width:0.25;"/>
<line x1="249.000000" y1="52.000000" x2="249.000000" y2="52.000000"  style="stroke:black; stroke-linecap:round; stroke-width:0.25;"/>
<line x1="249.000000" y1="52.000000" x2="253.000000" y2="52.000000"  style="stroke:black; stroke-linecap:round; stroke-width:0.25;"/>
<line x1="291.700000" y1="28.000000" x2="295.700000" y2="28.000000"  style="stroke:black; stroke-linecap:round; stroke-width:0.25;"/>
<line x1="291.700000" y1="36.000000" x2="295.700000" y2="36.000000"  style="stroke:black; stroke-linecap:round; stroke-width:0.25;"/>
<line x1="291.700000" y1="44.000000" x2="295.700000" y2="44.000000"  style="stroke:black; stroke-linecap:round; stroke-width:0.25;"/>
<line x1="291.700000" y1="52.000000" x2="295.700000" y2="52.000000"  style="stroke:black; stroke-linecap:round; stroke-width:0.25;"/>
<line x1="295.700000" y1="28.000000" x2="295.700000" y2="28.000000"  style="stroke:black; stroke-linecap:round; stroke-width:0.25;"/>
<line x1="295.700000" y1="28.000000" x2="299.700000" y2="28.000000"  style="stroke:black; stroke-linecap:round; stroke-width:0.25;"/>
<line x1="295.700000" y1="36.000000" x2="295.700000" y2="36.000000"  style="stroke:black; stroke-linecap:round; stroke-width:0.25;"/>
<line x1="295.700000" y1="36.000000" x2="299.700000" y2="36.000000"  style="stroke:black; stroke-linecap:round; stroke-width:0.25;"/>
<line x1="295.700000" y1="44.000000" x2="295.700000" y2="44.000000"  style="stroke:black; stroke-linecap:round; stroke-width:0.25;"/>
<line x1="295.700000" y1="44.000000" x2="299.700000" y2="44.000000"  style="stroke:black; stroke-linecap:round; stroke-width:0.25;"/>
<line x1="295.700000" y1="52.000000" x2="295.700000" y2="52.000000"  style="stroke:black; stroke-linecap:round; stroke-width:0.25;"/>
<line x1="295.700000" y1="52.000000" x2="299.700000" y2="52.000000"  style="stroke:black; stroke-linecap:round; stroke-width:0.25;"/>
<line x1="299.700000" y1="28.000000" x2="303.700000" y2="28.000000"  style="stroke:black; stroke-linecap:round; stroke-width:0.25;"/>
<line x1="299.700000" y1="36.000000" x2="303.700000" y2="36.000000"  style="stroke:black; stroke-linecap:round; stroke-width:0.25;"/>
<line x1="299.700000" y1="44.000000" x2="303.700000" y2="44.000000"  style="stroke:black; stroke-linecap:round; stroke-width:0.25;"/>
<line x1="299.700000" y1="52.000000" x2="303.700000" y2="52.000000"  style="stroke:black; stroke-linecap:round; stroke-width:0.25;"/>
<line x1="303.700000" y1="28.000000" x2="313.700000" y2="28.000000"  style="stroke:black; stroke-linecap:round; stroke-width:0.25;"/>
<line x1="303.700000" y1="36.000000" x2="313.700000" y2="36.000000"  style="stroke:black; stroke-linecap:round; stroke-width:0.25;"/>
<line x1="303.700000" y1="44.000000" x2="313.700000" y2="44.000000"  style="stroke:black; stroke-linecap:round; stroke-width:0.25;"/>
<line x1="303.700000" y1="52.000000" x2="313.700000" y2="52.000000"  style="stroke:black; stroke-linecap:round; stroke-width:0.25;"/>
</svg>
