<?xml version="1.0"?>
<svg xmlns="http://www.w3.org/2000/svg" xmlns:xlink="http://www.w3.org/1999/xlink" viewBox="0 0 213.800000 248.000000" width="106.900000mm" height="124.000000mm" version="1.1">
<a xlink:href="jcrev-0x7fa3c6cc9140.svg">
<rect x="1.000000" y="1.000000" width="212.800000" height="247.000000" rx="0" ry="0" style="stroke:none;fill:#cccccc;"/>
<rect x="0.000000" y="0.000000" width="212.800000" height="247.000000" rx="0" ry="0" style="stroke:none;fill:#ffffff;"/>
</a>
<text x="10.000000" y="7.000000" font-family="Arial" font-size="7"></text>
<rect x="101.900000" y="57.000000" width="24.000000" height="24.000000" rx="0" ry="0" style="stroke:none;fill:#cccccc;"/>
<rect x="100.900000" y="56.000000" width="24.000000" height="24.000000" rx="0" ry="0" style="stroke:none;fill:#f44800;"/>
<text x="112.900000" y="70.000000" font-family="Arial" font-size="7" text-anchor="middle" fill="#FFFFFF">0</text>
<circle cx="102.900000" cy="58.000000" r="1"/>
<rect x="141.900000" y="73.000000" width="24.000000" height="24.000000" rx="0" ry="0" style="stroke:none;fill:#cccccc;"/>
<rect x="140.900000" y="72.000000" width="24.000000" height="24.000000" rx="0" ry="0" style="stroke:none;fill:#4B71A1;"/>
<text x="152.900000" y="86.000000" font-family="Arial" font-size="7" text-anchor="middle" fill="#FFFFFF">-</text>
<circle cx="142.900000" cy="74.000000" r="1"/>
<line x1="137.900000" y1="79.000000" x2="140.900000" y2="80.000000"  transform="rotate(0.000000,140.900000,80.000000)" style="stroke: black; stroke-width:0.25;"/>
<line x1="137.900000" y1="81.000000" x2="140.900000" y2="80.000000"  transform="rotate(0.000000,140.900000,80.000000)" style="stroke: black; stroke-width:0.25;"/>
<line x1="137.900000" y1="87.000000" x2="140.900000" y2="88.000000"  transform="rotate(0.000000,140.900000,88.000000)" style="stroke: black; stroke-width:0.25;"/>
<line x1="137.900000" y1="89.000000" x2="140.900000" y2="88.000000"  transform="rotate(0.000000,140.900000,88.000000)" style="stroke: black; stroke-width:0.25;"/>
<a xlink:href="asum-0x7fa3c47a4650.svg">
<rect x="121.000000" y="121.000000" width="25.800000" height="32.000000" rx="0" ry="0" style="stroke:none;fill:#cccccc;"/>
<rect x="120.000000" y="120.000000" width="25.800000" height="32.000000" rx="0" ry="0" style="stroke:none;fill:#003366;"/>
</a>
<a xlink:href="asum-0x7fa3c47a4650.svg">
<text x="132.900000" y="138.000000" font-family="Arial" font-size="7" text-anchor="middle" fill="#FFFFFF">asum</text>
</a>
<circle cx="122.000000" cy="122.000000" r="1"/>
<line x1="117.000000" y1="123.000000" x2="120.000000" y2="124.000000"  transform="rotate(0.000000,120.000000,124.000000)" style="stroke: black; stroke-width:0.25;"/>
<line x1="117.000000" y1="125.000000" x2="120.000000" y2="124.000000"  transform="rotate(0.000000,120.000000,124.000000)" style="stroke: black; stroke-width:0.25;"/>
<line x1="117.000000" y1="131.000000" x2="120.000000" y2="132.000000"  transform="rotate(0.000000,120.000000,132.000000)" style="stroke: black; stroke-width:0.25;"/>
<line x1="117.000000" y1="133.000000" x2="120.000000" y2="132.000000"  transform="rotate(0.000000,120.000000,132.000000)" style="stroke: black; stroke-width:0.25;"/>
<line x1="117.000000" y1="139.000000" x2="120.000000" y2="140.000000"  transform="rotate(0.000000,120.000000,140.000000)" style="stroke: black; stroke-width:0.25;"/>
<line x1="117.000000" y1="141.000000" x2="120.000000" y2="140.000000"  transform="rotate(0.000000,120.000000,140.000000)" style="stroke: black; stroke-width:0.25;"/>
<line x1="117.000000" y1="147.000000" x2="120.000000" y2="148.000000"  transform="rotate(0.000000,120.000000,148.000000)" style="stroke: black; stroke-width:0.25;"/>
<line x1="117.000000" y1="149.000000" x2="120.000000" y2="148.000000"  transform="rotate(0.000000,120.000000,148.000000)" style="stroke: black; stroke-width:0.25;"/>
<rect x="101.900000" y="161.000000" width="24.000000" height="24.000000" rx="0" ry="0" style="stroke:none;fill:#cccccc;"/>
<rect x="100.900000" y="160.000000" width="24.000000" height="24.000000" rx="0" ry="0" style="stroke:none;fill:#f44800;"/>
<text x="112.900000" y="174.000000" font-family="Arial" font-size="7" text-anchor="middle" fill="#FFFFFF">0</text>
<circle cx="102.900000" cy="162.000000" r="1"/>
<a xlink:href="asum-0x7fa3c47a4650.svg">
<rect x="101.000000" y="193.000000" width="25.800000" height="32.000000" rx="0" ry="0" style="stroke:none;fill:#cccccc;"/>
<rect x="100.000000" y="192.000000" width="25.800000" height="32.000000" rx="0" ry="0" style="stroke:none;fill:#003366;"/>
</a>
<a xlink:href="asum-0x7fa3c47a4650.svg">
<text x="112.900000" y="210.000000" font-family="Arial" font-size="7" text-anchor="middle" fill="#FFFFFF">asum</text>
</a>
<circle cx="102.000000" cy="194.000000" r="1"/>
<line x1="97.000000" y1="195.000000" x2="100.000000" y2="196.000000"  transform="rotate(0.000000,100.000000,196.000000)" style="stroke: black; stroke-width:0.25;"/>
<line x1="97.000000" y1="197.000000" x2="100.000000" y2="196.000000"  transform="rotate(0.000000,100.000000,196.000000)" style="stroke: black; stroke-width:0.25;"/>
<line x1="97.000000" y1="203.000000" x2="100.000000" y2="204.000000"  transform="rotate(0.000000,100.000000,204.000000)" style="stroke: black; stroke-width:0.25;"/>
<line x1="97.000000" y1="205.000000" x2="100.000000" y2="204.000000"  transform="rotate(0.000000,100.000000,204.000000)" style="stroke: black; stroke-width:0.25;"/>
<line x1="97.000000" y1="211.000000" x2="100.000000" y2="212.000000"  transform="rotate(0.000000,100.000000,212.000000)" style="stroke: black; stroke-width:0.25;"/>
<line x1="97.000000" y1="213.000000" x2="100.000000" y2="212.000000"  transform="rotate(0.000000,100.000000,212.000000)" style="stroke: black; stroke-width:0.25;"/>
<line x1="97.000000" y1="219.000000" x2="100.000000" y2="220.000000"  transform="rotate(0.000000,100.000000,220.000000)" style="stroke: black; stroke-width:0.25;"/>
<line x1="97.000000" y1="221.000000" x2="100.000000" y2="220.000000"  transform="rotate(0.000000,100.000000,220.000000)" style="stroke: black; stroke-width:0.25;"/>
<rect x="142.800000" y="181.000000" width="24.000000" height="24.000000" rx="0" ry="0" style="stroke:none;fill:#cccccc;"/>
<rect x="141.800000" y="180.000000" width="24.000000" height="24.000000" rx="0" ry="0" style="stroke:none;fill:#4B71A1;"/>
<text x="153.800000" y="194.000000" font-family="Arial" font-size="7" text-anchor="middle" fill="#FFFFFF">-</text>
<circle cx="143.800000" cy="182.000000" r="1"/>
<line x1="138.800000" y1="187.000000" x2="141.800000" y2="188.000000"  transform="rotate(0.000000,141.800000,188.000000)" style="stroke: black; stroke-width:0.25;"/>
<line x1="138.800000" y1="189.000000" x2="141.800000" y2="188.000000"  transform="rotate(0.000000,141.800000,188.000000)" style="stroke: black; stroke-width:0.25;"/>
<line x1="138.800000" y1="195.000000" x2="141.800000" y2="196.000000"  transform="rotate(0.000000,141.800000,196.000000)" style="stroke: black; stroke-width:0.25;"/>
<line x1="138.800000" y1="197.000000" x2="141.800000" y2="196.000000"  transform="rotate(0.000000,141.800000,196.000000)" style="stroke: black; stroke-width:0.25;"/>
<line x1="15.000000" y1="15.000000" x2="15.000000" y2="233.000000"  style="stroke: black; stroke-linecap:round; stroke-width:0.25; stroke-dasharray:3,3;"/>
<line x1="15.000000" y1="233.000000" x2="198.800000" y2="233.000000"  style="stroke: black; stroke-linecap:round; stroke-width:0.25; stroke-dasharray:3,3;"/>
<line x1="198.800000" y1="233.000000" x2="198.800000" y2="15.000000"  style="stroke: black; stroke-linecap:round; stroke-width:0.25; stroke-dasharray:3,3;"/>
<line x1="15.000000" y1="15.000000" x2="20.000000" y2="15.000000"  style="stroke: black; stroke-linecap:round; stroke-width:0.25; stroke-dasharray:3,3;"/>
<line x1="49.025000" y1="15.000000" x2="198.800000" y2="15.000000"  style="stroke: black; stroke-linecap:round; stroke-width:0.25; stroke-dasharray:3,3;"/>
<text x="20.000000" y="17.000000" font-family="Arial" font-size="7">mix_mtx</text>
<line x1="200.800000" y1="111.000000" x2="203.800000" y2="112.000000"  transform="rotate(0.000000,203.800000,112.000000)" style="stroke: black; stroke-width:0.25;"/>
<line x1="200.800000" y1="113.000000" x2="203.800000" y2="112.000000"  transform="rotate(0.000000,203.800000,112.000000)" style="stroke: black; stroke-width:0.25;"/>
<line x1="200.800000" y1="119.000000" x2="203.800000" y2="120.000000"  transform="rotate(0.000000,203.800000,120.000000)" style="stroke: black; stroke-width:0.25;"/>
<line x1="200.800000" y1="121.000000" x2="203.800000" y2="120.000000"  transform="rotate(0.000000,203.800000,120.000000)" style="stroke: black; stroke-width:0.25;"/>
<line x1="200.800000" y1="127.000000" x2="203.800000" y2="128.000000"  transform="rotate(0.000000,203.800000,128.000000)" style="stroke: black; stroke-width:0.25;"/>
<line x1="200.800000" y1="129.000000" x2="203.800000" y2="128.000000"  transform="rotate(0.000000,203.800000,128.000000)" style="stroke: black; stroke-width:0.25;"/>
<line x1="200.800000" y1="135.000000" x2="203.800000" y2="136.000000"  transform="rotate(0.000000,203.800000,136.000000)" style="stroke: black; stroke-width:0.25;"/>
<line x1="200.800000" y1="137.000000" x2="203.800000" y2="136.000000"  transform="rotate(0.000000,203.800000,136.000000)" style="stroke: black; stroke-width:0.25;"/>
<line x1="10.000000" y1="112.000000" x2="20.000000" y2="112.000000"  style="stroke:black; stroke-linecap:round; stroke-width:0.25;"/>
<line x1="10.000000" y1="120.000000" x2="20.000000" y2="120.000000"  style="stroke:black; stroke-linecap:round; stroke-width:0.25;"/>
<line x1="10.000000" y1="128.000000" x2="20.000000" y2="128.000000"  style="stroke:black; stroke-linecap:round; stroke-width:0.25;"/>
<line x1="10.000000" y1="136.000000" x2="20.000000" y2="136.000000"  style="stroke:black; stroke-linecap:round; stroke-width:0.25;"/>
<line x1="20.000000" y1="112.000000" x2="24.000000" y2="112.000000"  style="stroke:black; stroke-linecap:round; stroke-width:0.25;"/>
<line x1="20.000000" y1="120.000000" x2="24.000000" y2="120.000000"  style="stroke:black; stroke-linecap:round; stroke-width:0.25;"/>
<line x1="20.000000" y1="128.000000" x2="24.000000" y2="128.000000"  style="stroke:black; stroke-linecap:round; stroke-width:0.25;"/>
<line x1="20.000000" y1="136.000000" x2="24.000000" y2="136.000000"  style="stroke:black; stroke-linecap:round; stroke-width:0.25;"/>
<line x1="24.000000" y1="112.000000" x2="28.000000" y2="112.000000"  style="stroke:black; stroke-linecap:round; stroke-width:0.25;"/>
<line x1="24.000000" y1="120.000000" x2="28.000000" y2="120.000000"  style="stroke:black; stroke-linecap:round; stroke-width:0.25;"/>
<line x1="24.000000" y1="128.000000" x2="28.000000" y2="128.000000"  style="stroke:black; stroke-linecap:round; stroke-width:0.25;"/>
<line x1="24.000000" y1="136.000000" x2="28.000000" y2="136.000000"  style="stroke:black; stroke-linecap:round; stroke-width:0.25;"/>
<line x1="28.000000" y1="112.000000" x2="28.000000" y2="112.000000"  style="stroke:black; stroke-linecap:round; stroke-width:0.25;"/>
<line x1="28.000000" y1="112.000000" x2="32.000000" y2="112.000000"  style="stroke:black; stroke-linecap:round; stroke-width:0.25;"/>
<line x1="28.000000" y1="120.000000" x2="28.000000" y2="120.000000"  style="stroke:black; stroke-linecap:round; stroke-width:0.25;"/>
<line x1="28.000000" y1="120.000000" x2="32.000000" y2="120.000000"  style="stroke:black; stroke-linecap:round; stroke-width:0.25;"/>
<line x1="28.000000" y1="128.000000" x2="28.000000" y2="128.000000"  style="stroke:black; stroke-linecap:round; stroke-width:0.25;"/>
<line x1="28.000000" y1="128.000000" x2="32.000000" y2="128.000000"  style="stroke:black; stroke-linecap:round; stroke-width:0.25;"/>
<line x1="28.000000" y1="136.000000" x2="28.000000" y2="136.000000"  style="stroke:black; stroke-linecap:round; stroke-width:0.25;"/>
<line x1="28.000000" y1="136.000000" x2="32.000000" y2="136.000000"  style="stroke:black; stroke-linecap:round; stroke-width:0.25;"/>
<line x1="32.000000" y1="112.000000" x2="36.000000" y2="112.000000"  style="stroke:black; stroke-linecap:round; stroke-width:0.25;"/>
<line x1="32.000000" y1="120.000000" x2="36.000000" y2="120.000000"  style="stroke:black; stroke-linecap:round; stroke-width:0.25;"/>
<line x1="32.000000" y1="128.000000" x2="36.000000" y2="128.000000"  style="stroke:black; stroke-linecap:round; stroke-width:0.25;"/>
<line x1="32.000000" y1="136.000000" x2="36.000000" y2="136.000000"  style="stroke:black; stroke-linecap:round; stroke-width:0.25;"/>
<line x1="36.000000" y1="112.000000" x2="96.000000" y2="24.000000"  style="stroke:black; stroke-linecap:round; stroke-width:0.25;"/>
<line x1="36.000000" y1="112.000000" x2="96.000000" y2="88.000000"  style="stroke:black; stroke-linecap:round; stroke-width:0.25;"/>
<line x1="36.000000" y1="112.000000" x2="96.000000" y2="124.000000"  style="stroke:black; stroke-linecap:round; stroke-width:0.25;"/>
<line x1="36.000000" y1="112.000000" x2="96.000000" y2="196.000000"  style="stroke:black; stroke-linecap:round; stroke-width:0.25;"/>
<line x1="36.000000" y1="120.000000" x2="96.000000" y2="32.000000"  style="stroke:black; stroke-linecap:round; stroke-width:0.25;"/>
<line x1="36.000000" y1="120.000000" x2="96.000000" y2="96.000000"  style="stroke:black; stroke-linecap:round; stroke-width:0.25;"/>
<line x1="36.000000" y1="120.000000" x2="96.000000" y2="132.000000"  style="stroke:black; stroke-linecap:round; stroke-width:0.25;"/>
<line x1="36.000000" y1="120.000000" x2="96.000000" y2="204.000000"  style="stroke:black; stroke-linecap:round; stroke-width:0.25;"/>
<line x1="36.000000" y1="128.000000" x2="96.000000" y2="40.000000"  style="stroke:black; stroke-linecap:round; stroke-width:0.25;"/>
<line x1="36.000000" y1="128.000000" x2="96.000000" y2="104.000000"  style="stroke:black; stroke-linecap:round; stroke-width:0.25;"/>
<line x1="36.000000" y1="128.000000" x2="96.000000" y2="140.000000"  style="stroke:black; stroke-linecap:round; stroke-width:0.25;"/>
<line x1="36.000000" y1="128.000000" x2="96.000000" y2="212.000000"  style="stroke:black; stroke-linecap:round; stroke-width:0.25;"/>
<line x1="36.000000" y1="136.000000" x2="96.000000" y2="48.000000"  style="stroke:black; stroke-linecap:round; stroke-width:0.25;"/>
<line x1="36.000000" y1="136.000000" x2="96.000000" y2="112.000000"  style="stroke:black; stroke-linecap:round; stroke-width:0.25;"/>
<line x1="36.000000" y1="136.000000" x2="96.000000" y2="148.000000"  style="stroke:black; stroke-linecap:round; stroke-width:0.25;"/>
<line x1="36.000000" y1="136.000000" x2="96.000000" y2="220.000000"  style="stroke:black; stroke-linecap:round; stroke-width:0.25;"/>
<line x1="96.000000" y1="24.000000" x2="119.900000" y2="24.000000"  style="stroke:black; stroke-linecap:round; stroke-width:0.25;"/>
<line x1="96.000000" y1="32.000000" x2="119.900000" y2="32.000000"  style="stroke:black; stroke-linecap:round; stroke-width:0.25;"/>
<line x1="96.000000" y1="40.000000" x2="119.900000" y2="40.000000"  style="stroke:black; stroke-linecap:round; stroke-width:0.25;"/>
<line x1="96.000000" y1="48.000000" x2="119.900000" y2="48.000000"  style="stroke:black; stroke-linecap:round; stroke-width:0.25;"/>
<line x1="96.000000" y1="88.000000" x2="96.900000" y2="88.000000"  style="stroke:black; stroke-linecap:round; stroke-width:0.25;"/>
<line x1="96.000000" y1="96.000000" x2="96.900000" y2="96.000000"  style="stroke:black; stroke-linecap:round; stroke-width:0.25;"/>
<line x1="96.000000" y1="104.000000" x2="96.900000" y2="104.000000"  style="stroke:black; stroke-linecap:round; stroke-width:0.25;"/>
<line x1="96.000000" y1="112.000000" x2="96.900000" y2="112.000000"  style="stroke:black; stroke-linecap:round; stroke-width:0.25;"/>
<line x1="96.000000" y1="124.000000" x2="116.000000" y2="124.000000"  style="stroke:black; stroke-linecap:round; stroke-width:0.25;"/>
<line x1="96.000000" y1="132.000000" x2="116.000000" y2="132.000000"  style="stroke:black; stroke-linecap:round; stroke-width:0.25;"/>
<line x1="96.000000" y1="140.000000" x2="116.000000" y2="140.000000"  style="stroke:black; stroke-linecap:round; stroke-width:0.25;"/>
<line x1="96.000000" y1="148.000000" x2="116.000000" y2="148.000000"  style="stroke:black; stroke-linecap:round; stroke-width:0.25;"/>
<line x1="96.000000" y1="196.000000" x2="100.000000" y2="196.000000"  style="stroke:black; stroke-linecap:round; stroke-width:0.25;"/>
<line x1="96.000000" y1="204.000000" x2="100.000000" y2="204.000000"  style="stroke:black; stroke-linecap:round; stroke-width:0.25;"/>
<line x1="96.000000" y1="212.000000" x2="100.000000" y2="212.000000"  style="stroke:black; stroke-linecap:round; stroke-width:0.25;"/>
<line x1="96.000000" y1="220.000000" x2="100.000000" y2="220.000000"  style="stroke:black; stroke-linecap:round; stroke-width:0.25;"/>
<line x1="96.900000" y1="88.000000" x2="99.900000" y2="88.000000"  style="stroke:black; stroke-linecap:round; stroke-width:0.25;"/>
<line x1="96.900000" y1="96.000000" x2="99.900000" y2="96.000000"  style="stroke:black; stroke-linecap:round; stroke-width:0.25;"/>
<line x1="96.900000" y1="104.000000" x2="99.900000" y2="104.000000"  style="stroke:black; stroke-linecap:round; stroke-width:0.25;"/>
<line x1="96.900000" y1="112.000000" x2="99.900000" y2="112.000000"  style="stroke:black; stroke-linecap:round; stroke-width:0.25;"/>
<line x1="99.900000" y1="88.000000" x2="103.900000" y2="88.000000"  style="stroke:black; stroke-linecap:round; stroke-width:0.25;"/>
<line x1="99.900000" y1="96.000000" x2="103.900000" y2="96.000000"  style="stroke:black; stroke-linecap:round; stroke-width:0.25;"/>
<line x1="99.900000" y1="104.000000" x2="103.900000" y2="104.000000"  style="stroke:black; stroke-linecap:round; stroke-width:0.25;"/>
<line x1="99.900000" y1="112.000000" x2="103.900000" y2="112.000000"  style="stroke:black; stroke-linecap:round; stroke-width:0.25;"/>
<line x1="103.900000" y1="88.000000" x2="107.900000" y2="88.000000"  style="stroke:black; stroke-linecap:round; stroke-width:0.25;"/>
<line x1="103.900000" y1="96.000000" x2="107.900000" y2="96.000000"  style="stroke:black; stroke-linecap:round; stroke-width:0.25;"/>
<line x1="103.900000" y1="104.000000" x2="107.900000" y2="104.000000"  style="stroke:black; stroke-linecap:round; stroke-width:0.25;"/>
<line x1="103.900000" y1="112.000000" x2="107.900000" y2="112.000000"  style="stroke:black; stroke-linecap:round; stroke-width:0.25;"/>
<line x1="107.900000" y1="88.000000" x2="117.900000" y2="100.000000"  style="stroke:black; stroke-linecap:round; stroke-width:0.25;"/>
<line x1="107.900000" y1="96.000000" x2="117.900000" y2="100.000000"  style="stroke:black; stroke-linecap:round; stroke-width:0.25;"/>
<line x1="107.900000" y1="104.000000" x2="117.900000" y2="100.000000"  style="stroke:black; stroke-linecap:round; stroke-width:0.25;"/>
<line x1="107.900000" y1="112.000000" x2="117.900000" y2="100.000000"  style="stroke:black; stroke-linecap:round; stroke-width:0.25;"/>
<line x1="116.000000" y1="124.000000" x2="120.000000" y2="124.000000"  style="stroke:black; stroke-linecap:round; stroke-width:0.25;"/>
<line x1="116.000000" y1="132.000000" x2="120.000000" y2="132.000000"  style="stroke:black; stroke-linecap:round; stroke-width:0.25;"/>
<line x1="116.000000" y1="140.000000" x2="120.000000" y2="140.000000"  style="stroke:black; stroke-linecap:round; stroke-width:0.25;"/>
<line x1="116.000000" y1="148.000000" x2="120.000000" y2="148.000000"  style="stroke:black; stroke-linecap:round; stroke-width:0.25;"/>
<line x1="117.900000" y1="100.000000" x2="121.900000" y2="100.000000"  style="stroke:black; stroke-linecap:round; stroke-width:0.25;"/>
<line x1="119.900000" y1="24.000000" x2="123.900000" y2="24.000000"  style="stroke:black; stroke-linecap:round; stroke-width:0.25;"/>
<line x1="119.900000" y1="32.000000" x2="123.900000" y2="32.000000"  style="stroke:black; stroke-linecap:round; stroke-width:0.25;"/>
<line x1="119.900000" y1="40.000000" x2="123.900000" y2="40.000000"  style="stroke:black; stroke-linecap:round; stroke-width:0.25;"/>
<line x1="119.900000" y1="48.000000" x2="123.900000" y2="48.000000"  style="stroke:black; stroke-linecap:round; stroke-width:0.25;"/>
<line x1="121.900000" y1="100.000000" x2="125.900000" y2="100.000000"  style="stroke:black; stroke-linecap:round; stroke-width:0.25;"/>
<line x1="123.900000" y1="24.000000" x2="127.900000" y2="24.000000"  style="stroke:black; stroke-linecap:round; stroke-width:0.25;"/>
<line x1="123.900000" y1="32.000000" x2="127.900000" y2="32.000000"  style="stroke:black; stroke-linecap:round; stroke-width:0.25;"/>
<line x1="123.900000" y1="40.000000" x2="127.900000" y2="40.000000"  style="stroke:black; stroke-linecap:round; stroke-width:0.25;"/>
<line x1="123.900000" y1="48.000000" x2="127.900000" y2="48.000000"  style="stroke:black; stroke-linecap:round; stroke-width:0.25;"/>
<line x1="124.900000" y1="68.000000" x2="128.900000" y2="68.000000"  style="stroke:black; stroke-linecap:round; stroke-width:0.25;"/>
<line x1="124.900000" y1="172.000000" x2="128.900000" y2="172.000000"  style="stroke:black; stroke-linecap:round; stroke-width:0.25;"/>
<line x1="125.800000" y1="208.000000" x2="129.800000" y2="208.000000"  style="stroke:black; stroke-linecap:round; stroke-width:0.25;"/>
<line x1="125.900000" y1="100.000000" x2="128.900000" y2="100.000000"  style="stroke:black; stroke-linecap:round; stroke-width:0.25;"/>
<line x1="127.900000" y1="24.000000" x2="137.900000" y2="36.000000"  style="stroke:black; stroke-linecap:round; stroke-width:0.25;"/>
<line x1="127.900000" y1="32.000000" x2="137.900000" y2="36.000000"  style="stroke:black; stroke-linecap:round; stroke-width:0.25;"/>
<line x1="127.900000" y1="40.000000" x2="137.900000" y2="36.000000"  style="stroke:black; stroke-linecap:round; stroke-width:0.25;"/>
<line x1="127.900000" y1="48.000000" x2="137.900000" y2="36.000000"  style="stroke:black; stroke-linecap:round; stroke-width:0.25;"/>
<line x1="128.900000" y1="68.000000" x2="136.900000" y2="68.000000"  style="stroke:black; stroke-linecap:round; stroke-width:0.25;"/>
<line x1="128.900000" y1="88.000000" x2="136.900000" y2="88.000000"  style="stroke:black; stroke-linecap:round; stroke-width:0.25;"/>
<line x1="128.900000" y1="100.000000" x2="128.900000" y2="88.000000"  style="stroke:black; stroke-linecap:round; stroke-width:0.25;"/>
<line x1="128.900000" y1="100.000000" x2="128.900000" y2="100.000000"  style="stroke:black; stroke-linecap:round; stroke-width:0.25;"/>
<line x1="128.900000" y1="172.000000" x2="129.800000" y2="172.000000"  style="stroke:black; stroke-linecap:round; stroke-width:0.25;"/>
<line x1="129.800000" y1="172.000000" x2="137.800000" y2="172.000000"  style="stroke:black; stroke-linecap:round; stroke-width:0.25;"/>
<line x1="129.800000" y1="196.000000" x2="137.800000" y2="196.000000"  style="stroke:black; stroke-linecap:round; stroke-width:0.25;"/>
<line x1="129.800000" y1="208.000000" x2="129.800000" y2="196.000000"  style="stroke:black; stroke-linecap:round; stroke-width:0.25;"/>
<line x1="129.800000" y1="208.000000" x2="129.800000" y2="208.000000"  style="stroke:black; stroke-linecap:round; stroke-width:0.25;"/>
<line x1="136.900000" y1="68.000000" x2="136.900000" y2="80.000000"  style="stroke:black; stroke-linecap:round; stroke-width:0.25;"/>
<line x1="136.900000" y1="80.000000" x2="136.900000" y2="80.000000"  style="stroke:black; stroke-linecap:round; stroke-width:0.25;"/>
<line x1="136.900000" y1="80.000000" x2="140.900000" y2="80.000000"  style="stroke:black; stroke-linecap:round; stroke-width:0.25;"/>
<line x1="136.900000" y1="88.000000" x2="140.900000" y2="88.000000"  style="stroke:black; stroke-linecap:round; stroke-width:0.25;"/>
<line x1="137.800000" y1="172.000000" x2="137.800000" y2="188.000000"  style="stroke:black; stroke-linecap:round; stroke-width:0.25;"/>
<line x1="137.800000" y1="188.000000" x2="137.800000" y2="188.000000"  style="stroke:black; stroke-linecap:round; stroke-width:0.25;"/>
<line x1="137.800000" y1="188.000000" x2="141.800000" y2="188.000000"  style="stroke:black; stroke-linecap:round; stroke-width:0.25;"/>
<line x1="137.800000" y1="196.000000" x2="141.800000" y2="196.000000"  style="stroke:black; stroke-linecap:round; stroke-width:0.25;"/>
<line x1="137.900000" y1="36.000000" x2="141.900000" y2="36.000000"  style="stroke:black; stroke-linecap:round; stroke-width:0.25;"/>
<line x1="141.900000" y1="36.000000" x2="145.900000" y2="36.000000"  style="stroke:black; stroke-linecap:round; stroke-width:0.25;"/>
<line x1="145.800000" y1="136.000000" x2="149.800000" y2="136.000000"  style="stroke:black; stroke-linecap:round; stroke-width:0.25;"/>
<line x1="145.900000" y1="36.000000" x2="169.800000" y2="36.000000"  style="stroke:black; stroke-linecap:round; stroke-width:0.25;"/>
<line x1="149.800000" y1="136.000000" x2="169.800000" y2="136.000000"  style="stroke:black; stroke-linecap:round; stroke-width:0.25;"/>
<line x1="164.900000" y1="84.000000" x2="168.900000" y2="84.000000"  style="stroke:black; stroke-linecap:round; stroke-width:0.25;"/>
<line x1="165.800000" y1="192.000000" x2="169.800000" y2="192.000000"  style="stroke:black; stroke-linecap:round; stroke-width:0.25;"/>
<line x1="168.900000" y1="84.000000" x2="169.800000" y2="84.000000"  style="stroke:black; stroke-linecap:round; stroke-width:0.25;"/>
<line x1="169.800000" y1="36.000000" x2="185.800000" y2="36.000000"  style="stroke:black; stroke-linecap:round; stroke-width:0.25;"/>
<line x1="169.800000" y1="84.000000" x2="177.800000" y2="84.000000"  style="stroke:black; stroke-linecap:round; stroke-width:0.25;"/>
<line x1="169.800000" y1="128.000000" x2="185.800000" y2="128.000000"  style="stroke:black; stroke-linecap:round; stroke-width:0.25;"/>
<line x1="169.800000" y1="136.000000" x2="169.800000" y2="128.000000"  style="stroke:black; stroke-linecap:round; stroke-width:0.25;"/>
<line x1="169.800000" y1="136.000000" x2="169.800000" y2="136.000000"  style="stroke:black; stroke-linecap:round; stroke-width:0.25;"/>
<line x1="169.800000" y1="192.000000" x2="177.800000" y2="192.000000"  style="stroke:black; stroke-linecap:round; stroke-width:0.25;"/>
<line x1="177.800000" y1="84.000000" x2="177.800000" y2="120.000000"  style="stroke:black; stroke-linecap:round; stroke-width:0.25;"/>
<line x1="177.800000" y1="120.000000" x2="185.800000" y2="120.000000"  style="stroke:black; stroke-linecap:round; stroke-width:0.25;"/>
<line x1="177.800000" y1="136.000000" x2="185.800000" y2="136.000000"  style="stroke:black; stroke-linecap:round; stroke-width:0.25;"/>
<line x1="177.800000" y1="192.000000" x2="177.800000" y2="136.000000"  style="stroke:black; stroke-linecap:round; stroke-width:0.25;"/>
<line x1="185.800000" y1="36.000000" x2="185.800000" y2="112.000000"  style="stroke:black; stroke-linecap:round; stroke-width:0.25;"/>
<line x1="185.800000" y1="112.000000" x2="185.800000" y2="112.000000"  style="stroke:black; stroke-linecap:round; stroke-width:0.25;"/>
<line x1="185.800000" y1="112.000000" x2="189.800000" y2="112.000000"  style="stroke:black; stroke-linecap:round; stroke-width:0.25;"/>
<line x1="185.800000" y1="120.000000" x2="185.800000" y2="120.000000"  style="stroke:black; stroke-linecap:round; stroke-width:0.25;"/>
<line x1="185.800000" y1="120.000000" x2="189.800000" y2="120.000000"  style="stroke:black; stroke-linecap:round; stroke-width:0.25;"/>
<line x1="185.800000" y1="128.000000" x2="185.800000" y2="128.000000"  style="stroke:black; stroke-linecap:round; stroke-width:0.25;"/>
<line x1="185.800000" y1="128.000000" x2="189.800000" y2="128.000000"  style="stroke:black; stroke-linecap:round; stroke-width:0.25;"/>
<line x1="185.800000" y1="136.000000" x2="185.800000" y2="136.000000"  style="stroke:black; stroke-linecap:round; stroke-width:0.25;"/>
<line x1="185.800000" y1="136.000000" x2="189.800000" y2="136.000000"  style="stroke:black; stroke-linecap:round; stroke-width:0.25;"/>
<line x1="189.800000" y1="112.000000" x2="193.800000" y2="112.000000"  style="stroke:black; stroke-linecap:round; stroke-width:0.25;"/>
<line x1="189.800000" y1="120.000000" x2="193.800000" y2="120.000000"  style="stroke:black; stroke-linecap:round; stroke-width:0.25;"/>
<line x1="189.800000" y1="128.000000" x2="193.800000" y2="128.000000"  style="stroke:black; stroke-linecap:round; stroke-width:0.25;"/>
<line x1="189.800000" y1="136.000000" x2="193.800000" y2="136.000000"  style="stroke:black; stroke-linecap:round; stroke-width:0.25;"/>
<line x1="193.800000" y1="112.000000" x2="203.800000" y2="112.000000"  style="stroke:black; stroke-linecap:round; stroke-width:0.25;"/>
<line x1="193.800000" y1="120.000000" x2="203.800000" y2="120.000000"  style="stroke:black; stroke-linecap:round; stroke-width:0.25;"/>
<line x1="193.800000" y1="128.000000" x2="203.800000" y2="128.000000"  style="stroke:black; stroke-linecap:round; stroke-width:0.25;"/>
<line x1="193.800000" y1="136.000000" x2="203.800000" y2="136.000000"  style="stroke:black; stroke-linecap:round; stroke-width:0.25;"/>
</svg>
