<?xml version="1.0"?>
<svg xmlns="http://www.w3.org/2000/svg" xmlns:xlink="http://www.w3.org/1999/xlink" viewBox="0 0 175.600000 188.000000" width="87.800000mm" height="94.000000mm" version="1.1">
<a xlink:href="process.svg">
<rect x="1.000000" y="1.000000" width="174.600000" height="187.000000" rx="0" ry="0" style="stroke:none;fill:#cccccc;"/>
<rect x="0.000000" y="0.000000" width="174.600000" height="187.000000" rx="0" ry="0" style="stroke:none;fill:#ffffff;"/>
</a>
<text x="10.000000" y="7.000000" font-family="Arial" font-size="7"></text>
<a xlink:href="jcrev-0x7fded06659f0.svg">
<rect x="43.000000" y="79.000000" width="25.800000" height="32.000000" rx="0" ry="0" style="stroke:none;fill:#cccccc;"/>
<rect x="42.000000" y="78.000000" width="25.800000" height="32.000000" rx="0" ry="0" style="stroke:none;fill:#003366;"/>
</a>
<a xlink:href="jcrev-0x7fded06659f0.svg">
<text x="54.900000" y="96.000000" font-family="Arial" font-size="7" text-anchor="middle" fill="#FFFFFF">jcrev</text>
</a>
<circle cx="44.000000" cy="80.000000" r="1"/>
<line x1="39.000000" y1="93.000000" x2="42.000000" y2="94.000000"  transform="rotate(0.000000,42.000000,94.000000)" style="stroke: black; stroke-width:0.25;"/>
<line x1="39.000000" y1="95.000000" x2="42.000000" y2="94.000000"  transform="rotate(0.000000,42.000000,94.000000)" style="stroke: black; stroke-width:0.25;"/>
<a xlink:href="pgm1LF-0x7fded068f4a0.svg">
<rect x="92.800000" y="35.000000" width="25.800000" height="24.000000" rx="0" ry="0" style="stroke:none;fill:#cccccc;"/>
<rect x="91.800000" y="34.000000" width="25.800000" height="24.000000" rx="0" ry="0" style="stroke:none;fill:#003366;"/>
</a>
<a xlink:href="pgm1LF-0x7fded068f4a0.svg">
<text x="104.700000" y="48.000000" font-family="Arial" font-size="7" text-anchor="middle" fill="#FFFFFF">pgm1LF</text>
</a>
<circle cx="93.800000" cy="36.000000" r="1"/>
<line x1="88.800000" y1="45.000000" x2="91.800000" y2="46.000000"  transform="rotate(0.000000,91.800000,46.000000)" style="stroke: black; stroke-width:0.25;"/>
<line x1="88.800000" y1="47.000000" x2="91.800000" y2="46.000000"  transform="rotate(0.000000,91.800000,46.000000)" style="stroke: black; stroke-width:0.25;"/>
<a xlink:href="pgm1RF-0x7fded06b9040.svg">
<rect x="92.800000" y="67.000000" width="25.800000" height="24.000000" rx="0" ry="0" style="stroke:none;fill:#cccccc;"/>
<rect x="91.800000" y="66.000000" width="25.800000" height="24.000000" rx="0" ry="0" style="stroke:none;fill:#003366;"/>
</a>
<a xlink:href="pgm1RF-0x7fded06b9040.svg">
<text x="104.700000" y="80.000000" font-family="Arial" font-size="7" text-anchor="middle" fill="#FFFFFF">pgm1RF</text>
</a>
<circle cx="93.800000" cy="68.000000" r="1"/>
<line x1="88.800000" y1="77.000000" x2="91.800000" y2="78.000000"  transform="rotate(0.000000,91.800000,78.000000)" style="stroke: black; stroke-width:0.25;"/>
<line x1="88.800000" y1="79.000000" x2="91.800000" y2="78.000000"  transform="rotate(0.000000,91.800000,78.000000)" style="stroke: black; stroke-width:0.25;"/>
<a xlink:href="pgm1LB-0x7fded06e2b80.svg">
<rect x="92.800000" y="99.000000" width="25.800000" height="24.000000" rx="0" ry="0" style="stroke:none;fill:#cccccc;"/>
<rect x="91.800000" y="98.000000" width="25.800000" height="24.000000" rx="0" ry="0" style="stroke:none;fill:#003366;"/>
</a>
<a xlink:href="pgm1LB-0x7fded06e2b80.svg">
<text x="104.700000" y="112.000000" font-family="Arial" font-size="7" text-anchor="middle" fill="#FFFFFF">pgm1LB</text>
</a>
<circle cx="93.800000" cy="100.000000" r="1"/>
<line x1="88.800000" y1="109.000000" x2="91.800000" y2="110.000000"  transform="rotate(0.000000,91.800000,110.000000)" style="stroke: black; stroke-width:0.25;"/>
<line x1="88.800000" y1="111.000000" x2="91.800000" y2="110.000000"  transform="rotate(0.000000,91.800000,110.000000)" style="stroke: black; stroke-width:0.25;"/>
<a xlink:href="pgm1RB-0x7fded04429d0.svg">
<rect x="92.800000" y="131.000000" width="25.800000" height="24.000000" rx="0" ry="0" style="stroke:none;fill:#cccccc;"/>
<rect x="91.800000" y="130.000000" width="25.800000" height="24.000000" rx="0" ry="0" style="stroke:none;fill:#003366;"/>
</a>
<a xlink:href="pgm1RB-0x7fded04429d0.svg">
<text x="104.700000" y="144.000000" font-family="Arial" font-size="7" text-anchor="middle" fill="#FFFFFF">pgm1RB</text>
</a>
<circle cx="93.800000" cy="132.000000" r="1"/>
<line x1="88.800000" y1="141.000000" x2="91.800000" y2="142.000000"  transform="rotate(0.000000,91.800000,142.000000)" style="stroke: black; stroke-width:0.25;"/>
<line x1="88.800000" y1="143.000000" x2="91.800000" y2="142.000000"  transform="rotate(0.000000,91.800000,142.000000)" style="stroke: black; stroke-width:0.25;"/>
<line x1="33.000000" y1="25.000000" x2="33.000000" y2="163.000000"  style="stroke: black; stroke-linecap:round; stroke-width:0.25; stroke-dasharray:3,3;"/>
<line x1="33.000000" y1="163.000000" x2="126.600000" y2="163.000000"  style="stroke: black; stroke-linecap:round; stroke-width:0.25; stroke-dasharray:3,3;"/>
<line x1="126.600000" y1="163.000000" x2="126.600000" y2="25.000000"  style="stroke: black; stroke-linecap:round; stroke-width:0.25; stroke-dasharray:3,3;"/>
<line x1="33.000000" y1="25.000000" x2="38.000000" y2="25.000000"  style="stroke: black; stroke-linecap:round; stroke-width:0.25; stroke-dasharray:3,3;"/>
<line x1="83.150000" y1="25.000000" x2="126.600000" y2="25.000000"  style="stroke: black; stroke-linecap:round; stroke-width:0.25; stroke-dasharray:3,3;"/>
<text x="38.000000" y="27.000000" font-family="Arial" font-size="7">hgroup(PGM1)</text>
<line x1="15.000000" y1="15.000000" x2="15.000000" y2="173.000000"  style="stroke: black; stroke-linecap:round; stroke-width:0.25; stroke-dasharray:3,3;"/>
<line x1="15.000000" y1="173.000000" x2="160.600000" y2="173.000000"  style="stroke: black; stroke-linecap:round; stroke-width:0.25; stroke-dasharray:3,3;"/>
<line x1="160.600000" y1="173.000000" x2="160.600000" y2="15.000000"  style="stroke: black; stroke-linecap:round; stroke-width:0.25; stroke-dasharray:3,3;"/>
<line x1="15.000000" y1="15.000000" x2="20.000000" y2="15.000000"  style="stroke: black; stroke-linecap:round; stroke-width:0.25; stroke-dasharray:3,3;"/>
<line x1="39.350000" y1="15.000000" x2="160.600000" y2="15.000000"  style="stroke: black; stroke-linecap:round; stroke-width:0.25; stroke-dasharray:3,3;"/>
<text x="20.000000" y="17.000000" font-family="Arial" font-size="7">PGM1</text>
<line x1="162.600000" y1="81.000000" x2="165.600000" y2="82.000000"  transform="rotate(0.000000,165.600000,82.000000)" style="stroke: black; stroke-width:0.25;"/>
<line x1="162.600000" y1="83.000000" x2="165.600000" y2="82.000000"  transform="rotate(0.000000,165.600000,82.000000)" style="stroke: black; stroke-width:0.25;"/>
<line x1="162.600000" y1="89.000000" x2="165.600000" y2="90.000000"  transform="rotate(0.000000,165.600000,90.000000)" style="stroke: black; stroke-width:0.25;"/>
<line x1="162.600000" y1="91.000000" x2="165.600000" y2="90.000000"  transform="rotate(0.000000,165.600000,90.000000)" style="stroke: black; stroke-width:0.25;"/>
<line x1="162.600000" y1="97.000000" x2="165.600000" y2="98.000000"  transform="rotate(0.000000,165.600000,98.000000)" style="stroke: black; stroke-width:0.25;"/>
<line x1="162.600000" y1="99.000000" x2="165.600000" y2="98.000000"  transform="rotate(0.000000,165.600000,98.000000)" style="stroke: black; stroke-width:0.25;"/>
<line x1="162.600000" y1="105.000000" x2="165.600000" y2="106.000000"  transform="rotate(0.000000,165.600000,106.000000)" style="stroke: black; stroke-width:0.25;"/>
<line x1="162.600000" y1="107.000000" x2="165.600000" y2="106.000000"  transform="rotate(0.000000,165.600000,106.000000)" style="stroke: black; stroke-width:0.25;"/>
<line x1="10.000000" y1="94.000000" x2="20.000000" y2="94.000000"  style="stroke:black; stroke-linecap:round; stroke-width:0.25;"/>
<line x1="20.000000" y1="94.000000" x2="24.000000" y2="94.000000"  style="stroke:black; stroke-linecap:round; stroke-width:0.25;"/>
<line x1="24.000000" y1="94.000000" x2="28.000000" y2="94.000000"  style="stroke:black; stroke-linecap:round; stroke-width:0.25;"/>
<line x1="28.000000" y1="94.000000" x2="28.000000" y2="94.000000"  style="stroke:black; stroke-linecap:round; stroke-width:0.25;"/>
<line x1="28.000000" y1="94.000000" x2="38.000000" y2="94.000000"  style="stroke:black; stroke-linecap:round; stroke-width:0.25;"/>
<line x1="38.000000" y1="94.000000" x2="38.000000" y2="94.000000"  style="stroke:black; stroke-linecap:round; stroke-width:0.25;"/>
<line x1="38.000000" y1="94.000000" x2="42.000000" y2="94.000000"  style="stroke:black; stroke-linecap:round; stroke-width:0.25;"/>
<line x1="67.800000" y1="82.000000" x2="71.800000" y2="82.000000"  style="stroke:black; stroke-linecap:round; stroke-width:0.25;"/>
<line x1="67.800000" y1="90.000000" x2="71.800000" y2="90.000000"  style="stroke:black; stroke-linecap:round; stroke-width:0.25;"/>
<line x1="67.800000" y1="98.000000" x2="71.800000" y2="98.000000"  style="stroke:black; stroke-linecap:round; stroke-width:0.25;"/>
<line x1="67.800000" y1="106.000000" x2="71.800000" y2="106.000000"  style="stroke:black; stroke-linecap:round; stroke-width:0.25;"/>
<line x1="71.800000" y1="46.000000" x2="87.800000" y2="46.000000"  style="stroke:black; stroke-linecap:round; stroke-width:0.25;"/>
<line x1="71.800000" y1="82.000000" x2="71.800000" y2="46.000000"  style="stroke:black; stroke-linecap:round; stroke-width:0.25;"/>
<line x1="71.800000" y1="82.000000" x2="71.800000" y2="82.000000"  style="stroke:black; stroke-linecap:round; stroke-width:0.25;"/>
<line x1="71.800000" y1="90.000000" x2="79.800000" y2="90.000000"  style="stroke:black; stroke-linecap:round; stroke-width:0.25;"/>
<line x1="71.800000" y1="98.000000" x2="87.800000" y2="98.000000"  style="stroke:black; stroke-linecap:round; stroke-width:0.25;"/>
<line x1="71.800000" y1="106.000000" x2="79.800000" y2="106.000000"  style="stroke:black; stroke-linecap:round; stroke-width:0.25;"/>
<line x1="79.800000" y1="78.000000" x2="87.800000" y2="78.000000"  style="stroke:black; stroke-linecap:round; stroke-width:0.25;"/>
<line x1="79.800000" y1="90.000000" x2="79.800000" y2="78.000000"  style="stroke:black; stroke-linecap:round; stroke-width:0.25;"/>
<line x1="79.800000" y1="106.000000" x2="79.800000" y2="142.000000"  style="stroke:black; stroke-linecap:round; stroke-width:0.25;"/>
<line x1="79.800000" y1="142.000000" x2="87.800000" y2="142.000000"  style="stroke:black; stroke-linecap:round; stroke-width:0.25;"/>
<line x1="87.800000" y1="46.000000" x2="91.800000" y2="46.000000"  style="stroke:black; stroke-linecap:round; stroke-width:0.25;"/>
<line x1="87.800000" y1="78.000000" x2="91.800000" y2="78.000000"  style="stroke:black; stroke-linecap:round; stroke-width:0.25;"/>
<line x1="87.800000" y1="98.000000" x2="87.800000" y2="110.000000"  style="stroke:black; stroke-linecap:round; stroke-width:0.25;"/>
<line x1="87.800000" y1="110.000000" x2="87.800000" y2="110.000000"  style="stroke:black; stroke-linecap:round; stroke-width:0.25;"/>
<line x1="87.800000" y1="110.000000" x2="91.800000" y2="110.000000"  style="stroke:black; stroke-linecap:round; stroke-width:0.25;"/>
<line x1="87.800000" y1="142.000000" x2="91.800000" y2="142.000000"  style="stroke:black; stroke-linecap:round; stroke-width:0.25;"/>
<line x1="117.600000" y1="46.000000" x2="121.600000" y2="46.000000"  style="stroke:black; stroke-linecap:round; stroke-width:0.25;"/>
<line x1="117.600000" y1="78.000000" x2="121.600000" y2="78.000000"  style="stroke:black; stroke-linecap:round; stroke-width:0.25;"/>
<line x1="117.600000" y1="110.000000" x2="121.600000" y2="110.000000"  style="stroke:black; stroke-linecap:round; stroke-width:0.25;"/>
<line x1="117.600000" y1="142.000000" x2="121.600000" y2="142.000000"  style="stroke:black; stroke-linecap:round; stroke-width:0.25;"/>
<line x1="121.600000" y1="46.000000" x2="131.600000" y2="46.000000"  style="stroke:black; stroke-linecap:round; stroke-width:0.25;"/>
<line x1="121.600000" y1="78.000000" x2="131.600000" y2="78.000000"  style="stroke:black; stroke-linecap:round; stroke-width:0.25;"/>
<line x1="121.600000" y1="110.000000" x2="131.600000" y2="110.000000"  style="stroke:black; stroke-linecap:round; stroke-width:0.25;"/>
<line x1="121.600000" y1="142.000000" x2="131.600000" y2="142.000000"  style="stroke:black; stroke-linecap:round; stroke-width:0.25;"/>
<line x1="131.600000" y1="46.000000" x2="147.600000" y2="46.000000"  style="stroke:black; stroke-linecap:round; stroke-width:0.25;"/>
<line x1="131.600000" y1="78.000000" x2="139.600000" y2="78.000000"  style="stroke:black; stroke-linecap:round; stroke-width:0.25;"/>
<line x1="131.600000" y1="98.000000" x2="147.600000" y2="98.000000"  style="stroke:black; stroke-linecap:round; stroke-width:0.25;"/>
<line x1="131.600000" y1="110.000000" x2="131.600000" y2="98.000000"  style="stroke:black; stroke-linecap:round; stroke-width:0.25;"/>
<line x1="131.600000" y1="110.000000" x2="131.600000" y2="110.000000"  style="stroke:black; stroke-linecap:round; stroke-width:0.25;"/>
<line x1="131.600000" y1="142.000000" x2="139.600000" y2="142.000000"  style="stroke:black; stroke-linecap:round; stroke-width:0.25;"/>
<line x1="139.600000" y1="78.000000" x2="139.600000" y2="90.000000"  style="stroke:black; stroke-linecap:round; stroke-width:0.25;"/>
<line x1="139.600000" y1="90.000000" x2="147.600000" y2="90.000000"  style="stroke:black; stroke-linecap:round; stroke-width:0.25;"/>
<line x1="139.600000" y1="106.000000" x2="147.600000" y2="106.000000"  style="stroke:black; stroke-linecap:round; stroke-width:0.25;"/>
<line x1="139.600000" y1="142.000000" x2="139.600000" y2="106.000000"  style="stroke:black; stroke-linecap:round; stroke-width:0.25;"/>
<line x1="147.600000" y1="46.000000" x2="147.600000" y2="82.000000"  style="stroke:black; stroke-linecap:round; stroke-width:0.25;"/>
<line x1="147.600000" y1="82.000000" x2="147.600000" y2="82.000000"  style="stroke:black; stroke-linecap:round; stroke-width:0.25;"/>
<line x1="147.600000" y1="82.000000" x2="151.600000" y2="82.000000"  style="stroke:black; stroke-linecap:round; stroke-width:0.25;"/>
<line x1="147.600000" y1="90.000000" x2="151.600000" y2="90.000000"  style="stroke:black; stroke-linecap:round; stroke-width:0.25;"/>
<line x1="147.600000" y1="98.000000" x2="151.600000" y2="98.000000"  style="stroke:black; stroke-linecap:round; stroke-width:0.25;"/>
<line x1="147.600000" y1="106.000000" x2="151.600000" y2="106.000000"  style="stroke:black; stroke-linecap:round; stroke-width:0.25;"/>
<line x1="151.600000" y1="82.000000" x2="155.600000" y2="82.000000"  style="stroke:black; stroke-linecap:round; stroke-width:0.25;"/>
<line x1="151.600000" y1="90.000000" x2="155.600000" y2="90.000000"  style="stroke:black; stroke-linecap:round; stroke-width:0.25;"/>
<line x1="151.600000" y1="98.000000" x2="155.600000" y2="98.000000"  style="stroke:black; stroke-linecap:round; stroke-width:0.25;"/>
<line x1="151.600000" y1="106.000000" x2="155.600000" y2="106.000000"  style="stroke:black; stroke-linecap:round; stroke-width:0.25;"/>
<line x1="155.600000" y1="82.000000" x2="165.600000" y2="82.000000"  style="stroke:black; stroke-linecap:round; stroke-width:0.25;"/>
<line x1="155.600000" y1="90.000000" x2="165.600000" y2="90.000000"  style="stroke:black; stroke-linecap:round; stroke-width:0.25;"/>
<line x1="155.600000" y1="98.000000" x2="165.600000" y2="98.000000"  style="stroke:black; stroke-linecap:round; stroke-width:0.25;"/>
<line x1="155.600000" y1="106.000000" x2="165.600000" y2="106.000000"  style="stroke:black; stroke-linecap:round; stroke-width:0.25;"/>
</svg>
