<?xml version="1.0"?>
<svg xmlns="http://www.w3.org/2000/svg" xmlns:xlink="http://www.w3.org/1999/xlink" viewBox="0 0 439.400000 188.000000" width="219.700000mm" height="94.000000mm" version="1.1">
<a xlink:href="process.svg">
<rect x="1.000000" y="1.000000" width="438.400000" height="187.000000" rx="0" ry="0" style="stroke:none;fill:#cccccc;"/>
<rect x="0.000000" y="0.000000" width="438.400000" height="187.000000" rx="0" ry="0" style="stroke:none;fill:#ffffff;"/>
</a>
<text x="10.000000" y="7.000000" font-family="Arial" font-size="7"></text>
<a xlink:href="phasing-0x7fa3c6d7dbe0.svg">
<rect x="43.000000" y="83.000000" width="38.700000" height="24.000000" rx="0" ry="0" style="stroke:none;fill:#cccccc;"/>
<rect x="42.000000" y="82.000000" width="38.700000" height="24.000000" rx="0" ry="0" style="stroke:none;fill:#003366;"/>
</a>
<a xlink:href="phasing-0x7fa3c6d7dbe0.svg">
<text x="61.350000" y="96.000000" font-family="Arial" font-size="7" text-anchor="middle" fill="#FFFFFF">phasing</text>
</a>
<circle cx="44.000000" cy="84.000000" r="1"/>
<line x1="39.000000" y1="93.000000" x2="42.000000" y2="94.000000"  transform="rotate(0.000000,42.000000,94.000000)" style="stroke: black; stroke-width:0.25;"/>
<line x1="39.000000" y1="95.000000" x2="42.000000" y2="94.000000"  transform="rotate(0.000000,42.000000,94.000000)" style="stroke: black; stroke-width:0.25;"/>
<a xlink:href="spat-0x7fa3c44a9fa0.svg">
<rect x="139.700000" y="59.000000" width="141.900000" height="32.000000" rx="0" ry="0" style="stroke:none;fill:#cccccc;"/>
<rect x="138.700000" y="58.000000" width="141.900000" height="32.000000" rx="0" ry="0" style="stroke:none;fill:#003366;"/>
</a>
<a xlink:href="spat-0x7fa3c44a9fa0.svg">
<text x="209.650000" y="76.000000" font-family="Arial" font-size="7" text-anchor="middle" fill="#FFFFFF">spat(4)(vslid...1.0f, 0.01f))(1)</text>
</a>
<circle cx="140.700000" cy="60.000000" r="1"/>
<line x1="135.700000" y1="73.000000" x2="138.700000" y2="74.000000"  transform="rotate(0.000000,138.700000,74.000000)" style="stroke: black; stroke-width:0.25;"/>
<line x1="135.700000" y1="75.000000" x2="138.700000" y2="74.000000"  transform="rotate(0.000000,138.700000,74.000000)" style="stroke: black; stroke-width:0.25;"/>
<a xlink:href="spat-0x7fa3c44c2ed0.svg">
<rect x="139.700000" y="99.000000" width="141.900000" height="32.000000" rx="0" ry="0" style="stroke:none;fill:#cccccc;"/>
<rect x="138.700000" y="98.000000" width="141.900000" height="32.000000" rx="0" ry="0" style="stroke:none;fill:#003366;"/>
</a>
<a xlink:href="spat-0x7fa3c44c2ed0.svg">
<text x="209.650000" y="116.000000" font-family="Arial" font-size="7" text-anchor="middle" fill="#FFFFFF">spat(4)(vslid...1.0f, 0.01f))(1)</text>
</a>
<circle cx="140.700000" cy="100.000000" r="1"/>
<line x1="135.700000" y1="113.000000" x2="138.700000" y2="114.000000"  transform="rotate(0.000000,138.700000,114.000000)" style="stroke: black; stroke-width:0.25;"/>
<line x1="135.700000" y1="115.000000" x2="138.700000" y2="114.000000"  transform="rotate(0.000000,138.700000,114.000000)" style="stroke: black; stroke-width:0.25;"/>
<line x1="129.700000" y1="49.000000" x2="129.700000" y2="139.000000"  style="stroke: black; stroke-linecap:round; stroke-width:0.25; stroke-dasharray:3,3;"/>
<line x1="129.700000" y1="139.000000" x2="289.600000" y2="139.000000"  style="stroke: black; stroke-linecap:round; stroke-width:0.25; stroke-dasharray:3,3;"/>
<line x1="289.600000" y1="139.000000" x2="289.600000" y2="49.000000"  style="stroke: black; stroke-linecap:round; stroke-width:0.25; stroke-dasharray:3,3;"/>
<line x1="129.700000" y1="49.000000" x2="134.700000" y2="49.000000"  style="stroke: black; stroke-linecap:round; stroke-width:0.25; stroke-dasharray:3,3;"/>
<line x1="189.525000" y1="49.000000" x2="289.600000" y2="49.000000"  style="stroke: black; stroke-linecap:round; stroke-width:0.25; stroke-dasharray:3,3;"/>
<text x="134.700000" y="51.000000" font-family="Arial" font-size="7">vgroup(HALAFON)</text>
<a xlink:href="pgm3LF-0x7fa3c6cb91d0.svg">
<rect x="356.600000" y="35.000000" width="25.800000" height="24.000000" rx="0" ry="0" style="stroke:none;fill:#cccccc;"/>
<rect x="355.600000" y="34.000000" width="25.800000" height="24.000000" rx="0" ry="0" style="stroke:none;fill:#003366;"/>
</a>
<a xlink:href="pgm3LF-0x7fa3c6cb91d0.svg">
<text x="368.500000" y="48.000000" font-family="Arial" font-size="7" text-anchor="middle" fill="#FFFFFF">pgm3LF</text>
</a>
<circle cx="357.600000" cy="36.000000" r="1"/>
<line x1="352.600000" y1="45.000000" x2="355.600000" y2="46.000000"  transform="rotate(0.000000,355.600000,46.000000)" style="stroke: black; stroke-width:0.25;"/>
<line x1="352.600000" y1="47.000000" x2="355.600000" y2="46.000000"  transform="rotate(0.000000,355.600000,46.000000)" style="stroke: black; stroke-width:0.25;"/>
<a xlink:href="pgm3RF-0x7fa3c6cb92d0.svg">
<rect x="356.600000" y="67.000000" width="25.800000" height="24.000000" rx="0" ry="0" style="stroke:none;fill:#cccccc;"/>
<rect x="355.600000" y="66.000000" width="25.800000" height="24.000000" rx="0" ry="0" style="stroke:none;fill:#003366;"/>
</a>
<a xlink:href="pgm3RF-0x7fa3c6cb92d0.svg">
<text x="368.500000" y="80.000000" font-family="Arial" font-size="7" text-anchor="middle" fill="#FFFFFF">pgm3RF</text>
</a>
<circle cx="357.600000" cy="68.000000" r="1"/>
<line x1="352.600000" y1="77.000000" x2="355.600000" y2="78.000000"  transform="rotate(0.000000,355.600000,78.000000)" style="stroke: black; stroke-width:0.25;"/>
<line x1="352.600000" y1="79.000000" x2="355.600000" y2="78.000000"  transform="rotate(0.000000,355.600000,78.000000)" style="stroke: black; stroke-width:0.25;"/>
<a xlink:href="pgm4LB-0x7fa3c6cb93e0.svg">
<rect x="356.600000" y="99.000000" width="25.800000" height="24.000000" rx="0" ry="0" style="stroke:none;fill:#cccccc;"/>
<rect x="355.600000" y="98.000000" width="25.800000" height="24.000000" rx="0" ry="0" style="stroke:none;fill:#003366;"/>
</a>
<a xlink:href="pgm4LB-0x7fa3c6cb93e0.svg">
<text x="368.500000" y="112.000000" font-family="Arial" font-size="7" text-anchor="middle" fill="#FFFFFF">pgm4LB</text>
</a>
<circle cx="357.600000" cy="100.000000" r="1"/>
<line x1="352.600000" y1="109.000000" x2="355.600000" y2="110.000000"  transform="rotate(0.000000,355.600000,110.000000)" style="stroke: black; stroke-width:0.25;"/>
<line x1="352.600000" y1="111.000000" x2="355.600000" y2="110.000000"  transform="rotate(0.000000,355.600000,110.000000)" style="stroke: black; stroke-width:0.25;"/>
<a xlink:href="pgm4RB-0x7fa3c6cb94e0.svg">
<rect x="356.600000" y="131.000000" width="25.800000" height="24.000000" rx="0" ry="0" style="stroke:none;fill:#cccccc;"/>
<rect x="355.600000" y="130.000000" width="25.800000" height="24.000000" rx="0" ry="0" style="stroke:none;fill:#003366;"/>
</a>
<a xlink:href="pgm4RB-0x7fa3c6cb94e0.svg">
<text x="368.500000" y="144.000000" font-family="Arial" font-size="7" text-anchor="middle" fill="#FFFFFF">pgm4RB</text>
</a>
<circle cx="357.600000" cy="132.000000" r="1"/>
<line x1="352.600000" y1="141.000000" x2="355.600000" y2="142.000000"  transform="rotate(0.000000,355.600000,142.000000)" style="stroke: black; stroke-width:0.25;"/>
<line x1="352.600000" y1="143.000000" x2="355.600000" y2="142.000000"  transform="rotate(0.000000,355.600000,142.000000)" style="stroke: black; stroke-width:0.25;"/>
<line x1="33.000000" y1="25.000000" x2="33.000000" y2="163.000000"  style="stroke: black; stroke-linecap:round; stroke-width:0.25; stroke-dasharray:3,3;"/>
<line x1="33.000000" y1="163.000000" x2="390.400000" y2="163.000000"  style="stroke: black; stroke-linecap:round; stroke-width:0.25; stroke-dasharray:3,3;"/>
<line x1="390.400000" y1="163.000000" x2="390.400000" y2="25.000000"  style="stroke: black; stroke-linecap:round; stroke-width:0.25; stroke-dasharray:3,3;"/>
<line x1="33.000000" y1="25.000000" x2="38.000000" y2="25.000000"  style="stroke: black; stroke-linecap:round; stroke-width:0.25; stroke-dasharray:3,3;"/>
<line x1="83.150000" y1="25.000000" x2="390.400000" y2="25.000000"  style="stroke: black; stroke-linecap:round; stroke-width:0.25; stroke-dasharray:3,3;"/>
<text x="38.000000" y="27.000000" font-family="Arial" font-size="7">hgroup(PGM2)</text>
<line x1="15.000000" y1="15.000000" x2="15.000000" y2="173.000000"  style="stroke: black; stroke-linecap:round; stroke-width:0.25; stroke-dasharray:3,3;"/>
<line x1="15.000000" y1="173.000000" x2="424.400000" y2="173.000000"  style="stroke: black; stroke-linecap:round; stroke-width:0.25; stroke-dasharray:3,3;"/>
<line x1="424.400000" y1="173.000000" x2="424.400000" y2="15.000000"  style="stroke: black; stroke-linecap:round; stroke-width:0.25; stroke-dasharray:3,3;"/>
<line x1="15.000000" y1="15.000000" x2="20.000000" y2="15.000000"  style="stroke: black; stroke-linecap:round; stroke-width:0.25; stroke-dasharray:3,3;"/>
<line x1="39.350000" y1="15.000000" x2="424.400000" y2="15.000000"  style="stroke: black; stroke-linecap:round; stroke-width:0.25; stroke-dasharray:3,3;"/>
<text x="20.000000" y="17.000000" font-family="Arial" font-size="7">PGM2</text>
<line x1="426.400000" y1="81.000000" x2="429.400000" y2="82.000000"  transform="rotate(0.000000,429.400000,82.000000)" style="stroke: black; stroke-width:0.25;"/>
<line x1="426.400000" y1="83.000000" x2="429.400000" y2="82.000000"  transform="rotate(0.000000,429.400000,82.000000)" style="stroke: black; stroke-width:0.25;"/>
<line x1="426.400000" y1="89.000000" x2="429.400000" y2="90.000000"  transform="rotate(0.000000,429.400000,90.000000)" style="stroke: black; stroke-width:0.25;"/>
<line x1="426.400000" y1="91.000000" x2="429.400000" y2="90.000000"  transform="rotate(0.000000,429.400000,90.000000)" style="stroke: black; stroke-width:0.25;"/>
<line x1="426.400000" y1="97.000000" x2="429.400000" y2="98.000000"  transform="rotate(0.000000,429.400000,98.000000)" style="stroke: black; stroke-width:0.25;"/>
<line x1="426.400000" y1="99.000000" x2="429.400000" y2="98.000000"  transform="rotate(0.000000,429.400000,98.000000)" style="stroke: black; stroke-width:0.25;"/>
<line x1="426.400000" y1="105.000000" x2="429.400000" y2="106.000000"  transform="rotate(0.000000,429.400000,106.000000)" style="stroke: black; stroke-width:0.25;"/>
<line x1="426.400000" y1="107.000000" x2="429.400000" y2="106.000000"  transform="rotate(0.000000,429.400000,106.000000)" style="stroke: black; stroke-width:0.25;"/>
<line x1="10.000000" y1="94.000000" x2="20.000000" y2="94.000000"  style="stroke:black; stroke-linecap:round; stroke-width:0.25;"/>
<line x1="20.000000" y1="94.000000" x2="24.000000" y2="94.000000"  style="stroke:black; stroke-linecap:round; stroke-width:0.25;"/>
<line x1="24.000000" y1="94.000000" x2="28.000000" y2="94.000000"  style="stroke:black; stroke-linecap:round; stroke-width:0.25;"/>
<line x1="28.000000" y1="94.000000" x2="28.000000" y2="94.000000"  style="stroke:black; stroke-linecap:round; stroke-width:0.25;"/>
<line x1="28.000000" y1="94.000000" x2="38.000000" y2="94.000000"  style="stroke:black; stroke-linecap:round; stroke-width:0.25;"/>
<line x1="38.000000" y1="94.000000" x2="38.000000" y2="94.000000"  style="stroke:black; stroke-linecap:round; stroke-width:0.25;"/>
<line x1="38.000000" y1="94.000000" x2="42.000000" y2="94.000000"  style="stroke:black; stroke-linecap:round; stroke-width:0.25;"/>
<line x1="80.700000" y1="94.000000" x2="84.700000" y2="94.000000"  style="stroke:black; stroke-linecap:round; stroke-width:0.25;"/>
<line x1="84.700000" y1="94.000000" x2="124.700000" y2="74.000000"  style="stroke:black; stroke-linecap:round; stroke-width:0.25;"/>
<line x1="84.700000" y1="94.000000" x2="124.700000" y2="114.000000"  style="stroke:black; stroke-linecap:round; stroke-width:0.25;"/>
<line x1="124.700000" y1="74.000000" x2="134.700000" y2="74.000000"  style="stroke:black; stroke-linecap:round; stroke-width:0.25;"/>
<line x1="124.700000" y1="114.000000" x2="134.700000" y2="114.000000"  style="stroke:black; stroke-linecap:round; stroke-width:0.25;"/>
<line x1="134.700000" y1="74.000000" x2="138.700000" y2="74.000000"  style="stroke:black; stroke-linecap:round; stroke-width:0.25;"/>
<line x1="134.700000" y1="114.000000" x2="138.700000" y2="114.000000"  style="stroke:black; stroke-linecap:round; stroke-width:0.25;"/>
<line x1="280.600000" y1="62.000000" x2="284.600000" y2="62.000000"  style="stroke:black; stroke-linecap:round; stroke-width:0.25;"/>
<line x1="280.600000" y1="70.000000" x2="284.600000" y2="70.000000"  style="stroke:black; stroke-linecap:round; stroke-width:0.25;"/>
<line x1="280.600000" y1="78.000000" x2="284.600000" y2="78.000000"  style="stroke:black; stroke-linecap:round; stroke-width:0.25;"/>
<line x1="280.600000" y1="86.000000" x2="284.600000" y2="86.000000"  style="stroke:black; stroke-linecap:round; stroke-width:0.25;"/>
<line x1="280.600000" y1="102.000000" x2="284.600000" y2="102.000000"  style="stroke:black; stroke-linecap:round; stroke-width:0.25;"/>
<line x1="280.600000" y1="110.000000" x2="284.600000" y2="110.000000"  style="stroke:black; stroke-linecap:round; stroke-width:0.25;"/>
<line x1="280.600000" y1="118.000000" x2="284.600000" y2="118.000000"  style="stroke:black; stroke-linecap:round; stroke-width:0.25;"/>
<line x1="280.600000" y1="126.000000" x2="284.600000" y2="126.000000"  style="stroke:black; stroke-linecap:round; stroke-width:0.25;"/>
<line x1="284.600000" y1="62.000000" x2="294.600000" y2="62.000000"  style="stroke:black; stroke-linecap:round; stroke-width:0.25;"/>
<line x1="284.600000" y1="70.000000" x2="294.600000" y2="70.000000"  style="stroke:black; stroke-linecap:round; stroke-width:0.25;"/>
<line x1="284.600000" y1="78.000000" x2="294.600000" y2="78.000000"  style="stroke:black; stroke-linecap:round; stroke-width:0.25;"/>
<line x1="284.600000" y1="86.000000" x2="294.600000" y2="86.000000"  style="stroke:black; stroke-linecap:round; stroke-width:0.25;"/>
<line x1="284.600000" y1="102.000000" x2="294.600000" y2="102.000000"  style="stroke:black; stroke-linecap:round; stroke-width:0.25;"/>
<line x1="284.600000" y1="110.000000" x2="294.600000" y2="110.000000"  style="stroke:black; stroke-linecap:round; stroke-width:0.25;"/>
<line x1="284.600000" y1="118.000000" x2="294.600000" y2="118.000000"  style="stroke:black; stroke-linecap:round; stroke-width:0.25;"/>
<line x1="284.600000" y1="126.000000" x2="294.600000" y2="126.000000"  style="stroke:black; stroke-linecap:round; stroke-width:0.25;"/>
<line x1="294.600000" y1="62.000000" x2="351.600000" y2="46.000000"  style="stroke:black; stroke-linecap:round; stroke-width:0.25;"/>
<line x1="294.600000" y1="70.000000" x2="351.600000" y2="78.000000"  style="stroke:black; stroke-linecap:round; stroke-width:0.25;"/>
<line x1="294.600000" y1="78.000000" x2="351.600000" y2="110.000000"  style="stroke:black; stroke-linecap:round; stroke-width:0.25;"/>
<line x1="294.600000" y1="86.000000" x2="351.600000" y2="142.000000"  style="stroke:black; stroke-linecap:round; stroke-width:0.25;"/>
<line x1="294.600000" y1="102.000000" x2="351.600000" y2="46.000000"  style="stroke:black; stroke-linecap:round; stroke-width:0.25;"/>
<line x1="294.600000" y1="110.000000" x2="351.600000" y2="78.000000"  style="stroke:black; stroke-linecap:round; stroke-width:0.25;"/>
<line x1="294.600000" y1="118.000000" x2="351.600000" y2="110.000000"  style="stroke:black; stroke-linecap:round; stroke-width:0.25;"/>
<line x1="294.600000" y1="126.000000" x2="351.600000" y2="142.000000"  style="stroke:black; stroke-linecap:round; stroke-width:0.25;"/>
<line x1="351.600000" y1="46.000000" x2="355.600000" y2="46.000000"  style="stroke:black; stroke-linecap:round; stroke-width:0.25;"/>
<line x1="351.600000" y1="78.000000" x2="355.600000" y2="78.000000"  style="stroke:black; stroke-linecap:round; stroke-width:0.25;"/>
<line x1="351.600000" y1="110.000000" x2="355.600000" y2="110.000000"  style="stroke:black; stroke-linecap:round; stroke-width:0.25;"/>
<line x1="351.600000" y1="142.000000" x2="355.600000" y2="142.000000"  style="stroke:black; stroke-linecap:round; stroke-width:0.25;"/>
<line x1="381.400000" y1="46.000000" x2="385.400000" y2="46.000000"  style="stroke:black; stroke-linecap:round; stroke-width:0.25;"/>
<line x1="381.400000" y1="78.000000" x2="385.400000" y2="78.000000"  style="stroke:black; stroke-linecap:round; stroke-width:0.25;"/>
<line x1="381.400000" y1="110.000000" x2="385.400000" y2="110.000000"  style="stroke:black; stroke-linecap:round; stroke-width:0.25;"/>
<line x1="381.400000" y1="142.000000" x2="385.400000" y2="142.000000"  style="stroke:black; stroke-linecap:round; stroke-width:0.25;"/>
<line x1="385.400000" y1="46.000000" x2="395.400000" y2="46.000000"  style="stroke:black; stroke-linecap:round; stroke-width:0.25;"/>
<line x1="385.400000" y1="78.000000" x2="395.400000" y2="78.000000"  style="stroke:black; stroke-linecap:round; stroke-width:0.25;"/>
<line x1="385.400000" y1="110.000000" x2="395.400000" y2="110.000000"  style="stroke:black; stroke-linecap:round; stroke-width:0.25;"/>
<line x1="385.400000" y1="142.000000" x2="395.400000" y2="142.000000"  style="stroke:black; stroke-linecap:round; stroke-width:0.25;"/>
<line x1="395.400000" y1="46.000000" x2="411.400000" y2="46.000000"  style="stroke:black; stroke-linecap:round; stroke-width:0.25;"/>
<line x1="395.400000" y1="78.000000" x2="403.400000" y2="78.000000"  style="stroke:black; stroke-linecap:round; stroke-width:0.25;"/>
<line x1="395.400000" y1="98.000000" x2="411.400000" y2="98.000000"  style="stroke:black; stroke-linecap:round; stroke-width:0.25;"/>
<line x1="395.400000" y1="110.000000" x2="395.400000" y2="98.000000"  style="stroke:black; stroke-linecap:round; stroke-width:0.25;"/>
<line x1="395.400000" y1="110.000000" x2="395.400000" y2="110.000000"  style="stroke:black; stroke-linecap:round; stroke-width:0.25;"/>
<line x1="395.400000" y1="142.000000" x2="403.400000" y2="142.000000"  style="stroke:black; stroke-linecap:round; stroke-width:0.25;"/>
<line x1="403.400000" y1="78.000000" x2="403.400000" y2="90.000000"  style="stroke:black; stroke-linecap:round; stroke-width:0.25;"/>
<line x1="403.400000" y1="90.000000" x2="411.400000" y2="90.000000"  style="stroke:black; stroke-linecap:round; stroke-width:0.25;"/>
<line x1="403.400000" y1="106.000000" x2="411.400000" y2="106.000000"  style="stroke:black; stroke-linecap:round; stroke-width:0.25;"/>
<line x1="403.400000" y1="142.000000" x2="403.400000" y2="106.000000"  style="stroke:black; stroke-linecap:round; stroke-width:0.25;"/>
<line x1="411.400000" y1="82.000000" x2="415.400000" y2="82.000000"  style="stroke:black; stroke-linecap:round; stroke-width:0.25;"/>
<line x1="411.400000" y1="90.000000" x2="415.400000" y2="90.000000"  style="stroke:black; stroke-linecap:round; stroke-width:0.25;"/>
<line x1="411.400000" y1="98.000000" x2="415.400000" y2="98.000000"  style="stroke:black; stroke-linecap:round; stroke-width:0.25;"/>
<line x1="411.400000" y1="106.000000" x2="415.400000" y2="106.000000"  style="stroke:black; stroke-linecap:round; stroke-width:0.25;"/>
<line x1="411.400000" y1="46.000000" x2="411.400000" y2="82.000000"  style="stroke:black; stroke-linecap:round; stroke-width:0.25;"/>
<line x1="411.400000" y1="82.000000" x2="411.400000" y2="82.000000"  style="stroke:black; stroke-linecap:round; stroke-width:0.25;"/>
<line x1="415.400000" y1="82.000000" x2="419.400000" y2="82.000000"  style="stroke:black; stroke-linecap:round; stroke-width:0.25;"/>
<line x1="415.400000" y1="90.000000" x2="419.400000" y2="90.000000"  style="stroke:black; stroke-linecap:round; stroke-width:0.25;"/>
<line x1="415.400000" y1="98.000000" x2="419.400000" y2="98.000000"  style="stroke:black; stroke-linecap:round; stroke-width:0.25;"/>
<line x1="415.400000" y1="106.000000" x2="419.400000" y2="106.000000"  style="stroke:black; stroke-linecap:round; stroke-width:0.25;"/>
<line x1="419.400000" y1="82.000000" x2="429.400000" y2="82.000000"  style="stroke:black; stroke-linecap:round; stroke-width:0.25;"/>
<line x1="419.400000" y1="90.000000" x2="429.400000" y2="90.000000"  style="stroke:black; stroke-linecap:round; stroke-width:0.25;"/>
<line x1="419.400000" y1="98.000000" x2="429.400000" y2="98.000000"  style="stroke:black; stroke-linecap:round; stroke-width:0.25;"/>
<line x1="419.400000" y1="106.000000" x2="429.400000" y2="106.000000"  style="stroke:black; stroke-linecap:round; stroke-width:0.25;"/>
</svg>
