<?xml version="1.0"?>
<svg xmlns="http://www.w3.org/2000/svg" xmlns:xlink="http://www.w3.org/1999/xlink" viewBox="0 0 151.800000 124.000000" width="75.900000mm" height="62.000000mm" version="1.1">
<a xlink:href="process.svg">
<rect x="1.000000" y="1.000000" width="150.800000" height="123.000000" rx="0" ry="0" style="stroke:none;fill:#cccccc;"/>
<rect x="0.000000" y="0.000000" width="150.800000" height="123.000000" rx="0" ry="0" style="stroke:none;fill:#ffffff;"/>
</a>
<text x="10.000000" y="7.000000" font-family="Arial" font-size="7"></text>
<a xlink:href="rev30-0x7fded19153f0.svg">
<rect x="69.000000" y="35.000000" width="25.800000" height="24.000000" rx="0" ry="0" style="stroke:none;fill:#cccccc;"/>
<rect x="68.000000" y="34.000000" width="25.800000" height="24.000000" rx="0" ry="0" style="stroke:none;fill:#003366;"/>
</a>
<a xlink:href="rev30-0x7fded19153f0.svg">
<text x="80.900000" y="48.000000" font-family="Arial" font-size="7" text-anchor="middle" fill="#FFFFFF">rev30</text>
</a>
<circle cx="70.000000" cy="36.000000" r="1"/>
<line x1="65.000000" y1="41.000000" x2="68.000000" y2="42.000000"  transform="rotate(0.000000,68.000000,42.000000)" style="stroke: black; stroke-width:0.25;"/>
<line x1="65.000000" y1="43.000000" x2="68.000000" y2="42.000000"  transform="rotate(0.000000,68.000000,42.000000)" style="stroke: black; stroke-width:0.25;"/>
<line x1="65.000000" y1="49.000000" x2="68.000000" y2="50.000000"  transform="rotate(0.000000,68.000000,50.000000)" style="stroke: black; stroke-width:0.25;"/>
<line x1="65.000000" y1="51.000000" x2="68.000000" y2="50.000000"  transform="rotate(0.000000,68.000000,50.000000)" style="stroke: black; stroke-width:0.25;"/>
<a xlink:href="rev10-0x7fded19c74c0.svg">
<rect x="69.000000" y="67.000000" width="25.800000" height="24.000000" rx="0" ry="0" style="stroke:none;fill:#cccccc;"/>
<rect x="68.000000" y="66.000000" width="25.800000" height="24.000000" rx="0" ry="0" style="stroke:none;fill:#003366;"/>
</a>
<a xlink:href="rev10-0x7fded19c74c0.svg">
<text x="80.900000" y="80.000000" font-family="Arial" font-size="7" text-anchor="middle" fill="#FFFFFF">rev10</text>
</a>
<circle cx="70.000000" cy="68.000000" r="1"/>
<line x1="65.000000" y1="73.000000" x2="68.000000" y2="74.000000"  transform="rotate(0.000000,68.000000,74.000000)" style="stroke: black; stroke-width:0.25;"/>
<line x1="65.000000" y1="75.000000" x2="68.000000" y2="74.000000"  transform="rotate(0.000000,68.000000,74.000000)" style="stroke: black; stroke-width:0.25;"/>
<line x1="65.000000" y1="81.000000" x2="68.000000" y2="82.000000"  transform="rotate(0.000000,68.000000,82.000000)" style="stroke: black; stroke-width:0.25;"/>
<line x1="65.000000" y1="83.000000" x2="68.000000" y2="82.000000"  transform="rotate(0.000000,68.000000,82.000000)" style="stroke: black; stroke-width:0.25;"/>
<line x1="33.000000" y1="25.000000" x2="33.000000" y2="99.000000"  style="stroke: black; stroke-linecap:round; stroke-width:0.25; stroke-dasharray:3,3;"/>
<line x1="33.000000" y1="99.000000" x2="102.800000" y2="99.000000"  style="stroke: black; stroke-linecap:round; stroke-width:0.25; stroke-dasharray:3,3;"/>
<line x1="102.800000" y1="99.000000" x2="102.800000" y2="25.000000"  style="stroke: black; stroke-linecap:round; stroke-width:0.25; stroke-dasharray:3,3;"/>
<line x1="33.000000" y1="25.000000" x2="38.000000" y2="25.000000"  style="stroke: black; stroke-linecap:round; stroke-width:0.25; stroke-dasharray:3,3;"/>
<line x1="102.800000" y1="25.000000" x2="102.800000" y2="25.000000"  style="stroke: black; stroke-linecap:round; stroke-width:0.25; stroke-dasharray:3,3;"/>
<text x="38.000000" y="27.000000" font-family="Arial" font-size="7">hgroup(PGM3 ---- PGM4)</text>
<line x1="15.000000" y1="15.000000" x2="15.000000" y2="109.000000"  style="stroke: black; stroke-linecap:round; stroke-width:0.25; stroke-dasharray:3,3;"/>
<line x1="15.000000" y1="109.000000" x2="136.800000" y2="109.000000"  style="stroke: black; stroke-linecap:round; stroke-width:0.25; stroke-dasharray:3,3;"/>
<line x1="136.800000" y1="109.000000" x2="136.800000" y2="15.000000"  style="stroke: black; stroke-linecap:round; stroke-width:0.25; stroke-dasharray:3,3;"/>
<line x1="15.000000" y1="15.000000" x2="20.000000" y2="15.000000"  style="stroke: black; stroke-linecap:round; stroke-width:0.25; stroke-dasharray:3,3;"/>
<line x1="42.575000" y1="15.000000" x2="136.800000" y2="15.000000"  style="stroke: black; stroke-linecap:round; stroke-width:0.25; stroke-dasharray:3,3;"/>
<text x="20.000000" y="17.000000" font-family="Arial" font-size="7">PGM34</text>
<line x1="138.800000" y1="49.000000" x2="141.800000" y2="50.000000"  transform="rotate(0.000000,141.800000,50.000000)" style="stroke: black; stroke-width:0.25;"/>
<line x1="138.800000" y1="51.000000" x2="141.800000" y2="50.000000"  transform="rotate(0.000000,141.800000,50.000000)" style="stroke: black; stroke-width:0.25;"/>
<line x1="138.800000" y1="57.000000" x2="141.800000" y2="58.000000"  transform="rotate(0.000000,141.800000,58.000000)" style="stroke: black; stroke-width:0.25;"/>
<line x1="138.800000" y1="59.000000" x2="141.800000" y2="58.000000"  transform="rotate(0.000000,141.800000,58.000000)" style="stroke: black; stroke-width:0.25;"/>
<line x1="138.800000" y1="65.000000" x2="141.800000" y2="66.000000"  transform="rotate(0.000000,141.800000,66.000000)" style="stroke: black; stroke-width:0.25;"/>
<line x1="138.800000" y1="67.000000" x2="141.800000" y2="66.000000"  transform="rotate(0.000000,141.800000,66.000000)" style="stroke: black; stroke-width:0.25;"/>
<line x1="138.800000" y1="73.000000" x2="141.800000" y2="74.000000"  transform="rotate(0.000000,141.800000,74.000000)" style="stroke: black; stroke-width:0.25;"/>
<line x1="138.800000" y1="75.000000" x2="141.800000" y2="74.000000"  transform="rotate(0.000000,141.800000,74.000000)" style="stroke: black; stroke-width:0.25;"/>
<line x1="10.000000" y1="62.000000" x2="20.000000" y2="62.000000"  style="stroke:black; stroke-linecap:round; stroke-width:0.25;"/>
<line x1="20.000000" y1="62.000000" x2="24.000000" y2="62.000000"  style="stroke:black; stroke-linecap:round; stroke-width:0.25;"/>
<line x1="24.000000" y1="62.000000" x2="28.000000" y2="62.000000"  style="stroke:black; stroke-linecap:round; stroke-width:0.25;"/>
<line x1="28.000000" y1="62.000000" x2="28.000000" y2="62.000000"  style="stroke:black; stroke-linecap:round; stroke-width:0.25;"/>
<line x1="28.000000" y1="62.000000" x2="38.000000" y2="62.000000"  style="stroke:black; stroke-linecap:round; stroke-width:0.25;"/>
<line x1="38.000000" y1="62.000000" x2="42.000000" y2="62.000000"  style="stroke:black; stroke-linecap:round; stroke-width:0.25;"/>
<line x1="42.000000" y1="62.000000" x2="46.000000" y2="62.000000"  style="stroke:black; stroke-linecap:round; stroke-width:0.25;"/>
<line x1="46.000000" y1="62.000000" x2="64.000000" y2="42.000000"  style="stroke:black; stroke-linecap:round; stroke-width:0.25;"/>
<line x1="46.000000" y1="62.000000" x2="64.000000" y2="50.000000"  style="stroke:black; stroke-linecap:round; stroke-width:0.25;"/>
<line x1="46.000000" y1="62.000000" x2="64.000000" y2="74.000000"  style="stroke:black; stroke-linecap:round; stroke-width:0.25;"/>
<line x1="46.000000" y1="62.000000" x2="64.000000" y2="82.000000"  style="stroke:black; stroke-linecap:round; stroke-width:0.25;"/>
<line x1="64.000000" y1="42.000000" x2="68.000000" y2="42.000000"  style="stroke:black; stroke-linecap:round; stroke-width:0.25;"/>
<line x1="64.000000" y1="50.000000" x2="68.000000" y2="50.000000"  style="stroke:black; stroke-linecap:round; stroke-width:0.25;"/>
<line x1="64.000000" y1="74.000000" x2="68.000000" y2="74.000000"  style="stroke:black; stroke-linecap:round; stroke-width:0.25;"/>
<line x1="64.000000" y1="82.000000" x2="68.000000" y2="82.000000"  style="stroke:black; stroke-linecap:round; stroke-width:0.25;"/>
<line x1="93.800000" y1="42.000000" x2="97.800000" y2="42.000000"  style="stroke:black; stroke-linecap:round; stroke-width:0.25;"/>
<line x1="93.800000" y1="50.000000" x2="97.800000" y2="50.000000"  style="stroke:black; stroke-linecap:round; stroke-width:0.25;"/>
<line x1="93.800000" y1="74.000000" x2="97.800000" y2="74.000000"  style="stroke:black; stroke-linecap:round; stroke-width:0.25;"/>
<line x1="93.800000" y1="82.000000" x2="97.800000" y2="82.000000"  style="stroke:black; stroke-linecap:round; stroke-width:0.25;"/>
<line x1="97.800000" y1="42.000000" x2="107.800000" y2="42.000000"  style="stroke:black; stroke-linecap:round; stroke-width:0.25;"/>
<line x1="97.800000" y1="50.000000" x2="107.800000" y2="50.000000"  style="stroke:black; stroke-linecap:round; stroke-width:0.25;"/>
<line x1="97.800000" y1="74.000000" x2="107.800000" y2="74.000000"  style="stroke:black; stroke-linecap:round; stroke-width:0.25;"/>
<line x1="97.800000" y1="82.000000" x2="107.800000" y2="82.000000"  style="stroke:black; stroke-linecap:round; stroke-width:0.25;"/>
<line x1="107.800000" y1="42.000000" x2="123.800000" y2="42.000000"  style="stroke:black; stroke-linecap:round; stroke-width:0.25;"/>
<line x1="107.800000" y1="50.000000" x2="115.800000" y2="50.000000"  style="stroke:black; stroke-linecap:round; stroke-width:0.25;"/>
<line x1="107.800000" y1="66.000000" x2="123.800000" y2="66.000000"  style="stroke:black; stroke-linecap:round; stroke-width:0.25;"/>
<line x1="107.800000" y1="74.000000" x2="107.800000" y2="66.000000"  style="stroke:black; stroke-linecap:round; stroke-width:0.25;"/>
<line x1="107.800000" y1="74.000000" x2="107.800000" y2="74.000000"  style="stroke:black; stroke-linecap:round; stroke-width:0.25;"/>
<line x1="107.800000" y1="82.000000" x2="115.800000" y2="82.000000"  style="stroke:black; stroke-linecap:round; stroke-width:0.25;"/>
<line x1="115.800000" y1="50.000000" x2="115.800000" y2="58.000000"  style="stroke:black; stroke-linecap:round; stroke-width:0.25;"/>
<line x1="115.800000" y1="58.000000" x2="123.800000" y2="58.000000"  style="stroke:black; stroke-linecap:round; stroke-width:0.25;"/>
<line x1="115.800000" y1="74.000000" x2="123.800000" y2="74.000000"  style="stroke:black; stroke-linecap:round; stroke-width:0.25;"/>
<line x1="115.800000" y1="82.000000" x2="115.800000" y2="74.000000"  style="stroke:black; stroke-linecap:round; stroke-width:0.25;"/>
<line x1="123.800000" y1="42.000000" x2="123.800000" y2="50.000000"  style="stroke:black; stroke-linecap:round; stroke-width:0.25;"/>
<line x1="123.800000" y1="50.000000" x2="123.800000" y2="50.000000"  style="stroke:black; stroke-linecap:round; stroke-width:0.25;"/>
<line x1="123.800000" y1="50.000000" x2="127.800000" y2="50.000000"  style="stroke:black; stroke-linecap:round; stroke-width:0.25;"/>
<line x1="123.800000" y1="58.000000" x2="127.800000" y2="58.000000"  style="stroke:black; stroke-linecap:round; stroke-width:0.25;"/>
<line x1="123.800000" y1="66.000000" x2="127.800000" y2="66.000000"  style="stroke:black; stroke-linecap:round; stroke-width:0.25;"/>
<line x1="123.800000" y1="74.000000" x2="127.800000" y2="74.000000"  style="stroke:black; stroke-linecap:round; stroke-width:0.25;"/>
<line x1="127.800000" y1="50.000000" x2="131.800000" y2="50.000000"  style="stroke:black; stroke-linecap:round; stroke-width:0.25;"/>
<line x1="127.800000" y1="58.000000" x2="131.800000" y2="58.000000"  style="stroke:black; stroke-linecap:round; stroke-width:0.25;"/>
<line x1="127.800000" y1="66.000000" x2="131.800000" y2="66.000000"  style="stroke:black; stroke-linecap:round; stroke-width:0.25;"/>
<line x1="127.800000" y1="74.000000" x2="131.800000" y2="74.000000"  style="stroke:black; stroke-linecap:round; stroke-width:0.25;"/>
<line x1="131.800000" y1="50.000000" x2="141.800000" y2="50.000000"  style="stroke:black; stroke-linecap:round; stroke-width:0.25;"/>
<line x1="131.800000" y1="58.000000" x2="141.800000" y2="58.000000"  style="stroke:black; stroke-linecap:round; stroke-width:0.25;"/>
<line x1="131.800000" y1="66.000000" x2="141.800000" y2="66.000000"  style="stroke:black; stroke-linecap:round; stroke-width:0.25;"/>
<line x1="131.800000" y1="74.000000" x2="141.800000" y2="74.000000"  style="stroke:black; stroke-linecap:round; stroke-width:0.25;"/>
</svg>
