<?xml version="1.0"?>
<svg xmlns="http://www.w3.org/2000/svg" xmlns:xlink="http://www.w3.org/1999/xlink" viewBox="0 0 347.700000 144.000000" width="173.850000mm" height="72.000000mm" version="1.1">
<a xlink:href="PGM2-0x7f8443eb1d90.svg">
<rect x="1.000000" y="1.000000" width="346.700000" height="143.000000" rx="0" ry="0" style="stroke:none;fill:#cccccc;"/>
<rect x="0.000000" y="0.000000" width="346.700000" height="143.000000" rx="0" ry="0" style="stroke:none;fill:#ffffff;"/>
</a>
<text x="10.000000" y="7.000000" font-family="Arial" font-size="7"></text>
<a xlink:href="g1-0x7f8442276700.svg">
<rect x="140.850000" y="33.000000" width="24.000000" height="24.000000" rx="0" ry="0" style="stroke:none;fill:#cccccc;"/>
<rect x="139.850000" y="32.000000" width="24.000000" height="24.000000" rx="0" ry="0" style="stroke:none;fill:#003366;"/>
</a>
<a xlink:href="g1-0x7f8442276700.svg">
<text x="151.850000" y="46.000000" font-family="Arial" font-size="7" text-anchor="middle" fill="#FFFFFF">g1</text>
</a>
<circle cx="141.850000" cy="34.000000" r="1"/>
<rect x="180.850000" y="29.000000" width="24.000000" height="24.000000" rx="0" ry="0" style="stroke:none;fill:#cccccc;"/>
<rect x="179.850000" y="28.000000" width="24.000000" height="24.000000" rx="0" ry="0" style="stroke:none;fill:#4B71A1;"/>
<text x="191.850000" y="42.000000" font-family="Arial" font-size="7" text-anchor="middle" fill="#FFFFFF">*</text>
<circle cx="181.850000" cy="30.000000" r="1"/>
<line x1="176.850000" y1="35.000000" x2="179.850000" y2="36.000000"  transform="rotate(0.000000,179.850000,36.000000)" style="stroke: black; stroke-width:0.25;"/>
<line x1="176.850000" y1="37.000000" x2="179.850000" y2="36.000000"  transform="rotate(0.000000,179.850000,36.000000)" style="stroke: black; stroke-width:0.25;"/>
<line x1="176.850000" y1="43.000000" x2="179.850000" y2="44.000000"  transform="rotate(0.000000,179.850000,44.000000)" style="stroke: black; stroke-width:0.25;"/>
<line x1="176.850000" y1="45.000000" x2="179.850000" y2="44.000000"  transform="rotate(0.000000,179.850000,44.000000)" style="stroke: black; stroke-width:0.25;"/>
<a xlink:href="g2mi-0x7f8442278260.svg">
<rect x="139.950000" y="65.000000" width="25.800000" height="24.000000" rx="0" ry="0" style="stroke:none;fill:#cccccc;"/>
<rect x="138.950000" y="64.000000" width="25.800000" height="24.000000" rx="0" ry="0" style="stroke:none;fill:#003366;"/>
</a>
<a xlink:href="g2mi-0x7f8442278260.svg">
<text x="151.850000" y="78.000000" font-family="Arial" font-size="7" text-anchor="middle" fill="#FFFFFF">g2mi</text>
</a>
<circle cx="140.950000" cy="66.000000" r="1"/>
<a xlink:href="vibrato2-0x7f8443eb12a0.svg">
<rect x="69.000000" y="97.000000" width="167.700000" height="24.000000" rx="0" ry="0" style="stroke:none;fill:#cccccc;"/>
<rect x="68.000000" y="96.000000" width="167.700000" height="24.000000" rx="0" ry="0" style="stroke:none;fill:#003366;"/>
</a>
<a xlink:href="vibrato2-0x7f8443eb12a0.svg">
<text x="151.850000" y="110.000000" font-family="Arial" font-size="7" text-anchor="middle" fill="#FFFFFF">vibrato2_mono...500)(1000)(2)(1500)(1)</text>
</a>
<circle cx="70.000000" cy="98.000000" r="1"/>
<line x1="65.000000" y1="107.000000" x2="68.000000" y2="108.000000"  transform="rotate(0.000000,68.000000,108.000000)" style="stroke: black; stroke-width:0.25;"/>
<line x1="65.000000" y1="109.000000" x2="68.000000" y2="108.000000"  transform="rotate(0.000000,68.000000,108.000000)" style="stroke: black; stroke-width:0.25;"/>
<rect x="252.700000" y="81.000000" width="24.000000" height="24.000000" rx="0" ry="0" style="stroke:none;fill:#cccccc;"/>
<rect x="251.700000" y="80.000000" width="24.000000" height="24.000000" rx="0" ry="0" style="stroke:none;fill:#4B71A1;"/>
<text x="263.700000" y="94.000000" font-family="Arial" font-size="7" text-anchor="middle" fill="#FFFFFF">*</text>
<circle cx="253.700000" cy="82.000000" r="1"/>
<line x1="248.700000" y1="87.000000" x2="251.700000" y2="88.000000"  transform="rotate(0.000000,251.700000,88.000000)" style="stroke: black; stroke-width:0.25;"/>
<line x1="248.700000" y1="89.000000" x2="251.700000" y2="88.000000"  transform="rotate(0.000000,251.700000,88.000000)" style="stroke: black; stroke-width:0.25;"/>
<line x1="248.700000" y1="95.000000" x2="251.700000" y2="96.000000"  transform="rotate(0.000000,251.700000,96.000000)" style="stroke: black; stroke-width:0.25;"/>
<line x1="248.700000" y1="97.000000" x2="251.700000" y2="96.000000"  transform="rotate(0.000000,251.700000,96.000000)" style="stroke: black; stroke-width:0.25;"/>
<rect x="292.700000" y="61.000000" width="24.000000" height="24.000000" rx="0" ry="0" style="stroke:none;fill:#cccccc;"/>
<rect x="291.700000" y="60.000000" width="24.000000" height="24.000000" rx="0" ry="0" style="stroke:none;fill:#4B71A1;"/>
<text x="303.700000" y="74.000000" font-family="Arial" font-size="7" text-anchor="middle" fill="#FFFFFF">+</text>
<circle cx="293.700000" cy="62.000000" r="1"/>
<line x1="288.700000" y1="67.000000" x2="291.700000" y2="68.000000"  transform="rotate(0.000000,291.700000,68.000000)" style="stroke: black; stroke-width:0.25;"/>
<line x1="288.700000" y1="69.000000" x2="291.700000" y2="68.000000"  transform="rotate(0.000000,291.700000,68.000000)" style="stroke: black; stroke-width:0.25;"/>
<line x1="288.700000" y1="75.000000" x2="291.700000" y2="76.000000"  transform="rotate(0.000000,291.700000,76.000000)" style="stroke: black; stroke-width:0.25;"/>
<line x1="288.700000" y1="77.000000" x2="291.700000" y2="76.000000"  transform="rotate(0.000000,291.700000,76.000000)" style="stroke: black; stroke-width:0.25;"/>
<line x1="15.000000" y1="15.000000" x2="15.000000" y2="129.000000"  style="stroke: black; stroke-linecap:round; stroke-width:0.25; stroke-dasharray:3,3;"/>
<line x1="15.000000" y1="129.000000" x2="332.700000" y2="129.000000"  style="stroke: black; stroke-linecap:round; stroke-width:0.25; stroke-dasharray:3,3;"/>
<line x1="332.700000" y1="129.000000" x2="332.700000" y2="15.000000"  style="stroke: black; stroke-linecap:round; stroke-width:0.25; stroke-dasharray:3,3;"/>
<line x1="15.000000" y1="15.000000" x2="20.000000" y2="15.000000"  style="stroke: black; stroke-linecap:round; stroke-width:0.25; stroke-dasharray:3,3;"/>
<line x1="49.025000" y1="15.000000" x2="332.700000" y2="15.000000"  style="stroke: black; stroke-linecap:round; stroke-width:0.25; stroke-dasharray:3,3;"/>
<text x="20.000000" y="17.000000" font-family="Arial" font-size="7">phasing</text>
<line x1="334.700000" y1="71.000000" x2="337.700000" y2="72.000000"  transform="rotate(0.000000,337.700000,72.000000)" style="stroke: black; stroke-width:0.25;"/>
<line x1="334.700000" y1="73.000000" x2="337.700000" y2="72.000000"  transform="rotate(0.000000,337.700000,72.000000)" style="stroke: black; stroke-width:0.25;"/>
<line x1="10.000000" y1="72.000000" x2="20.000000" y2="72.000000"  style="stroke:black; stroke-linecap:round; stroke-width:0.25;"/>
<line x1="20.000000" y1="72.000000" x2="24.000000" y2="72.000000"  style="stroke:black; stroke-linecap:round; stroke-width:0.25;"/>
<line x1="24.000000" y1="72.000000" x2="28.000000" y2="72.000000"  style="stroke:black; stroke-linecap:round; stroke-width:0.25;"/>
<line x1="28.000000" y1="72.000000" x2="28.000000" y2="72.000000"  style="stroke:black; stroke-linecap:round; stroke-width:0.25;"/>
<line x1="28.000000" y1="72.000000" x2="32.000000" y2="72.000000"  style="stroke:black; stroke-linecap:round; stroke-width:0.25;"/>
<line x1="32.000000" y1="72.000000" x2="36.000000" y2="72.000000"  style="stroke:black; stroke-linecap:round; stroke-width:0.25;"/>
<line x1="36.000000" y1="72.000000" x2="64.000000" y2="24.000000"  style="stroke:black; stroke-linecap:round; stroke-width:0.25;"/>
<line x1="36.000000" y1="72.000000" x2="64.000000" y2="108.000000"  style="stroke:black; stroke-linecap:round; stroke-width:0.25;"/>
<line x1="64.000000" y1="24.000000" x2="135.850000" y2="24.000000"  style="stroke:black; stroke-linecap:round; stroke-width:0.25;"/>
<line x1="64.000000" y1="108.000000" x2="68.000000" y2="108.000000"  style="stroke:black; stroke-linecap:round; stroke-width:0.25;"/>
<line x1="135.850000" y1="24.000000" x2="151.850000" y2="24.000000"  style="stroke:black; stroke-linecap:round; stroke-width:0.25;"/>
<line x1="151.850000" y1="24.000000" x2="167.850000" y2="24.000000"  style="stroke:black; stroke-linecap:round; stroke-width:0.25;"/>
<line x1="163.850000" y1="44.000000" x2="167.850000" y2="44.000000"  style="stroke:black; stroke-linecap:round; stroke-width:0.25;"/>
<line x1="164.750000" y1="76.000000" x2="168.750000" y2="76.000000"  style="stroke:black; stroke-linecap:round; stroke-width:0.25;"/>
<line x1="167.850000" y1="24.000000" x2="175.850000" y2="24.000000"  style="stroke:black; stroke-linecap:round; stroke-width:0.25;"/>
<line x1="167.850000" y1="44.000000" x2="175.850000" y2="44.000000"  style="stroke:black; stroke-linecap:round; stroke-width:0.25;"/>
<line x1="168.750000" y1="76.000000" x2="239.700000" y2="76.000000"  style="stroke:black; stroke-linecap:round; stroke-width:0.25;"/>
<line x1="175.850000" y1="24.000000" x2="175.850000" y2="36.000000"  style="stroke:black; stroke-linecap:round; stroke-width:0.25;"/>
<line x1="175.850000" y1="36.000000" x2="175.850000" y2="36.000000"  style="stroke:black; stroke-linecap:round; stroke-width:0.25;"/>
<line x1="175.850000" y1="36.000000" x2="179.850000" y2="36.000000"  style="stroke:black; stroke-linecap:round; stroke-width:0.25;"/>
<line x1="175.850000" y1="44.000000" x2="179.850000" y2="44.000000"  style="stroke:black; stroke-linecap:round; stroke-width:0.25;"/>
<line x1="203.850000" y1="40.000000" x2="207.850000" y2="40.000000"  style="stroke:black; stroke-linecap:round; stroke-width:0.25;"/>
<line x1="207.850000" y1="40.000000" x2="279.700000" y2="40.000000"  style="stroke:black; stroke-linecap:round; stroke-width:0.25;"/>
<line x1="235.700000" y1="108.000000" x2="239.700000" y2="108.000000"  style="stroke:black; stroke-linecap:round; stroke-width:0.25;"/>
<line x1="239.700000" y1="76.000000" x2="247.700000" y2="76.000000"  style="stroke:black; stroke-linecap:round; stroke-width:0.25;"/>
<line x1="239.700000" y1="96.000000" x2="247.700000" y2="96.000000"  style="stroke:black; stroke-linecap:round; stroke-width:0.25;"/>
<line x1="239.700000" y1="108.000000" x2="239.700000" y2="96.000000"  style="stroke:black; stroke-linecap:round; stroke-width:0.25;"/>
<line x1="239.700000" y1="108.000000" x2="239.700000" y2="108.000000"  style="stroke:black; stroke-linecap:round; stroke-width:0.25;"/>
<line x1="247.700000" y1="76.000000" x2="247.700000" y2="88.000000"  style="stroke:black; stroke-linecap:round; stroke-width:0.25;"/>
<line x1="247.700000" y1="88.000000" x2="247.700000" y2="88.000000"  style="stroke:black; stroke-linecap:round; stroke-width:0.25;"/>
<line x1="247.700000" y1="88.000000" x2="251.700000" y2="88.000000"  style="stroke:black; stroke-linecap:round; stroke-width:0.25;"/>
<line x1="247.700000" y1="96.000000" x2="251.700000" y2="96.000000"  style="stroke:black; stroke-linecap:round; stroke-width:0.25;"/>
<line x1="275.700000" y1="92.000000" x2="279.700000" y2="92.000000"  style="stroke:black; stroke-linecap:round; stroke-width:0.25;"/>
<line x1="279.700000" y1="40.000000" x2="287.700000" y2="40.000000"  style="stroke:black; stroke-linecap:round; stroke-width:0.25;"/>
<line x1="279.700000" y1="76.000000" x2="287.700000" y2="76.000000"  style="stroke:black; stroke-linecap:round; stroke-width:0.25;"/>
<line x1="279.700000" y1="92.000000" x2="279.700000" y2="76.000000"  style="stroke:black; stroke-linecap:round; stroke-width:0.25;"/>
<line x1="279.700000" y1="92.000000" x2="279.700000" y2="92.000000"  style="stroke:black; stroke-linecap:round; stroke-width:0.25;"/>
<line x1="287.700000" y1="40.000000" x2="287.700000" y2="68.000000"  style="stroke:black; stroke-linecap:round; stroke-width:0.25;"/>
<line x1="287.700000" y1="68.000000" x2="287.700000" y2="68.000000"  style="stroke:black; stroke-linecap:round; stroke-width:0.25;"/>
<line x1="287.700000" y1="68.000000" x2="291.700000" y2="68.000000"  style="stroke:black; stroke-linecap:round; stroke-width:0.25;"/>
<line x1="287.700000" y1="76.000000" x2="291.700000" y2="76.000000"  style="stroke:black; stroke-linecap:round; stroke-width:0.25;"/>
<line x1="315.700000" y1="72.000000" x2="319.700000" y2="72.000000"  style="stroke:black; stroke-linecap:round; stroke-width:0.25;"/>
<line x1="319.700000" y1="72.000000" x2="319.700000" y2="72.000000"  style="stroke:black; stroke-linecap:round; stroke-width:0.25;"/>
<line x1="319.700000" y1="72.000000" x2="323.700000" y2="72.000000"  style="stroke:black; stroke-linecap:round; stroke-width:0.25;"/>
<line x1="323.700000" y1="72.000000" x2="327.700000" y2="72.000000"  style="stroke:black; stroke-linecap:round; stroke-width:0.25;"/>
<line x1="327.700000" y1="72.000000" x2="337.700000" y2="72.000000"  style="stroke:black; stroke-linecap:round; stroke-width:0.25;"/>
</svg>
