<?xml version="1.0"?>
<svg xmlns="http://www.w3.org/2000/svg" xmlns:xlink="http://www.w3.org/1999/xlink" viewBox="0 0 380.320000 124.000000" width="190.160000mm" height="62.000000mm" version="1.1">
<a xlink:href="PGM34-0x7f844482e850.svg">
<rect x="1.000000" y="1.000000" width="379.320000" height="123.000000" rx="0" ry="0" style="stroke:none;fill:#cccccc;"/>
<rect x="0.000000" y="0.000000" width="379.320000" height="123.000000" rx="0" ry="0" style="stroke:none;fill:#ffffff;"/>
</a>
<text x="10.000000" y="7.000000" font-family="Arial" font-size="7"></text>
<a xlink:href="lowpass-0x7f8443f7b1e0.svg">
<rect x="49.000000" y="51.040000" width="64.500000" height="24.000000" rx="0" ry="0" style="stroke:none;fill:#cccccc;"/>
<rect x="48.000000" y="50.040000" width="64.500000" height="24.000000" rx="0" ry="0" style="stroke:none;fill:#003366;"/>
</a>
<a xlink:href="lowpass-0x7f8443f7b1e0.svg">
<text x="80.250000" y="64.040000" font-family="Arial" font-size="7" text-anchor="middle" fill="#FFFFFF">lowpass(2)(566)</text>
</a>
<circle cx="50.000000" cy="52.040000" r="1"/>
<line x1="45.000000" y1="61.040000" x2="48.000000" y2="62.040000"  transform="rotate(0.000000,48.000000,62.040000)" style="stroke: black; stroke-width:0.25;"/>
<line x1="45.000000" y1="63.040000" x2="48.000000" y2="62.040000"  transform="rotate(0.000000,48.000000,62.040000)" style="stroke: black; stroke-width:0.25;"/>
<a xlink:href="zita-0x7f844482e490.svg">
<rect x="160.520000" y="51.000000" width="129.000000" height="24.000000" rx="0" ry="0" style="stroke:none;fill:#cccccc;"/>
<rect x="159.520000" y="50.000000" width="129.000000" height="24.000000" rx="0" ry="0" style="stroke:none;fill:#003366;"/>
</a>
<a xlink:href="zita-0x7f844482e490.svg">
<text x="224.020000" y="64.000000" font-family="Arial" font-size="7" text-anchor="middle" fill="#FFFFFF">zita_rev1_ste...0)(10)(48000)</text>
</a>
<circle cx="161.520000" cy="52.000000" r="1"/>
<line x1="156.520000" y1="57.000000" x2="159.520000" y2="58.000000"  transform="rotate(0.000000,159.520000,58.000000)" style="stroke: black; stroke-width:0.25;"/>
<line x1="156.520000" y1="59.000000" x2="159.520000" y2="58.000000"  transform="rotate(0.000000,159.520000,58.000000)" style="stroke: black; stroke-width:0.25;"/>
<line x1="156.520000" y1="65.000000" x2="159.520000" y2="66.000000"  transform="rotate(0.000000,159.520000,66.000000)" style="stroke: black; stroke-width:0.25;"/>
<line x1="156.520000" y1="67.000000" x2="159.520000" y2="66.000000"  transform="rotate(0.000000,159.520000,66.000000)" style="stroke: black; stroke-width:0.25;"/>
<a xlink:href="pgm4LB-0x7f8443becd70.svg">
<rect x="305.520000" y="35.000000" width="25.800000" height="24.000000" rx="0" ry="0" style="stroke:none;fill:#cccccc;"/>
<rect x="304.520000" y="34.000000" width="25.800000" height="24.000000" rx="0" ry="0" style="stroke:none;fill:#003366;"/>
</a>
<a xlink:href="pgm4LB-0x7f8443becd70.svg">
<text x="317.420000" y="48.000000" font-family="Arial" font-size="7" text-anchor="middle" fill="#FFFFFF">pgm4LB</text>
</a>
<circle cx="306.520000" cy="36.000000" r="1"/>
<line x1="301.520000" y1="45.000000" x2="304.520000" y2="46.000000"  transform="rotate(0.000000,304.520000,46.000000)" style="stroke: black; stroke-width:0.25;"/>
<line x1="301.520000" y1="47.000000" x2="304.520000" y2="46.000000"  transform="rotate(0.000000,304.520000,46.000000)" style="stroke: black; stroke-width:0.25;"/>
<a xlink:href="pgm4RB-0x7f8443bece70.svg">
<rect x="305.520000" y="67.000000" width="25.800000" height="24.000000" rx="0" ry="0" style="stroke:none;fill:#cccccc;"/>
<rect x="304.520000" y="66.000000" width="25.800000" height="24.000000" rx="0" ry="0" style="stroke:none;fill:#003366;"/>
</a>
<a xlink:href="pgm4RB-0x7f8443bece70.svg">
<text x="317.420000" y="80.000000" font-family="Arial" font-size="7" text-anchor="middle" fill="#FFFFFF">pgm4RB</text>
</a>
<circle cx="306.520000" cy="68.000000" r="1"/>
<line x1="301.520000" y1="77.000000" x2="304.520000" y2="78.000000"  transform="rotate(0.000000,304.520000,78.000000)" style="stroke: black; stroke-width:0.25;"/>
<line x1="301.520000" y1="79.000000" x2="304.520000" y2="78.000000"  transform="rotate(0.000000,304.520000,78.000000)" style="stroke: black; stroke-width:0.25;"/>
<line x1="150.520000" y1="25.000000" x2="150.520000" y2="99.000000"  style="stroke: black; stroke-linecap:round; stroke-width:0.25; stroke-dasharray:3,3;"/>
<line x1="150.520000" y1="99.000000" x2="339.320000" y2="99.000000"  style="stroke: black; stroke-linecap:round; stroke-width:0.25; stroke-dasharray:3,3;"/>
<line x1="339.320000" y1="99.000000" x2="339.320000" y2="25.000000"  style="stroke: black; stroke-linecap:round; stroke-width:0.25; stroke-dasharray:3,3;"/>
<line x1="150.520000" y1="25.000000" x2="155.520000" y2="25.000000"  style="stroke: black; stroke-linecap:round; stroke-width:0.25; stroke-dasharray:3,3;"/>
<line x1="200.670000" y1="25.000000" x2="339.320000" y2="25.000000"  style="stroke: black; stroke-linecap:round; stroke-width:0.25; stroke-dasharray:3,3;"/>
<text x="155.520000" y="27.000000" font-family="Arial" font-size="7">hgroup(PGM4)</text>
<line x1="15.000000" y1="15.000000" x2="15.000000" y2="109.000000"  style="stroke: black; stroke-linecap:round; stroke-width:0.25; stroke-dasharray:3,3;"/>
<line x1="15.000000" y1="109.000000" x2="365.320000" y2="109.000000"  style="stroke: black; stroke-linecap:round; stroke-width:0.25; stroke-dasharray:3,3;"/>
<line x1="365.320000" y1="109.000000" x2="365.320000" y2="15.000000"  style="stroke: black; stroke-linecap:round; stroke-width:0.25; stroke-dasharray:3,3;"/>
<line x1="15.000000" y1="15.000000" x2="20.000000" y2="15.000000"  style="stroke: black; stroke-linecap:round; stroke-width:0.25; stroke-dasharray:3,3;"/>
<line x1="42.575000" y1="15.000000" x2="365.320000" y2="15.000000"  style="stroke: black; stroke-linecap:round; stroke-width:0.25; stroke-dasharray:3,3;"/>
<text x="20.000000" y="17.000000" font-family="Arial" font-size="7">rev10</text>
<line x1="367.320000" y1="57.000000" x2="370.320000" y2="58.000000"  transform="rotate(0.000000,370.320000,58.000000)" style="stroke: black; stroke-width:0.25;"/>
<line x1="367.320000" y1="59.000000" x2="370.320000" y2="58.000000"  transform="rotate(0.000000,370.320000,58.000000)" style="stroke: black; stroke-width:0.25;"/>
<line x1="367.320000" y1="65.000000" x2="370.320000" y2="66.000000"  transform="rotate(0.000000,370.320000,66.000000)" style="stroke: black; stroke-width:0.25;"/>
<line x1="367.320000" y1="67.000000" x2="370.320000" y2="66.000000"  transform="rotate(0.000000,370.320000,66.000000)" style="stroke: black; stroke-width:0.25;"/>
<line x1="10.000000" y1="58.000000" x2="20.000000" y2="58.000000"  style="stroke:black; stroke-linecap:round; stroke-width:0.25;"/>
<line x1="10.000000" y1="66.000000" x2="20.000000" y2="66.000000"  style="stroke:black; stroke-linecap:round; stroke-width:0.25;"/>
<line x1="20.000000" y1="58.000000" x2="24.000000" y2="58.000000"  style="stroke:black; stroke-linecap:round; stroke-width:0.25;"/>
<line x1="20.000000" y1="66.000000" x2="24.000000" y2="66.000000"  style="stroke:black; stroke-linecap:round; stroke-width:0.25;"/>
<line x1="24.000000" y1="66.000000" x2="28.000000" y2="66.000000"  style="stroke:black; stroke-linecap:round; stroke-width:0.25;"/>
<line x1="28.000000" y1="66.000000" x2="28.000000" y2="66.000000"  style="stroke:black; stroke-linecap:round; stroke-width:0.25;"/>
<line x1="28.000000" y1="66.000000" x2="36.000000" y2="66.000000"  style="stroke:black; stroke-linecap:round; stroke-width:0.25;"/>
<line x1="36.000000" y1="62.040000" x2="44.000000" y2="62.040000"  style="stroke:black; stroke-linecap:round; stroke-width:0.25;"/>
<line x1="36.000000" y1="66.000000" x2="36.000000" y2="62.040000"  style="stroke:black; stroke-linecap:round; stroke-width:0.25;"/>
<line x1="44.000000" y1="62.040000" x2="48.000000" y2="62.040000"  style="stroke:black; stroke-linecap:round; stroke-width:0.25;"/>
<line x1="112.500000" y1="62.040000" x2="116.500000" y2="62.040000"  style="stroke:black; stroke-linecap:round; stroke-width:0.25;"/>
<line x1="116.500000" y1="62.040000" x2="145.520000" y2="58.000000"  style="stroke:black; stroke-linecap:round; stroke-width:0.25;"/>
<line x1="116.500000" y1="62.040000" x2="145.520000" y2="66.000000"  style="stroke:black; stroke-linecap:round; stroke-width:0.25;"/>
<line x1="145.520000" y1="58.000000" x2="155.520000" y2="58.000000"  style="stroke:black; stroke-linecap:round; stroke-width:0.25;"/>
<line x1="145.520000" y1="66.000000" x2="155.520000" y2="66.000000"  style="stroke:black; stroke-linecap:round; stroke-width:0.25;"/>
<line x1="155.520000" y1="58.000000" x2="159.520000" y2="58.000000"  style="stroke:black; stroke-linecap:round; stroke-width:0.25;"/>
<line x1="155.520000" y1="66.000000" x2="159.520000" y2="66.000000"  style="stroke:black; stroke-linecap:round; stroke-width:0.25;"/>
<line x1="288.520000" y1="58.000000" x2="292.520000" y2="58.000000"  style="stroke:black; stroke-linecap:round; stroke-width:0.25;"/>
<line x1="288.520000" y1="66.000000" x2="292.520000" y2="66.000000"  style="stroke:black; stroke-linecap:round; stroke-width:0.25;"/>
<line x1="292.520000" y1="46.000000" x2="300.520000" y2="46.000000"  style="stroke:black; stroke-linecap:round; stroke-width:0.25;"/>
<line x1="292.520000" y1="58.000000" x2="292.520000" y2="46.000000"  style="stroke:black; stroke-linecap:round; stroke-width:0.25;"/>
<line x1="292.520000" y1="58.000000" x2="292.520000" y2="58.000000"  style="stroke:black; stroke-linecap:round; stroke-width:0.25;"/>
<line x1="292.520000" y1="66.000000" x2="300.520000" y2="66.000000"  style="stroke:black; stroke-linecap:round; stroke-width:0.25;"/>
<line x1="300.520000" y1="46.000000" x2="304.520000" y2="46.000000"  style="stroke:black; stroke-linecap:round; stroke-width:0.25;"/>
<line x1="300.520000" y1="66.000000" x2="300.520000" y2="78.000000"  style="stroke:black; stroke-linecap:round; stroke-width:0.25;"/>
<line x1="300.520000" y1="78.000000" x2="300.520000" y2="78.000000"  style="stroke:black; stroke-linecap:round; stroke-width:0.25;"/>
<line x1="300.520000" y1="78.000000" x2="304.520000" y2="78.000000"  style="stroke:black; stroke-linecap:round; stroke-width:0.25;"/>
<line x1="330.320000" y1="46.000000" x2="334.320000" y2="46.000000"  style="stroke:black; stroke-linecap:round; stroke-width:0.25;"/>
<line x1="330.320000" y1="78.000000" x2="334.320000" y2="78.000000"  style="stroke:black; stroke-linecap:round; stroke-width:0.25;"/>
<line x1="334.320000" y1="46.000000" x2="344.320000" y2="46.000000"  style="stroke:black; stroke-linecap:round; stroke-width:0.25;"/>
<line x1="334.320000" y1="78.000000" x2="344.320000" y2="78.000000"  style="stroke:black; stroke-linecap:round; stroke-width:0.25;"/>
<line x1="344.320000" y1="46.000000" x2="352.320000" y2="46.000000"  style="stroke:black; stroke-linecap:round; stroke-width:0.25;"/>
<line x1="344.320000" y1="66.000000" x2="352.320000" y2="66.000000"  style="stroke:black; stroke-linecap:round; stroke-width:0.25;"/>
<line x1="344.320000" y1="78.000000" x2="344.320000" y2="66.000000"  style="stroke:black; stroke-linecap:round; stroke-width:0.25;"/>
<line x1="344.320000" y1="78.000000" x2="344.320000" y2="78.000000"  style="stroke:black; stroke-linecap:round; stroke-width:0.25;"/>
<line x1="352.320000" y1="46.000000" x2="352.320000" y2="58.000000"  style="stroke:black; stroke-linecap:round; stroke-width:0.25;"/>
<line x1="352.320000" y1="58.000000" x2="352.320000" y2="58.000000"  style="stroke:black; stroke-linecap:round; stroke-width:0.25;"/>
<line x1="352.320000" y1="58.000000" x2="356.320000" y2="58.000000"  style="stroke:black; stroke-linecap:round; stroke-width:0.25;"/>
<line x1="352.320000" y1="66.000000" x2="356.320000" y2="66.000000"  style="stroke:black; stroke-linecap:round; stroke-width:0.25;"/>
<line x1="356.320000" y1="58.000000" x2="360.320000" y2="58.000000"  style="stroke:black; stroke-linecap:round; stroke-width:0.25;"/>
<line x1="356.320000" y1="66.000000" x2="360.320000" y2="66.000000"  style="stroke:black; stroke-linecap:round; stroke-width:0.25;"/>
<line x1="360.320000" y1="58.000000" x2="370.320000" y2="58.000000"  style="stroke:black; stroke-linecap:round; stroke-width:0.25;"/>
<line x1="360.320000" y1="66.000000" x2="370.320000" y2="66.000000"  style="stroke:black; stroke-linecap:round; stroke-width:0.25;"/>
</svg>
