<?xml version="1.0"?>
<svg xmlns="http://www.w3.org/2000/svg" xmlns:xlink="http://www.w3.org/1999/xlink" viewBox="0 0 343.400000 152.000000" width="171.700000mm" height="76.000000mm" version="1.1">
<a xlink:href="comb-0x7fa3c6cc8cb0.svg">
<rect x="1.000000" y="1.000000" width="342.400000" height="151.000000" rx="0" ry="0" style="stroke:none;fill:#cccccc;"/>
<rect x="0.000000" y="0.000000" width="342.400000" height="151.000000" rx="0" ry="0" style="stroke:none;fill:#ffffff;"/>
</a>
<text x="10.000000" y="7.000000" font-family="Arial" font-size="7"></text>
<rect x="49.000000" y="101.000000" width="24.000000" height="24.000000" rx="0" ry="0" style="stroke:none;fill:#cccccc;"/>
<rect x="48.000000" y="100.000000" width="24.000000" height="24.000000" rx="0" ry="0" style="stroke:none;fill:#4B71A1;"/>
<text x="60.000000" y="114.000000" font-family="Arial" font-size="7" text-anchor="middle" fill="#FFFFFF">+</text>
<circle cx="50.000000" cy="102.000000" r="1"/>
<line x1="45.000000" y1="107.000000" x2="48.000000" y2="108.000000"  transform="rotate(0.000000,48.000000,108.000000)" style="stroke: black; stroke-width:0.25;"/>
<line x1="45.000000" y1="109.000000" x2="48.000000" y2="108.000000"  transform="rotate(0.000000,48.000000,108.000000)" style="stroke: black; stroke-width:0.25;"/>
<line x1="45.000000" y1="115.000000" x2="48.000000" y2="116.000000"  transform="rotate(0.000000,48.000000,116.000000)" style="stroke: black; stroke-width:0.25;"/>
<line x1="45.000000" y1="117.000000" x2="48.000000" y2="116.000000"  transform="rotate(0.000000,48.000000,116.000000)" style="stroke: black; stroke-width:0.25;"/>
<a xlink:href="delay-0x7fa3c6cc6650.svg">
<rect x="99.000000" y="97.000000" width="77.400000" height="24.000000" rx="0" ry="0" style="stroke:none;fill:#cccccc;"/>
<rect x="98.000000" y="96.000000" width="77.400000" height="24.000000" rx="0" ry="0" style="stroke:none;fill:#003366;"/>
</a>
<a xlink:href="delay-0x7fa3c6cc6650.svg">
<text x="136.700000" y="110.000000" font-family="Arial" font-size="7" text-anchor="middle" fill="#FFFFFF">delay(4096)(2052)</text>
</a>
<circle cx="100.000000" cy="98.000000" r="1"/>
<line x1="95.000000" y1="107.000000" x2="98.000000" y2="108.000000"  transform="rotate(0.000000,98.000000,108.000000)" style="stroke: black; stroke-width:0.25;"/>
<line x1="95.000000" y1="109.000000" x2="98.000000" y2="108.000000"  transform="rotate(0.000000,98.000000,108.000000)" style="stroke: black; stroke-width:0.25;"/>
<rect x="140.700000" y="57.000000" width="24.000000" height="24.000000" rx="0" ry="0" style="stroke:none;fill:#cccccc;"/>
<rect x="139.700000" y="56.000000" width="24.000000" height="24.000000" rx="0" ry="0" style="stroke:none;fill:#f44800;"/>
<text x="151.700000" y="70.000000" font-family="Arial" font-size="7" text-anchor="middle" fill="#FFFFFF">0</text>
<circle cx="161.700000" cy="78.000000" r="1"/>
<rect x="139.800000" y="25.000000" width="25.800000" height="24.000000" rx="0" ry="0" style="stroke:none;fill:#cccccc;"/>
<rect x="138.800000" y="24.000000" width="25.800000" height="24.000000" rx="0" ry="0" style="stroke:none;fill:#f44800;"/>
<text x="151.700000" y="38.000000" font-family="Arial" font-size="7" text-anchor="middle" fill="#FFFFFF">-0.753</text>
<circle cx="162.600000" cy="46.000000" r="1"/>
<rect x="99.800000" y="41.000000" width="24.000000" height="24.000000" rx="0" ry="0" style="stroke:none;fill:#cccccc;"/>
<rect x="98.800000" y="40.000000" width="24.000000" height="24.000000" rx="0" ry="0" style="stroke:none;fill:#4B71A1;"/>
<text x="110.800000" y="54.000000" font-family="Arial" font-size="7" text-anchor="middle" fill="#FFFFFF">-</text>
<circle cx="120.800000" cy="62.000000" r="1"/>
<line x1="125.800000" y1="55.000000" x2="122.800000" y2="56.000000"  transform="rotate(0.000000,122.800000,56.000000)" style="stroke: black; stroke-width:0.25;"/>
<line x1="125.800000" y1="57.000000" x2="122.800000" y2="56.000000"  transform="rotate(0.000000,122.800000,56.000000)" style="stroke: black; stroke-width:0.25;"/>
<line x1="125.800000" y1="47.000000" x2="122.800000" y2="48.000000"  transform="rotate(0.000000,122.800000,48.000000)" style="stroke: black; stroke-width:0.25;"/>
<line x1="125.800000" y1="49.000000" x2="122.800000" y2="48.000000"  transform="rotate(0.000000,122.800000,48.000000)" style="stroke: black; stroke-width:0.25;"/>
<rect x="59.800000" y="45.000000" width="24.000000" height="24.000000" rx="0" ry="0" style="stroke:none;fill:#cccccc;"/>
<rect x="58.800000" y="44.000000" width="24.000000" height="24.000000" rx="0" ry="0" style="stroke:none;fill:#4B71A1;"/>
<text x="70.800000" y="58.000000" font-family="Arial" font-size="7" text-anchor="middle" fill="#FFFFFF">*</text>
<circle cx="80.800000" cy="66.000000" r="1"/>
<line x1="85.800000" y1="59.000000" x2="82.800000" y2="60.000000"  transform="rotate(0.000000,82.800000,60.000000)" style="stroke: black; stroke-width:0.25;"/>
<line x1="85.800000" y1="61.000000" x2="82.800000" y2="60.000000"  transform="rotate(0.000000,82.800000,60.000000)" style="stroke: black; stroke-width:0.25;"/>
<line x1="85.800000" y1="51.000000" x2="82.800000" y2="52.000000"  transform="rotate(0.000000,82.800000,52.000000)" style="stroke: black; stroke-width:0.25;"/>
<line x1="85.800000" y1="53.000000" x2="82.800000" y2="52.000000"  transform="rotate(0.000000,82.800000,52.000000)" style="stroke: black; stroke-width:0.25;"/>
<line x1="177.400000" y1="108.000000" x2="177.400000" y2="104.000000"  style="stroke:black; stroke-linecap:round; stroke-width:0.25;"/>
<line x1="177.400000" y1="104.000000" x2="181.400000" y2="104.000000"  style="stroke:black; stroke-linecap:round; stroke-width:0.25;"/>
<line x1="181.400000" y1="104.000000" x2="181.400000" y2="108.000000"  style="stroke:black; stroke-linecap:round; stroke-width:0.25;"/>
<rect x="208.400000" y="69.040000" width="24.000000" height="24.000000" rx="0" ry="0" style="stroke:none;fill:#cccccc;"/>
<rect x="207.400000" y="68.040000" width="24.000000" height="24.000000" rx="0" ry="0" style="stroke:none;fill:#f44800;"/>
<text x="219.400000" y="82.040000" font-family="Arial" font-size="7" text-anchor="middle" fill="#FFFFFF">1</text>
<circle cx="209.400000" cy="70.040000" r="1"/>
<rect x="248.400000" y="65.040000" width="24.000000" height="24.000000" rx="0" ry="0" style="stroke:none;fill:#cccccc;"/>
<rect x="247.400000" y="64.040000" width="24.000000" height="24.000000" rx="0" ry="0" style="stroke:none;fill:#4B71A1;"/>
<text x="259.400000" y="78.040000" font-family="Arial" font-size="7" text-anchor="middle" fill="#FFFFFF">*</text>
<circle cx="249.400000" cy="66.040000" r="1"/>
<line x1="244.400000" y1="71.040000" x2="247.400000" y2="72.040000"  transform="rotate(0.000000,247.400000,72.040000)" style="stroke: black; stroke-width:0.25;"/>
<line x1="244.400000" y1="73.040000" x2="247.400000" y2="72.040000"  transform="rotate(0.000000,247.400000,72.040000)" style="stroke: black; stroke-width:0.25;"/>
<line x1="244.400000" y1="79.040000" x2="247.400000" y2="80.040000"  transform="rotate(0.000000,247.400000,80.040000)" style="stroke: black; stroke-width:0.25;"/>
<line x1="244.400000" y1="81.040000" x2="247.400000" y2="80.040000"  transform="rotate(0.000000,247.400000,80.040000)" style="stroke: black; stroke-width:0.25;"/>
<rect x="288.400000" y="65.000000" width="24.000000" height="24.000000" rx="0" ry="0" style="stroke:none;fill:#cccccc;"/>
<rect x="287.400000" y="64.000000" width="24.000000" height="24.000000" rx="0" ry="0" style="stroke:none;fill:#4B71A1;"/>
<text x="299.400000" y="78.000000" font-family="Arial" font-size="7" text-anchor="middle" fill="#FFFFFF">mem</text>
<circle cx="289.400000" cy="66.000000" r="1"/>
<line x1="284.400000" y1="75.000000" x2="287.400000" y2="76.000000"  transform="rotate(0.000000,287.400000,76.000000)" style="stroke: black; stroke-width:0.25;"/>
<line x1="284.400000" y1="77.000000" x2="287.400000" y2="76.000000"  transform="rotate(0.000000,287.400000,76.000000)" style="stroke: black; stroke-width:0.25;"/>
<line x1="15.000000" y1="15.000000" x2="15.000000" y2="137.000000"  style="stroke: black; stroke-linecap:round; stroke-width:0.25; stroke-dasharray:3,3;"/>
<line x1="15.000000" y1="137.000000" x2="328.400000" y2="137.000000"  style="stroke: black; stroke-linecap:round; stroke-width:0.25; stroke-dasharray:3,3;"/>
<line x1="328.400000" y1="137.000000" x2="328.400000" y2="15.000000"  style="stroke: black; stroke-linecap:round; stroke-width:0.25; stroke-dasharray:3,3;"/>
<line x1="15.000000" y1="15.000000" x2="20.000000" y2="15.000000"  style="stroke: black; stroke-linecap:round; stroke-width:0.25; stroke-dasharray:3,3;"/>
<line x1="87.725000" y1="15.000000" x2="328.400000" y2="15.000000"  style="stroke: black; stroke-linecap:round; stroke-width:0.25; stroke-dasharray:3,3;"/>
<text x="20.000000" y="17.000000" font-family="Arial" font-size="7">rev14(2053)(0.753f)</text>
<line x1="330.400000" y1="75.000000" x2="333.400000" y2="76.000000"  transform="rotate(0.000000,333.400000,76.000000)" style="stroke: black; stroke-width:0.25;"/>
<line x1="330.400000" y1="77.000000" x2="333.400000" y2="76.000000"  transform="rotate(0.000000,333.400000,76.000000)" style="stroke: black; stroke-width:0.25;"/>
<line x1="10.000000" y1="76.000000" x2="20.000000" y2="76.000000"  style="stroke:black; stroke-linecap:round; stroke-width:0.25;"/>
<line x1="20.000000" y1="76.000000" x2="24.000000" y2="76.000000"  style="stroke:black; stroke-linecap:round; stroke-width:0.25;"/>
<line x1="24.000000" y1="76.000000" x2="28.000000" y2="76.000000"  style="stroke:black; stroke-linecap:round; stroke-width:0.25;"/>
<line x1="28.000000" y1="76.000000" x2="36.000000" y2="76.000000"  style="stroke:black; stroke-linecap:round; stroke-width:0.25;"/>
<line x1="36.000000" y1="76.000000" x2="36.000000" y2="116.000000"  style="stroke:black; stroke-linecap:round; stroke-width:0.25;"/>
<line x1="36.000000" y1="116.000000" x2="36.000000" y2="116.000000"  style="stroke:black; stroke-linecap:round; stroke-width:0.25;"/>
<line x1="36.000000" y1="116.000000" x2="44.000000" y2="116.000000"  style="stroke:black; stroke-linecap:round; stroke-width:0.25;"/>
<line x1="44.000000" y1="56.000000" x2="44.000000" y2="56.000000"  style="stroke:black; stroke-linecap:round; stroke-width:0.25;"/>
<line x1="44.000000" y1="56.000000" x2="44.000000" y2="108.000000"  style="stroke:black; stroke-linecap:round; stroke-width:0.25;"/>
<line x1="44.000000" y1="108.000000" x2="44.000000" y2="108.000000"  style="stroke:black; stroke-linecap:round; stroke-width:0.25;"/>
<line x1="44.000000" y1="108.000000" x2="48.000000" y2="108.000000"  style="stroke:black; stroke-linecap:round; stroke-width:0.25;"/>
<line x1="44.000000" y1="116.000000" x2="48.000000" y2="116.000000"  style="stroke:black; stroke-linecap:round; stroke-width:0.25;"/>
<line x1="54.800000" y1="56.000000" x2="44.000000" y2="56.000000"  style="stroke:black; stroke-linecap:round; stroke-width:0.25;"/>
<line x1="58.800000" y1="56.000000" x2="54.800000" y2="56.000000"  style="stroke:black; stroke-linecap:round; stroke-width:0.25;"/>
<line x1="72.000000" y1="112.000000" x2="76.000000" y2="112.000000"  style="stroke:black; stroke-linecap:round; stroke-width:0.25;"/>
<line x1="76.000000" y1="112.000000" x2="94.000000" y2="108.000000"  style="stroke:black; stroke-linecap:round; stroke-width:0.25;"/>
<line x1="76.000000" y1="112.000000" x2="94.000000" y2="128.000000"  style="stroke:black; stroke-linecap:round; stroke-width:0.25;"/>
<line x1="86.800000" y1="52.000000" x2="82.800000" y2="52.000000"  style="stroke:black; stroke-linecap:round; stroke-width:0.25;"/>
<line x1="86.800000" y1="60.000000" x2="82.800000" y2="60.000000"  style="stroke:black; stroke-linecap:round; stroke-width:0.25;"/>
<line x1="86.800000" y1="60.000000" x2="86.800000" y2="60.000000"  style="stroke:black; stroke-linecap:round; stroke-width:0.25;"/>
<line x1="86.800000" y1="88.000000" x2="86.800000" y2="60.000000"  style="stroke:black; stroke-linecap:round; stroke-width:0.25;"/>
<line x1="94.000000" y1="108.000000" x2="98.000000" y2="108.000000"  style="stroke:black; stroke-linecap:round; stroke-width:0.25;"/>
<line x1="94.000000" y1="128.000000" x2="136.700000" y2="128.000000"  style="stroke:black; stroke-linecap:round; stroke-width:0.25;"/>
<line x1="94.800000" y1="52.000000" x2="86.800000" y2="52.000000"  style="stroke:black; stroke-linecap:round; stroke-width:0.25;"/>
<line x1="94.800000" y1="88.000000" x2="86.800000" y2="88.000000"  style="stroke:black; stroke-linecap:round; stroke-width:0.25;"/>
<line x1="98.800000" y1="52.000000" x2="94.800000" y2="52.000000"  style="stroke:black; stroke-linecap:round; stroke-width:0.25;"/>
<line x1="126.800000" y1="48.000000" x2="122.800000" y2="48.000000"  style="stroke:black; stroke-linecap:round; stroke-width:0.25;"/>
<line x1="126.800000" y1="56.000000" x2="122.800000" y2="56.000000"  style="stroke:black; stroke-linecap:round; stroke-width:0.25;"/>
<line x1="126.800000" y1="56.000000" x2="126.800000" y2="56.000000"  style="stroke:black; stroke-linecap:round; stroke-width:0.25;"/>
<line x1="126.800000" y1="68.000000" x2="126.800000" y2="56.000000"  style="stroke:black; stroke-linecap:round; stroke-width:0.25;"/>
<line x1="131.700000" y1="88.000000" x2="94.800000" y2="88.000000"  style="stroke:black; stroke-linecap:round; stroke-width:0.25;"/>
<line x1="134.800000" y1="36.000000" x2="134.800000" y2="36.000000"  style="stroke:black; stroke-linecap:round; stroke-width:0.25;"/>
<line x1="134.800000" y1="36.000000" x2="134.800000" y2="48.000000"  style="stroke:black; stroke-linecap:round; stroke-width:0.25;"/>
<line x1="134.800000" y1="48.000000" x2="126.800000" y2="48.000000"  style="stroke:black; stroke-linecap:round; stroke-width:0.25;"/>
<line x1="134.800000" y1="68.000000" x2="126.800000" y2="68.000000"  style="stroke:black; stroke-linecap:round; stroke-width:0.25;"/>
<line x1="135.700000" y1="68.000000" x2="134.800000" y2="68.000000"  style="stroke:black; stroke-linecap:round; stroke-width:0.25;"/>
<line x1="136.700000" y1="128.000000" x2="179.400000" y2="128.000000"  style="stroke:black; stroke-linecap:round; stroke-width:0.25;"/>
<line x1="138.800000" y1="36.000000" x2="134.800000" y2="36.000000"  style="stroke:black; stroke-linecap:round; stroke-width:0.25;"/>
<line x1="139.700000" y1="68.000000" x2="135.700000" y2="68.000000"  style="stroke:black; stroke-linecap:round; stroke-width:0.25;"/>
<line x1="168.600000" y1="88.000000" x2="131.700000" y2="88.000000"  style="stroke:black; stroke-linecap:round; stroke-width:0.25;"/>
<line x1="175.400000" y1="108.000000" x2="179.400000" y2="108.000000"  style="stroke:black; stroke-linecap:round; stroke-width:0.25;"/>
<line x1="179.400000" y1="88.000000" x2="168.600000" y2="88.000000"  style="stroke:black; stroke-linecap:round; stroke-width:0.25;"/>
<line x1="179.400000" y1="88.000000" x2="179.400000" y2="88.000000"  style="stroke:black; stroke-linecap:round; stroke-width:0.25;"/>
<line x1="179.400000" y1="104.000000" x2="179.400000" y2="88.000000"  style="stroke:black; stroke-linecap:round; stroke-width:0.25;"/>
<line x1="179.400000" y1="108.000000" x2="181.400000" y2="108.000000"  style="stroke:black; stroke-linecap:round; stroke-width:0.25;"/>
<line x1="179.400000" y1="128.000000" x2="187.400000" y2="128.000000"  style="stroke:black; stroke-linecap:round; stroke-width:0.25;"/>
<line x1="187.400000" y1="128.000000" x2="195.400000" y2="128.000000"  style="stroke:black; stroke-linecap:round; stroke-width:0.25;"/>
<line x1="195.400000" y1="60.040000" x2="203.400000" y2="60.040000"  style="stroke:black; stroke-linecap:round; stroke-width:0.25;"/>
<line x1="195.400000" y1="128.000000" x2="195.400000" y2="60.040000"  style="stroke:black; stroke-linecap:round; stroke-width:0.25;"/>
<line x1="203.400000" y1="60.040000" x2="219.400000" y2="60.040000"  style="stroke:black; stroke-linecap:round; stroke-width:0.25;"/>
<line x1="219.400000" y1="60.040000" x2="235.400000" y2="60.040000"  style="stroke:black; stroke-linecap:round; stroke-width:0.25;"/>
<line x1="231.400000" y1="80.040000" x2="235.400000" y2="80.040000"  style="stroke:black; stroke-linecap:round; stroke-width:0.25;"/>
<line x1="235.400000" y1="60.040000" x2="243.400000" y2="60.040000"  style="stroke:black; stroke-linecap:round; stroke-width:0.25;"/>
<line x1="235.400000" y1="80.040000" x2="243.400000" y2="80.040000"  style="stroke:black; stroke-linecap:round; stroke-width:0.25;"/>
<line x1="243.400000" y1="60.040000" x2="243.400000" y2="72.040000"  style="stroke:black; stroke-linecap:round; stroke-width:0.25;"/>
<line x1="243.400000" y1="72.040000" x2="243.400000" y2="72.040000"  style="stroke:black; stroke-linecap:round; stroke-width:0.25;"/>
<line x1="243.400000" y1="72.040000" x2="247.400000" y2="72.040000"  style="stroke:black; stroke-linecap:round; stroke-width:0.25;"/>
<line x1="243.400000" y1="80.040000" x2="247.400000" y2="80.040000"  style="stroke:black; stroke-linecap:round; stroke-width:0.25;"/>
<line x1="271.400000" y1="76.040000" x2="275.400000" y2="76.040000"  style="stroke:black; stroke-linecap:round; stroke-width:0.25;"/>
<line x1="275.400000" y1="76.000000" x2="283.400000" y2="76.000000"  style="stroke:black; stroke-linecap:round; stroke-width:0.25;"/>
<line x1="275.400000" y1="76.040000" x2="275.400000" y2="76.000000"  style="stroke:black; stroke-linecap:round; stroke-width:0.25;"/>
<line x1="275.400000" y1="76.040000" x2="275.400000" y2="76.040000"  style="stroke:black; stroke-linecap:round; stroke-width:0.25;"/>
<line x1="283.400000" y1="76.000000" x2="287.400000" y2="76.000000"  style="stroke:black; stroke-linecap:round; stroke-width:0.25;"/>
<line x1="311.400000" y1="76.000000" x2="315.400000" y2="76.000000"  style="stroke:black; stroke-linecap:round; stroke-width:0.25;"/>
<line x1="315.400000" y1="76.000000" x2="315.400000" y2="76.000000"  style="stroke:black; stroke-linecap:round; stroke-width:0.25;"/>
<line x1="315.400000" y1="76.000000" x2="319.400000" y2="76.000000"  style="stroke:black; stroke-linecap:round; stroke-width:0.25;"/>
<line x1="319.400000" y1="76.000000" x2="323.400000" y2="76.000000"  style="stroke:black; stroke-linecap:round; stroke-width:0.25;"/>
<line x1="323.400000" y1="76.000000" x2="333.400000" y2="76.000000"  style="stroke:black; stroke-linecap:round; stroke-width:0.25;"/>
</svg>
