<?xml version="1.0"?>
<svg xmlns="http://www.w3.org/2000/svg" xmlns:xlink="http://www.w3.org/1999/xlink" viewBox="0 0 299.800000 184.000000" width="149.900000mm" height="92.000000mm" version="1.1">
<a xlink:href="allpass-0x7fded065cad0.svg">
<rect x="1.000000" y="1.000000" width="298.800000" height="183.000000" rx="0" ry="0" style="stroke:none;fill:#cccccc;"/>
<rect x="0.000000" y="0.000000" width="298.800000" height="183.000000" rx="0" ry="0" style="stroke:none;fill:#ffffff;"/>
</a>
<text x="10.000000" y="7.000000" font-family="Arial" font-size="7"></text>
<rect x="49.000000" y="117.000000" width="24.000000" height="24.000000" rx="0" ry="0" style="stroke:none;fill:#cccccc;"/>
<rect x="48.000000" y="116.000000" width="24.000000" height="24.000000" rx="0" ry="0" style="stroke:none;fill:#4B71A1;"/>
<text x="60.000000" y="130.000000" font-family="Arial" font-size="7" text-anchor="middle" fill="#FFFFFF">+</text>
<circle cx="50.000000" cy="118.000000" r="1"/>
<line x1="45.000000" y1="123.000000" x2="48.000000" y2="124.000000"  transform="rotate(0.000000,48.000000,124.000000)" style="stroke: black; stroke-width:0.25;"/>
<line x1="45.000000" y1="125.000000" x2="48.000000" y2="124.000000"  transform="rotate(0.000000,48.000000,124.000000)" style="stroke: black; stroke-width:0.25;"/>
<line x1="45.000000" y1="131.000000" x2="48.000000" y2="132.000000"  transform="rotate(0.000000,48.000000,132.000000)" style="stroke: black; stroke-width:0.25;"/>
<line x1="45.000000" y1="133.000000" x2="48.000000" y2="132.000000"  transform="rotate(0.000000,48.000000,132.000000)" style="stroke: black; stroke-width:0.25;"/>
<a xlink:href="delay-0x7fded06582b0.svg">
<rect x="107.650000" y="97.000000" width="64.500000" height="24.000000" rx="0" ry="0" style="stroke:none;fill:#cccccc;"/>
<rect x="106.650000" y="96.000000" width="64.500000" height="24.000000" rx="0" ry="0" style="stroke:none;fill:#003366;"/>
</a>
<a xlink:href="delay-0x7fded06582b0.svg">
<text x="138.900000" y="110.000000" font-family="Arial" font-size="7" text-anchor="middle" fill="#FFFFFF">delay(512)(346)</text>
</a>
<circle cx="108.650000" cy="98.000000" r="1"/>
<line x1="103.650000" y1="107.000000" x2="106.650000" y2="108.000000"  transform="rotate(0.000000,106.650000,108.000000)" style="stroke: black; stroke-width:0.25;"/>
<line x1="103.650000" y1="109.000000" x2="106.650000" y2="108.000000"  transform="rotate(0.000000,106.650000,108.000000)" style="stroke: black; stroke-width:0.25;"/>
<rect x="107.000000" y="137.000000" width="25.800000" height="24.000000" rx="0" ry="0" style="stroke:none;fill:#cccccc;"/>
<rect x="106.000000" y="136.000000" width="25.800000" height="24.000000" rx="0" ry="0" style="stroke:none;fill:#f44800;"/>
<text x="118.900000" y="150.000000" font-family="Arial" font-size="7" text-anchor="middle" fill="#FFFFFF">-0.7</text>
<circle cx="108.000000" cy="138.000000" r="1"/>
<rect x="148.800000" y="133.000000" width="24.000000" height="24.000000" rx="0" ry="0" style="stroke:none;fill:#cccccc;"/>
<rect x="147.800000" y="132.000000" width="24.000000" height="24.000000" rx="0" ry="0" style="stroke:none;fill:#4B71A1;"/>
<text x="159.800000" y="146.000000" font-family="Arial" font-size="7" text-anchor="middle" fill="#FFFFFF">*</text>
<circle cx="149.800000" cy="134.000000" r="1"/>
<line x1="144.800000" y1="139.000000" x2="147.800000" y2="140.000000"  transform="rotate(0.000000,147.800000,140.000000)" style="stroke: black; stroke-width:0.25;"/>
<line x1="144.800000" y1="141.000000" x2="147.800000" y2="140.000000"  transform="rotate(0.000000,147.800000,140.000000)" style="stroke: black; stroke-width:0.25;"/>
<line x1="144.800000" y1="147.000000" x2="147.800000" y2="148.000000"  transform="rotate(0.000000,147.800000,148.000000)" style="stroke: black; stroke-width:0.25;"/>
<line x1="144.800000" y1="149.000000" x2="147.800000" y2="148.000000"  transform="rotate(0.000000,147.800000,148.000000)" style="stroke: black; stroke-width:0.25;"/>
<rect x="138.900000" y="57.000000" width="24.000000" height="24.000000" rx="0" ry="0" style="stroke:none;fill:#cccccc;"/>
<rect x="137.900000" y="56.000000" width="24.000000" height="24.000000" rx="0" ry="0" style="stroke:none;fill:#f44800;"/>
<text x="149.900000" y="70.000000" font-family="Arial" font-size="7" text-anchor="middle" fill="#FFFFFF">0</text>
<circle cx="159.900000" cy="78.000000" r="1"/>
<rect x="138.000000" y="25.000000" width="25.800000" height="24.000000" rx="0" ry="0" style="stroke:none;fill:#cccccc;"/>
<rect x="137.000000" y="24.000000" width="25.800000" height="24.000000" rx="0" ry="0" style="stroke:none;fill:#f44800;"/>
<text x="149.900000" y="38.000000" font-family="Arial" font-size="7" text-anchor="middle" fill="#FFFFFF">-0.7</text>
<circle cx="160.800000" cy="46.000000" r="1"/>
<rect x="98.000000" y="41.000000" width="24.000000" height="24.000000" rx="0" ry="0" style="stroke:none;fill:#cccccc;"/>
<rect x="97.000000" y="40.000000" width="24.000000" height="24.000000" rx="0" ry="0" style="stroke:none;fill:#4B71A1;"/>
<text x="109.000000" y="54.000000" font-family="Arial" font-size="7" text-anchor="middle" fill="#FFFFFF">-</text>
<circle cx="119.000000" cy="62.000000" r="1"/>
<line x1="124.000000" y1="55.000000" x2="121.000000" y2="56.000000"  transform="rotate(0.000000,121.000000,56.000000)" style="stroke: black; stroke-width:0.25;"/>
<line x1="124.000000" y1="57.000000" x2="121.000000" y2="56.000000"  transform="rotate(0.000000,121.000000,56.000000)" style="stroke: black; stroke-width:0.25;"/>
<line x1="124.000000" y1="47.000000" x2="121.000000" y2="48.000000"  transform="rotate(0.000000,121.000000,48.000000)" style="stroke: black; stroke-width:0.25;"/>
<line x1="124.000000" y1="49.000000" x2="121.000000" y2="48.000000"  transform="rotate(0.000000,121.000000,48.000000)" style="stroke: black; stroke-width:0.25;"/>
<rect x="58.000000" y="45.000000" width="24.000000" height="24.000000" rx="0" ry="0" style="stroke:none;fill:#cccccc;"/>
<rect x="57.000000" y="44.000000" width="24.000000" height="24.000000" rx="0" ry="0" style="stroke:none;fill:#4B71A1;"/>
<text x="69.000000" y="58.000000" font-family="Arial" font-size="7" text-anchor="middle" fill="#FFFFFF">*</text>
<circle cx="79.000000" cy="66.000000" r="1"/>
<line x1="84.000000" y1="59.000000" x2="81.000000" y2="60.000000"  transform="rotate(0.000000,81.000000,60.000000)" style="stroke: black; stroke-width:0.25;"/>
<line x1="84.000000" y1="61.000000" x2="81.000000" y2="60.000000"  transform="rotate(0.000000,81.000000,60.000000)" style="stroke: black; stroke-width:0.25;"/>
<line x1="84.000000" y1="51.000000" x2="81.000000" y2="52.000000"  transform="rotate(0.000000,81.000000,52.000000)" style="stroke: black; stroke-width:0.25;"/>
<line x1="84.000000" y1="53.000000" x2="81.000000" y2="52.000000"  transform="rotate(0.000000,81.000000,52.000000)" style="stroke: black; stroke-width:0.25;"/>
<line x1="173.800000" y1="108.000000" x2="173.800000" y2="104.000000"  style="stroke:black; stroke-linecap:round; stroke-width:0.25;"/>
<line x1="173.800000" y1="104.000000" x2="177.800000" y2="104.000000"  style="stroke:black; stroke-linecap:round; stroke-width:0.25;"/>
<line x1="177.800000" y1="104.000000" x2="177.800000" y2="108.000000"  style="stroke:black; stroke-linecap:round; stroke-width:0.25;"/>
<rect x="204.800000" y="77.000000" width="24.000000" height="24.000000" rx="0" ry="0" style="stroke:none;fill:#cccccc;"/>
<rect x="203.800000" y="76.000000" width="24.000000" height="24.000000" rx="0" ry="0" style="stroke:none;fill:#4B71A1;"/>
<text x="215.800000" y="90.000000" font-family="Arial" font-size="7" text-anchor="middle" fill="#FFFFFF">mem</text>
<circle cx="205.800000" cy="78.000000" r="1"/>
<line x1="200.800000" y1="87.000000" x2="203.800000" y2="88.000000"  transform="rotate(0.000000,203.800000,88.000000)" style="stroke: black; stroke-width:0.25;"/>
<line x1="200.800000" y1="89.000000" x2="203.800000" y2="88.000000"  transform="rotate(0.000000,203.800000,88.000000)" style="stroke: black; stroke-width:0.25;"/>
<rect x="244.800000" y="81.000000" width="24.000000" height="24.000000" rx="0" ry="0" style="stroke:none;fill:#cccccc;"/>
<rect x="243.800000" y="80.000000" width="24.000000" height="24.000000" rx="0" ry="0" style="stroke:none;fill:#4B71A1;"/>
<text x="255.800000" y="94.000000" font-family="Arial" font-size="7" text-anchor="middle" fill="#FFFFFF">+</text>
<circle cx="245.800000" cy="82.000000" r="1"/>
<line x1="240.800000" y1="87.000000" x2="243.800000" y2="88.000000"  transform="rotate(0.000000,243.800000,88.000000)" style="stroke: black; stroke-width:0.25;"/>
<line x1="240.800000" y1="89.000000" x2="243.800000" y2="88.000000"  transform="rotate(0.000000,243.800000,88.000000)" style="stroke: black; stroke-width:0.25;"/>
<line x1="240.800000" y1="95.000000" x2="243.800000" y2="96.000000"  transform="rotate(0.000000,243.800000,96.000000)" style="stroke: black; stroke-width:0.25;"/>
<line x1="240.800000" y1="97.000000" x2="243.800000" y2="96.000000"  transform="rotate(0.000000,243.800000,96.000000)" style="stroke: black; stroke-width:0.25;"/>
<line x1="15.000000" y1="15.000000" x2="15.000000" y2="169.000000"  style="stroke: black; stroke-linecap:round; stroke-width:0.25; stroke-dasharray:3,3;"/>
<line x1="15.000000" y1="169.000000" x2="284.800000" y2="169.000000"  style="stroke: black; stroke-linecap:round; stroke-width:0.25; stroke-dasharray:3,3;"/>
<line x1="284.800000" y1="169.000000" x2="284.800000" y2="15.000000"  style="stroke: black; stroke-linecap:round; stroke-width:0.25; stroke-dasharray:3,3;"/>
<line x1="15.000000" y1="15.000000" x2="20.000000" y2="15.000000"  style="stroke: black; stroke-linecap:round; stroke-width:0.25; stroke-dasharray:3,3;"/>
<line x1="90.950000" y1="15.000000" x2="284.800000" y2="15.000000"  style="stroke: black; stroke-linecap:round; stroke-width:0.25; stroke-dasharray:3,3;"/>
<text x="20.000000" y="17.000000" font-family="Arial" font-size="7">rev2(512)(347)(0.7f)</text>
<line x1="286.800000" y1="91.000000" x2="289.800000" y2="92.000000"  transform="rotate(0.000000,289.800000,92.000000)" style="stroke: black; stroke-width:0.25;"/>
<line x1="286.800000" y1="93.000000" x2="289.800000" y2="92.000000"  transform="rotate(0.000000,289.800000,92.000000)" style="stroke: black; stroke-width:0.25;"/>
<line x1="10.000000" y1="92.000000" x2="20.000000" y2="92.000000"  style="stroke:black; stroke-linecap:round; stroke-width:0.25;"/>
<line x1="20.000000" y1="92.000000" x2="24.000000" y2="92.000000"  style="stroke:black; stroke-linecap:round; stroke-width:0.25;"/>
<line x1="24.000000" y1="92.000000" x2="28.000000" y2="92.000000"  style="stroke:black; stroke-linecap:round; stroke-width:0.25;"/>
<line x1="28.000000" y1="92.000000" x2="36.000000" y2="92.000000"  style="stroke:black; stroke-linecap:round; stroke-width:0.25;"/>
<line x1="36.000000" y1="92.000000" x2="36.000000" y2="132.000000"  style="stroke:black; stroke-linecap:round; stroke-width:0.25;"/>
<line x1="36.000000" y1="132.000000" x2="36.000000" y2="132.000000"  style="stroke:black; stroke-linecap:round; stroke-width:0.25;"/>
<line x1="36.000000" y1="132.000000" x2="44.000000" y2="132.000000"  style="stroke:black; stroke-linecap:round; stroke-width:0.25;"/>
<line x1="44.000000" y1="56.000000" x2="44.000000" y2="56.000000"  style="stroke:black; stroke-linecap:round; stroke-width:0.25;"/>
<line x1="44.000000" y1="56.000000" x2="44.000000" y2="124.000000"  style="stroke:black; stroke-linecap:round; stroke-width:0.25;"/>
<line x1="44.000000" y1="124.000000" x2="44.000000" y2="124.000000"  style="stroke:black; stroke-linecap:round; stroke-width:0.25;"/>
<line x1="44.000000" y1="124.000000" x2="48.000000" y2="124.000000"  style="stroke:black; stroke-linecap:round; stroke-width:0.25;"/>
<line x1="44.000000" y1="132.000000" x2="48.000000" y2="132.000000"  style="stroke:black; stroke-linecap:round; stroke-width:0.25;"/>
<line x1="53.000000" y1="56.000000" x2="44.000000" y2="56.000000"  style="stroke:black; stroke-linecap:round; stroke-width:0.25;"/>
<line x1="57.000000" y1="56.000000" x2="53.000000" y2="56.000000"  style="stroke:black; stroke-linecap:round; stroke-width:0.25;"/>
<line x1="72.000000" y1="128.000000" x2="76.000000" y2="128.000000"  style="stroke:black; stroke-linecap:round; stroke-width:0.25;"/>
<line x1="76.000000" y1="128.000000" x2="102.000000" y2="108.000000"  style="stroke:black; stroke-linecap:round; stroke-width:0.25;"/>
<line x1="76.000000" y1="128.000000" x2="102.000000" y2="128.000000"  style="stroke:black; stroke-linecap:round; stroke-width:0.25;"/>
<line x1="85.000000" y1="52.000000" x2="81.000000" y2="52.000000"  style="stroke:black; stroke-linecap:round; stroke-width:0.25;"/>
<line x1="85.000000" y1="60.000000" x2="81.000000" y2="60.000000"  style="stroke:black; stroke-linecap:round; stroke-width:0.25;"/>
<line x1="85.000000" y1="60.000000" x2="85.000000" y2="60.000000"  style="stroke:black; stroke-linecap:round; stroke-width:0.25;"/>
<line x1="85.000000" y1="88.000000" x2="85.000000" y2="60.000000"  style="stroke:black; stroke-linecap:round; stroke-width:0.25;"/>
<line x1="93.000000" y1="52.000000" x2="85.000000" y2="52.000000"  style="stroke:black; stroke-linecap:round; stroke-width:0.25;"/>
<line x1="93.000000" y1="88.000000" x2="85.000000" y2="88.000000"  style="stroke:black; stroke-linecap:round; stroke-width:0.25;"/>
<line x1="97.000000" y1="52.000000" x2="93.000000" y2="52.000000"  style="stroke:black; stroke-linecap:round; stroke-width:0.25;"/>
<line x1="102.000000" y1="108.000000" x2="102.650000" y2="108.000000"  style="stroke:black; stroke-linecap:round; stroke-width:0.25;"/>
<line x1="102.000000" y1="128.000000" x2="118.900000" y2="128.000000"  style="stroke:black; stroke-linecap:round; stroke-width:0.25;"/>
<line x1="102.650000" y1="108.000000" x2="106.650000" y2="108.000000"  style="stroke:black; stroke-linecap:round; stroke-width:0.25;"/>
<line x1="118.900000" y1="128.000000" x2="135.800000" y2="128.000000"  style="stroke:black; stroke-linecap:round; stroke-width:0.25;"/>
<line x1="125.000000" y1="48.000000" x2="121.000000" y2="48.000000"  style="stroke:black; stroke-linecap:round; stroke-width:0.25;"/>
<line x1="125.000000" y1="56.000000" x2="121.000000" y2="56.000000"  style="stroke:black; stroke-linecap:round; stroke-width:0.25;"/>
<line x1="125.000000" y1="56.000000" x2="125.000000" y2="56.000000"  style="stroke:black; stroke-linecap:round; stroke-width:0.25;"/>
<line x1="125.000000" y1="68.000000" x2="125.000000" y2="56.000000"  style="stroke:black; stroke-linecap:round; stroke-width:0.25;"/>
<line x1="129.900000" y1="88.000000" x2="93.000000" y2="88.000000"  style="stroke:black; stroke-linecap:round; stroke-width:0.25;"/>
<line x1="131.800000" y1="148.000000" x2="135.800000" y2="148.000000"  style="stroke:black; stroke-linecap:round; stroke-width:0.25;"/>
<line x1="133.000000" y1="36.000000" x2="133.000000" y2="36.000000"  style="stroke:black; stroke-linecap:round; stroke-width:0.25;"/>
<line x1="133.000000" y1="36.000000" x2="133.000000" y2="48.000000"  style="stroke:black; stroke-linecap:round; stroke-width:0.25;"/>
<line x1="133.000000" y1="48.000000" x2="125.000000" y2="48.000000"  style="stroke:black; stroke-linecap:round; stroke-width:0.25;"/>
<line x1="133.000000" y1="68.000000" x2="125.000000" y2="68.000000"  style="stroke:black; stroke-linecap:round; stroke-width:0.25;"/>
<line x1="133.900000" y1="68.000000" x2="133.000000" y2="68.000000"  style="stroke:black; stroke-linecap:round; stroke-width:0.25;"/>
<line x1="135.800000" y1="128.000000" x2="143.800000" y2="128.000000"  style="stroke:black; stroke-linecap:round; stroke-width:0.25;"/>
<line x1="135.800000" y1="148.000000" x2="143.800000" y2="148.000000"  style="stroke:black; stroke-linecap:round; stroke-width:0.25;"/>
<line x1="137.000000" y1="36.000000" x2="133.000000" y2="36.000000"  style="stroke:black; stroke-linecap:round; stroke-width:0.25;"/>
<line x1="137.900000" y1="68.000000" x2="133.900000" y2="68.000000"  style="stroke:black; stroke-linecap:round; stroke-width:0.25;"/>
<line x1="143.800000" y1="128.000000" x2="143.800000" y2="140.000000"  style="stroke:black; stroke-linecap:round; stroke-width:0.25;"/>
<line x1="143.800000" y1="140.000000" x2="143.800000" y2="140.000000"  style="stroke:black; stroke-linecap:round; stroke-width:0.25;"/>
<line x1="143.800000" y1="140.000000" x2="147.800000" y2="140.000000"  style="stroke:black; stroke-linecap:round; stroke-width:0.25;"/>
<line x1="143.800000" y1="148.000000" x2="147.800000" y2="148.000000"  style="stroke:black; stroke-linecap:round; stroke-width:0.25;"/>
<line x1="166.800000" y1="88.000000" x2="129.900000" y2="88.000000"  style="stroke:black; stroke-linecap:round; stroke-width:0.25;"/>
<line x1="171.150000" y1="108.000000" x2="175.150000" y2="108.000000"  style="stroke:black; stroke-linecap:round; stroke-width:0.25;"/>
<line x1="171.800000" y1="144.000000" x2="175.800000" y2="144.000000"  style="stroke:black; stroke-linecap:round; stroke-width:0.25;"/>
<line x1="175.150000" y1="108.000000" x2="175.800000" y2="108.000000"  style="stroke:black; stroke-linecap:round; stroke-width:0.25;"/>
<line x1="175.800000" y1="88.000000" x2="166.800000" y2="88.000000"  style="stroke:black; stroke-linecap:round; stroke-width:0.25;"/>
<line x1="175.800000" y1="88.000000" x2="175.800000" y2="88.000000"  style="stroke:black; stroke-linecap:round; stroke-width:0.25;"/>
<line x1="175.800000" y1="104.000000" x2="175.800000" y2="88.000000"  style="stroke:black; stroke-linecap:round; stroke-width:0.25;"/>
<line x1="175.800000" y1="108.000000" x2="177.800000" y2="108.000000"  style="stroke:black; stroke-linecap:round; stroke-width:0.25;"/>
<line x1="175.800000" y1="144.000000" x2="183.800000" y2="144.000000"  style="stroke:black; stroke-linecap:round; stroke-width:0.25;"/>
<line x1="177.800000" y1="108.000000" x2="183.800000" y2="108.000000"  style="stroke:black; stroke-linecap:round; stroke-width:0.25;"/>
<line x1="183.800000" y1="88.000000" x2="199.800000" y2="88.000000"  style="stroke:black; stroke-linecap:round; stroke-width:0.25;"/>
<line x1="183.800000" y1="108.000000" x2="183.800000" y2="88.000000"  style="stroke:black; stroke-linecap:round; stroke-width:0.25;"/>
<line x1="183.800000" y1="108.000000" x2="183.800000" y2="108.000000"  style="stroke:black; stroke-linecap:round; stroke-width:0.25;"/>
<line x1="183.800000" y1="144.000000" x2="191.800000" y2="144.000000"  style="stroke:black; stroke-linecap:round; stroke-width:0.25;"/>
<line x1="191.800000" y1="108.000000" x2="199.800000" y2="108.000000"  style="stroke:black; stroke-linecap:round; stroke-width:0.25;"/>
<line x1="191.800000" y1="144.000000" x2="191.800000" y2="108.000000"  style="stroke:black; stroke-linecap:round; stroke-width:0.25;"/>
<line x1="199.800000" y1="88.000000" x2="203.800000" y2="88.000000"  style="stroke:black; stroke-linecap:round; stroke-width:0.25;"/>
<line x1="199.800000" y1="108.000000" x2="215.800000" y2="108.000000"  style="stroke:black; stroke-linecap:round; stroke-width:0.25;"/>
<line x1="215.800000" y1="108.000000" x2="231.800000" y2="108.000000"  style="stroke:black; stroke-linecap:round; stroke-width:0.25;"/>
<line x1="227.800000" y1="88.000000" x2="231.800000" y2="88.000000"  style="stroke:black; stroke-linecap:round; stroke-width:0.25;"/>
<line x1="231.800000" y1="88.000000" x2="239.800000" y2="88.000000"  style="stroke:black; stroke-linecap:round; stroke-width:0.25;"/>
<line x1="231.800000" y1="96.000000" x2="239.800000" y2="96.000000"  style="stroke:black; stroke-linecap:round; stroke-width:0.25;"/>
<line x1="231.800000" y1="108.000000" x2="231.800000" y2="96.000000"  style="stroke:black; stroke-linecap:round; stroke-width:0.25;"/>
<line x1="231.800000" y1="108.000000" x2="231.800000" y2="108.000000"  style="stroke:black; stroke-linecap:round; stroke-width:0.25;"/>
<line x1="239.800000" y1="88.000000" x2="243.800000" y2="88.000000"  style="stroke:black; stroke-linecap:round; stroke-width:0.25;"/>
<line x1="239.800000" y1="96.000000" x2="243.800000" y2="96.000000"  style="stroke:black; stroke-linecap:round; stroke-width:0.25;"/>
<line x1="267.800000" y1="92.000000" x2="271.800000" y2="92.000000"  style="stroke:black; stroke-linecap:round; stroke-width:0.25;"/>
<line x1="271.800000" y1="92.000000" x2="271.800000" y2="92.000000"  style="stroke:black; stroke-linecap:round; stroke-width:0.25;"/>
<line x1="271.800000" y1="92.000000" x2="275.800000" y2="92.000000"  style="stroke:black; stroke-linecap:round; stroke-width:0.25;"/>
<line x1="275.800000" y1="92.000000" x2="279.800000" y2="92.000000"  style="stroke:black; stroke-linecap:round; stroke-width:0.25;"/>
<line x1="279.800000" y1="92.000000" x2="289.800000" y2="92.000000"  style="stroke:black; stroke-linecap:round; stroke-width:0.25;"/>
</svg>
