<?xml version="1.0"?>
<svg xmlns="http://www.w3.org/2000/svg" xmlns:xlink="http://www.w3.org/1999/xlink" viewBox="0 0 677.100000 488.000000" width="338.550000mm" height="244.000000mm" version="1.1">
<a xlink:href="spat-0x7fdecf5e9190.svg">
<rect x="1.000000" y="1.000000" width="676.100000" height="487.000000" rx="0" ry="0" style="stroke:none;fill:#cccccc;"/>
<rect x="0.000000" y="0.000000" width="676.100000" height="487.000000" rx="0" ry="0" style="stroke:none;fill:#ffffff;"/>
</a>
<text x="10.000000" y="7.000000" font-family="Arial" font-size="7"></text>
<rect x="263.550000" y="25.000000" width="24.000000" height="24.000000" rx="0" ry="0" style="stroke:none;fill:#cccccc;"/>
<rect x="262.550000" y="24.000000" width="24.000000" height="24.000000" rx="0" ry="0" style="stroke:none;fill:#f44800;"/>
<text x="274.550000" y="38.000000" font-family="Arial" font-size="7" text-anchor="middle" fill="#FFFFFF">1</text>
<circle cx="264.550000" cy="26.000000" r="1"/>
<rect x="263.550000" y="57.000000" width="24.000000" height="24.000000" rx="0" ry="0" style="stroke:none;fill:#cccccc;"/>
<rect x="262.550000" y="56.000000" width="24.000000" height="24.000000" rx="0" ry="0" style="stroke:none;fill:#f44800;"/>
<text x="274.550000" y="70.000000" font-family="Arial" font-size="7" text-anchor="middle" fill="#FFFFFF">2</text>
<circle cx="264.550000" cy="58.000000" r="1"/>
<rect x="303.550000" y="41.000000" width="24.000000" height="24.000000" rx="0" ry="0" style="stroke:none;fill:#cccccc;"/>
<rect x="302.550000" y="40.000000" width="24.000000" height="24.000000" rx="0" ry="0" style="stroke:none;fill:#4B71A1;"/>
<text x="314.550000" y="54.000000" font-family="Arial" font-size="7" text-anchor="middle" fill="#FFFFFF">/</text>
<circle cx="304.550000" cy="42.000000" r="1"/>
<line x1="299.550000" y1="47.000000" x2="302.550000" y2="48.000000"  transform="rotate(0.000000,302.550000,48.000000)" style="stroke: black; stroke-width:0.25;"/>
<line x1="299.550000" y1="49.000000" x2="302.550000" y2="48.000000"  transform="rotate(0.000000,302.550000,48.000000)" style="stroke: black; stroke-width:0.25;"/>
<line x1="299.550000" y1="55.000000" x2="302.550000" y2="56.000000"  transform="rotate(0.000000,302.550000,56.000000)" style="stroke: black; stroke-width:0.25;"/>
<line x1="299.550000" y1="57.000000" x2="302.550000" y2="56.000000"  transform="rotate(0.000000,302.550000,56.000000)" style="stroke: black; stroke-width:0.25;"/>
<rect x="283.550000" y="89.000000" width="24.000000" height="24.000000" rx="0" ry="0" style="stroke:none;fill:#cccccc;"/>
<rect x="282.550000" y="88.000000" width="24.000000" height="24.000000" rx="0" ry="0" style="stroke:none;fill:#f44800;"/>
<text x="294.550000" y="102.000000" font-family="Arial" font-size="7" text-anchor="middle" fill="#FFFFFF">0.5</text>
<circle cx="284.550000" cy="90.000000" r="1"/>
<rect x="343.550000" y="57.000000" width="24.000000" height="24.000000" rx="0" ry="0" style="stroke:none;fill:#cccccc;"/>
<rect x="342.550000" y="56.000000" width="24.000000" height="24.000000" rx="0" ry="0" style="stroke:none;fill:#4B71A1;"/>
<text x="354.550000" y="70.000000" font-family="Arial" font-size="7" text-anchor="middle" fill="#FFFFFF">+</text>
<circle cx="344.550000" cy="58.000000" r="1"/>
<line x1="339.550000" y1="63.000000" x2="342.550000" y2="64.000000"  transform="rotate(0.000000,342.550000,64.000000)" style="stroke: black; stroke-width:0.25;"/>
<line x1="339.550000" y1="65.000000" x2="342.550000" y2="64.000000"  transform="rotate(0.000000,342.550000,64.000000)" style="stroke: black; stroke-width:0.25;"/>
<line x1="339.550000" y1="71.000000" x2="342.550000" y2="72.000000"  transform="rotate(0.000000,342.550000,72.000000)" style="stroke: black; stroke-width:0.25;"/>
<line x1="339.550000" y1="73.000000" x2="342.550000" y2="72.000000"  transform="rotate(0.000000,342.550000,72.000000)" style="stroke: black; stroke-width:0.25;"/>
<rect x="266.650000" y="121.000000" width="24.000000" height="24.000000" rx="0" ry="0" style="stroke:none;fill:#cccccc;"/>
<rect x="265.650000" y="120.000000" width="24.000000" height="24.000000" rx="0" ry="0" style="stroke:none;fill:#f44800;"/>
<text x="277.650000" y="134.000000" font-family="Arial" font-size="7" text-anchor="middle" fill="#FFFFFF">0</text>
<circle cx="267.650000" cy="122.000000" r="1"/>
<rect x="246.650000" y="153.000000" width="24.000000" height="24.000000" rx="0" ry="0" style="stroke:none;fill:#cccccc;"/>
<rect x="245.650000" y="152.000000" width="24.000000" height="24.000000" rx="0" ry="0" style="stroke:none;fill:#f44800;"/>
<text x="257.650000" y="166.000000" font-family="Arial" font-size="7" text-anchor="middle" fill="#FFFFFF">1</text>
<circle cx="247.650000" cy="154.000000" r="1"/>
<rect x="25.000000" y="185.000000" width="193.500000" height="24.000000" rx="0" ry="0" style="stroke:none;fill:#cccccc;"/>
<rect x="24.000000" y="184.000000" width="193.500000" height="24.000000" rx="0" ry="0" style="stroke:none;fill:#477881;"/>
<text x="120.750000" y="198.000000" font-family="Arial" font-size="7" text-anchor="middle" fill="#FFFFFF">vslider(Rotation 1, 0.1f, -1.0f, 1.0f, 0.01f)</text>
<circle cx="26.000000" cy="186.000000" r="1"/>
<rect x="109.750000" y="217.000000" width="24.000000" height="24.000000" rx="0" ry="0" style="stroke:none;fill:#cccccc;"/>
<rect x="108.750000" y="216.000000" width="24.000000" height="24.000000" rx="0" ry="0" style="stroke:none;fill:#f44800;"/>
<text x="120.750000" y="230.000000" font-family="Arial" font-size="7" text-anchor="middle" fill="#FFFFFF">0.5</text>
<circle cx="110.750000" cy="218.000000" r="1"/>
<rect x="234.500000" y="201.000000" width="24.000000" height="24.000000" rx="0" ry="0" style="stroke:none;fill:#cccccc;"/>
<rect x="233.500000" y="200.000000" width="24.000000" height="24.000000" rx="0" ry="0" style="stroke:none;fill:#4B71A1;"/>
<text x="245.500000" y="214.000000" font-family="Arial" font-size="7" text-anchor="middle" fill="#FFFFFF">+</text>
<circle cx="235.500000" cy="202.000000" r="1"/>
<line x1="230.500000" y1="207.000000" x2="233.500000" y2="208.000000"  transform="rotate(0.000000,233.500000,208.000000)" style="stroke: black; stroke-width:0.25;"/>
<line x1="230.500000" y1="209.000000" x2="233.500000" y2="208.000000"  transform="rotate(0.000000,233.500000,208.000000)" style="stroke: black; stroke-width:0.25;"/>
<line x1="230.500000" y1="215.000000" x2="233.500000" y2="216.000000"  transform="rotate(0.000000,233.500000,216.000000)" style="stroke: black; stroke-width:0.25;"/>
<line x1="230.500000" y1="217.000000" x2="233.500000" y2="216.000000"  transform="rotate(0.000000,233.500000,216.000000)" style="stroke: black; stroke-width:0.25;"/>
<rect x="72.850000" y="249.000000" width="24.000000" height="24.000000" rx="0" ry="0" style="stroke:none;fill:#cccccc;"/>
<rect x="71.850000" y="248.000000" width="24.000000" height="24.000000" rx="0" ry="0" style="stroke:none;fill:#f44800;"/>
<text x="83.850000" y="262.000000" font-family="Arial" font-size="7" text-anchor="middle" fill="#FFFFFF">4</text>
<circle cx="73.850000" cy="250.000000" r="1"/>
<rect x="72.850000" y="281.000000" width="24.000000" height="24.000000" rx="0" ry="0" style="stroke:none;fill:#cccccc;"/>
<rect x="71.850000" y="280.000000" width="24.000000" height="24.000000" rx="0" ry="0" style="stroke:none;fill:#f44800;"/>
<text x="83.850000" y="294.000000" font-family="Arial" font-size="7" text-anchor="middle" fill="#FFFFFF">2</text>
<circle cx="73.850000" cy="282.000000" r="1"/>
<rect x="112.850000" y="265.000000" width="24.000000" height="24.000000" rx="0" ry="0" style="stroke:none;fill:#cccccc;"/>
<rect x="111.850000" y="264.000000" width="24.000000" height="24.000000" rx="0" ry="0" style="stroke:none;fill:#4B71A1;"/>
<text x="123.850000" y="278.000000" font-family="Arial" font-size="7" text-anchor="middle" fill="#FFFFFF">-</text>
<circle cx="113.850000" cy="266.000000" r="1"/>
<line x1="108.850000" y1="271.000000" x2="111.850000" y2="272.000000"  transform="rotate(0.000000,111.850000,272.000000)" style="stroke: black; stroke-width:0.25;"/>
<line x1="108.850000" y1="273.000000" x2="111.850000" y2="272.000000"  transform="rotate(0.000000,111.850000,272.000000)" style="stroke: black; stroke-width:0.25;"/>
<line x1="108.850000" y1="279.000000" x2="111.850000" y2="280.000000"  transform="rotate(0.000000,111.850000,280.000000)" style="stroke: black; stroke-width:0.25;"/>
<line x1="108.850000" y1="281.000000" x2="111.850000" y2="280.000000"  transform="rotate(0.000000,111.850000,280.000000)" style="stroke: black; stroke-width:0.25;"/>
<rect x="144.850000" y="265.000000" width="25.800000" height="24.000000" rx="0" ry="0" style="stroke:none;fill:#cccccc;"/>
<rect x="143.850000" y="264.000000" width="25.800000" height="24.000000" rx="0" ry="0" style="stroke:none;fill:#4B71A1;"/>
<text x="156.750000" y="278.000000" font-family="Arial" font-size="7" text-anchor="middle" fill="#FFFFFF">float</text>
<circle cx="145.850000" cy="266.000000" r="1"/>
<line x1="140.850000" y1="275.000000" x2="143.850000" y2="276.000000"  transform="rotate(0.000000,143.850000,276.000000)" style="stroke: black; stroke-width:0.25;"/>
<line x1="140.850000" y1="277.000000" x2="143.850000" y2="276.000000"  transform="rotate(0.000000,143.850000,276.000000)" style="stroke: black; stroke-width:0.25;"/>
<rect x="109.750000" y="313.000000" width="24.000000" height="24.000000" rx="0" ry="0" style="stroke:none;fill:#cccccc;"/>
<rect x="108.750000" y="312.000000" width="24.000000" height="24.000000" rx="0" ry="0" style="stroke:none;fill:#f44800;"/>
<text x="120.750000" y="326.000000" font-family="Arial" font-size="7" text-anchor="middle" fill="#FFFFFF">4</text>
<circle cx="110.750000" cy="314.000000" r="1"/>
<rect x="186.650000" y="281.000000" width="24.000000" height="24.000000" rx="0" ry="0" style="stroke:none;fill:#cccccc;"/>
<rect x="185.650000" y="280.000000" width="24.000000" height="24.000000" rx="0" ry="0" style="stroke:none;fill:#4B71A1;"/>
<text x="197.650000" y="294.000000" font-family="Arial" font-size="7" text-anchor="middle" fill="#FFFFFF">/</text>
<circle cx="187.650000" cy="282.000000" r="1"/>
<line x1="182.650000" y1="287.000000" x2="185.650000" y2="288.000000"  transform="rotate(0.000000,185.650000,288.000000)" style="stroke: black; stroke-width:0.25;"/>
<line x1="182.650000" y1="289.000000" x2="185.650000" y2="288.000000"  transform="rotate(0.000000,185.650000,288.000000)" style="stroke: black; stroke-width:0.25;"/>
<line x1="182.650000" y1="295.000000" x2="185.650000" y2="296.000000"  transform="rotate(0.000000,185.650000,296.000000)" style="stroke: black; stroke-width:0.25;"/>
<line x1="182.650000" y1="297.000000" x2="185.650000" y2="296.000000"  transform="rotate(0.000000,185.650000,296.000000)" style="stroke: black; stroke-width:0.25;"/>
<rect x="274.500000" y="249.000000" width="24.000000" height="24.000000" rx="0" ry="0" style="stroke:none;fill:#cccccc;"/>
<rect x="273.500000" y="248.000000" width="24.000000" height="24.000000" rx="0" ry="0" style="stroke:none;fill:#4B71A1;"/>
<text x="285.500000" y="262.000000" font-family="Arial" font-size="7" text-anchor="middle" fill="#FFFFFF">+</text>
<circle cx="275.500000" cy="250.000000" r="1"/>
<line x1="270.500000" y1="255.000000" x2="273.500000" y2="256.000000"  transform="rotate(0.000000,273.500000,256.000000)" style="stroke: black; stroke-width:0.25;"/>
<line x1="270.500000" y1="257.000000" x2="273.500000" y2="256.000000"  transform="rotate(0.000000,273.500000,256.000000)" style="stroke: black; stroke-width:0.25;"/>
<line x1="270.500000" y1="263.000000" x2="273.500000" y2="264.000000"  transform="rotate(0.000000,273.500000,264.000000)" style="stroke: black; stroke-width:0.25;"/>
<line x1="270.500000" y1="265.000000" x2="273.500000" y2="264.000000"  transform="rotate(0.000000,273.500000,264.000000)" style="stroke: black; stroke-width:0.25;"/>
<rect x="149.750000" y="345.000000" width="24.000000" height="24.000000" rx="0" ry="0" style="stroke:none;fill:#cccccc;"/>
<rect x="148.750000" y="344.000000" width="24.000000" height="24.000000" rx="0" ry="0" style="stroke:none;fill:#f44800;"/>
<text x="160.750000" y="358.000000" font-family="Arial" font-size="7" text-anchor="middle" fill="#FFFFFF">1</text>
<circle cx="150.750000" cy="346.000000" r="1"/>
<rect x="314.500000" y="265.000000" width="25.800000" height="24.000000" rx="0" ry="0" style="stroke:none;fill:#cccccc;"/>
<rect x="313.500000" y="264.000000" width="25.800000" height="24.000000" rx="0" ry="0" style="stroke:none;fill:#4B71A1;"/>
<text x="326.400000" y="278.000000" font-family="Arial" font-size="7" text-anchor="middle" fill="#FFFFFF">fmod</text>
<circle cx="315.500000" cy="266.000000" r="1"/>
<line x1="310.500000" y1="271.000000" x2="313.500000" y2="272.000000"  transform="rotate(0.000000,313.500000,272.000000)" style="stroke: black; stroke-width:0.25;"/>
<line x1="310.500000" y1="273.000000" x2="313.500000" y2="272.000000"  transform="rotate(0.000000,313.500000,272.000000)" style="stroke: black; stroke-width:0.25;"/>
<line x1="310.500000" y1="279.000000" x2="313.500000" y2="280.000000"  transform="rotate(0.000000,313.500000,280.000000)" style="stroke: black; stroke-width:0.25;"/>
<line x1="310.500000" y1="281.000000" x2="313.500000" y2="280.000000"  transform="rotate(0.000000,313.500000,280.000000)" style="stroke: black; stroke-width:0.25;"/>
<rect x="170.650000" y="377.000000" width="24.000000" height="24.000000" rx="0" ry="0" style="stroke:none;fill:#cccccc;"/>
<rect x="169.650000" y="376.000000" width="24.000000" height="24.000000" rx="0" ry="0" style="stroke:none;fill:#f44800;"/>
<text x="181.650000" y="390.000000" font-family="Arial" font-size="7" text-anchor="middle" fill="#FFFFFF">0.5</text>
<circle cx="171.650000" cy="378.000000" r="1"/>
<rect x="356.300000" y="281.000000" width="24.000000" height="24.000000" rx="0" ry="0" style="stroke:none;fill:#cccccc;"/>
<rect x="355.300000" y="280.000000" width="24.000000" height="24.000000" rx="0" ry="0" style="stroke:none;fill:#4B71A1;"/>
<text x="367.300000" y="294.000000" font-family="Arial" font-size="7" text-anchor="middle" fill="#FFFFFF">-</text>
<circle cx="357.300000" cy="282.000000" r="1"/>
<line x1="352.300000" y1="287.000000" x2="355.300000" y2="288.000000"  transform="rotate(0.000000,355.300000,288.000000)" style="stroke: black; stroke-width:0.25;"/>
<line x1="352.300000" y1="289.000000" x2="355.300000" y2="288.000000"  transform="rotate(0.000000,355.300000,288.000000)" style="stroke: black; stroke-width:0.25;"/>
<line x1="352.300000" y1="295.000000" x2="355.300000" y2="296.000000"  transform="rotate(0.000000,355.300000,296.000000)" style="stroke: black; stroke-width:0.25;"/>
<line x1="352.300000" y1="297.000000" x2="355.300000" y2="296.000000"  transform="rotate(0.000000,355.300000,296.000000)" style="stroke: black; stroke-width:0.25;"/>
<rect x="388.300000" y="281.000000" width="24.000000" height="24.000000" rx="0" ry="0" style="stroke:none;fill:#cccccc;"/>
<rect x="387.300000" y="280.000000" width="24.000000" height="24.000000" rx="0" ry="0" style="stroke:none;fill:#4B71A1;"/>
<text x="399.300000" y="294.000000" font-family="Arial" font-size="7" text-anchor="middle" fill="#FFFFFF">abs</text>
<circle cx="389.300000" cy="282.000000" r="1"/>
<line x1="384.300000" y1="291.000000" x2="387.300000" y2="292.000000"  transform="rotate(0.000000,387.300000,292.000000)" style="stroke: black; stroke-width:0.25;"/>
<line x1="384.300000" y1="293.000000" x2="387.300000" y2="292.000000"  transform="rotate(0.000000,387.300000,292.000000)" style="stroke: black; stroke-width:0.25;"/>
<rect x="206.650000" y="409.000000" width="24.000000" height="24.000000" rx="0" ry="0" style="stroke:none;fill:#cccccc;"/>
<rect x="205.650000" y="408.000000" width="24.000000" height="24.000000" rx="0" ry="0" style="stroke:none;fill:#f44800;"/>
<text x="217.650000" y="422.000000" font-family="Arial" font-size="7" text-anchor="middle" fill="#FFFFFF">4</text>
<circle cx="207.650000" cy="410.000000" r="1"/>
<rect x="428.300000" y="297.000000" width="24.000000" height="24.000000" rx="0" ry="0" style="stroke:none;fill:#cccccc;"/>
<rect x="427.300000" y="296.000000" width="24.000000" height="24.000000" rx="0" ry="0" style="stroke:none;fill:#4B71A1;"/>
<text x="439.300000" y="310.000000" font-family="Arial" font-size="7" text-anchor="middle" fill="#FFFFFF">*</text>
<circle cx="429.300000" cy="298.000000" r="1"/>
<line x1="424.300000" y1="303.000000" x2="427.300000" y2="304.000000"  transform="rotate(0.000000,427.300000,304.000000)" style="stroke: black; stroke-width:0.25;"/>
<line x1="424.300000" y1="305.000000" x2="427.300000" y2="304.000000"  transform="rotate(0.000000,427.300000,304.000000)" style="stroke: black; stroke-width:0.25;"/>
<line x1="424.300000" y1="311.000000" x2="427.300000" y2="312.000000"  transform="rotate(0.000000,427.300000,312.000000)" style="stroke: black; stroke-width:0.25;"/>
<line x1="424.300000" y1="313.000000" x2="427.300000" y2="312.000000"  transform="rotate(0.000000,427.300000,312.000000)" style="stroke: black; stroke-width:0.25;"/>
<rect x="226.650000" y="441.000000" width="24.000000" height="24.000000" rx="0" ry="0" style="stroke:none;fill:#cccccc;"/>
<rect x="225.650000" y="440.000000" width="24.000000" height="24.000000" rx="0" ry="0" style="stroke:none;fill:#f44800;"/>
<text x="237.650000" y="454.000000" font-family="Arial" font-size="7" text-anchor="middle" fill="#FFFFFF">1</text>
<circle cx="227.650000" cy="442.000000" r="1"/>
<rect x="468.300000" y="313.000000" width="24.000000" height="24.000000" rx="0" ry="0" style="stroke:none;fill:#cccccc;"/>
<rect x="467.300000" y="312.000000" width="24.000000" height="24.000000" rx="0" ry="0" style="stroke:none;fill:#4B71A1;"/>
<text x="479.300000" y="326.000000" font-family="Arial" font-size="7" text-anchor="middle" fill="#FFFFFF">*</text>
<circle cx="469.300000" cy="314.000000" r="1"/>
<line x1="464.300000" y1="319.000000" x2="467.300000" y2="320.000000"  transform="rotate(0.000000,467.300000,320.000000)" style="stroke: black; stroke-width:0.25;"/>
<line x1="464.300000" y1="321.000000" x2="467.300000" y2="320.000000"  transform="rotate(0.000000,467.300000,320.000000)" style="stroke: black; stroke-width:0.25;"/>
<line x1="464.300000" y1="327.000000" x2="467.300000" y2="328.000000"  transform="rotate(0.000000,467.300000,328.000000)" style="stroke: black; stroke-width:0.25;"/>
<line x1="464.300000" y1="329.000000" x2="467.300000" y2="328.000000"  transform="rotate(0.000000,467.300000,328.000000)" style="stroke: black; stroke-width:0.25;"/>
<rect x="508.300000" y="297.000000" width="24.000000" height="24.000000" rx="0" ry="0" style="stroke:none;fill:#cccccc;"/>
<rect x="507.300000" y="296.000000" width="24.000000" height="24.000000" rx="0" ry="0" style="stroke:none;fill:#4B71A1;"/>
<text x="519.300000" y="310.000000" font-family="Arial" font-size="7" text-anchor="middle" fill="#FFFFFF">-</text>
<circle cx="509.300000" cy="298.000000" r="1"/>
<line x1="504.300000" y1="303.000000" x2="507.300000" y2="304.000000"  transform="rotate(0.000000,507.300000,304.000000)" style="stroke: black; stroke-width:0.25;"/>
<line x1="504.300000" y1="305.000000" x2="507.300000" y2="304.000000"  transform="rotate(0.000000,507.300000,304.000000)" style="stroke: black; stroke-width:0.25;"/>
<line x1="504.300000" y1="311.000000" x2="507.300000" y2="312.000000"  transform="rotate(0.000000,507.300000,312.000000)" style="stroke: black; stroke-width:0.25;"/>
<line x1="504.300000" y1="313.000000" x2="507.300000" y2="312.000000"  transform="rotate(0.000000,507.300000,312.000000)" style="stroke: black; stroke-width:0.25;"/>
<rect x="548.300000" y="281.000000" width="24.000000" height="24.000000" rx="0" ry="0" style="stroke:none;fill:#cccccc;"/>
<rect x="547.300000" y="280.000000" width="24.000000" height="24.000000" rx="0" ry="0" style="stroke:none;fill:#4B71A1;"/>
<text x="559.300000" y="294.000000" font-family="Arial" font-size="7" text-anchor="middle" fill="#FFFFFF">max</text>
<circle cx="549.300000" cy="282.000000" r="1"/>
<line x1="544.300000" y1="287.000000" x2="547.300000" y2="288.000000"  transform="rotate(0.000000,547.300000,288.000000)" style="stroke: black; stroke-width:0.25;"/>
<line x1="544.300000" y1="289.000000" x2="547.300000" y2="288.000000"  transform="rotate(0.000000,547.300000,288.000000)" style="stroke: black; stroke-width:0.25;"/>
<line x1="544.300000" y1="295.000000" x2="547.300000" y2="296.000000"  transform="rotate(0.000000,547.300000,296.000000)" style="stroke: black; stroke-width:0.25;"/>
<line x1="544.300000" y1="297.000000" x2="547.300000" y2="296.000000"  transform="rotate(0.000000,547.300000,296.000000)" style="stroke: black; stroke-width:0.25;"/>
<rect x="580.300000" y="281.000000" width="25.800000" height="24.000000" rx="0" ry="0" style="stroke:none;fill:#cccccc;"/>
<rect x="579.300000" y="280.000000" width="25.800000" height="24.000000" rx="0" ry="0" style="stroke:none;fill:#4B71A1;"/>
<text x="592.200000" y="294.000000" font-family="Arial" font-size="7" text-anchor="middle" fill="#FFFFFF">sqrt</text>
<circle cx="581.300000" cy="282.000000" r="1"/>
<line x1="576.300000" y1="291.000000" x2="579.300000" y2="292.000000"  transform="rotate(0.000000,579.300000,292.000000)" style="stroke: black; stroke-width:0.25;"/>
<line x1="576.300000" y1="293.000000" x2="579.300000" y2="292.000000"  transform="rotate(0.000000,579.300000,292.000000)" style="stroke: black; stroke-width:0.25;"/>
<rect x="622.100000" y="233.000000" width="24.000000" height="24.000000" rx="0" ry="0" style="stroke:none;fill:#cccccc;"/>
<rect x="621.100000" y="232.000000" width="24.000000" height="24.000000" rx="0" ry="0" style="stroke:none;fill:#4B71A1;"/>
<text x="633.100000" y="246.000000" font-family="Arial" font-size="7" text-anchor="middle" fill="#FFFFFF">*</text>
<circle cx="623.100000" cy="234.000000" r="1"/>
<line x1="618.100000" y1="239.000000" x2="621.100000" y2="240.000000"  transform="rotate(0.000000,621.100000,240.000000)" style="stroke: black; stroke-width:0.25;"/>
<line x1="618.100000" y1="241.000000" x2="621.100000" y2="240.000000"  transform="rotate(0.000000,621.100000,240.000000)" style="stroke: black; stroke-width:0.25;"/>
<line x1="618.100000" y1="247.000000" x2="621.100000" y2="248.000000"  transform="rotate(0.000000,621.100000,248.000000)" style="stroke: black; stroke-width:0.25;"/>
<line x1="618.100000" y1="249.000000" x2="621.100000" y2="248.000000"  transform="rotate(0.000000,621.100000,248.000000)" style="stroke: black; stroke-width:0.25;"/>
<line x1="15.000000" y1="15.000000" x2="15.000000" y2="473.000000"  style="stroke: black; stroke-linecap:round; stroke-width:0.25; stroke-dasharray:3,3;"/>
<line x1="15.000000" y1="473.000000" x2="662.100000" y2="473.000000"  style="stroke: black; stroke-linecap:round; stroke-width:0.25; stroke-dasharray:3,3;"/>
<line x1="662.100000" y1="473.000000" x2="662.100000" y2="15.000000"  style="stroke: black; stroke-linecap:round; stroke-width:0.25; stroke-dasharray:3,3;"/>
<line x1="15.000000" y1="15.000000" x2="20.000000" y2="15.000000"  style="stroke: black; stroke-linecap:round; stroke-width:0.25; stroke-dasharray:3,3;"/>
<line x1="129.650000" y1="15.000000" x2="662.100000" y2="15.000000"  style="stroke: black; stroke-linecap:round; stroke-width:0.25; stroke-dasharray:3,3;"/>
<text x="20.000000" y="17.000000" font-family="Arial" font-size="7">scaler(2)(4)(...1.0f, 0.01f))(1)</text>
<line x1="664.100000" y1="243.000000" x2="667.100000" y2="244.000000"  transform="rotate(0.000000,667.100000,244.000000)" style="stroke: black; stroke-width:0.25;"/>
<line x1="664.100000" y1="245.000000" x2="667.100000" y2="244.000000"  transform="rotate(0.000000,667.100000,244.000000)" style="stroke: black; stroke-width:0.25;"/>
<line x1="95.850000" y1="260.000000" x2="99.850000" y2="260.000000"  style="stroke:black; stroke-linecap:round; stroke-width:0.25;"/>
<line x1="95.850000" y1="292.000000" x2="99.850000" y2="292.000000"  style="stroke:black; stroke-linecap:round; stroke-width:0.25;"/>
<line x1="99.850000" y1="260.000000" x2="107.850000" y2="260.000000"  style="stroke:black; stroke-linecap:round; stroke-width:0.25;"/>
<line x1="99.850000" y1="280.000000" x2="107.850000" y2="280.000000"  style="stroke:black; stroke-linecap:round; stroke-width:0.25;"/>
<line x1="99.850000" y1="292.000000" x2="99.850000" y2="280.000000"  style="stroke:black; stroke-linecap:round; stroke-width:0.25;"/>
<line x1="99.850000" y1="292.000000" x2="99.850000" y2="292.000000"  style="stroke:black; stroke-linecap:round; stroke-width:0.25;"/>
<line x1="107.850000" y1="260.000000" x2="107.850000" y2="272.000000"  style="stroke:black; stroke-linecap:round; stroke-width:0.25;"/>
<line x1="107.850000" y1="272.000000" x2="107.850000" y2="272.000000"  style="stroke:black; stroke-linecap:round; stroke-width:0.25;"/>
<line x1="107.850000" y1="272.000000" x2="111.850000" y2="272.000000"  style="stroke:black; stroke-linecap:round; stroke-width:0.25;"/>
<line x1="107.850000" y1="280.000000" x2="111.850000" y2="280.000000"  style="stroke:black; stroke-linecap:round; stroke-width:0.25;"/>
<line x1="132.750000" y1="228.000000" x2="136.750000" y2="228.000000"  style="stroke:black; stroke-linecap:round; stroke-width:0.25;"/>
<line x1="132.750000" y1="324.000000" x2="136.750000" y2="324.000000"  style="stroke:black; stroke-linecap:round; stroke-width:0.25;"/>
<line x1="135.850000" y1="276.000000" x2="139.850000" y2="276.000000"  style="stroke:black; stroke-linecap:round; stroke-width:0.25;"/>
<line x1="136.750000" y1="228.000000" x2="221.500000" y2="228.000000"  style="stroke:black; stroke-linecap:round; stroke-width:0.25;"/>
<line x1="136.750000" y1="324.000000" x2="173.650000" y2="324.000000"  style="stroke:black; stroke-linecap:round; stroke-width:0.25;"/>
<line x1="139.850000" y1="276.000000" x2="139.850000" y2="276.000000"  style="stroke:black; stroke-linecap:round; stroke-width:0.25;"/>
<line x1="139.850000" y1="276.000000" x2="143.850000" y2="276.000000"  style="stroke:black; stroke-linecap:round; stroke-width:0.25;"/>
<line x1="169.650000" y1="276.000000" x2="173.650000" y2="276.000000"  style="stroke:black; stroke-linecap:round; stroke-width:0.25;"/>
<line x1="172.750000" y1="356.000000" x2="176.750000" y2="356.000000"  style="stroke:black; stroke-linecap:round; stroke-width:0.25;"/>
<line x1="173.650000" y1="276.000000" x2="181.650000" y2="276.000000"  style="stroke:black; stroke-linecap:round; stroke-width:0.25;"/>
<line x1="173.650000" y1="296.000000" x2="181.650000" y2="296.000000"  style="stroke:black; stroke-linecap:round; stroke-width:0.25;"/>
<line x1="173.650000" y1="324.000000" x2="173.650000" y2="296.000000"  style="stroke:black; stroke-linecap:round; stroke-width:0.25;"/>
<line x1="173.650000" y1="324.000000" x2="173.650000" y2="324.000000"  style="stroke:black; stroke-linecap:round; stroke-width:0.25;"/>
<line x1="176.750000" y1="356.000000" x2="301.500000" y2="356.000000"  style="stroke:black; stroke-linecap:round; stroke-width:0.25;"/>
<line x1="181.650000" y1="276.000000" x2="181.650000" y2="288.000000"  style="stroke:black; stroke-linecap:round; stroke-width:0.25;"/>
<line x1="181.650000" y1="288.000000" x2="181.650000" y2="288.000000"  style="stroke:black; stroke-linecap:round; stroke-width:0.25;"/>
<line x1="181.650000" y1="288.000000" x2="185.650000" y2="288.000000"  style="stroke:black; stroke-linecap:round; stroke-width:0.25;"/>
<line x1="181.650000" y1="296.000000" x2="185.650000" y2="296.000000"  style="stroke:black; stroke-linecap:round; stroke-width:0.25;"/>
<line x1="193.650000" y1="388.000000" x2="197.650000" y2="388.000000"  style="stroke:black; stroke-linecap:round; stroke-width:0.25;"/>
<line x1="197.650000" y1="388.000000" x2="343.300000" y2="388.000000"  style="stroke:black; stroke-linecap:round; stroke-width:0.25;"/>
<line x1="209.650000" y1="292.000000" x2="213.650000" y2="292.000000"  style="stroke:black; stroke-linecap:round; stroke-width:0.25;"/>
<line x1="213.650000" y1="292.000000" x2="261.500000" y2="292.000000"  style="stroke:black; stroke-linecap:round; stroke-width:0.25;"/>
<line x1="217.500000" y1="196.000000" x2="221.500000" y2="196.000000"  style="stroke:black; stroke-linecap:round; stroke-width:0.25;"/>
<line x1="221.500000" y1="196.000000" x2="229.500000" y2="196.000000"  style="stroke:black; stroke-linecap:round; stroke-width:0.25;"/>
<line x1="221.500000" y1="216.000000" x2="229.500000" y2="216.000000"  style="stroke:black; stroke-linecap:round; stroke-width:0.25;"/>
<line x1="221.500000" y1="228.000000" x2="221.500000" y2="216.000000"  style="stroke:black; stroke-linecap:round; stroke-width:0.25;"/>
<line x1="221.500000" y1="228.000000" x2="221.500000" y2="228.000000"  style="stroke:black; stroke-linecap:round; stroke-width:0.25;"/>
<line x1="229.500000" y1="196.000000" x2="229.500000" y2="208.000000"  style="stroke:black; stroke-linecap:round; stroke-width:0.25;"/>
<line x1="229.500000" y1="208.000000" x2="229.500000" y2="208.000000"  style="stroke:black; stroke-linecap:round; stroke-width:0.25;"/>
<line x1="229.500000" y1="208.000000" x2="233.500000" y2="208.000000"  style="stroke:black; stroke-linecap:round; stroke-width:0.25;"/>
<line x1="229.500000" y1="216.000000" x2="233.500000" y2="216.000000"  style="stroke:black; stroke-linecap:round; stroke-width:0.25;"/>
<line x1="229.650000" y1="420.000000" x2="233.650000" y2="420.000000"  style="stroke:black; stroke-linecap:round; stroke-width:0.25;"/>
<line x1="233.650000" y1="420.000000" x2="415.300000" y2="420.000000"  style="stroke:black; stroke-linecap:round; stroke-width:0.25;"/>
<line x1="249.650000" y1="452.000000" x2="253.650000" y2="452.000000"  style="stroke:black; stroke-linecap:round; stroke-width:0.25;"/>
<line x1="253.650000" y1="452.000000" x2="455.300000" y2="452.000000"  style="stroke:black; stroke-linecap:round; stroke-width:0.25;"/>
<line x1="257.500000" y1="212.000000" x2="261.500000" y2="212.000000"  style="stroke:black; stroke-linecap:round; stroke-width:0.25;"/>
<line x1="261.500000" y1="212.000000" x2="269.500000" y2="212.000000"  style="stroke:black; stroke-linecap:round; stroke-width:0.25;"/>
<line x1="261.500000" y1="264.000000" x2="269.500000" y2="264.000000"  style="stroke:black; stroke-linecap:round; stroke-width:0.25;"/>
<line x1="261.500000" y1="292.000000" x2="261.500000" y2="264.000000"  style="stroke:black; stroke-linecap:round; stroke-width:0.25;"/>
<line x1="261.500000" y1="292.000000" x2="261.500000" y2="292.000000"  style="stroke:black; stroke-linecap:round; stroke-width:0.25;"/>
<line x1="269.500000" y1="212.000000" x2="269.500000" y2="256.000000"  style="stroke:black; stroke-linecap:round; stroke-width:0.25;"/>
<line x1="269.500000" y1="256.000000" x2="269.500000" y2="256.000000"  style="stroke:black; stroke-linecap:round; stroke-width:0.25;"/>
<line x1="269.500000" y1="256.000000" x2="273.500000" y2="256.000000"  style="stroke:black; stroke-linecap:round; stroke-width:0.25;"/>
<line x1="269.500000" y1="264.000000" x2="273.500000" y2="264.000000"  style="stroke:black; stroke-linecap:round; stroke-width:0.25;"/>
<line x1="269.650000" y1="164.000000" x2="273.650000" y2="164.000000"  style="stroke:black; stroke-linecap:round; stroke-width:0.25;"/>
<line x1="273.650000" y1="164.000000" x2="495.300000" y2="164.000000"  style="stroke:black; stroke-linecap:round; stroke-width:0.25;"/>
<line x1="286.550000" y1="36.000000" x2="290.550000" y2="36.000000"  style="stroke:black; stroke-linecap:round; stroke-width:0.25;"/>
<line x1="286.550000" y1="68.000000" x2="290.550000" y2="68.000000"  style="stroke:black; stroke-linecap:round; stroke-width:0.25;"/>
<line x1="289.650000" y1="132.000000" x2="293.650000" y2="132.000000"  style="stroke:black; stroke-linecap:round; stroke-width:0.25;"/>
<line x1="290.550000" y1="36.000000" x2="298.550000" y2="36.000000"  style="stroke:black; stroke-linecap:round; stroke-width:0.25;"/>
<line x1="290.550000" y1="56.000000" x2="298.550000" y2="56.000000"  style="stroke:black; stroke-linecap:round; stroke-width:0.25;"/>
<line x1="290.550000" y1="68.000000" x2="290.550000" y2="56.000000"  style="stroke:black; stroke-linecap:round; stroke-width:0.25;"/>
<line x1="290.550000" y1="68.000000" x2="290.550000" y2="68.000000"  style="stroke:black; stroke-linecap:round; stroke-width:0.25;"/>
<line x1="293.650000" y1="132.000000" x2="535.300000" y2="132.000000"  style="stroke:black; stroke-linecap:round; stroke-width:0.25;"/>
<line x1="297.500000" y1="260.000000" x2="301.500000" y2="260.000000"  style="stroke:black; stroke-linecap:round; stroke-width:0.25;"/>
<line x1="298.550000" y1="36.000000" x2="298.550000" y2="48.000000"  style="stroke:black; stroke-linecap:round; stroke-width:0.25;"/>
<line x1="298.550000" y1="48.000000" x2="298.550000" y2="48.000000"  style="stroke:black; stroke-linecap:round; stroke-width:0.25;"/>
<line x1="298.550000" y1="48.000000" x2="302.550000" y2="48.000000"  style="stroke:black; stroke-linecap:round; stroke-width:0.25;"/>
<line x1="298.550000" y1="56.000000" x2="302.550000" y2="56.000000"  style="stroke:black; stroke-linecap:round; stroke-width:0.25;"/>
<line x1="301.500000" y1="260.000000" x2="309.500000" y2="260.000000"  style="stroke:black; stroke-linecap:round; stroke-width:0.25;"/>
<line x1="301.500000" y1="280.000000" x2="309.500000" y2="280.000000"  style="stroke:black; stroke-linecap:round; stroke-width:0.25;"/>
<line x1="301.500000" y1="356.000000" x2="301.500000" y2="280.000000"  style="stroke:black; stroke-linecap:round; stroke-width:0.25;"/>
<line x1="301.500000" y1="356.000000" x2="301.500000" y2="356.000000"  style="stroke:black; stroke-linecap:round; stroke-width:0.25;"/>
<line x1="306.550000" y1="100.000000" x2="310.550000" y2="100.000000"  style="stroke:black; stroke-linecap:round; stroke-width:0.25;"/>
<line x1="309.500000" y1="260.000000" x2="309.500000" y2="272.000000"  style="stroke:black; stroke-linecap:round; stroke-width:0.25;"/>
<line x1="309.500000" y1="272.000000" x2="309.500000" y2="272.000000"  style="stroke:black; stroke-linecap:round; stroke-width:0.25;"/>
<line x1="309.500000" y1="272.000000" x2="313.500000" y2="272.000000"  style="stroke:black; stroke-linecap:round; stroke-width:0.25;"/>
<line x1="309.500000" y1="280.000000" x2="313.500000" y2="280.000000"  style="stroke:black; stroke-linecap:round; stroke-width:0.25;"/>
<line x1="310.550000" y1="100.000000" x2="330.550000" y2="100.000000"  style="stroke:black; stroke-linecap:round; stroke-width:0.25;"/>
<line x1="326.550000" y1="52.000000" x2="330.550000" y2="52.000000"  style="stroke:black; stroke-linecap:round; stroke-width:0.25;"/>
<line x1="330.550000" y1="52.000000" x2="338.550000" y2="52.000000"  style="stroke:black; stroke-linecap:round; stroke-width:0.25;"/>
<line x1="330.550000" y1="72.000000" x2="338.550000" y2="72.000000"  style="stroke:black; stroke-linecap:round; stroke-width:0.25;"/>
<line x1="330.550000" y1="100.000000" x2="330.550000" y2="72.000000"  style="stroke:black; stroke-linecap:round; stroke-width:0.25;"/>
<line x1="330.550000" y1="100.000000" x2="330.550000" y2="100.000000"  style="stroke:black; stroke-linecap:round; stroke-width:0.25;"/>
<line x1="338.550000" y1="52.000000" x2="338.550000" y2="64.000000"  style="stroke:black; stroke-linecap:round; stroke-width:0.25;"/>
<line x1="338.550000" y1="64.000000" x2="338.550000" y2="64.000000"  style="stroke:black; stroke-linecap:round; stroke-width:0.25;"/>
<line x1="338.550000" y1="64.000000" x2="342.550000" y2="64.000000"  style="stroke:black; stroke-linecap:round; stroke-width:0.25;"/>
<line x1="338.550000" y1="72.000000" x2="342.550000" y2="72.000000"  style="stroke:black; stroke-linecap:round; stroke-width:0.25;"/>
<line x1="339.300000" y1="276.000000" x2="343.300000" y2="276.000000"  style="stroke:black; stroke-linecap:round; stroke-width:0.25;"/>
<line x1="343.300000" y1="276.000000" x2="351.300000" y2="276.000000"  style="stroke:black; stroke-linecap:round; stroke-width:0.25;"/>
<line x1="343.300000" y1="296.000000" x2="351.300000" y2="296.000000"  style="stroke:black; stroke-linecap:round; stroke-width:0.25;"/>
<line x1="343.300000" y1="388.000000" x2="343.300000" y2="296.000000"  style="stroke:black; stroke-linecap:round; stroke-width:0.25;"/>
<line x1="343.300000" y1="388.000000" x2="343.300000" y2="388.000000"  style="stroke:black; stroke-linecap:round; stroke-width:0.25;"/>
<line x1="351.300000" y1="276.000000" x2="351.300000" y2="288.000000"  style="stroke:black; stroke-linecap:round; stroke-width:0.25;"/>
<line x1="351.300000" y1="288.000000" x2="351.300000" y2="288.000000"  style="stroke:black; stroke-linecap:round; stroke-width:0.25;"/>
<line x1="351.300000" y1="288.000000" x2="355.300000" y2="288.000000"  style="stroke:black; stroke-linecap:round; stroke-width:0.25;"/>
<line x1="351.300000" y1="296.000000" x2="355.300000" y2="296.000000"  style="stroke:black; stroke-linecap:round; stroke-width:0.25;"/>
<line x1="366.550000" y1="68.000000" x2="370.550000" y2="68.000000"  style="stroke:black; stroke-linecap:round; stroke-width:0.25;"/>
<line x1="370.550000" y1="68.000000" x2="609.100000" y2="68.000000"  style="stroke:black; stroke-linecap:round; stroke-width:0.25;"/>
<line x1="379.300000" y1="292.000000" x2="383.300000" y2="292.000000"  style="stroke:black; stroke-linecap:round; stroke-width:0.25;"/>
<line x1="383.300000" y1="292.000000" x2="383.300000" y2="292.000000"  style="stroke:black; stroke-linecap:round; stroke-width:0.25;"/>
<line x1="383.300000" y1="292.000000" x2="387.300000" y2="292.000000"  style="stroke:black; stroke-linecap:round; stroke-width:0.25;"/>
<line x1="411.300000" y1="292.000000" x2="415.300000" y2="292.000000"  style="stroke:black; stroke-linecap:round; stroke-width:0.25;"/>
<line x1="415.300000" y1="292.000000" x2="423.300000" y2="292.000000"  style="stroke:black; stroke-linecap:round; stroke-width:0.25;"/>
<line x1="415.300000" y1="312.000000" x2="423.300000" y2="312.000000"  style="stroke:black; stroke-linecap:round; stroke-width:0.25;"/>
<line x1="415.300000" y1="420.000000" x2="415.300000" y2="312.000000"  style="stroke:black; stroke-linecap:round; stroke-width:0.25;"/>
<line x1="415.300000" y1="420.000000" x2="415.300000" y2="420.000000"  style="stroke:black; stroke-linecap:round; stroke-width:0.25;"/>
<line x1="423.300000" y1="292.000000" x2="423.300000" y2="304.000000"  style="stroke:black; stroke-linecap:round; stroke-width:0.25;"/>
<line x1="423.300000" y1="304.000000" x2="423.300000" y2="304.000000"  style="stroke:black; stroke-linecap:round; stroke-width:0.25;"/>
<line x1="423.300000" y1="304.000000" x2="427.300000" y2="304.000000"  style="stroke:black; stroke-linecap:round; stroke-width:0.25;"/>
<line x1="423.300000" y1="312.000000" x2="427.300000" y2="312.000000"  style="stroke:black; stroke-linecap:round; stroke-width:0.25;"/>
<line x1="451.300000" y1="308.000000" x2="455.300000" y2="308.000000"  style="stroke:black; stroke-linecap:round; stroke-width:0.25;"/>
<line x1="455.300000" y1="308.000000" x2="463.300000" y2="308.000000"  style="stroke:black; stroke-linecap:round; stroke-width:0.25;"/>
<line x1="455.300000" y1="328.000000" x2="463.300000" y2="328.000000"  style="stroke:black; stroke-linecap:round; stroke-width:0.25;"/>
<line x1="455.300000" y1="452.000000" x2="455.300000" y2="328.000000"  style="stroke:black; stroke-linecap:round; stroke-width:0.25;"/>
<line x1="455.300000" y1="452.000000" x2="455.300000" y2="452.000000"  style="stroke:black; stroke-linecap:round; stroke-width:0.25;"/>
<line x1="463.300000" y1="308.000000" x2="463.300000" y2="320.000000"  style="stroke:black; stroke-linecap:round; stroke-width:0.25;"/>
<line x1="463.300000" y1="320.000000" x2="463.300000" y2="320.000000"  style="stroke:black; stroke-linecap:round; stroke-width:0.25;"/>
<line x1="463.300000" y1="320.000000" x2="467.300000" y2="320.000000"  style="stroke:black; stroke-linecap:round; stroke-width:0.25;"/>
<line x1="463.300000" y1="328.000000" x2="467.300000" y2="328.000000"  style="stroke:black; stroke-linecap:round; stroke-width:0.25;"/>
<line x1="491.300000" y1="324.000000" x2="495.300000" y2="324.000000"  style="stroke:black; stroke-linecap:round; stroke-width:0.25;"/>
<line x1="495.300000" y1="164.000000" x2="503.300000" y2="164.000000"  style="stroke:black; stroke-linecap:round; stroke-width:0.25;"/>
<line x1="495.300000" y1="312.000000" x2="503.300000" y2="312.000000"  style="stroke:black; stroke-linecap:round; stroke-width:0.25;"/>
<line x1="495.300000" y1="324.000000" x2="495.300000" y2="312.000000"  style="stroke:black; stroke-linecap:round; stroke-width:0.25;"/>
<line x1="495.300000" y1="324.000000" x2="495.300000" y2="324.000000"  style="stroke:black; stroke-linecap:round; stroke-width:0.25;"/>
<line x1="503.300000" y1="164.000000" x2="503.300000" y2="304.000000"  style="stroke:black; stroke-linecap:round; stroke-width:0.25;"/>
<line x1="503.300000" y1="304.000000" x2="503.300000" y2="304.000000"  style="stroke:black; stroke-linecap:round; stroke-width:0.25;"/>
<line x1="503.300000" y1="304.000000" x2="507.300000" y2="304.000000"  style="stroke:black; stroke-linecap:round; stroke-width:0.25;"/>
<line x1="503.300000" y1="312.000000" x2="507.300000" y2="312.000000"  style="stroke:black; stroke-linecap:round; stroke-width:0.25;"/>
<line x1="531.300000" y1="308.000000" x2="535.300000" y2="308.000000"  style="stroke:black; stroke-linecap:round; stroke-width:0.25;"/>
<line x1="535.300000" y1="132.000000" x2="543.300000" y2="132.000000"  style="stroke:black; stroke-linecap:round; stroke-width:0.25;"/>
<line x1="535.300000" y1="296.000000" x2="543.300000" y2="296.000000"  style="stroke:black; stroke-linecap:round; stroke-width:0.25;"/>
<line x1="535.300000" y1="308.000000" x2="535.300000" y2="296.000000"  style="stroke:black; stroke-linecap:round; stroke-width:0.25;"/>
<line x1="535.300000" y1="308.000000" x2="535.300000" y2="308.000000"  style="stroke:black; stroke-linecap:round; stroke-width:0.25;"/>
<line x1="543.300000" y1="132.000000" x2="543.300000" y2="288.000000"  style="stroke:black; stroke-linecap:round; stroke-width:0.25;"/>
<line x1="543.300000" y1="288.000000" x2="543.300000" y2="288.000000"  style="stroke:black; stroke-linecap:round; stroke-width:0.25;"/>
<line x1="543.300000" y1="288.000000" x2="547.300000" y2="288.000000"  style="stroke:black; stroke-linecap:round; stroke-width:0.25;"/>
<line x1="543.300000" y1="296.000000" x2="547.300000" y2="296.000000"  style="stroke:black; stroke-linecap:round; stroke-width:0.25;"/>
<line x1="571.300000" y1="292.000000" x2="575.300000" y2="292.000000"  style="stroke:black; stroke-linecap:round; stroke-width:0.25;"/>
<line x1="575.300000" y1="292.000000" x2="575.300000" y2="292.000000"  style="stroke:black; stroke-linecap:round; stroke-width:0.25;"/>
<line x1="575.300000" y1="292.000000" x2="579.300000" y2="292.000000"  style="stroke:black; stroke-linecap:round; stroke-width:0.25;"/>
<line x1="605.100000" y1="292.000000" x2="609.100000" y2="292.000000"  style="stroke:black; stroke-linecap:round; stroke-width:0.25;"/>
<line x1="609.100000" y1="68.000000" x2="617.100000" y2="68.000000"  style="stroke:black; stroke-linecap:round; stroke-width:0.25;"/>
<line x1="609.100000" y1="248.000000" x2="617.100000" y2="248.000000"  style="stroke:black; stroke-linecap:round; stroke-width:0.25;"/>
<line x1="609.100000" y1="292.000000" x2="609.100000" y2="248.000000"  style="stroke:black; stroke-linecap:round; stroke-width:0.25;"/>
<line x1="609.100000" y1="292.000000" x2="609.100000" y2="292.000000"  style="stroke:black; stroke-linecap:round; stroke-width:0.25;"/>
<line x1="617.100000" y1="68.000000" x2="617.100000" y2="240.000000"  style="stroke:black; stroke-linecap:round; stroke-width:0.25;"/>
<line x1="617.100000" y1="240.000000" x2="617.100000" y2="240.000000"  style="stroke:black; stroke-linecap:round; stroke-width:0.25;"/>
<line x1="617.100000" y1="240.000000" x2="621.100000" y2="240.000000"  style="stroke:black; stroke-linecap:round; stroke-width:0.25;"/>
<line x1="617.100000" y1="248.000000" x2="621.100000" y2="248.000000"  style="stroke:black; stroke-linecap:round; stroke-width:0.25;"/>
<line x1="645.100000" y1="244.000000" x2="649.100000" y2="244.000000"  style="stroke:black; stroke-linecap:round; stroke-width:0.25;"/>
<line x1="649.100000" y1="244.000000" x2="649.100000" y2="244.000000"  style="stroke:black; stroke-linecap:round; stroke-width:0.25;"/>
<line x1="649.100000" y1="244.000000" x2="653.100000" y2="244.000000"  style="stroke:black; stroke-linecap:round; stroke-width:0.25;"/>
<line x1="653.100000" y1="244.000000" x2="657.100000" y2="244.000000"  style="stroke:black; stroke-linecap:round; stroke-width:0.25;"/>
<line x1="657.100000" y1="244.000000" x2="667.100000" y2="244.000000"  style="stroke:black; stroke-linecap:round; stroke-width:0.25;"/>
</svg>
