<?xml version="1.0"?>
<svg xmlns="http://www.w3.org/2000/svg" xmlns:xlink="http://www.w3.org/1999/xlink" viewBox="0 0 690.000000 488.000000" width="345.000000mm" height="244.000000mm" version="1.1">
<a xlink:href="spat-0x7fa3c44c2ed0.svg">
<rect x="1.000000" y="1.000000" width="689.000000" height="487.000000" rx="0" ry="0" style="stroke:none;fill:#cccccc;"/>
<rect x="0.000000" y="0.000000" width="689.000000" height="487.000000" rx="0" ry="0" style="stroke:none;fill:#ffffff;"/>
</a>
<text x="10.000000" y="7.000000" font-family="Arial" font-size="7"></text>
<rect x="270.000000" y="25.000000" width="24.000000" height="24.000000" rx="0" ry="0" style="stroke:none;fill:#cccccc;"/>
<rect x="269.000000" y="24.000000" width="24.000000" height="24.000000" rx="0" ry="0" style="stroke:none;fill:#f44800;"/>
<text x="281.000000" y="38.000000" font-family="Arial" font-size="7" text-anchor="middle" fill="#FFFFFF">1</text>
<circle cx="271.000000" cy="26.000000" r="1"/>
<rect x="270.000000" y="57.000000" width="24.000000" height="24.000000" rx="0" ry="0" style="stroke:none;fill:#cccccc;"/>
<rect x="269.000000" y="56.000000" width="24.000000" height="24.000000" rx="0" ry="0" style="stroke:none;fill:#f44800;"/>
<text x="281.000000" y="70.000000" font-family="Arial" font-size="7" text-anchor="middle" fill="#FFFFFF">2</text>
<circle cx="271.000000" cy="58.000000" r="1"/>
<rect x="310.000000" y="41.000000" width="24.000000" height="24.000000" rx="0" ry="0" style="stroke:none;fill:#cccccc;"/>
<rect x="309.000000" y="40.000000" width="24.000000" height="24.000000" rx="0" ry="0" style="stroke:none;fill:#4B71A1;"/>
<text x="321.000000" y="54.000000" font-family="Arial" font-size="7" text-anchor="middle" fill="#FFFFFF">/</text>
<circle cx="311.000000" cy="42.000000" r="1"/>
<line x1="306.000000" y1="47.000000" x2="309.000000" y2="48.000000"  transform="rotate(0.000000,309.000000,48.000000)" style="stroke: black; stroke-width:0.25;"/>
<line x1="306.000000" y1="49.000000" x2="309.000000" y2="48.000000"  transform="rotate(0.000000,309.000000,48.000000)" style="stroke: black; stroke-width:0.25;"/>
<line x1="306.000000" y1="55.000000" x2="309.000000" y2="56.000000"  transform="rotate(0.000000,309.000000,56.000000)" style="stroke: black; stroke-width:0.25;"/>
<line x1="306.000000" y1="57.000000" x2="309.000000" y2="56.000000"  transform="rotate(0.000000,309.000000,56.000000)" style="stroke: black; stroke-width:0.25;"/>
<rect x="290.000000" y="89.000000" width="24.000000" height="24.000000" rx="0" ry="0" style="stroke:none;fill:#cccccc;"/>
<rect x="289.000000" y="88.000000" width="24.000000" height="24.000000" rx="0" ry="0" style="stroke:none;fill:#f44800;"/>
<text x="301.000000" y="102.000000" font-family="Arial" font-size="7" text-anchor="middle" fill="#FFFFFF">0.5</text>
<circle cx="291.000000" cy="90.000000" r="1"/>
<rect x="350.000000" y="57.000000" width="24.000000" height="24.000000" rx="0" ry="0" style="stroke:none;fill:#cccccc;"/>
<rect x="349.000000" y="56.000000" width="24.000000" height="24.000000" rx="0" ry="0" style="stroke:none;fill:#4B71A1;"/>
<text x="361.000000" y="70.000000" font-family="Arial" font-size="7" text-anchor="middle" fill="#FFFFFF">+</text>
<circle cx="351.000000" cy="58.000000" r="1"/>
<line x1="346.000000" y1="63.000000" x2="349.000000" y2="64.000000"  transform="rotate(0.000000,349.000000,64.000000)" style="stroke: black; stroke-width:0.25;"/>
<line x1="346.000000" y1="65.000000" x2="349.000000" y2="64.000000"  transform="rotate(0.000000,349.000000,64.000000)" style="stroke: black; stroke-width:0.25;"/>
<line x1="346.000000" y1="71.000000" x2="349.000000" y2="72.000000"  transform="rotate(0.000000,349.000000,72.000000)" style="stroke: black; stroke-width:0.25;"/>
<line x1="346.000000" y1="73.000000" x2="349.000000" y2="72.000000"  transform="rotate(0.000000,349.000000,72.000000)" style="stroke: black; stroke-width:0.25;"/>
<rect x="273.100000" y="121.000000" width="24.000000" height="24.000000" rx="0" ry="0" style="stroke:none;fill:#cccccc;"/>
<rect x="272.100000" y="120.000000" width="24.000000" height="24.000000" rx="0" ry="0" style="stroke:none;fill:#f44800;"/>
<text x="284.100000" y="134.000000" font-family="Arial" font-size="7" text-anchor="middle" fill="#FFFFFF">0</text>
<circle cx="274.100000" cy="122.000000" r="1"/>
<rect x="253.100000" y="153.000000" width="24.000000" height="24.000000" rx="0" ry="0" style="stroke:none;fill:#cccccc;"/>
<rect x="252.100000" y="152.000000" width="24.000000" height="24.000000" rx="0" ry="0" style="stroke:none;fill:#f44800;"/>
<text x="264.100000" y="166.000000" font-family="Arial" font-size="7" text-anchor="middle" fill="#FFFFFF">1</text>
<circle cx="254.100000" cy="154.000000" r="1"/>
<rect x="25.000000" y="185.000000" width="206.400000" height="24.000000" rx="0" ry="0" style="stroke:none;fill:#cccccc;"/>
<rect x="24.000000" y="184.000000" width="206.400000" height="24.000000" rx="0" ry="0" style="stroke:none;fill:#477881;"/>
<text x="127.200000" y="198.000000" font-family="Arial" font-size="7" text-anchor="middle" fill="#FFFFFF">vslider(Rotation 2, -0.2f, -1.0f, 1.0f, 0.01f)</text>
<circle cx="26.000000" cy="186.000000" r="1"/>
<rect x="116.200000" y="217.000000" width="24.000000" height="24.000000" rx="0" ry="0" style="stroke:none;fill:#cccccc;"/>
<rect x="115.200000" y="216.000000" width="24.000000" height="24.000000" rx="0" ry="0" style="stroke:none;fill:#f44800;"/>
<text x="127.200000" y="230.000000" font-family="Arial" font-size="7" text-anchor="middle" fill="#FFFFFF">0.5</text>
<circle cx="117.200000" cy="218.000000" r="1"/>
<rect x="247.400000" y="201.000000" width="24.000000" height="24.000000" rx="0" ry="0" style="stroke:none;fill:#cccccc;"/>
<rect x="246.400000" y="200.000000" width="24.000000" height="24.000000" rx="0" ry="0" style="stroke:none;fill:#4B71A1;"/>
<text x="258.400000" y="214.000000" font-family="Arial" font-size="7" text-anchor="middle" fill="#FFFFFF">+</text>
<circle cx="248.400000" cy="202.000000" r="1"/>
<line x1="243.400000" y1="207.000000" x2="246.400000" y2="208.000000"  transform="rotate(0.000000,246.400000,208.000000)" style="stroke: black; stroke-width:0.25;"/>
<line x1="243.400000" y1="209.000000" x2="246.400000" y2="208.000000"  transform="rotate(0.000000,246.400000,208.000000)" style="stroke: black; stroke-width:0.25;"/>
<line x1="243.400000" y1="215.000000" x2="246.400000" y2="216.000000"  transform="rotate(0.000000,246.400000,216.000000)" style="stroke: black; stroke-width:0.25;"/>
<line x1="243.400000" y1="217.000000" x2="246.400000" y2="216.000000"  transform="rotate(0.000000,246.400000,216.000000)" style="stroke: black; stroke-width:0.25;"/>
<rect x="79.300000" y="249.000000" width="24.000000" height="24.000000" rx="0" ry="0" style="stroke:none;fill:#cccccc;"/>
<rect x="78.300000" y="248.000000" width="24.000000" height="24.000000" rx="0" ry="0" style="stroke:none;fill:#f44800;"/>
<text x="90.300000" y="262.000000" font-family="Arial" font-size="7" text-anchor="middle" fill="#FFFFFF">4</text>
<circle cx="80.300000" cy="250.000000" r="1"/>
<rect x="79.300000" y="281.000000" width="24.000000" height="24.000000" rx="0" ry="0" style="stroke:none;fill:#cccccc;"/>
<rect x="78.300000" y="280.000000" width="24.000000" height="24.000000" rx="0" ry="0" style="stroke:none;fill:#f44800;"/>
<text x="90.300000" y="294.000000" font-family="Arial" font-size="7" text-anchor="middle" fill="#FFFFFF">1</text>
<circle cx="80.300000" cy="282.000000" r="1"/>
<rect x="119.300000" y="265.000000" width="24.000000" height="24.000000" rx="0" ry="0" style="stroke:none;fill:#cccccc;"/>
<rect x="118.300000" y="264.000000" width="24.000000" height="24.000000" rx="0" ry="0" style="stroke:none;fill:#4B71A1;"/>
<text x="130.300000" y="278.000000" font-family="Arial" font-size="7" text-anchor="middle" fill="#FFFFFF">-</text>
<circle cx="120.300000" cy="266.000000" r="1"/>
<line x1="115.300000" y1="271.000000" x2="118.300000" y2="272.000000"  transform="rotate(0.000000,118.300000,272.000000)" style="stroke: black; stroke-width:0.25;"/>
<line x1="115.300000" y1="273.000000" x2="118.300000" y2="272.000000"  transform="rotate(0.000000,118.300000,272.000000)" style="stroke: black; stroke-width:0.25;"/>
<line x1="115.300000" y1="279.000000" x2="118.300000" y2="280.000000"  transform="rotate(0.000000,118.300000,280.000000)" style="stroke: black; stroke-width:0.25;"/>
<line x1="115.300000" y1="281.000000" x2="118.300000" y2="280.000000"  transform="rotate(0.000000,118.300000,280.000000)" style="stroke: black; stroke-width:0.25;"/>
<rect x="151.300000" y="265.000000" width="25.800000" height="24.000000" rx="0" ry="0" style="stroke:none;fill:#cccccc;"/>
<rect x="150.300000" y="264.000000" width="25.800000" height="24.000000" rx="0" ry="0" style="stroke:none;fill:#4B71A1;"/>
<text x="163.200000" y="278.000000" font-family="Arial" font-size="7" text-anchor="middle" fill="#FFFFFF">float</text>
<circle cx="152.300000" cy="266.000000" r="1"/>
<line x1="147.300000" y1="275.000000" x2="150.300000" y2="276.000000"  transform="rotate(0.000000,150.300000,276.000000)" style="stroke: black; stroke-width:0.25;"/>
<line x1="147.300000" y1="277.000000" x2="150.300000" y2="276.000000"  transform="rotate(0.000000,150.300000,276.000000)" style="stroke: black; stroke-width:0.25;"/>
<rect x="116.200000" y="313.000000" width="24.000000" height="24.000000" rx="0" ry="0" style="stroke:none;fill:#cccccc;"/>
<rect x="115.200000" y="312.000000" width="24.000000" height="24.000000" rx="0" ry="0" style="stroke:none;fill:#f44800;"/>
<text x="127.200000" y="326.000000" font-family="Arial" font-size="7" text-anchor="middle" fill="#FFFFFF">4</text>
<circle cx="117.200000" cy="314.000000" r="1"/>
<rect x="193.100000" y="281.000000" width="24.000000" height="24.000000" rx="0" ry="0" style="stroke:none;fill:#cccccc;"/>
<rect x="192.100000" y="280.000000" width="24.000000" height="24.000000" rx="0" ry="0" style="stroke:none;fill:#4B71A1;"/>
<text x="204.100000" y="294.000000" font-family="Arial" font-size="7" text-anchor="middle" fill="#FFFFFF">/</text>
<circle cx="194.100000" cy="282.000000" r="1"/>
<line x1="189.100000" y1="287.000000" x2="192.100000" y2="288.000000"  transform="rotate(0.000000,192.100000,288.000000)" style="stroke: black; stroke-width:0.25;"/>
<line x1="189.100000" y1="289.000000" x2="192.100000" y2="288.000000"  transform="rotate(0.000000,192.100000,288.000000)" style="stroke: black; stroke-width:0.25;"/>
<line x1="189.100000" y1="295.000000" x2="192.100000" y2="296.000000"  transform="rotate(0.000000,192.100000,296.000000)" style="stroke: black; stroke-width:0.25;"/>
<line x1="189.100000" y1="297.000000" x2="192.100000" y2="296.000000"  transform="rotate(0.000000,192.100000,296.000000)" style="stroke: black; stroke-width:0.25;"/>
<rect x="287.400000" y="249.000000" width="24.000000" height="24.000000" rx="0" ry="0" style="stroke:none;fill:#cccccc;"/>
<rect x="286.400000" y="248.000000" width="24.000000" height="24.000000" rx="0" ry="0" style="stroke:none;fill:#4B71A1;"/>
<text x="298.400000" y="262.000000" font-family="Arial" font-size="7" text-anchor="middle" fill="#FFFFFF">+</text>
<circle cx="288.400000" cy="250.000000" r="1"/>
<line x1="283.400000" y1="255.000000" x2="286.400000" y2="256.000000"  transform="rotate(0.000000,286.400000,256.000000)" style="stroke: black; stroke-width:0.25;"/>
<line x1="283.400000" y1="257.000000" x2="286.400000" y2="256.000000"  transform="rotate(0.000000,286.400000,256.000000)" style="stroke: black; stroke-width:0.25;"/>
<line x1="283.400000" y1="263.000000" x2="286.400000" y2="264.000000"  transform="rotate(0.000000,286.400000,264.000000)" style="stroke: black; stroke-width:0.25;"/>
<line x1="283.400000" y1="265.000000" x2="286.400000" y2="264.000000"  transform="rotate(0.000000,286.400000,264.000000)" style="stroke: black; stroke-width:0.25;"/>
<rect x="156.200000" y="345.000000" width="24.000000" height="24.000000" rx="0" ry="0" style="stroke:none;fill:#cccccc;"/>
<rect x="155.200000" y="344.000000" width="24.000000" height="24.000000" rx="0" ry="0" style="stroke:none;fill:#f44800;"/>
<text x="167.200000" y="358.000000" font-family="Arial" font-size="7" text-anchor="middle" fill="#FFFFFF">1</text>
<circle cx="157.200000" cy="346.000000" r="1"/>
<rect x="327.400000" y="265.000000" width="25.800000" height="24.000000" rx="0" ry="0" style="stroke:none;fill:#cccccc;"/>
<rect x="326.400000" y="264.000000" width="25.800000" height="24.000000" rx="0" ry="0" style="stroke:none;fill:#4B71A1;"/>
<text x="339.300000" y="278.000000" font-family="Arial" font-size="7" text-anchor="middle" fill="#FFFFFF">fmod</text>
<circle cx="328.400000" cy="266.000000" r="1"/>
<line x1="323.400000" y1="271.000000" x2="326.400000" y2="272.000000"  transform="rotate(0.000000,326.400000,272.000000)" style="stroke: black; stroke-width:0.25;"/>
<line x1="323.400000" y1="273.000000" x2="326.400000" y2="272.000000"  transform="rotate(0.000000,326.400000,272.000000)" style="stroke: black; stroke-width:0.25;"/>
<line x1="323.400000" y1="279.000000" x2="326.400000" y2="280.000000"  transform="rotate(0.000000,326.400000,280.000000)" style="stroke: black; stroke-width:0.25;"/>
<line x1="323.400000" y1="281.000000" x2="326.400000" y2="280.000000"  transform="rotate(0.000000,326.400000,280.000000)" style="stroke: black; stroke-width:0.25;"/>
<rect x="177.100000" y="377.000000" width="24.000000" height="24.000000" rx="0" ry="0" style="stroke:none;fill:#cccccc;"/>
<rect x="176.100000" y="376.000000" width="24.000000" height="24.000000" rx="0" ry="0" style="stroke:none;fill:#f44800;"/>
<text x="188.100000" y="390.000000" font-family="Arial" font-size="7" text-anchor="middle" fill="#FFFFFF">0.5</text>
<circle cx="178.100000" cy="378.000000" r="1"/>
<rect x="369.200000" y="281.000000" width="24.000000" height="24.000000" rx="0" ry="0" style="stroke:none;fill:#cccccc;"/>
<rect x="368.200000" y="280.000000" width="24.000000" height="24.000000" rx="0" ry="0" style="stroke:none;fill:#4B71A1;"/>
<text x="380.200000" y="294.000000" font-family="Arial" font-size="7" text-anchor="middle" fill="#FFFFFF">-</text>
<circle cx="370.200000" cy="282.000000" r="1"/>
<line x1="365.200000" y1="287.000000" x2="368.200000" y2="288.000000"  transform="rotate(0.000000,368.200000,288.000000)" style="stroke: black; stroke-width:0.25;"/>
<line x1="365.200000" y1="289.000000" x2="368.200000" y2="288.000000"  transform="rotate(0.000000,368.200000,288.000000)" style="stroke: black; stroke-width:0.25;"/>
<line x1="365.200000" y1="295.000000" x2="368.200000" y2="296.000000"  transform="rotate(0.000000,368.200000,296.000000)" style="stroke: black; stroke-width:0.25;"/>
<line x1="365.200000" y1="297.000000" x2="368.200000" y2="296.000000"  transform="rotate(0.000000,368.200000,296.000000)" style="stroke: black; stroke-width:0.25;"/>
<rect x="401.200000" y="281.000000" width="24.000000" height="24.000000" rx="0" ry="0" style="stroke:none;fill:#cccccc;"/>
<rect x="400.200000" y="280.000000" width="24.000000" height="24.000000" rx="0" ry="0" style="stroke:none;fill:#4B71A1;"/>
<text x="412.200000" y="294.000000" font-family="Arial" font-size="7" text-anchor="middle" fill="#FFFFFF">abs</text>
<circle cx="402.200000" cy="282.000000" r="1"/>
<line x1="397.200000" y1="291.000000" x2="400.200000" y2="292.000000"  transform="rotate(0.000000,400.200000,292.000000)" style="stroke: black; stroke-width:0.25;"/>
<line x1="397.200000" y1="293.000000" x2="400.200000" y2="292.000000"  transform="rotate(0.000000,400.200000,292.000000)" style="stroke: black; stroke-width:0.25;"/>
<rect x="213.100000" y="409.000000" width="24.000000" height="24.000000" rx="0" ry="0" style="stroke:none;fill:#cccccc;"/>
<rect x="212.100000" y="408.000000" width="24.000000" height="24.000000" rx="0" ry="0" style="stroke:none;fill:#f44800;"/>
<text x="224.100000" y="422.000000" font-family="Arial" font-size="7" text-anchor="middle" fill="#FFFFFF">4</text>
<circle cx="214.100000" cy="410.000000" r="1"/>
<rect x="441.200000" y="297.000000" width="24.000000" height="24.000000" rx="0" ry="0" style="stroke:none;fill:#cccccc;"/>
<rect x="440.200000" y="296.000000" width="24.000000" height="24.000000" rx="0" ry="0" style="stroke:none;fill:#4B71A1;"/>
<text x="452.200000" y="310.000000" font-family="Arial" font-size="7" text-anchor="middle" fill="#FFFFFF">*</text>
<circle cx="442.200000" cy="298.000000" r="1"/>
<line x1="437.200000" y1="303.000000" x2="440.200000" y2="304.000000"  transform="rotate(0.000000,440.200000,304.000000)" style="stroke: black; stroke-width:0.25;"/>
<line x1="437.200000" y1="305.000000" x2="440.200000" y2="304.000000"  transform="rotate(0.000000,440.200000,304.000000)" style="stroke: black; stroke-width:0.25;"/>
<line x1="437.200000" y1="311.000000" x2="440.200000" y2="312.000000"  transform="rotate(0.000000,440.200000,312.000000)" style="stroke: black; stroke-width:0.25;"/>
<line x1="437.200000" y1="313.000000" x2="440.200000" y2="312.000000"  transform="rotate(0.000000,440.200000,312.000000)" style="stroke: black; stroke-width:0.25;"/>
<rect x="233.100000" y="441.000000" width="24.000000" height="24.000000" rx="0" ry="0" style="stroke:none;fill:#cccccc;"/>
<rect x="232.100000" y="440.000000" width="24.000000" height="24.000000" rx="0" ry="0" style="stroke:none;fill:#f44800;"/>
<text x="244.100000" y="454.000000" font-family="Arial" font-size="7" text-anchor="middle" fill="#FFFFFF">1</text>
<circle cx="234.100000" cy="442.000000" r="1"/>
<rect x="481.200000" y="313.000000" width="24.000000" height="24.000000" rx="0" ry="0" style="stroke:none;fill:#cccccc;"/>
<rect x="480.200000" y="312.000000" width="24.000000" height="24.000000" rx="0" ry="0" style="stroke:none;fill:#4B71A1;"/>
<text x="492.200000" y="326.000000" font-family="Arial" font-size="7" text-anchor="middle" fill="#FFFFFF">*</text>
<circle cx="482.200000" cy="314.000000" r="1"/>
<line x1="477.200000" y1="319.000000" x2="480.200000" y2="320.000000"  transform="rotate(0.000000,480.200000,320.000000)" style="stroke: black; stroke-width:0.25;"/>
<line x1="477.200000" y1="321.000000" x2="480.200000" y2="320.000000"  transform="rotate(0.000000,480.200000,320.000000)" style="stroke: black; stroke-width:0.25;"/>
<line x1="477.200000" y1="327.000000" x2="480.200000" y2="328.000000"  transform="rotate(0.000000,480.200000,328.000000)" style="stroke: black; stroke-width:0.25;"/>
<line x1="477.200000" y1="329.000000" x2="480.200000" y2="328.000000"  transform="rotate(0.000000,480.200000,328.000000)" style="stroke: black; stroke-width:0.25;"/>
<rect x="521.200000" y="297.000000" width="24.000000" height="24.000000" rx="0" ry="0" style="stroke:none;fill:#cccccc;"/>
<rect x="520.200000" y="296.000000" width="24.000000" height="24.000000" rx="0" ry="0" style="stroke:none;fill:#4B71A1;"/>
<text x="532.200000" y="310.000000" font-family="Arial" font-size="7" text-anchor="middle" fill="#FFFFFF">-</text>
<circle cx="522.200000" cy="298.000000" r="1"/>
<line x1="517.200000" y1="303.000000" x2="520.200000" y2="304.000000"  transform="rotate(0.000000,520.200000,304.000000)" style="stroke: black; stroke-width:0.25;"/>
<line x1="517.200000" y1="305.000000" x2="520.200000" y2="304.000000"  transform="rotate(0.000000,520.200000,304.000000)" style="stroke: black; stroke-width:0.25;"/>
<line x1="517.200000" y1="311.000000" x2="520.200000" y2="312.000000"  transform="rotate(0.000000,520.200000,312.000000)" style="stroke: black; stroke-width:0.25;"/>
<line x1="517.200000" y1="313.000000" x2="520.200000" y2="312.000000"  transform="rotate(0.000000,520.200000,312.000000)" style="stroke: black; stroke-width:0.25;"/>
<rect x="561.200000" y="281.000000" width="24.000000" height="24.000000" rx="0" ry="0" style="stroke:none;fill:#cccccc;"/>
<rect x="560.200000" y="280.000000" width="24.000000" height="24.000000" rx="0" ry="0" style="stroke:none;fill:#4B71A1;"/>
<text x="572.200000" y="294.000000" font-family="Arial" font-size="7" text-anchor="middle" fill="#FFFFFF">max</text>
<circle cx="562.200000" cy="282.000000" r="1"/>
<line x1="557.200000" y1="287.000000" x2="560.200000" y2="288.000000"  transform="rotate(0.000000,560.200000,288.000000)" style="stroke: black; stroke-width:0.25;"/>
<line x1="557.200000" y1="289.000000" x2="560.200000" y2="288.000000"  transform="rotate(0.000000,560.200000,288.000000)" style="stroke: black; stroke-width:0.25;"/>
<line x1="557.200000" y1="295.000000" x2="560.200000" y2="296.000000"  transform="rotate(0.000000,560.200000,296.000000)" style="stroke: black; stroke-width:0.25;"/>
<line x1="557.200000" y1="297.000000" x2="560.200000" y2="296.000000"  transform="rotate(0.000000,560.200000,296.000000)" style="stroke: black; stroke-width:0.25;"/>
<rect x="593.200000" y="281.000000" width="25.800000" height="24.000000" rx="0" ry="0" style="stroke:none;fill:#cccccc;"/>
<rect x="592.200000" y="280.000000" width="25.800000" height="24.000000" rx="0" ry="0" style="stroke:none;fill:#4B71A1;"/>
<text x="605.100000" y="294.000000" font-family="Arial" font-size="7" text-anchor="middle" fill="#FFFFFF">sqrt</text>
<circle cx="594.200000" cy="282.000000" r="1"/>
<line x1="589.200000" y1="291.000000" x2="592.200000" y2="292.000000"  transform="rotate(0.000000,592.200000,292.000000)" style="stroke: black; stroke-width:0.25;"/>
<line x1="589.200000" y1="293.000000" x2="592.200000" y2="292.000000"  transform="rotate(0.000000,592.200000,292.000000)" style="stroke: black; stroke-width:0.25;"/>
<rect x="635.000000" y="233.000000" width="24.000000" height="24.000000" rx="0" ry="0" style="stroke:none;fill:#cccccc;"/>
<rect x="634.000000" y="232.000000" width="24.000000" height="24.000000" rx="0" ry="0" style="stroke:none;fill:#4B71A1;"/>
<text x="646.000000" y="246.000000" font-family="Arial" font-size="7" text-anchor="middle" fill="#FFFFFF">*</text>
<circle cx="636.000000" cy="234.000000" r="1"/>
<line x1="631.000000" y1="239.000000" x2="634.000000" y2="240.000000"  transform="rotate(0.000000,634.000000,240.000000)" style="stroke: black; stroke-width:0.25;"/>
<line x1="631.000000" y1="241.000000" x2="634.000000" y2="240.000000"  transform="rotate(0.000000,634.000000,240.000000)" style="stroke: black; stroke-width:0.25;"/>
<line x1="631.000000" y1="247.000000" x2="634.000000" y2="248.000000"  transform="rotate(0.000000,634.000000,248.000000)" style="stroke: black; stroke-width:0.25;"/>
<line x1="631.000000" y1="249.000000" x2="634.000000" y2="248.000000"  transform="rotate(0.000000,634.000000,248.000000)" style="stroke: black; stroke-width:0.25;"/>
<line x1="15.000000" y1="15.000000" x2="15.000000" y2="473.000000"  style="stroke: black; stroke-linecap:round; stroke-width:0.25; stroke-dasharray:3,3;"/>
<line x1="15.000000" y1="473.000000" x2="675.000000" y2="473.000000"  style="stroke: black; stroke-linecap:round; stroke-width:0.25; stroke-dasharray:3,3;"/>
<line x1="675.000000" y1="473.000000" x2="675.000000" y2="15.000000"  style="stroke: black; stroke-linecap:round; stroke-width:0.25; stroke-dasharray:3,3;"/>
<line x1="15.000000" y1="15.000000" x2="20.000000" y2="15.000000"  style="stroke: black; stroke-linecap:round; stroke-width:0.25; stroke-dasharray:3,3;"/>
<line x1="129.650000" y1="15.000000" x2="675.000000" y2="15.000000"  style="stroke: black; stroke-linecap:round; stroke-width:0.25; stroke-dasharray:3,3;"/>
<text x="20.000000" y="17.000000" font-family="Arial" font-size="7">scaler(1)(4)(...1.0f, 0.01f))(1)</text>
<line x1="677.000000" y1="243.000000" x2="680.000000" y2="244.000000"  transform="rotate(0.000000,680.000000,244.000000)" style="stroke: black; stroke-width:0.25;"/>
<line x1="677.000000" y1="245.000000" x2="680.000000" y2="244.000000"  transform="rotate(0.000000,680.000000,244.000000)" style="stroke: black; stroke-width:0.25;"/>
<line x1="102.300000" y1="260.000000" x2="106.300000" y2="260.000000"  style="stroke:black; stroke-linecap:round; stroke-width:0.25;"/>
<line x1="102.300000" y1="292.000000" x2="106.300000" y2="292.000000"  style="stroke:black; stroke-linecap:round; stroke-width:0.25;"/>
<line x1="106.300000" y1="260.000000" x2="114.300000" y2="260.000000"  style="stroke:black; stroke-linecap:round; stroke-width:0.25;"/>
<line x1="106.300000" y1="280.000000" x2="114.300000" y2="280.000000"  style="stroke:black; stroke-linecap:round; stroke-width:0.25;"/>
<line x1="106.300000" y1="292.000000" x2="106.300000" y2="280.000000"  style="stroke:black; stroke-linecap:round; stroke-width:0.25;"/>
<line x1="106.300000" y1="292.000000" x2="106.300000" y2="292.000000"  style="stroke:black; stroke-linecap:round; stroke-width:0.25;"/>
<line x1="114.300000" y1="260.000000" x2="114.300000" y2="272.000000"  style="stroke:black; stroke-linecap:round; stroke-width:0.25;"/>
<line x1="114.300000" y1="272.000000" x2="114.300000" y2="272.000000"  style="stroke:black; stroke-linecap:round; stroke-width:0.25;"/>
<line x1="114.300000" y1="272.000000" x2="118.300000" y2="272.000000"  style="stroke:black; stroke-linecap:round; stroke-width:0.25;"/>
<line x1="114.300000" y1="280.000000" x2="118.300000" y2="280.000000"  style="stroke:black; stroke-linecap:round; stroke-width:0.25;"/>
<line x1="139.200000" y1="228.000000" x2="143.200000" y2="228.000000"  style="stroke:black; stroke-linecap:round; stroke-width:0.25;"/>
<line x1="139.200000" y1="324.000000" x2="143.200000" y2="324.000000"  style="stroke:black; stroke-linecap:round; stroke-width:0.25;"/>
<line x1="142.300000" y1="276.000000" x2="146.300000" y2="276.000000"  style="stroke:black; stroke-linecap:round; stroke-width:0.25;"/>
<line x1="143.200000" y1="228.000000" x2="234.400000" y2="228.000000"  style="stroke:black; stroke-linecap:round; stroke-width:0.25;"/>
<line x1="143.200000" y1="324.000000" x2="180.100000" y2="324.000000"  style="stroke:black; stroke-linecap:round; stroke-width:0.25;"/>
<line x1="146.300000" y1="276.000000" x2="146.300000" y2="276.000000"  style="stroke:black; stroke-linecap:round; stroke-width:0.25;"/>
<line x1="146.300000" y1="276.000000" x2="150.300000" y2="276.000000"  style="stroke:black; stroke-linecap:round; stroke-width:0.25;"/>
<line x1="176.100000" y1="276.000000" x2="180.100000" y2="276.000000"  style="stroke:black; stroke-linecap:round; stroke-width:0.25;"/>
<line x1="179.200000" y1="356.000000" x2="183.200000" y2="356.000000"  style="stroke:black; stroke-linecap:round; stroke-width:0.25;"/>
<line x1="180.100000" y1="276.000000" x2="188.100000" y2="276.000000"  style="stroke:black; stroke-linecap:round; stroke-width:0.25;"/>
<line x1="180.100000" y1="296.000000" x2="188.100000" y2="296.000000"  style="stroke:black; stroke-linecap:round; stroke-width:0.25;"/>
<line x1="180.100000" y1="324.000000" x2="180.100000" y2="296.000000"  style="stroke:black; stroke-linecap:round; stroke-width:0.25;"/>
<line x1="180.100000" y1="324.000000" x2="180.100000" y2="324.000000"  style="stroke:black; stroke-linecap:round; stroke-width:0.25;"/>
<line x1="183.200000" y1="356.000000" x2="314.400000" y2="356.000000"  style="stroke:black; stroke-linecap:round; stroke-width:0.25;"/>
<line x1="188.100000" y1="276.000000" x2="188.100000" y2="288.000000"  style="stroke:black; stroke-linecap:round; stroke-width:0.25;"/>
<line x1="188.100000" y1="288.000000" x2="188.100000" y2="288.000000"  style="stroke:black; stroke-linecap:round; stroke-width:0.25;"/>
<line x1="188.100000" y1="288.000000" x2="192.100000" y2="288.000000"  style="stroke:black; stroke-linecap:round; stroke-width:0.25;"/>
<line x1="188.100000" y1="296.000000" x2="192.100000" y2="296.000000"  style="stroke:black; stroke-linecap:round; stroke-width:0.25;"/>
<line x1="200.100000" y1="388.000000" x2="204.100000" y2="388.000000"  style="stroke:black; stroke-linecap:round; stroke-width:0.25;"/>
<line x1="204.100000" y1="388.000000" x2="356.200000" y2="388.000000"  style="stroke:black; stroke-linecap:round; stroke-width:0.25;"/>
<line x1="216.100000" y1="292.000000" x2="220.100000" y2="292.000000"  style="stroke:black; stroke-linecap:round; stroke-width:0.25;"/>
<line x1="220.100000" y1="292.000000" x2="274.400000" y2="292.000000"  style="stroke:black; stroke-linecap:round; stroke-width:0.25;"/>
<line x1="230.400000" y1="196.000000" x2="234.400000" y2="196.000000"  style="stroke:black; stroke-linecap:round; stroke-width:0.25;"/>
<line x1="234.400000" y1="196.000000" x2="242.400000" y2="196.000000"  style="stroke:black; stroke-linecap:round; stroke-width:0.25;"/>
<line x1="234.400000" y1="216.000000" x2="242.400000" y2="216.000000"  style="stroke:black; stroke-linecap:round; stroke-width:0.25;"/>
<line x1="234.400000" y1="228.000000" x2="234.400000" y2="216.000000"  style="stroke:black; stroke-linecap:round; stroke-width:0.25;"/>
<line x1="234.400000" y1="228.000000" x2="234.400000" y2="228.000000"  style="stroke:black; stroke-linecap:round; stroke-width:0.25;"/>
<line x1="236.100000" y1="420.000000" x2="240.100000" y2="420.000000"  style="stroke:black; stroke-linecap:round; stroke-width:0.25;"/>
<line x1="240.100000" y1="420.000000" x2="428.200000" y2="420.000000"  style="stroke:black; stroke-linecap:round; stroke-width:0.25;"/>
<line x1="242.400000" y1="196.000000" x2="242.400000" y2="208.000000"  style="stroke:black; stroke-linecap:round; stroke-width:0.25;"/>
<line x1="242.400000" y1="208.000000" x2="242.400000" y2="208.000000"  style="stroke:black; stroke-linecap:round; stroke-width:0.25;"/>
<line x1="242.400000" y1="208.000000" x2="246.400000" y2="208.000000"  style="stroke:black; stroke-linecap:round; stroke-width:0.25;"/>
<line x1="242.400000" y1="216.000000" x2="246.400000" y2="216.000000"  style="stroke:black; stroke-linecap:round; stroke-width:0.25;"/>
<line x1="256.100000" y1="452.000000" x2="260.100000" y2="452.000000"  style="stroke:black; stroke-linecap:round; stroke-width:0.25;"/>
<line x1="260.100000" y1="452.000000" x2="468.200000" y2="452.000000"  style="stroke:black; stroke-linecap:round; stroke-width:0.25;"/>
<line x1="270.400000" y1="212.000000" x2="274.400000" y2="212.000000"  style="stroke:black; stroke-linecap:round; stroke-width:0.25;"/>
<line x1="274.400000" y1="212.000000" x2="282.400000" y2="212.000000"  style="stroke:black; stroke-linecap:round; stroke-width:0.25;"/>
<line x1="274.400000" y1="264.000000" x2="282.400000" y2="264.000000"  style="stroke:black; stroke-linecap:round; stroke-width:0.25;"/>
<line x1="274.400000" y1="292.000000" x2="274.400000" y2="264.000000"  style="stroke:black; stroke-linecap:round; stroke-width:0.25;"/>
<line x1="274.400000" y1="292.000000" x2="274.400000" y2="292.000000"  style="stroke:black; stroke-linecap:round; stroke-width:0.25;"/>
<line x1="276.100000" y1="164.000000" x2="280.100000" y2="164.000000"  style="stroke:black; stroke-linecap:round; stroke-width:0.25;"/>
<line x1="280.100000" y1="164.000000" x2="508.200000" y2="164.000000"  style="stroke:black; stroke-linecap:round; stroke-width:0.25;"/>
<line x1="282.400000" y1="212.000000" x2="282.400000" y2="256.000000"  style="stroke:black; stroke-linecap:round; stroke-width:0.25;"/>
<line x1="282.400000" y1="256.000000" x2="282.400000" y2="256.000000"  style="stroke:black; stroke-linecap:round; stroke-width:0.25;"/>
<line x1="282.400000" y1="256.000000" x2="286.400000" y2="256.000000"  style="stroke:black; stroke-linecap:round; stroke-width:0.25;"/>
<line x1="282.400000" y1="264.000000" x2="286.400000" y2="264.000000"  style="stroke:black; stroke-linecap:round; stroke-width:0.25;"/>
<line x1="293.000000" y1="36.000000" x2="297.000000" y2="36.000000"  style="stroke:black; stroke-linecap:round; stroke-width:0.25;"/>
<line x1="293.000000" y1="68.000000" x2="297.000000" y2="68.000000"  style="stroke:black; stroke-linecap:round; stroke-width:0.25;"/>
<line x1="296.100000" y1="132.000000" x2="300.100000" y2="132.000000"  style="stroke:black; stroke-linecap:round; stroke-width:0.25;"/>
<line x1="297.000000" y1="36.000000" x2="305.000000" y2="36.000000"  style="stroke:black; stroke-linecap:round; stroke-width:0.25;"/>
<line x1="297.000000" y1="56.000000" x2="305.000000" y2="56.000000"  style="stroke:black; stroke-linecap:round; stroke-width:0.25;"/>
<line x1="297.000000" y1="68.000000" x2="297.000000" y2="56.000000"  style="stroke:black; stroke-linecap:round; stroke-width:0.25;"/>
<line x1="297.000000" y1="68.000000" x2="297.000000" y2="68.000000"  style="stroke:black; stroke-linecap:round; stroke-width:0.25;"/>
<line x1="300.100000" y1="132.000000" x2="548.200000" y2="132.000000"  style="stroke:black; stroke-linecap:round; stroke-width:0.25;"/>
<line x1="305.000000" y1="36.000000" x2="305.000000" y2="48.000000"  style="stroke:black; stroke-linecap:round; stroke-width:0.25;"/>
<line x1="305.000000" y1="48.000000" x2="305.000000" y2="48.000000"  style="stroke:black; stroke-linecap:round; stroke-width:0.25;"/>
<line x1="305.000000" y1="48.000000" x2="309.000000" y2="48.000000"  style="stroke:black; stroke-linecap:round; stroke-width:0.25;"/>
<line x1="305.000000" y1="56.000000" x2="309.000000" y2="56.000000"  style="stroke:black; stroke-linecap:round; stroke-width:0.25;"/>
<line x1="310.400000" y1="260.000000" x2="314.400000" y2="260.000000"  style="stroke:black; stroke-linecap:round; stroke-width:0.25;"/>
<line x1="313.000000" y1="100.000000" x2="317.000000" y2="100.000000"  style="stroke:black; stroke-linecap:round; stroke-width:0.25;"/>
<line x1="314.400000" y1="260.000000" x2="322.400000" y2="260.000000"  style="stroke:black; stroke-linecap:round; stroke-width:0.25;"/>
<line x1="314.400000" y1="280.000000" x2="322.400000" y2="280.000000"  style="stroke:black; stroke-linecap:round; stroke-width:0.25;"/>
<line x1="314.400000" y1="356.000000" x2="314.400000" y2="280.000000"  style="stroke:black; stroke-linecap:round; stroke-width:0.25;"/>
<line x1="314.400000" y1="356.000000" x2="314.400000" y2="356.000000"  style="stroke:black; stroke-linecap:round; stroke-width:0.25;"/>
<line x1="317.000000" y1="100.000000" x2="337.000000" y2="100.000000"  style="stroke:black; stroke-linecap:round; stroke-width:0.25;"/>
<line x1="322.400000" y1="260.000000" x2="322.400000" y2="272.000000"  style="stroke:black; stroke-linecap:round; stroke-width:0.25;"/>
<line x1="322.400000" y1="272.000000" x2="322.400000" y2="272.000000"  style="stroke:black; stroke-linecap:round; stroke-width:0.25;"/>
<line x1="322.400000" y1="272.000000" x2="326.400000" y2="272.000000"  style="stroke:black; stroke-linecap:round; stroke-width:0.25;"/>
<line x1="322.400000" y1="280.000000" x2="326.400000" y2="280.000000"  style="stroke:black; stroke-linecap:round; stroke-width:0.25;"/>
<line x1="333.000000" y1="52.000000" x2="337.000000" y2="52.000000"  style="stroke:black; stroke-linecap:round; stroke-width:0.25;"/>
<line x1="337.000000" y1="52.000000" x2="345.000000" y2="52.000000"  style="stroke:black; stroke-linecap:round; stroke-width:0.25;"/>
<line x1="337.000000" y1="72.000000" x2="345.000000" y2="72.000000"  style="stroke:black; stroke-linecap:round; stroke-width:0.25;"/>
<line x1="337.000000" y1="100.000000" x2="337.000000" y2="72.000000"  style="stroke:black; stroke-linecap:round; stroke-width:0.25;"/>
<line x1="337.000000" y1="100.000000" x2="337.000000" y2="100.000000"  style="stroke:black; stroke-linecap:round; stroke-width:0.25;"/>
<line x1="345.000000" y1="52.000000" x2="345.000000" y2="64.000000"  style="stroke:black; stroke-linecap:round; stroke-width:0.25;"/>
<line x1="345.000000" y1="64.000000" x2="345.000000" y2="64.000000"  style="stroke:black; stroke-linecap:round; stroke-width:0.25;"/>
<line x1="345.000000" y1="64.000000" x2="349.000000" y2="64.000000"  style="stroke:black; stroke-linecap:round; stroke-width:0.25;"/>
<line x1="345.000000" y1="72.000000" x2="349.000000" y2="72.000000"  style="stroke:black; stroke-linecap:round; stroke-width:0.25;"/>
<line x1="352.200000" y1="276.000000" x2="356.200000" y2="276.000000"  style="stroke:black; stroke-linecap:round; stroke-width:0.25;"/>
<line x1="356.200000" y1="276.000000" x2="364.200000" y2="276.000000"  style="stroke:black; stroke-linecap:round; stroke-width:0.25;"/>
<line x1="356.200000" y1="296.000000" x2="364.200000" y2="296.000000"  style="stroke:black; stroke-linecap:round; stroke-width:0.25;"/>
<line x1="356.200000" y1="388.000000" x2="356.200000" y2="296.000000"  style="stroke:black; stroke-linecap:round; stroke-width:0.25;"/>
<line x1="356.200000" y1="388.000000" x2="356.200000" y2="388.000000"  style="stroke:black; stroke-linecap:round; stroke-width:0.25;"/>
<line x1="364.200000" y1="276.000000" x2="364.200000" y2="288.000000"  style="stroke:black; stroke-linecap:round; stroke-width:0.25;"/>
<line x1="364.200000" y1="288.000000" x2="364.200000" y2="288.000000"  style="stroke:black; stroke-linecap:round; stroke-width:0.25;"/>
<line x1="364.200000" y1="288.000000" x2="368.200000" y2="288.000000"  style="stroke:black; stroke-linecap:round; stroke-width:0.25;"/>
<line x1="364.200000" y1="296.000000" x2="368.200000" y2="296.000000"  style="stroke:black; stroke-linecap:round; stroke-width:0.25;"/>
<line x1="373.000000" y1="68.000000" x2="377.000000" y2="68.000000"  style="stroke:black; stroke-linecap:round; stroke-width:0.25;"/>
<line x1="377.000000" y1="68.000000" x2="622.000000" y2="68.000000"  style="stroke:black; stroke-linecap:round; stroke-width:0.25;"/>
<line x1="392.200000" y1="292.000000" x2="396.200000" y2="292.000000"  style="stroke:black; stroke-linecap:round; stroke-width:0.25;"/>
<line x1="396.200000" y1="292.000000" x2="396.200000" y2="292.000000"  style="stroke:black; stroke-linecap:round; stroke-width:0.25;"/>
<line x1="396.200000" y1="292.000000" x2="400.200000" y2="292.000000"  style="stroke:black; stroke-linecap:round; stroke-width:0.25;"/>
<line x1="424.200000" y1="292.000000" x2="428.200000" y2="292.000000"  style="stroke:black; stroke-linecap:round; stroke-width:0.25;"/>
<line x1="428.200000" y1="292.000000" x2="436.200000" y2="292.000000"  style="stroke:black; stroke-linecap:round; stroke-width:0.25;"/>
<line x1="428.200000" y1="312.000000" x2="436.200000" y2="312.000000"  style="stroke:black; stroke-linecap:round; stroke-width:0.25;"/>
<line x1="428.200000" y1="420.000000" x2="428.200000" y2="312.000000"  style="stroke:black; stroke-linecap:round; stroke-width:0.25;"/>
<line x1="428.200000" y1="420.000000" x2="428.200000" y2="420.000000"  style="stroke:black; stroke-linecap:round; stroke-width:0.25;"/>
<line x1="436.200000" y1="292.000000" x2="436.200000" y2="304.000000"  style="stroke:black; stroke-linecap:round; stroke-width:0.25;"/>
<line x1="436.200000" y1="304.000000" x2="436.200000" y2="304.000000"  style="stroke:black; stroke-linecap:round; stroke-width:0.25;"/>
<line x1="436.200000" y1="304.000000" x2="440.200000" y2="304.000000"  style="stroke:black; stroke-linecap:round; stroke-width:0.25;"/>
<line x1="436.200000" y1="312.000000" x2="440.200000" y2="312.000000"  style="stroke:black; stroke-linecap:round; stroke-width:0.25;"/>
<line x1="464.200000" y1="308.000000" x2="468.200000" y2="308.000000"  style="stroke:black; stroke-linecap:round; stroke-width:0.25;"/>
<line x1="468.200000" y1="308.000000" x2="476.200000" y2="308.000000"  style="stroke:black; stroke-linecap:round; stroke-width:0.25;"/>
<line x1="468.200000" y1="328.000000" x2="476.200000" y2="328.000000"  style="stroke:black; stroke-linecap:round; stroke-width:0.25;"/>
<line x1="468.200000" y1="452.000000" x2="468.200000" y2="328.000000"  style="stroke:black; stroke-linecap:round; stroke-width:0.25;"/>
<line x1="468.200000" y1="452.000000" x2="468.200000" y2="452.000000"  style="stroke:black; stroke-linecap:round; stroke-width:0.25;"/>
<line x1="476.200000" y1="308.000000" x2="476.200000" y2="320.000000"  style="stroke:black; stroke-linecap:round; stroke-width:0.25;"/>
<line x1="476.200000" y1="320.000000" x2="476.200000" y2="320.000000"  style="stroke:black; stroke-linecap:round; stroke-width:0.25;"/>
<line x1="476.200000" y1="320.000000" x2="480.200000" y2="320.000000"  style="stroke:black; stroke-linecap:round; stroke-width:0.25;"/>
<line x1="476.200000" y1="328.000000" x2="480.200000" y2="328.000000"  style="stroke:black; stroke-linecap:round; stroke-width:0.25;"/>
<line x1="504.200000" y1="324.000000" x2="508.200000" y2="324.000000"  style="stroke:black; stroke-linecap:round; stroke-width:0.25;"/>
<line x1="508.200000" y1="312.000000" x2="516.200000" y2="312.000000"  style="stroke:black; stroke-linecap:round; stroke-width:0.25;"/>
<line x1="508.200000" y1="324.000000" x2="508.200000" y2="312.000000"  style="stroke:black; stroke-linecap:round; stroke-width:0.25;"/>
<line x1="508.200000" y1="324.000000" x2="508.200000" y2="324.000000"  style="stroke:black; stroke-linecap:round; stroke-width:0.25;"/>
<line x1="508.200000" y1="164.000000" x2="516.200000" y2="164.000000"  style="stroke:black; stroke-linecap:round; stroke-width:0.25;"/>
<line x1="516.200000" y1="164.000000" x2="516.200000" y2="304.000000"  style="stroke:black; stroke-linecap:round; stroke-width:0.25;"/>
<line x1="516.200000" y1="304.000000" x2="516.200000" y2="304.000000"  style="stroke:black; stroke-linecap:round; stroke-width:0.25;"/>
<line x1="516.200000" y1="304.000000" x2="520.200000" y2="304.000000"  style="stroke:black; stroke-linecap:round; stroke-width:0.25;"/>
<line x1="516.200000" y1="312.000000" x2="520.200000" y2="312.000000"  style="stroke:black; stroke-linecap:round; stroke-width:0.25;"/>
<line x1="544.200000" y1="308.000000" x2="548.200000" y2="308.000000"  style="stroke:black; stroke-linecap:round; stroke-width:0.25;"/>
<line x1="548.200000" y1="132.000000" x2="556.200000" y2="132.000000"  style="stroke:black; stroke-linecap:round; stroke-width:0.25;"/>
<line x1="548.200000" y1="296.000000" x2="556.200000" y2="296.000000"  style="stroke:black; stroke-linecap:round; stroke-width:0.25;"/>
<line x1="548.200000" y1="308.000000" x2="548.200000" y2="296.000000"  style="stroke:black; stroke-linecap:round; stroke-width:0.25;"/>
<line x1="548.200000" y1="308.000000" x2="548.200000" y2="308.000000"  style="stroke:black; stroke-linecap:round; stroke-width:0.25;"/>
<line x1="556.200000" y1="132.000000" x2="556.200000" y2="288.000000"  style="stroke:black; stroke-linecap:round; stroke-width:0.25;"/>
<line x1="556.200000" y1="288.000000" x2="556.200000" y2="288.000000"  style="stroke:black; stroke-linecap:round; stroke-width:0.25;"/>
<line x1="556.200000" y1="288.000000" x2="560.200000" y2="288.000000"  style="stroke:black; stroke-linecap:round; stroke-width:0.25;"/>
<line x1="556.200000" y1="296.000000" x2="560.200000" y2="296.000000"  style="stroke:black; stroke-linecap:round; stroke-width:0.25;"/>
<line x1="584.200000" y1="292.000000" x2="588.200000" y2="292.000000"  style="stroke:black; stroke-linecap:round; stroke-width:0.25;"/>
<line x1="588.200000" y1="292.000000" x2="588.200000" y2="292.000000"  style="stroke:black; stroke-linecap:round; stroke-width:0.25;"/>
<line x1="588.200000" y1="292.000000" x2="592.200000" y2="292.000000"  style="stroke:black; stroke-linecap:round; stroke-width:0.25;"/>
<line x1="618.000000" y1="292.000000" x2="622.000000" y2="292.000000"  style="stroke:black; stroke-linecap:round; stroke-width:0.25;"/>
<line x1="622.000000" y1="68.000000" x2="630.000000" y2="68.000000"  style="stroke:black; stroke-linecap:round; stroke-width:0.25;"/>
<line x1="622.000000" y1="248.000000" x2="630.000000" y2="248.000000"  style="stroke:black; stroke-linecap:round; stroke-width:0.25;"/>
<line x1="622.000000" y1="292.000000" x2="622.000000" y2="248.000000"  style="stroke:black; stroke-linecap:round; stroke-width:0.25;"/>
<line x1="622.000000" y1="292.000000" x2="622.000000" y2="292.000000"  style="stroke:black; stroke-linecap:round; stroke-width:0.25;"/>
<line x1="630.000000" y1="68.000000" x2="630.000000" y2="240.000000"  style="stroke:black; stroke-linecap:round; stroke-width:0.25;"/>
<line x1="630.000000" y1="240.000000" x2="630.000000" y2="240.000000"  style="stroke:black; stroke-linecap:round; stroke-width:0.25;"/>
<line x1="630.000000" y1="240.000000" x2="634.000000" y2="240.000000"  style="stroke:black; stroke-linecap:round; stroke-width:0.25;"/>
<line x1="630.000000" y1="248.000000" x2="634.000000" y2="248.000000"  style="stroke:black; stroke-linecap:round; stroke-width:0.25;"/>
<line x1="658.000000" y1="244.000000" x2="662.000000" y2="244.000000"  style="stroke:black; stroke-linecap:round; stroke-width:0.25;"/>
<line x1="662.000000" y1="244.000000" x2="662.000000" y2="244.000000"  style="stroke:black; stroke-linecap:round; stroke-width:0.25;"/>
<line x1="662.000000" y1="244.000000" x2="666.000000" y2="244.000000"  style="stroke:black; stroke-linecap:round; stroke-width:0.25;"/>
<line x1="666.000000" y1="244.000000" x2="670.000000" y2="244.000000"  style="stroke:black; stroke-linecap:round; stroke-width:0.25;"/>
<line x1="670.000000" y1="244.000000" x2="680.000000" y2="244.000000"  style="stroke:black; stroke-linecap:round; stroke-width:0.25;"/>
</svg>
