<?xml version="1.0"?>
<svg xmlns="http://www.w3.org/2000/svg" xmlns:xlink="http://www.w3.org/1999/xlink" viewBox="0 0 384.400000 200.000000" width="192.200000mm" height="100.000000mm" version="1.1">
<a xlink:href="PGM2-0x7fa3c6d7e3d0.svg">
<rect x="1.000000" y="1.000000" width="383.400000" height="199.000000" rx="0" ry="0" style="stroke:none;fill:#cccccc;"/>
<rect x="0.000000" y="0.000000" width="383.400000" height="199.000000" rx="0" ry="0" style="stroke:none;fill:#ffffff;"/>
</a>
<text x="10.000000" y="7.000000" font-family="Arial" font-size="7"></text>
<a xlink:href="scaler-0x7fa3c44a8ca0.svg">
<rect x="83.000000" y="33.000000" width="141.900000" height="24.000000" rx="0" ry="0" style="stroke:none;fill:#cccccc;"/>
<rect x="82.000000" y="32.000000" width="141.900000" height="24.000000" rx="0" ry="0" style="stroke:none;fill:#003366;"/>
</a>
<a xlink:href="scaler-0x7fa3c44a8ca0.svg">
<text x="152.950000" y="46.000000" font-family="Arial" font-size="7" text-anchor="middle" fill="#FFFFFF">scaler(0)(4)(...1.0f, 0.01f))(1)</text>
</a>
<circle cx="84.000000" cy="34.000000" r="1"/>
<a xlink:href="smooth-0x7fa3c4497230.svg">
<rect x="232.900000" y="33.000000" width="64.500000" height="24.000000" rx="0" ry="0" style="stroke:none;fill:#cccccc;"/>
<rect x="231.900000" y="32.000000" width="64.500000" height="24.000000" rx="0" ry="0" style="stroke:none;fill:#003366;"/>
</a>
<a xlink:href="smooth-0x7fa3c4497230.svg">
<text x="264.150000" y="46.000000" font-family="Arial" font-size="7" text-anchor="middle" fill="#FFFFFF">smooth(0.9999f)</text>
</a>
<circle cx="233.900000" cy="34.000000" r="1"/>
<line x1="228.900000" y1="43.000000" x2="231.900000" y2="44.000000"  transform="rotate(0.000000,231.900000,44.000000)" style="stroke: black; stroke-width:0.25;"/>
<line x1="228.900000" y1="45.000000" x2="231.900000" y2="44.000000"  transform="rotate(0.000000,231.900000,44.000000)" style="stroke: black; stroke-width:0.25;"/>
<rect x="313.400000" y="29.000000" width="24.000000" height="24.000000" rx="0" ry="0" style="stroke:none;fill:#cccccc;"/>
<rect x="312.400000" y="28.000000" width="24.000000" height="24.000000" rx="0" ry="0" style="stroke:none;fill:#4B71A1;"/>
<text x="324.400000" y="42.000000" font-family="Arial" font-size="7" text-anchor="middle" fill="#FFFFFF">*</text>
<circle cx="314.400000" cy="30.000000" r="1"/>
<line x1="309.400000" y1="35.000000" x2="312.400000" y2="36.000000"  transform="rotate(0.000000,312.400000,36.000000)" style="stroke: black; stroke-width:0.25;"/>
<line x1="309.400000" y1="37.000000" x2="312.400000" y2="36.000000"  transform="rotate(0.000000,312.400000,36.000000)" style="stroke: black; stroke-width:0.25;"/>
<line x1="309.400000" y1="43.000000" x2="312.400000" y2="44.000000"  transform="rotate(0.000000,312.400000,44.000000)" style="stroke: black; stroke-width:0.25;"/>
<line x1="309.400000" y1="45.000000" x2="312.400000" y2="44.000000"  transform="rotate(0.000000,312.400000,44.000000)" style="stroke: black; stroke-width:0.25;"/>
<a xlink:href="scaler-0x7fa3c44a2b30.svg">
<rect x="83.000000" y="73.000000" width="141.900000" height="24.000000" rx="0" ry="0" style="stroke:none;fill:#cccccc;"/>
<rect x="82.000000" y="72.000000" width="141.900000" height="24.000000" rx="0" ry="0" style="stroke:none;fill:#003366;"/>
</a>
<a xlink:href="scaler-0x7fa3c44a2b30.svg">
<text x="152.950000" y="86.000000" font-family="Arial" font-size="7" text-anchor="middle" fill="#FFFFFF">scaler(1)(4)(...1.0f, 0.01f))(1)</text>
</a>
<circle cx="84.000000" cy="74.000000" r="1"/>
<a xlink:href="smooth-0x7fa3c4497230.svg">
<rect x="232.900000" y="73.000000" width="64.500000" height="24.000000" rx="0" ry="0" style="stroke:none;fill:#cccccc;"/>
<rect x="231.900000" y="72.000000" width="64.500000" height="24.000000" rx="0" ry="0" style="stroke:none;fill:#003366;"/>
</a>
<a xlink:href="smooth-0x7fa3c4497230.svg">
<text x="264.150000" y="86.000000" font-family="Arial" font-size="7" text-anchor="middle" fill="#FFFFFF">smooth(0.9999f)</text>
</a>
<circle cx="233.900000" cy="74.000000" r="1"/>
<line x1="228.900000" y1="83.000000" x2="231.900000" y2="84.000000"  transform="rotate(0.000000,231.900000,84.000000)" style="stroke: black; stroke-width:0.25;"/>
<line x1="228.900000" y1="85.000000" x2="231.900000" y2="84.000000"  transform="rotate(0.000000,231.900000,84.000000)" style="stroke: black; stroke-width:0.25;"/>
<rect x="313.400000" y="69.000000" width="24.000000" height="24.000000" rx="0" ry="0" style="stroke:none;fill:#cccccc;"/>
<rect x="312.400000" y="68.000000" width="24.000000" height="24.000000" rx="0" ry="0" style="stroke:none;fill:#4B71A1;"/>
<text x="324.400000" y="82.000000" font-family="Arial" font-size="7" text-anchor="middle" fill="#FFFFFF">*</text>
<circle cx="314.400000" cy="70.000000" r="1"/>
<line x1="309.400000" y1="75.000000" x2="312.400000" y2="76.000000"  transform="rotate(0.000000,312.400000,76.000000)" style="stroke: black; stroke-width:0.25;"/>
<line x1="309.400000" y1="77.000000" x2="312.400000" y2="76.000000"  transform="rotate(0.000000,312.400000,76.000000)" style="stroke: black; stroke-width:0.25;"/>
<line x1="309.400000" y1="83.000000" x2="312.400000" y2="84.000000"  transform="rotate(0.000000,312.400000,84.000000)" style="stroke: black; stroke-width:0.25;"/>
<line x1="309.400000" y1="85.000000" x2="312.400000" y2="84.000000"  transform="rotate(0.000000,312.400000,84.000000)" style="stroke: black; stroke-width:0.25;"/>
<a xlink:href="scaler-0x7fa3c449ca90.svg">
<rect x="83.000000" y="113.000000" width="141.900000" height="24.000000" rx="0" ry="0" style="stroke:none;fill:#cccccc;"/>
<rect x="82.000000" y="112.000000" width="141.900000" height="24.000000" rx="0" ry="0" style="stroke:none;fill:#003366;"/>
</a>
<a xlink:href="scaler-0x7fa3c449ca90.svg">
<text x="152.950000" y="126.000000" font-family="Arial" font-size="7" text-anchor="middle" fill="#FFFFFF">scaler(2)(4)(...1.0f, 0.01f))(1)</text>
</a>
<circle cx="84.000000" cy="114.000000" r="1"/>
<a xlink:href="smooth-0x7fa3c4497230.svg">
<rect x="232.900000" y="113.000000" width="64.500000" height="24.000000" rx="0" ry="0" style="stroke:none;fill:#cccccc;"/>
<rect x="231.900000" y="112.000000" width="64.500000" height="24.000000" rx="0" ry="0" style="stroke:none;fill:#003366;"/>
</a>
<a xlink:href="smooth-0x7fa3c4497230.svg">
<text x="264.150000" y="126.000000" font-family="Arial" font-size="7" text-anchor="middle" fill="#FFFFFF">smooth(0.9999f)</text>
</a>
<circle cx="233.900000" cy="114.000000" r="1"/>
<line x1="228.900000" y1="123.000000" x2="231.900000" y2="124.000000"  transform="rotate(0.000000,231.900000,124.000000)" style="stroke: black; stroke-width:0.25;"/>
<line x1="228.900000" y1="125.000000" x2="231.900000" y2="124.000000"  transform="rotate(0.000000,231.900000,124.000000)" style="stroke: black; stroke-width:0.25;"/>
<rect x="313.400000" y="109.000000" width="24.000000" height="24.000000" rx="0" ry="0" style="stroke:none;fill:#cccccc;"/>
<rect x="312.400000" y="108.000000" width="24.000000" height="24.000000" rx="0" ry="0" style="stroke:none;fill:#4B71A1;"/>
<text x="324.400000" y="122.000000" font-family="Arial" font-size="7" text-anchor="middle" fill="#FFFFFF">*</text>
<circle cx="314.400000" cy="110.000000" r="1"/>
<line x1="309.400000" y1="115.000000" x2="312.400000" y2="116.000000"  transform="rotate(0.000000,312.400000,116.000000)" style="stroke: black; stroke-width:0.25;"/>
<line x1="309.400000" y1="117.000000" x2="312.400000" y2="116.000000"  transform="rotate(0.000000,312.400000,116.000000)" style="stroke: black; stroke-width:0.25;"/>
<line x1="309.400000" y1="123.000000" x2="312.400000" y2="124.000000"  transform="rotate(0.000000,312.400000,124.000000)" style="stroke: black; stroke-width:0.25;"/>
<line x1="309.400000" y1="125.000000" x2="312.400000" y2="124.000000"  transform="rotate(0.000000,312.400000,124.000000)" style="stroke: black; stroke-width:0.25;"/>
<a xlink:href="scaler-0x7fa3c44948d0.svg">
<rect x="83.000000" y="153.000000" width="141.900000" height="24.000000" rx="0" ry="0" style="stroke:none;fill:#cccccc;"/>
<rect x="82.000000" y="152.000000" width="141.900000" height="24.000000" rx="0" ry="0" style="stroke:none;fill:#003366;"/>
</a>
<a xlink:href="scaler-0x7fa3c44948d0.svg">
<text x="152.950000" y="166.000000" font-family="Arial" font-size="7" text-anchor="middle" fill="#FFFFFF">scaler(3)(4)(...1.0f, 0.01f))(1)</text>
</a>
<circle cx="84.000000" cy="154.000000" r="1"/>
<a xlink:href="smooth-0x7fa3c4497230.svg">
<rect x="232.900000" y="153.000000" width="64.500000" height="24.000000" rx="0" ry="0" style="stroke:none;fill:#cccccc;"/>
<rect x="231.900000" y="152.000000" width="64.500000" height="24.000000" rx="0" ry="0" style="stroke:none;fill:#003366;"/>
</a>
<a xlink:href="smooth-0x7fa3c4497230.svg">
<text x="264.150000" y="166.000000" font-family="Arial" font-size="7" text-anchor="middle" fill="#FFFFFF">smooth(0.9999f)</text>
</a>
<circle cx="233.900000" cy="154.000000" r="1"/>
<line x1="228.900000" y1="163.000000" x2="231.900000" y2="164.000000"  transform="rotate(0.000000,231.900000,164.000000)" style="stroke: black; stroke-width:0.25;"/>
<line x1="228.900000" y1="165.000000" x2="231.900000" y2="164.000000"  transform="rotate(0.000000,231.900000,164.000000)" style="stroke: black; stroke-width:0.25;"/>
<rect x="313.400000" y="149.000000" width="24.000000" height="24.000000" rx="0" ry="0" style="stroke:none;fill:#cccccc;"/>
<rect x="312.400000" y="148.000000" width="24.000000" height="24.000000" rx="0" ry="0" style="stroke:none;fill:#4B71A1;"/>
<text x="324.400000" y="162.000000" font-family="Arial" font-size="7" text-anchor="middle" fill="#FFFFFF">*</text>
<circle cx="314.400000" cy="150.000000" r="1"/>
<line x1="309.400000" y1="155.000000" x2="312.400000" y2="156.000000"  transform="rotate(0.000000,312.400000,156.000000)" style="stroke: black; stroke-width:0.25;"/>
<line x1="309.400000" y1="157.000000" x2="312.400000" y2="156.000000"  transform="rotate(0.000000,312.400000,156.000000)" style="stroke: black; stroke-width:0.25;"/>
<line x1="309.400000" y1="163.000000" x2="312.400000" y2="164.000000"  transform="rotate(0.000000,312.400000,164.000000)" style="stroke: black; stroke-width:0.25;"/>
<line x1="309.400000" y1="165.000000" x2="312.400000" y2="164.000000"  transform="rotate(0.000000,312.400000,164.000000)" style="stroke: black; stroke-width:0.25;"/>
<line x1="15.000000" y1="15.000000" x2="15.000000" y2="185.000000"  style="stroke: black; stroke-linecap:round; stroke-width:0.25; stroke-dasharray:3,3;"/>
<line x1="15.000000" y1="185.000000" x2="369.400000" y2="185.000000"  style="stroke: black; stroke-linecap:round; stroke-width:0.25; stroke-dasharray:3,3;"/>
<line x1="369.400000" y1="185.000000" x2="369.400000" y2="15.000000"  style="stroke: black; stroke-linecap:round; stroke-width:0.25; stroke-dasharray:3,3;"/>
<line x1="15.000000" y1="15.000000" x2="20.000000" y2="15.000000"  style="stroke: black; stroke-linecap:round; stroke-width:0.25; stroke-dasharray:3,3;"/>
<line x1="129.650000" y1="15.000000" x2="369.400000" y2="15.000000"  style="stroke: black; stroke-linecap:round; stroke-width:0.25; stroke-dasharray:3,3;"/>
<text x="20.000000" y="17.000000" font-family="Arial" font-size="7">spat(4)(vslid...1.0f, 0.01f))(1)</text>
<line x1="371.400000" y1="87.000000" x2="374.400000" y2="88.000000"  transform="rotate(0.000000,374.400000,88.000000)" style="stroke: black; stroke-width:0.25;"/>
<line x1="371.400000" y1="89.000000" x2="374.400000" y2="88.000000"  transform="rotate(0.000000,374.400000,88.000000)" style="stroke: black; stroke-width:0.25;"/>
<line x1="371.400000" y1="95.000000" x2="374.400000" y2="96.000000"  transform="rotate(0.000000,374.400000,96.000000)" style="stroke: black; stroke-width:0.25;"/>
<line x1="371.400000" y1="97.000000" x2="374.400000" y2="96.000000"  transform="rotate(0.000000,374.400000,96.000000)" style="stroke: black; stroke-width:0.25;"/>
<line x1="371.400000" y1="103.000000" x2="374.400000" y2="104.000000"  transform="rotate(0.000000,374.400000,104.000000)" style="stroke: black; stroke-width:0.25;"/>
<line x1="371.400000" y1="105.000000" x2="374.400000" y2="104.000000"  transform="rotate(0.000000,374.400000,104.000000)" style="stroke: black; stroke-width:0.25;"/>
<line x1="371.400000" y1="111.000000" x2="374.400000" y2="112.000000"  transform="rotate(0.000000,374.400000,112.000000)" style="stroke: black; stroke-width:0.25;"/>
<line x1="371.400000" y1="113.000000" x2="374.400000" y2="112.000000"  transform="rotate(0.000000,374.400000,112.000000)" style="stroke: black; stroke-width:0.25;"/>
<line x1="10.000000" y1="100.000000" x2="20.000000" y2="100.000000"  style="stroke:black; stroke-linecap:round; stroke-width:0.25;"/>
<line x1="20.000000" y1="100.000000" x2="24.000000" y2="100.000000"  style="stroke:black; stroke-linecap:round; stroke-width:0.25;"/>
<line x1="24.000000" y1="100.000000" x2="28.000000" y2="100.000000"  style="stroke:black; stroke-linecap:round; stroke-width:0.25;"/>
<line x1="28.000000" y1="100.000000" x2="28.000000" y2="100.000000"  style="stroke:black; stroke-linecap:round; stroke-width:0.25;"/>
<line x1="28.000000" y1="100.000000" x2="32.000000" y2="100.000000"  style="stroke:black; stroke-linecap:round; stroke-width:0.25;"/>
<line x1="32.000000" y1="100.000000" x2="36.000000" y2="100.000000"  style="stroke:black; stroke-linecap:round; stroke-width:0.25;"/>
<line x1="36.000000" y1="100.000000" x2="78.000000" y2="24.000000"  style="stroke:black; stroke-linecap:round; stroke-width:0.25;"/>
<line x1="36.000000" y1="100.000000" x2="78.000000" y2="64.000000"  style="stroke:black; stroke-linecap:round; stroke-width:0.25;"/>
<line x1="36.000000" y1="100.000000" x2="78.000000" y2="104.000000"  style="stroke:black; stroke-linecap:round; stroke-width:0.25;"/>
<line x1="36.000000" y1="100.000000" x2="78.000000" y2="144.000000"  style="stroke:black; stroke-linecap:round; stroke-width:0.25;"/>
<line x1="78.000000" y1="24.000000" x2="189.200000" y2="24.000000"  style="stroke:black; stroke-linecap:round; stroke-width:0.25;"/>
<line x1="78.000000" y1="64.000000" x2="189.200000" y2="64.000000"  style="stroke:black; stroke-linecap:round; stroke-width:0.25;"/>
<line x1="78.000000" y1="104.000000" x2="189.200000" y2="104.000000"  style="stroke:black; stroke-linecap:round; stroke-width:0.25;"/>
<line x1="78.000000" y1="144.000000" x2="189.200000" y2="144.000000"  style="stroke:black; stroke-linecap:round; stroke-width:0.25;"/>
<line x1="189.200000" y1="24.000000" x2="300.400000" y2="24.000000"  style="stroke:black; stroke-linecap:round; stroke-width:0.25;"/>
<line x1="189.200000" y1="64.000000" x2="300.400000" y2="64.000000"  style="stroke:black; stroke-linecap:round; stroke-width:0.25;"/>
<line x1="189.200000" y1="104.000000" x2="300.400000" y2="104.000000"  style="stroke:black; stroke-linecap:round; stroke-width:0.25;"/>
<line x1="189.200000" y1="144.000000" x2="300.400000" y2="144.000000"  style="stroke:black; stroke-linecap:round; stroke-width:0.25;"/>
<line x1="223.900000" y1="44.000000" x2="227.900000" y2="44.000000"  style="stroke:black; stroke-linecap:round; stroke-width:0.25;"/>
<line x1="223.900000" y1="84.000000" x2="227.900000" y2="84.000000"  style="stroke:black; stroke-linecap:round; stroke-width:0.25;"/>
<line x1="223.900000" y1="124.000000" x2="227.900000" y2="124.000000"  style="stroke:black; stroke-linecap:round; stroke-width:0.25;"/>
<line x1="223.900000" y1="164.000000" x2="227.900000" y2="164.000000"  style="stroke:black; stroke-linecap:round; stroke-width:0.25;"/>
<line x1="227.900000" y1="44.000000" x2="227.900000" y2="44.000000"  style="stroke:black; stroke-linecap:round; stroke-width:0.25;"/>
<line x1="227.900000" y1="44.000000" x2="231.900000" y2="44.000000"  style="stroke:black; stroke-linecap:round; stroke-width:0.25;"/>
<line x1="227.900000" y1="84.000000" x2="227.900000" y2="84.000000"  style="stroke:black; stroke-linecap:round; stroke-width:0.25;"/>
<line x1="227.900000" y1="84.000000" x2="231.900000" y2="84.000000"  style="stroke:black; stroke-linecap:round; stroke-width:0.25;"/>
<line x1="227.900000" y1="124.000000" x2="227.900000" y2="124.000000"  style="stroke:black; stroke-linecap:round; stroke-width:0.25;"/>
<line x1="227.900000" y1="124.000000" x2="231.900000" y2="124.000000"  style="stroke:black; stroke-linecap:round; stroke-width:0.25;"/>
<line x1="227.900000" y1="164.000000" x2="227.900000" y2="164.000000"  style="stroke:black; stroke-linecap:round; stroke-width:0.25;"/>
<line x1="227.900000" y1="164.000000" x2="231.900000" y2="164.000000"  style="stroke:black; stroke-linecap:round; stroke-width:0.25;"/>
<line x1="296.400000" y1="44.000000" x2="300.400000" y2="44.000000"  style="stroke:black; stroke-linecap:round; stroke-width:0.25;"/>
<line x1="296.400000" y1="84.000000" x2="300.400000" y2="84.000000"  style="stroke:black; stroke-linecap:round; stroke-width:0.25;"/>
<line x1="296.400000" y1="124.000000" x2="300.400000" y2="124.000000"  style="stroke:black; stroke-linecap:round; stroke-width:0.25;"/>
<line x1="296.400000" y1="164.000000" x2="300.400000" y2="164.000000"  style="stroke:black; stroke-linecap:round; stroke-width:0.25;"/>
<line x1="300.400000" y1="24.000000" x2="308.400000" y2="24.000000"  style="stroke:black; stroke-linecap:round; stroke-width:0.25;"/>
<line x1="300.400000" y1="44.000000" x2="308.400000" y2="44.000000"  style="stroke:black; stroke-linecap:round; stroke-width:0.25;"/>
<line x1="300.400000" y1="64.000000" x2="308.400000" y2="64.000000"  style="stroke:black; stroke-linecap:round; stroke-width:0.25;"/>
<line x1="300.400000" y1="84.000000" x2="308.400000" y2="84.000000"  style="stroke:black; stroke-linecap:round; stroke-width:0.25;"/>
<line x1="300.400000" y1="104.000000" x2="308.400000" y2="104.000000"  style="stroke:black; stroke-linecap:round; stroke-width:0.25;"/>
<line x1="300.400000" y1="124.000000" x2="308.400000" y2="124.000000"  style="stroke:black; stroke-linecap:round; stroke-width:0.25;"/>
<line x1="300.400000" y1="144.000000" x2="308.400000" y2="144.000000"  style="stroke:black; stroke-linecap:round; stroke-width:0.25;"/>
<line x1="300.400000" y1="164.000000" x2="308.400000" y2="164.000000"  style="stroke:black; stroke-linecap:round; stroke-width:0.25;"/>
<line x1="308.400000" y1="24.000000" x2="308.400000" y2="36.000000"  style="stroke:black; stroke-linecap:round; stroke-width:0.25;"/>
<line x1="308.400000" y1="36.000000" x2="308.400000" y2="36.000000"  style="stroke:black; stroke-linecap:round; stroke-width:0.25;"/>
<line x1="308.400000" y1="36.000000" x2="312.400000" y2="36.000000"  style="stroke:black; stroke-linecap:round; stroke-width:0.25;"/>
<line x1="308.400000" y1="44.000000" x2="312.400000" y2="44.000000"  style="stroke:black; stroke-linecap:round; stroke-width:0.25;"/>
<line x1="308.400000" y1="64.000000" x2="308.400000" y2="76.000000"  style="stroke:black; stroke-linecap:round; stroke-width:0.25;"/>
<line x1="308.400000" y1="76.000000" x2="308.400000" y2="76.000000"  style="stroke:black; stroke-linecap:round; stroke-width:0.25;"/>
<line x1="308.400000" y1="76.000000" x2="312.400000" y2="76.000000"  style="stroke:black; stroke-linecap:round; stroke-width:0.25;"/>
<line x1="308.400000" y1="84.000000" x2="312.400000" y2="84.000000"  style="stroke:black; stroke-linecap:round; stroke-width:0.25;"/>
<line x1="308.400000" y1="104.000000" x2="308.400000" y2="116.000000"  style="stroke:black; stroke-linecap:round; stroke-width:0.25;"/>
<line x1="308.400000" y1="116.000000" x2="308.400000" y2="116.000000"  style="stroke:black; stroke-linecap:round; stroke-width:0.25;"/>
<line x1="308.400000" y1="116.000000" x2="312.400000" y2="116.000000"  style="stroke:black; stroke-linecap:round; stroke-width:0.25;"/>
<line x1="308.400000" y1="124.000000" x2="312.400000" y2="124.000000"  style="stroke:black; stroke-linecap:round; stroke-width:0.25;"/>
<line x1="308.400000" y1="144.000000" x2="308.400000" y2="156.000000"  style="stroke:black; stroke-linecap:round; stroke-width:0.25;"/>
<line x1="308.400000" y1="156.000000" x2="308.400000" y2="156.000000"  style="stroke:black; stroke-linecap:round; stroke-width:0.25;"/>
<line x1="308.400000" y1="156.000000" x2="312.400000" y2="156.000000"  style="stroke:black; stroke-linecap:round; stroke-width:0.25;"/>
<line x1="308.400000" y1="164.000000" x2="312.400000" y2="164.000000"  style="stroke:black; stroke-linecap:round; stroke-width:0.25;"/>
<line x1="336.400000" y1="40.000000" x2="340.400000" y2="40.000000"  style="stroke:black; stroke-linecap:round; stroke-width:0.25;"/>
<line x1="336.400000" y1="80.000000" x2="340.400000" y2="80.000000"  style="stroke:black; stroke-linecap:round; stroke-width:0.25;"/>
<line x1="336.400000" y1="120.000000" x2="340.400000" y2="120.000000"  style="stroke:black; stroke-linecap:round; stroke-width:0.25;"/>
<line x1="336.400000" y1="160.000000" x2="340.400000" y2="160.000000"  style="stroke:black; stroke-linecap:round; stroke-width:0.25;"/>
<line x1="340.400000" y1="40.000000" x2="356.400000" y2="40.000000"  style="stroke:black; stroke-linecap:round; stroke-width:0.25;"/>
<line x1="340.400000" y1="80.000000" x2="348.400000" y2="80.000000"  style="stroke:black; stroke-linecap:round; stroke-width:0.25;"/>
<line x1="340.400000" y1="104.000000" x2="356.400000" y2="104.000000"  style="stroke:black; stroke-linecap:round; stroke-width:0.25;"/>
<line x1="340.400000" y1="120.000000" x2="340.400000" y2="104.000000"  style="stroke:black; stroke-linecap:round; stroke-width:0.25;"/>
<line x1="340.400000" y1="120.000000" x2="340.400000" y2="120.000000"  style="stroke:black; stroke-linecap:round; stroke-width:0.25;"/>
<line x1="340.400000" y1="160.000000" x2="348.400000" y2="160.000000"  style="stroke:black; stroke-linecap:round; stroke-width:0.25;"/>
<line x1="348.400000" y1="80.000000" x2="348.400000" y2="96.000000"  style="stroke:black; stroke-linecap:round; stroke-width:0.25;"/>
<line x1="348.400000" y1="96.000000" x2="356.400000" y2="96.000000"  style="stroke:black; stroke-linecap:round; stroke-width:0.25;"/>
<line x1="348.400000" y1="112.000000" x2="356.400000" y2="112.000000"  style="stroke:black; stroke-linecap:round; stroke-width:0.25;"/>
<line x1="348.400000" y1="160.000000" x2="348.400000" y2="112.000000"  style="stroke:black; stroke-linecap:round; stroke-width:0.25;"/>
<line x1="356.400000" y1="40.000000" x2="356.400000" y2="88.000000"  style="stroke:black; stroke-linecap:round; stroke-width:0.25;"/>
<line x1="356.400000" y1="88.000000" x2="356.400000" y2="88.000000"  style="stroke:black; stroke-linecap:round; stroke-width:0.25;"/>
<line x1="356.400000" y1="88.000000" x2="360.400000" y2="88.000000"  style="stroke:black; stroke-linecap:round; stroke-width:0.25;"/>
<line x1="356.400000" y1="96.000000" x2="360.400000" y2="96.000000"  style="stroke:black; stroke-linecap:round; stroke-width:0.25;"/>
<line x1="356.400000" y1="104.000000" x2="360.400000" y2="104.000000"  style="stroke:black; stroke-linecap:round; stroke-width:0.25;"/>
<line x1="356.400000" y1="112.000000" x2="360.400000" y2="112.000000"  style="stroke:black; stroke-linecap:round; stroke-width:0.25;"/>
<line x1="360.400000" y1="88.000000" x2="364.400000" y2="88.000000"  style="stroke:black; stroke-linecap:round; stroke-width:0.25;"/>
<line x1="360.400000" y1="96.000000" x2="364.400000" y2="96.000000"  style="stroke:black; stroke-linecap:round; stroke-width:0.25;"/>
<line x1="360.400000" y1="104.000000" x2="364.400000" y2="104.000000"  style="stroke:black; stroke-linecap:round; stroke-width:0.25;"/>
<line x1="360.400000" y1="112.000000" x2="364.400000" y2="112.000000"  style="stroke:black; stroke-linecap:round; stroke-width:0.25;"/>
<line x1="364.400000" y1="88.000000" x2="374.400000" y2="88.000000"  style="stroke:black; stroke-linecap:round; stroke-width:0.25;"/>
<line x1="364.400000" y1="96.000000" x2="374.400000" y2="96.000000"  style="stroke:black; stroke-linecap:round; stroke-width:0.25;"/>
<line x1="364.400000" y1="104.000000" x2="374.400000" y2="104.000000"  style="stroke:black; stroke-linecap:round; stroke-width:0.25;"/>
<line x1="364.400000" y1="112.000000" x2="374.400000" y2="112.000000"  style="stroke:black; stroke-linecap:round; stroke-width:0.25;"/>
</svg>
