<?xml version="1.0"?>
<svg xmlns="http://www.w3.org/2000/svg" xmlns:xlink="http://www.w3.org/1999/xlink" viewBox="0 0 1901.000000 112.000000" width="950.500000mm" height="56.000000mm" version="1.1">
<a xlink:href="phasing-0x7fa3c6d7dbe0.svg">
<rect x="1.000000" y="1.000000" width="1900.000000" height="111.000000" rx="0" ry="0" style="stroke:none;fill:#cccccc;"/>
<rect x="0.000000" y="0.000000" width="1900.000000" height="111.000000" rx="0" ry="0" style="stroke:none;fill:#ffffff;"/>
</a>
<text x="10.000000" y="7.000000" font-family="Arial" font-size="7"></text>
<rect x="49.000000" y="65.000000" width="24.000000" height="24.000000" rx="0" ry="0" style="stroke:none;fill:#cccccc;"/>
<rect x="48.000000" y="64.000000" width="24.000000" height="24.000000" rx="0" ry="0" style="stroke:none;fill:#4B71A1;"/>
<text x="60.000000" y="78.000000" font-family="Arial" font-size="7" text-anchor="middle" fill="#FFFFFF">+</text>
<circle cx="50.000000" cy="66.000000" r="1"/>
<line x1="45.000000" y1="71.000000" x2="48.000000" y2="72.000000"  transform="rotate(0.000000,48.000000,72.000000)" style="stroke: black; stroke-width:0.25;"/>
<line x1="45.000000" y1="73.000000" x2="48.000000" y2="72.000000"  transform="rotate(0.000000,48.000000,72.000000)" style="stroke: black; stroke-width:0.25;"/>
<line x1="45.000000" y1="79.000000" x2="48.000000" y2="80.000000"  transform="rotate(0.000000,48.000000,80.000000)" style="stroke: black; stroke-width:0.25;"/>
<line x1="45.000000" y1="81.000000" x2="48.000000" y2="80.000000"  transform="rotate(0.000000,48.000000,80.000000)" style="stroke: black; stroke-width:0.25;"/>
<a xlink:href="ap2p-0x7fa3c6d76490.svg">
<rect x="81.000000" y="65.000000" width="129.000000" height="24.000000" rx="0" ry="0" style="stroke:none;fill:#cccccc;"/>
<rect x="80.000000" y="64.000000" width="129.000000" height="24.000000" rx="0" ry="0" style="stroke:none;fill:#003366;"/>
</a>
<a xlink:href="ap2p-0x7fa3c6d76490.svg">
<text x="144.500000" y="78.000000" font-family="Arial" font-size="7" text-anchor="middle" fill="#FFFFFF">ap2p(((0,(4,(... *) : +) : *)</text>
</a>
<circle cx="82.000000" cy="66.000000" r="1"/>
<line x1="77.000000" y1="75.000000" x2="80.000000" y2="76.000000"  transform="rotate(0.000000,80.000000,76.000000)" style="stroke: black; stroke-width:0.25;"/>
<line x1="77.000000" y1="77.000000" x2="80.000000" y2="76.000000"  transform="rotate(0.000000,80.000000,76.000000)" style="stroke: black; stroke-width:0.25;"/>
<a xlink:href="ap2p-0x7fa3c6d76d70.svg">
<rect x="218.000000" y="65.000000" width="129.000000" height="24.000000" rx="0" ry="0" style="stroke:none;fill:#cccccc;"/>
<rect x="217.000000" y="64.000000" width="129.000000" height="24.000000" rx="0" ry="0" style="stroke:none;fill:#003366;"/>
</a>
<a xlink:href="ap2p-0x7fa3c6d76d70.svg">
<text x="281.500000" y="78.000000" font-family="Arial" font-size="7" text-anchor="middle" fill="#FFFFFF">ap2p(((0,(4,(... *) : +) : *)</text>
</a>
<circle cx="219.000000" cy="66.000000" r="1"/>
<line x1="214.000000" y1="75.000000" x2="217.000000" y2="76.000000"  transform="rotate(0.000000,217.000000,76.000000)" style="stroke: black; stroke-width:0.25;"/>
<line x1="214.000000" y1="77.000000" x2="217.000000" y2="76.000000"  transform="rotate(0.000000,217.000000,76.000000)" style="stroke: black; stroke-width:0.25;"/>
<a xlink:href="ap2p-0x7fa3c6d77670.svg">
<rect x="355.000000" y="65.000000" width="129.000000" height="24.000000" rx="0" ry="0" style="stroke:none;fill:#cccccc;"/>
<rect x="354.000000" y="64.000000" width="129.000000" height="24.000000" rx="0" ry="0" style="stroke:none;fill:#003366;"/>
</a>
<a xlink:href="ap2p-0x7fa3c6d77670.svg">
<text x="418.500000" y="78.000000" font-family="Arial" font-size="7" text-anchor="middle" fill="#FFFFFF">ap2p(((0,(4,(... *) : +) : *)</text>
</a>
<circle cx="356.000000" cy="66.000000" r="1"/>
<line x1="351.000000" y1="75.000000" x2="354.000000" y2="76.000000"  transform="rotate(0.000000,354.000000,76.000000)" style="stroke: black; stroke-width:0.25;"/>
<line x1="351.000000" y1="77.000000" x2="354.000000" y2="76.000000"  transform="rotate(0.000000,354.000000,76.000000)" style="stroke: black; stroke-width:0.25;"/>
<a xlink:href="ap2p-0x7fa3c6d77f70.svg">
<rect x="492.000000" y="65.000000" width="129.000000" height="24.000000" rx="0" ry="0" style="stroke:none;fill:#cccccc;"/>
<rect x="491.000000" y="64.000000" width="129.000000" height="24.000000" rx="0" ry="0" style="stroke:none;fill:#003366;"/>
</a>
<a xlink:href="ap2p-0x7fa3c6d77f70.svg">
<text x="555.500000" y="78.000000" font-family="Arial" font-size="7" text-anchor="middle" fill="#FFFFFF">ap2p(((0,(4,(... *) : +) : *)</text>
</a>
<circle cx="493.000000" cy="66.000000" r="1"/>
<line x1="488.000000" y1="75.000000" x2="491.000000" y2="76.000000"  transform="rotate(0.000000,491.000000,76.000000)" style="stroke: black; stroke-width:0.25;"/>
<line x1="488.000000" y1="77.000000" x2="491.000000" y2="76.000000"  transform="rotate(0.000000,491.000000,76.000000)" style="stroke: black; stroke-width:0.25;"/>
<a xlink:href="ap2p-0x7fa3c6d78870.svg">
<rect x="629.000000" y="65.000000" width="129.000000" height="24.000000" rx="0" ry="0" style="stroke:none;fill:#cccccc;"/>
<rect x="628.000000" y="64.000000" width="129.000000" height="24.000000" rx="0" ry="0" style="stroke:none;fill:#003366;"/>
</a>
<a xlink:href="ap2p-0x7fa3c6d78870.svg">
<text x="692.500000" y="78.000000" font-family="Arial" font-size="7" text-anchor="middle" fill="#FFFFFF">ap2p(((0,(4,(... *) : +) : *)</text>
</a>
<circle cx="630.000000" cy="66.000000" r="1"/>
<line x1="625.000000" y1="75.000000" x2="628.000000" y2="76.000000"  transform="rotate(0.000000,628.000000,76.000000)" style="stroke: black; stroke-width:0.25;"/>
<line x1="625.000000" y1="77.000000" x2="628.000000" y2="76.000000"  transform="rotate(0.000000,628.000000,76.000000)" style="stroke: black; stroke-width:0.25;"/>
<a xlink:href="ap2p-0x7fa3c6d79170.svg">
<rect x="766.000000" y="65.000000" width="129.000000" height="24.000000" rx="0" ry="0" style="stroke:none;fill:#cccccc;"/>
<rect x="765.000000" y="64.000000" width="129.000000" height="24.000000" rx="0" ry="0" style="stroke:none;fill:#003366;"/>
</a>
<a xlink:href="ap2p-0x7fa3c6d79170.svg">
<text x="829.500000" y="78.000000" font-family="Arial" font-size="7" text-anchor="middle" fill="#FFFFFF">ap2p(((0,(4,(... *) : +) : *)</text>
</a>
<circle cx="767.000000" cy="66.000000" r="1"/>
<line x1="762.000000" y1="75.000000" x2="765.000000" y2="76.000000"  transform="rotate(0.000000,765.000000,76.000000)" style="stroke: black; stroke-width:0.25;"/>
<line x1="762.000000" y1="77.000000" x2="765.000000" y2="76.000000"  transform="rotate(0.000000,765.000000,76.000000)" style="stroke: black; stroke-width:0.25;"/>
<a xlink:href="ap2p-0x7fa3c6d79a70.svg">
<rect x="903.000000" y="65.000000" width="129.000000" height="24.000000" rx="0" ry="0" style="stroke:none;fill:#cccccc;"/>
<rect x="902.000000" y="64.000000" width="129.000000" height="24.000000" rx="0" ry="0" style="stroke:none;fill:#003366;"/>
</a>
<a xlink:href="ap2p-0x7fa3c6d79a70.svg">
<text x="966.500000" y="78.000000" font-family="Arial" font-size="7" text-anchor="middle" fill="#FFFFFF">ap2p(((0,(4,(... *) : +) : *)</text>
</a>
<circle cx="904.000000" cy="66.000000" r="1"/>
<line x1="899.000000" y1="75.000000" x2="902.000000" y2="76.000000"  transform="rotate(0.000000,902.000000,76.000000)" style="stroke: black; stroke-width:0.25;"/>
<line x1="899.000000" y1="77.000000" x2="902.000000" y2="76.000000"  transform="rotate(0.000000,902.000000,76.000000)" style="stroke: black; stroke-width:0.25;"/>
<a xlink:href="ap2p-0x7fa3c6d7a370.svg">
<rect x="1040.000000" y="65.000000" width="129.000000" height="24.000000" rx="0" ry="0" style="stroke:none;fill:#cccccc;"/>
<rect x="1039.000000" y="64.000000" width="129.000000" height="24.000000" rx="0" ry="0" style="stroke:none;fill:#003366;"/>
</a>
<a xlink:href="ap2p-0x7fa3c6d7a370.svg">
<text x="1103.500000" y="78.000000" font-family="Arial" font-size="7" text-anchor="middle" fill="#FFFFFF">ap2p(((0,(4,(... *) : +) : *)</text>
</a>
<circle cx="1041.000000" cy="66.000000" r="1"/>
<line x1="1036.000000" y1="75.000000" x2="1039.000000" y2="76.000000"  transform="rotate(0.000000,1039.000000,76.000000)" style="stroke: black; stroke-width:0.25;"/>
<line x1="1036.000000" y1="77.000000" x2="1039.000000" y2="76.000000"  transform="rotate(0.000000,1039.000000,76.000000)" style="stroke: black; stroke-width:0.25;"/>
<a xlink:href="ap2p-0x7fa3c6d7ac70.svg">
<rect x="1177.000000" y="65.000000" width="129.000000" height="24.000000" rx="0" ry="0" style="stroke:none;fill:#cccccc;"/>
<rect x="1176.000000" y="64.000000" width="129.000000" height="24.000000" rx="0" ry="0" style="stroke:none;fill:#003366;"/>
</a>
<a xlink:href="ap2p-0x7fa3c6d7ac70.svg">
<text x="1240.500000" y="78.000000" font-family="Arial" font-size="7" text-anchor="middle" fill="#FFFFFF">ap2p(((0,(4,(... *) : +) : *)</text>
</a>
<circle cx="1178.000000" cy="66.000000" r="1"/>
<line x1="1173.000000" y1="75.000000" x2="1176.000000" y2="76.000000"  transform="rotate(0.000000,1176.000000,76.000000)" style="stroke: black; stroke-width:0.25;"/>
<line x1="1173.000000" y1="77.000000" x2="1176.000000" y2="76.000000"  transform="rotate(0.000000,1176.000000,76.000000)" style="stroke: black; stroke-width:0.25;"/>
<a xlink:href="ap2p-0x7fa3c6d7b570.svg">
<rect x="1314.000000" y="65.000000" width="129.000000" height="24.000000" rx="0" ry="0" style="stroke:none;fill:#cccccc;"/>
<rect x="1313.000000" y="64.000000" width="129.000000" height="24.000000" rx="0" ry="0" style="stroke:none;fill:#003366;"/>
</a>
<a xlink:href="ap2p-0x7fa3c6d7b570.svg">
<text x="1377.500000" y="78.000000" font-family="Arial" font-size="7" text-anchor="middle" fill="#FFFFFF">ap2p(((0,(4,(... *) : +) : *)</text>
</a>
<circle cx="1315.000000" cy="66.000000" r="1"/>
<line x1="1310.000000" y1="75.000000" x2="1313.000000" y2="76.000000"  transform="rotate(0.000000,1313.000000,76.000000)" style="stroke: black; stroke-width:0.25;"/>
<line x1="1310.000000" y1="77.000000" x2="1313.000000" y2="76.000000"  transform="rotate(0.000000,1313.000000,76.000000)" style="stroke: black; stroke-width:0.25;"/>
<a xlink:href="ap2p-0x7fa3c6d7be70.svg">
<rect x="1451.000000" y="65.000000" width="129.000000" height="24.000000" rx="0" ry="0" style="stroke:none;fill:#cccccc;"/>
<rect x="1450.000000" y="64.000000" width="129.000000" height="24.000000" rx="0" ry="0" style="stroke:none;fill:#003366;"/>
</a>
<a xlink:href="ap2p-0x7fa3c6d7be70.svg">
<text x="1514.500000" y="78.000000" font-family="Arial" font-size="7" text-anchor="middle" fill="#FFFFFF">ap2p(((0,(4,(... *) : +) : *)</text>
</a>
<circle cx="1452.000000" cy="66.000000" r="1"/>
<line x1="1447.000000" y1="75.000000" x2="1450.000000" y2="76.000000"  transform="rotate(0.000000,1450.000000,76.000000)" style="stroke: black; stroke-width:0.25;"/>
<line x1="1447.000000" y1="77.000000" x2="1450.000000" y2="76.000000"  transform="rotate(0.000000,1450.000000,76.000000)" style="stroke: black; stroke-width:0.25;"/>
<a xlink:href="ap2p-0x7fa3c6d7c770.svg">
<rect x="1588.000000" y="65.000000" width="129.000000" height="24.000000" rx="0" ry="0" style="stroke:none;fill:#cccccc;"/>
<rect x="1587.000000" y="64.000000" width="129.000000" height="24.000000" rx="0" ry="0" style="stroke:none;fill:#003366;"/>
</a>
<a xlink:href="ap2p-0x7fa3c6d7c770.svg">
<text x="1651.500000" y="78.000000" font-family="Arial" font-size="7" text-anchor="middle" fill="#FFFFFF">ap2p(((0,(4,(... *) : +) : *)</text>
</a>
<circle cx="1589.000000" cy="66.000000" r="1"/>
<line x1="1584.000000" y1="75.000000" x2="1587.000000" y2="76.000000"  transform="rotate(0.000000,1587.000000,76.000000)" style="stroke: black; stroke-width:0.25;"/>
<line x1="1584.000000" y1="77.000000" x2="1587.000000" y2="76.000000"  transform="rotate(0.000000,1587.000000,76.000000)" style="stroke: black; stroke-width:0.25;"/>
<a xlink:href="ap2p-0x7fa3c6d7d060.svg">
<rect x="1725.000000" y="65.000000" width="129.000000" height="24.000000" rx="0" ry="0" style="stroke:none;fill:#cccccc;"/>
<rect x="1724.000000" y="64.000000" width="129.000000" height="24.000000" rx="0" ry="0" style="stroke:none;fill:#003366;"/>
</a>
<a xlink:href="ap2p-0x7fa3c6d7d060.svg">
<text x="1788.500000" y="78.000000" font-family="Arial" font-size="7" text-anchor="middle" fill="#FFFFFF">ap2p(((0,(4,(... *) : +) : *)</text>
</a>
<circle cx="1726.000000" cy="66.000000" r="1"/>
<line x1="1721.000000" y1="75.000000" x2="1724.000000" y2="76.000000"  transform="rotate(0.000000,1724.000000,76.000000)" style="stroke: black; stroke-width:0.25;"/>
<line x1="1721.000000" y1="77.000000" x2="1724.000000" y2="76.000000"  transform="rotate(0.000000,1724.000000,76.000000)" style="stroke: black; stroke-width:0.25;"/>
<rect x="959.500000" y="25.000000" width="24.000000" height="24.000000" rx="0" ry="0" style="stroke:none;fill:#cccccc;"/>
<rect x="958.500000" y="24.000000" width="24.000000" height="24.000000" rx="0" ry="0" style="stroke:none;fill:#f44800;"/>
<text x="970.500000" y="38.000000" font-family="Arial" font-size="7" text-anchor="middle" fill="#FFFFFF">0</text>
<circle cx="980.500000" cy="46.000000" r="1"/>
<rect x="919.500000" y="29.000000" width="24.000000" height="24.000000" rx="0" ry="0" style="stroke:none;fill:#cccccc;"/>
<rect x="918.500000" y="28.000000" width="24.000000" height="24.000000" rx="0" ry="0" style="stroke:none;fill:#4B71A1;"/>
<text x="930.500000" y="42.000000" font-family="Arial" font-size="7" text-anchor="middle" fill="#FFFFFF">*</text>
<circle cx="940.500000" cy="50.000000" r="1"/>
<line x1="945.500000" y1="43.000000" x2="942.500000" y2="44.000000"  transform="rotate(0.000000,942.500000,44.000000)" style="stroke: black; stroke-width:0.25;"/>
<line x1="945.500000" y1="45.000000" x2="942.500000" y2="44.000000"  transform="rotate(0.000000,942.500000,44.000000)" style="stroke: black; stroke-width:0.25;"/>
<line x1="945.500000" y1="35.000000" x2="942.500000" y2="36.000000"  transform="rotate(0.000000,942.500000,36.000000)" style="stroke: black; stroke-width:0.25;"/>
<line x1="945.500000" y1="37.000000" x2="942.500000" y2="36.000000"  transform="rotate(0.000000,942.500000,36.000000)" style="stroke: black; stroke-width:0.25;"/>
<line x1="1855.000000" y1="76.000000" x2="1855.000000" y2="72.000000"  style="stroke:black; stroke-linecap:round; stroke-width:0.25;"/>
<line x1="1855.000000" y1="72.000000" x2="1859.000000" y2="72.000000"  style="stroke:black; stroke-linecap:round; stroke-width:0.25;"/>
<line x1="1859.000000" y1="72.000000" x2="1859.000000" y2="76.000000"  style="stroke:black; stroke-linecap:round; stroke-width:0.25;"/>
<line x1="15.000000" y1="15.000000" x2="15.000000" y2="97.000000"  style="stroke: black; stroke-linecap:round; stroke-width:0.25; stroke-dasharray:3,3;"/>
<line x1="15.000000" y1="97.000000" x2="1886.000000" y2="97.000000"  style="stroke: black; stroke-linecap:round; stroke-width:0.25; stroke-dasharray:3,3;"/>
<line x1="1886.000000" y1="97.000000" x2="1886.000000" y2="15.000000"  style="stroke: black; stroke-linecap:round; stroke-width:0.25; stroke-dasharray:3,3;"/>
<line x1="15.000000" y1="15.000000" x2="20.000000" y2="15.000000"  style="stroke: black; stroke-linecap:round; stroke-width:0.25; stroke-dasharray:3,3;"/>
<line x1="149.000000" y1="15.000000" x2="1886.000000" y2="15.000000"  style="stroke: black; stroke-linecap:round; stroke-width:0.25; stroke-dasharray:3,3;"/>
<text x="20.000000" y="17.000000" font-family="Arial" font-size="7">vibrato2_mono...500)(1000)(2)(1500)(1)</text>
<line x1="1888.000000" y1="55.000000" x2="1891.000000" y2="56.000000"  transform="rotate(0.000000,1891.000000,56.000000)" style="stroke: black; stroke-width:0.25;"/>
<line x1="1888.000000" y1="57.000000" x2="1891.000000" y2="56.000000"  transform="rotate(0.000000,1891.000000,56.000000)" style="stroke: black; stroke-width:0.25;"/>
<line x1="10.000000" y1="56.000000" x2="20.000000" y2="56.000000"  style="stroke:black; stroke-linecap:round; stroke-width:0.25;"/>
<line x1="20.000000" y1="56.000000" x2="24.000000" y2="56.000000"  style="stroke:black; stroke-linecap:round; stroke-width:0.25;"/>
<line x1="24.000000" y1="56.000000" x2="28.000000" y2="56.000000"  style="stroke:black; stroke-linecap:round; stroke-width:0.25;"/>
<line x1="28.000000" y1="56.000000" x2="36.000000" y2="56.000000"  style="stroke:black; stroke-linecap:round; stroke-width:0.25;"/>
<line x1="36.000000" y1="56.000000" x2="36.000000" y2="80.000000"  style="stroke:black; stroke-linecap:round; stroke-width:0.25;"/>
<line x1="36.000000" y1="80.000000" x2="36.000000" y2="80.000000"  style="stroke:black; stroke-linecap:round; stroke-width:0.25;"/>
<line x1="36.000000" y1="80.000000" x2="44.000000" y2="80.000000"  style="stroke:black; stroke-linecap:round; stroke-width:0.25;"/>
<line x1="44.000000" y1="40.000000" x2="44.000000" y2="40.000000"  style="stroke:black; stroke-linecap:round; stroke-width:0.25;"/>
<line x1="44.000000" y1="40.000000" x2="44.000000" y2="72.000000"  style="stroke:black; stroke-linecap:round; stroke-width:0.25;"/>
<line x1="44.000000" y1="72.000000" x2="44.000000" y2="72.000000"  style="stroke:black; stroke-linecap:round; stroke-width:0.25;"/>
<line x1="44.000000" y1="72.000000" x2="48.000000" y2="72.000000"  style="stroke:black; stroke-linecap:round; stroke-width:0.25;"/>
<line x1="44.000000" y1="80.000000" x2="48.000000" y2="80.000000"  style="stroke:black; stroke-linecap:round; stroke-width:0.25;"/>
<line x1="72.000000" y1="76.000000" x2="76.000000" y2="76.000000"  style="stroke:black; stroke-linecap:round; stroke-width:0.25;"/>
<line x1="76.000000" y1="76.000000" x2="76.000000" y2="76.000000"  style="stroke:black; stroke-linecap:round; stroke-width:0.25;"/>
<line x1="76.000000" y1="76.000000" x2="80.000000" y2="76.000000"  style="stroke:black; stroke-linecap:round; stroke-width:0.25;"/>
<line x1="209.000000" y1="76.000000" x2="213.000000" y2="76.000000"  style="stroke:black; stroke-linecap:round; stroke-width:0.25;"/>
<line x1="213.000000" y1="76.000000" x2="213.000000" y2="76.000000"  style="stroke:black; stroke-linecap:round; stroke-width:0.25;"/>
<line x1="213.000000" y1="76.000000" x2="217.000000" y2="76.000000"  style="stroke:black; stroke-linecap:round; stroke-width:0.25;"/>
<line x1="346.000000" y1="76.000000" x2="350.000000" y2="76.000000"  style="stroke:black; stroke-linecap:round; stroke-width:0.25;"/>
<line x1="350.000000" y1="76.000000" x2="350.000000" y2="76.000000"  style="stroke:black; stroke-linecap:round; stroke-width:0.25;"/>
<line x1="350.000000" y1="76.000000" x2="354.000000" y2="76.000000"  style="stroke:black; stroke-linecap:round; stroke-width:0.25;"/>
<line x1="483.000000" y1="76.000000" x2="487.000000" y2="76.000000"  style="stroke:black; stroke-linecap:round; stroke-width:0.25;"/>
<line x1="487.000000" y1="76.000000" x2="487.000000" y2="76.000000"  style="stroke:black; stroke-linecap:round; stroke-width:0.25;"/>
<line x1="487.000000" y1="76.000000" x2="491.000000" y2="76.000000"  style="stroke:black; stroke-linecap:round; stroke-width:0.25;"/>
<line x1="620.000000" y1="76.000000" x2="624.000000" y2="76.000000"  style="stroke:black; stroke-linecap:round; stroke-width:0.25;"/>
<line x1="624.000000" y1="76.000000" x2="624.000000" y2="76.000000"  style="stroke:black; stroke-linecap:round; stroke-width:0.25;"/>
<line x1="624.000000" y1="76.000000" x2="628.000000" y2="76.000000"  style="stroke:black; stroke-linecap:round; stroke-width:0.25;"/>
<line x1="757.000000" y1="76.000000" x2="761.000000" y2="76.000000"  style="stroke:black; stroke-linecap:round; stroke-width:0.25;"/>
<line x1="761.000000" y1="76.000000" x2="761.000000" y2="76.000000"  style="stroke:black; stroke-linecap:round; stroke-width:0.25;"/>
<line x1="761.000000" y1="76.000000" x2="765.000000" y2="76.000000"  style="stroke:black; stroke-linecap:round; stroke-width:0.25;"/>
<line x1="894.000000" y1="76.000000" x2="898.000000" y2="76.000000"  style="stroke:black; stroke-linecap:round; stroke-width:0.25;"/>
<line x1="898.000000" y1="76.000000" x2="898.000000" y2="76.000000"  style="stroke:black; stroke-linecap:round; stroke-width:0.25;"/>
<line x1="898.000000" y1="76.000000" x2="902.000000" y2="76.000000"  style="stroke:black; stroke-linecap:round; stroke-width:0.25;"/>
<line x1="914.500000" y1="40.000000" x2="44.000000" y2="40.000000"  style="stroke:black; stroke-linecap:round; stroke-width:0.25;"/>
<line x1="918.500000" y1="40.000000" x2="914.500000" y2="40.000000"  style="stroke:black; stroke-linecap:round; stroke-width:0.25;"/>
<line x1="946.500000" y1="36.000000" x2="942.500000" y2="36.000000"  style="stroke:black; stroke-linecap:round; stroke-width:0.25;"/>
<line x1="946.500000" y1="44.000000" x2="942.500000" y2="44.000000"  style="stroke:black; stroke-linecap:round; stroke-width:0.25;"/>
<line x1="946.500000" y1="44.000000" x2="946.500000" y2="44.000000"  style="stroke:black; stroke-linecap:round; stroke-width:0.25;"/>
<line x1="946.500000" y1="56.000000" x2="946.500000" y2="44.000000"  style="stroke:black; stroke-linecap:round; stroke-width:0.25;"/>
<line x1="954.500000" y1="36.000000" x2="946.500000" y2="36.000000"  style="stroke:black; stroke-linecap:round; stroke-width:0.25;"/>
<line x1="954.500000" y1="56.000000" x2="946.500000" y2="56.000000"  style="stroke:black; stroke-linecap:round; stroke-width:0.25;"/>
<line x1="958.500000" y1="36.000000" x2="954.500000" y2="36.000000"  style="stroke:black; stroke-linecap:round; stroke-width:0.25;"/>
<line x1="970.500000" y1="56.000000" x2="954.500000" y2="56.000000"  style="stroke:black; stroke-linecap:round; stroke-width:0.25;"/>
<line x1="986.500000" y1="56.000000" x2="970.500000" y2="56.000000"  style="stroke:black; stroke-linecap:round; stroke-width:0.25;"/>
<line x1="1031.000000" y1="76.000000" x2="1035.000000" y2="76.000000"  style="stroke:black; stroke-linecap:round; stroke-width:0.25;"/>
<line x1="1035.000000" y1="76.000000" x2="1035.000000" y2="76.000000"  style="stroke:black; stroke-linecap:round; stroke-width:0.25;"/>
<line x1="1035.000000" y1="76.000000" x2="1039.000000" y2="76.000000"  style="stroke:black; stroke-linecap:round; stroke-width:0.25;"/>
<line x1="1168.000000" y1="76.000000" x2="1172.000000" y2="76.000000"  style="stroke:black; stroke-linecap:round; stroke-width:0.25;"/>
<line x1="1172.000000" y1="76.000000" x2="1172.000000" y2="76.000000"  style="stroke:black; stroke-linecap:round; stroke-width:0.25;"/>
<line x1="1172.000000" y1="76.000000" x2="1176.000000" y2="76.000000"  style="stroke:black; stroke-linecap:round; stroke-width:0.25;"/>
<line x1="1305.000000" y1="76.000000" x2="1309.000000" y2="76.000000"  style="stroke:black; stroke-linecap:round; stroke-width:0.25;"/>
<line x1="1309.000000" y1="76.000000" x2="1309.000000" y2="76.000000"  style="stroke:black; stroke-linecap:round; stroke-width:0.25;"/>
<line x1="1309.000000" y1="76.000000" x2="1313.000000" y2="76.000000"  style="stroke:black; stroke-linecap:round; stroke-width:0.25;"/>
<line x1="1442.000000" y1="76.000000" x2="1446.000000" y2="76.000000"  style="stroke:black; stroke-linecap:round; stroke-width:0.25;"/>
<line x1="1446.000000" y1="76.000000" x2="1446.000000" y2="76.000000"  style="stroke:black; stroke-linecap:round; stroke-width:0.25;"/>
<line x1="1446.000000" y1="76.000000" x2="1450.000000" y2="76.000000"  style="stroke:black; stroke-linecap:round; stroke-width:0.25;"/>
<line x1="1579.000000" y1="76.000000" x2="1583.000000" y2="76.000000"  style="stroke:black; stroke-linecap:round; stroke-width:0.25;"/>
<line x1="1583.000000" y1="76.000000" x2="1583.000000" y2="76.000000"  style="stroke:black; stroke-linecap:round; stroke-width:0.25;"/>
<line x1="1583.000000" y1="76.000000" x2="1587.000000" y2="76.000000"  style="stroke:black; stroke-linecap:round; stroke-width:0.25;"/>
<line x1="1716.000000" y1="76.000000" x2="1720.000000" y2="76.000000"  style="stroke:black; stroke-linecap:round; stroke-width:0.25;"/>
<line x1="1720.000000" y1="76.000000" x2="1720.000000" y2="76.000000"  style="stroke:black; stroke-linecap:round; stroke-width:0.25;"/>
<line x1="1720.000000" y1="76.000000" x2="1724.000000" y2="76.000000"  style="stroke:black; stroke-linecap:round; stroke-width:0.25;"/>
<line x1="1853.000000" y1="76.000000" x2="1857.000000" y2="76.000000"  style="stroke:black; stroke-linecap:round; stroke-width:0.25;"/>
<line x1="1857.000000" y1="56.000000" x2="986.500000" y2="56.000000"  style="stroke:black; stroke-linecap:round; stroke-width:0.25;"/>
<line x1="1857.000000" y1="56.000000" x2="1857.000000" y2="56.000000"  style="stroke:black; stroke-linecap:round; stroke-width:0.25;"/>
<line x1="1857.000000" y1="72.000000" x2="1857.000000" y2="56.000000"  style="stroke:black; stroke-linecap:round; stroke-width:0.25;"/>
<line x1="1857.000000" y1="76.000000" x2="1859.000000" y2="76.000000"  style="stroke:black; stroke-linecap:round; stroke-width:0.25;"/>
<line x1="1859.000000" y1="76.000000" x2="1865.000000" y2="76.000000"  style="stroke:black; stroke-linecap:round; stroke-width:0.25;"/>
<line x1="1865.000000" y1="56.000000" x2="1873.000000" y2="56.000000"  style="stroke:black; stroke-linecap:round; stroke-width:0.25;"/>
<line x1="1865.000000" y1="76.000000" x2="1865.000000" y2="56.000000"  style="stroke:black; stroke-linecap:round; stroke-width:0.25;"/>
<line x1="1865.000000" y1="76.000000" x2="1865.000000" y2="76.000000"  style="stroke:black; stroke-linecap:round; stroke-width:0.25;"/>
<line x1="1873.000000" y1="56.000000" x2="1877.000000" y2="56.000000"  style="stroke:black; stroke-linecap:round; stroke-width:0.25;"/>
<line x1="1877.000000" y1="56.000000" x2="1881.000000" y2="56.000000"  style="stroke:black; stroke-linecap:round; stroke-width:0.25;"/>
<line x1="1881.000000" y1="56.000000" x2="1891.000000" y2="56.000000"  style="stroke:black; stroke-linecap:round; stroke-width:0.25;"/>
</svg>
